<?xml version="1.0" encoding="UTF-8"?>
<svg version="1.1" xmlns="http://www.w3.org/2000/svg" width="500" height="500">
<path d="M0 0 C1.16594193 -0.00315216 2.33188385 -0.00630432 3.53315735 -0.009552 C4.78316025 -0.00752777 6.03316315 -0.00550354 7.32104492 -0.00341797 C8.62619553 -0.00437469 9.93134613 -0.00533142 11.27604675 -0.00631714 C14.04065129 -0.0077888 16.80522346 -0.00566046 19.56982422 -0.00097656 C23.06160601 0.00465956 26.5533107 0.00137164 30.04508972 -0.0043993 C72.19850807 -0.06427587 72.19850807 -0.06427587 82.98901367 7.12939453 C82.98901367 7.78939453 82.98901367 8.44939453 82.98901367 9.12939453 C83.64901367 9.12939453 84.30901367 9.12939453 84.98901367 9.12939453 C93.64999316 18.56764141 92.31280168 33.14462096 92.32495117 45.07861328 C92.33139745 46.58690002 92.33812708 48.09518556 92.34512329 49.60346985 C92.35700568 52.74243063 92.36081297 55.88128204 92.35961914 59.02026367 C92.35941515 63.02130263 92.38683949 67.02163775 92.42116356 71.02250957 C92.44349538 74.12910633 92.44745496 77.23553437 92.44639969 80.34220314 C92.44874148 81.81685652 92.45748382 83.29151556 92.47306442 84.76608849 C92.58531226 96.47293847 90.95429659 104.6645891 82.86010742 113.40283203 C76.00792725 119.72572062 68.74907514 120.57547566 59.73510742 120.41455078 C54.96356352 120.05133628 51.82638509 118.90818073 47.98901367 116.12939453 C46.99901367 115.42814453 46.00901367 114.72689453 44.98901367 114.00439453 C44.32901367 113.38564453 43.66901367 112.76689453 42.98901367 112.12939453 C42.98901367 111.46939453 42.98901367 110.80939453 42.98901367 110.12939453 C42.32901367 110.12939453 41.66901367 110.12939453 40.98901367 110.12939453 C37.92099269 104.50468939 36.0983972 99.43536405 34.98901367 93.12939453 C33.00901367 94.11939453 33.00901367 94.11939453 30.98901367 95.12939453 C30.98901367 95.78939453 30.98901367 96.44939453 30.98901367 97.12939453 C30.32901367 97.12939453 29.66901367 97.12939453 28.98901367 97.12939453 C28.98901367 97.78939453 28.98901367 98.44939453 28.98901367 99.12939453 C28.32901367 99.12939453 27.66901367 99.12939453 26.98901367 99.12939453 C26.98901367 99.78939453 26.98901367 100.44939453 26.98901367 101.12939453 C26.32901367 101.12939453 25.66901367 101.12939453 24.98901367 101.12939453 C24.98901367 101.78939453 24.98901367 102.44939453 24.98901367 103.12939453 C23.66088867 104.43408203 23.66088867 104.43408203 21.73901367 106.00439453 C17.95870384 109.20827414 14.46228797 112.60248316 10.98901367 116.12939453 C6.96687717 120.20337247 2.88219623 124.11872072 -1.48754883 127.82470703 C-2.71056934 128.87211434 -3.87238164 129.99078985 -5.01098633 131.12939453 C-4.32133789 131.44650391 -3.63168945 131.76361328 -2.92114258 132.09033203 C7.38905194 137.21007197 14.5166328 143.99377749 18.33276367 155.00048828 C18.54932617 155.70302734 18.76588867 156.40556641 18.98901367 157.12939453 C19.31901367 158.11939453 19.64901367 159.10939453 19.98901367 160.12939453 C20.89897458 172.30198636 19.53532791 182.6487613 11.61791992 192.35205078 C6.00433548 198.47718489 -0.11982655 202.49900794 -8.01098633 205.12939453 C-10.73664733 205.23175618 -13.43701413 205.27720182 -16.16297913 205.27656555 C-17.00378208 205.28024224 -17.84458504 205.28391893 -18.71086687 205.28770703 C-21.53885878 205.29875296 -24.36681395 205.30258929 -27.19482422 205.30639648 C-29.21842567 205.31266056 -31.24202597 205.31930731 -33.265625 205.3263092 C-39.92162269 205.34736246 -46.57762065 205.35771424 -53.23364258 205.36767578 C-55.52506459 205.37172317 -57.81648648 205.37584008 -60.10790825 205.38002586 C-70.87526925 205.399082 -81.64262338 205.41331094 -92.409998 205.42163783 C-104.83560978 205.43140577 -117.26104321 205.45771205 -129.68659216 205.49813873 C-139.29182653 205.52831578 -148.89700982 205.54310831 -158.50229067 205.54641885 C-164.23821606 205.54876794 -169.97395101 205.55771002 -175.70982552 205.58288002 C-181.10987332 205.6061927 -186.50960574 205.61038097 -191.90969086 205.60011864 C-193.8873366 205.59962391 -195.86499804 205.60592561 -197.84259605 205.61967468 C-212.12017211 205.71335073 -221.98814605 204.85052171 -232.74536133 194.56689453 C-240.29185854 186.44790443 -243.40548179 178.83941304 -243.38598633 167.81689453 C-243.3858252 166.9718335 -243.38566406 166.12677246 -243.38549805 165.25610352 C-243.27240669 159.09976734 -242.34009793 154.39036287 -239.01098633 149.12939453 C-238.33406897 147.80123599 -237.66466571 146.46914282 -237.01098633 145.12939453 C-236.35098633 145.12939453 -235.69098633 145.12939453 -235.01098633 145.12939453 C-234.74286133 144.53126953 -234.47473633 143.93314453 -234.19848633 143.31689453 C-229.88102496 135.36367622 -221.06630172 132.81449966 -213.01098633 130.12939453 C-210.07426125 130.03774797 -207.16169187 130.00344055 -204.22509766 130.01586914 C-202.8784478 130.0156501 -202.8784478 130.0156501 -201.5045929 130.01542664 C-198.5340433 130.01612389 -195.56355623 130.02390756 -192.59301758 130.03173828 C-190.53464289 130.03360313 -188.47626775 130.03502672 -186.41789246 130.036026 C-180.99767839 130.03984594 -175.57749108 130.0496718 -170.1572876 130.06072998 C-164.6274044 130.07095532 -159.09751688 130.07552603 -153.56762695 130.08056641 C-142.71540165 130.09129451 -131.86319621 130.10836469 -121.01098633 130.12939453 C-121.01098633 126.16939453 -121.01098633 122.20939453 -121.01098633 118.12939453 C-122.12883514 118.13383575 -123.24668396 118.13827698 -124.39840698 118.14285278 C-134.96147131 118.1834933 -145.52451965 118.21342417 -156.08764458 118.23301888 C-161.51752877 118.24343152 -166.94734956 118.25754456 -172.37719727 118.28027344 C-177.62268823 118.30209183 -182.86811842 118.31398209 -188.11365128 118.31914902 C-190.10939617 118.32282866 -192.10513794 118.3300139 -194.10085678 118.34085464 C-196.90804847 118.35548925 -199.71499277 118.3573675 -202.5222168 118.35644531 C-203.33718124 118.36363586 -204.15214569 118.37082642 -204.99180603 118.37823486 C-213.22008479 118.34921095 -221.04354175 117.39260618 -228.01098633 112.75439453 C-228.91848633 112.16916016 -229.82598633 111.58392578 -230.76098633 110.98095703 C-233.0124422 109.12819647 -233.96909275 107.81700638 -235.01098633 105.12939453 C-235.67098633 105.12939453 -236.33098633 105.12939453 -237.01098633 105.12939453 C-242.73671881 98.48015681 -244.4138721 89.60295064 -243.94848633 81.00439453 C-243.28414005 75.28195729 -241.47531319 70.31021194 -239.01098633 65.12939453 C-238.35098633 65.12939453 -237.69098633 65.12939453 -237.01098633 65.12939453 C-236.62233398 64.24767578 -236.62233398 64.24767578 -236.22583008 63.34814453 C-232.65205778 56.82112632 -226.17980202 53.27338956 -219.3631382 50.93128967 C-212.57117018 49.30652851 -205.64303641 49.57493354 -198.70117188 49.61181641 C-196.97531038 49.60638695 -195.24945353 49.59925969 -193.52360535 49.59057617 C-188.86686049 49.57244458 -184.21047271 49.57936622 -179.55372214 49.59209251 C-174.66917234 49.60226499 -169.78465179 49.59281584 -164.90010071 49.58654785 C-156.70515484 49.57928722 -148.51035357 49.58882106 -140.31542969 49.60791016 C-130.84658949 49.6297122 -121.37809339 49.62259701 -111.90926141 49.60060453 C-103.76545891 49.58244864 -95.62175991 49.57989205 -87.47794372 49.59035921 C-82.61978213 49.59658842 -77.76178234 49.59744476 -72.90363121 49.58421326 C-68.34060991 49.57265134 -63.77803265 49.5806866 -59.21505928 49.60379028 C-57.54213066 49.60907399 -55.86916458 49.60756935 -54.19625092 49.59873962 C-51.91037588 49.58778753 -49.62591866 49.60154124 -47.34013367 49.62145996 C-45.42303353 49.62372211 -45.42303353 49.62372211 -43.46720409 49.62602997 C-39.3850976 50.22054915 -37.20319413 51.5637251 -34.01098633 54.12939453 C-32.78709713 56.57717292 -32.99462233 57.86329994 -33.26098633 60.56689453 C-33.32801758 61.34935547 -33.39504883 62.13181641 -33.46411133 62.93798828 C-34.11529023 65.54735515 -34.9060472 66.49054907 -37.01098633 68.12939453 C-40.28986382 69.22235369 -42.68366206 69.24980835 -46.13476562 69.24291992 C-47.39584641 69.24284439 -48.65692719 69.24276886 -49.95622253 69.24269104 C-51.33255045 69.23758442 -52.70887796 69.23236842 -54.08520508 69.22705078 C-55.49339243 69.22518539 -56.90158044 69.22376206 -58.30976868 69.22276306 C-62.01365963 69.21894741 -65.71751128 69.20912525 -69.42138672 69.19805908 C-73.20189889 69.1878245 -76.98241742 69.18326105 -80.76293945 69.17822266 C-88.17897298 69.16750213 -95.59497415 69.15043713 -103.01098633 69.12939453 C-102.94033966 69.74799347 -102.86969299 70.36659241 -102.79690552 71.00393677 C-102.65948441 72.22063553 -102.65948441 72.22063553 -102.51928711 73.46191406 C-102.42801544 74.266138 -102.33674377 75.07036194 -102.2427063 75.8989563 C-101.61563829 81.93484716 -101.94599401 87.92161821 -102.51879883 93.94970703 C-102.6104834 94.92439941 -102.70216797 95.8990918 -102.79663086 96.90332031 C-102.86736816 97.6379248 -102.93810547 98.3725293 -103.01098633 99.12939453 C-95.32411544 99.13850493 -87.6384652 99.10104728 -79.9519043 99.03173828 C-77.33900074 99.01360885 -74.72600151 99.00600418 -72.11303711 99.00927734 C-68.34910505 99.01214292 -64.5871447 98.97673407 -60.82348633 98.93408203 C-59.66171875 98.94317596 -58.49995117 98.9522699 -57.30297852 98.9616394 C-49.71548847 98.82673372 -45.45166838 97.45916117 -40.01098633 92.12939453 C-39.29765137 91.4805127 -38.58431641 90.83163086 -37.84936523 90.16308594 C-37.31746582 89.6079834 -36.78556641 89.05288086 -36.23754883 88.48095703 C-35.34229492 87.5625 -35.34229492 87.5625 -34.42895508 86.62548828 C-33.54143555 85.69929688 -33.54143555 85.69929688 -32.63598633 84.75439453 C-31.4244907 83.49210244 -30.20856866 82.23403865 -28.98754883 80.98095703 C-28.46241699 80.43262207 -27.93728516 79.88428711 -27.39624023 79.31933594 C-26.01098633 78.12939453 -26.01098633 78.12939453 -24.01098633 78.12939453 C-24.01098633 77.46939453 -24.01098633 76.80939453 -24.01098633 76.12939453 C-23.35098633 76.12939453 -22.69098633 76.12939453 -22.01098633 76.12939453 C-22.01098633 75.46939453 -22.01098633 74.80939453 -22.01098633 74.12939453 C-21.35098633 74.12939453 -20.69098633 74.12939453 -20.01098633 74.12939453 C-19.80602539 73.58541016 -19.60106445 73.04142578 -19.38989258 72.48095703 C-17.4746005 69.21465157 -14.76705864 66.97023323 -11.94848633 64.50439453 C-7.96778379 61.23748327 -7.96778379 61.23748327 -5.01098633 57.12939453 C-6.17114258 56.80068359 -6.17114258 56.80068359 -7.35473633 56.46533203 C-16.82067705 53.58337483 -24.05022141 50.1201938 -29.04223633 41.26611328 C-31.9338173 34.88831169 -32.55365725 28.92760538 -31.01098633 22.12939453 C-30.85887695 21.39720703 -30.70676758 20.66501953 -30.55004883 19.91064453 C-28.62702013 12.61812012 -24.19715245 7.83670945 -17.92114258 3.77783203 C-12.14122396 0.69372958 -6.52353489 0.00509301 0 0 Z M-102.01098633 118.12939453 C-103.33436716 122.73573359 -103.33436716 122.73573359 -103.01098633 130.12939453 C-84.53098633 130.12939453 -66.05098633 130.12939453 -47.01098633 130.12939453 C-47.01098633 126.16939453 -47.01098633 122.20939453 -47.01098633 118.12939453 C-65.16098633 118.12939453 -83.31098633 118.12939453 -102.01098633 118.12939453 Z M-103.01098633 149.12939453 C-103.03563561 154.38044895 -103.05382201 159.63146998 -103.06591797 164.88256836 C-103.07095851 166.67033474 -103.07779087 168.45809698 -103.08642578 170.24584961 C-103.09850363 172.80990621 -103.10421727 175.3739085 -103.10864258 177.93798828 C-103.11380386 178.74215683 -103.11896515 179.54632538 -103.12428284 180.37486267 C-103.12447848 182.29341168 -103.07300615 184.21184821 -103.01098633 186.12939453 C-100.95338037 188.18700049 -96.57881927 187.29718826 -93.74682617 187.30639648 C-92.44674118 187.31625328 -92.44674118 187.31625328 -91.12039185 187.3263092 C-88.23756839 187.34609946 -85.35479725 187.35771987 -82.47192383 187.36767578 C-80.99700911 187.37378907 -80.99700911 187.37378907 -79.49229813 187.38002586 C-74.28417417 187.4009149 -69.07607676 187.41520211 -63.86791992 187.42456055 C-58.49099989 187.43560749 -53.11449571 187.46997952 -47.7377224 187.50973225 C-43.60266358 187.5359053 -39.46770349 187.5442532 -35.33256912 187.54784203 C-33.35107248 187.55270925 -31.36958028 187.5643271 -29.38816452 187.58288002 C-26.608949 187.60727714 -23.83080393 187.60630492 -21.05151367 187.59936523 C-20.23668518 187.61217529 -19.42185669 187.62498535 -18.58233643 187.63818359 C-12.27394493 187.58095681 -8.04835596 185.90959557 -3.30395508 181.56689453 C1.50661548 175.31145296 2.93689327 171.00864366 1.98901367 163.12939453 C0.18554406 157.21688337 -2.95900591 153.56474122 -8.01098633 150.12939453 C-12.86225197 148.09284558 -17.35117539 147.84899657 -22.5390625 147.88647461 C-23.37392685 147.88457626 -24.2087912 147.88267792 -25.06895447 147.88072205 C-27.81405179 147.87703299 -30.55888149 147.8876899 -33.30395508 147.89892578 C-35.21633371 147.90011852 -37.12871293 147.90057054 -39.04109192 147.90031433 C-43.04142952 147.90187584 -47.0416772 147.91014183 -51.04199219 147.92358398 C-56.17350007 147.9406078 -61.30490956 147.94439714 -66.43644238 147.9436388 C-70.38174888 147.94391043 -74.32703381 147.94938995 -78.27233315 147.95664024 C-80.16499989 147.95982486 -82.05766908 147.96179384 -83.95033836 147.96253395 C-86.59063274 147.96469774 -89.23082191 147.97344189 -91.87109375 147.98413086 C-93.04702087 147.98345108 -93.04702087 147.98345108 -94.2467041 147.98275757 C-97.43305878 148.00165663 -99.96559824 148.11426517 -103.01098633 149.12939453 Z " fill="#1C2436" transform="translate(326.010986328125,141.87060546875)"/>
<path d="M0 0 C0.73367798 -0.00671722 1.46735596 -0.01343445 2.2232666 -0.02035522 C4.65037801 -0.03936381 7.0772133 -0.0432609 9.50439453 -0.04541016 C11.19206862 -0.05183638 12.87974159 -0.05856461 14.56741333 -0.06558228 C18.10649193 -0.07756238 21.64547286 -0.08126238 25.18457031 -0.08007812 C29.71646486 -0.07987496 34.24773215 -0.10717132 38.77947807 -0.14162254 C42.26594918 -0.1638765 45.75226901 -0.16791613 49.23880386 -0.16685867 C50.90934536 -0.16921713 52.57989086 -0.17805445 54.2503624 -0.19352341 C56.58922791 -0.21315267 58.92673695 -0.20735841 61.265625 -0.1953125 C61.95359161 -0.20655151 62.64155823 -0.21779053 63.35037231 -0.22937012 C68.07187323 -0.16767584 70.4410732 0.96832866 73.76220703 4.29052734 C75.22171242 7.20953812 74.90566738 9.78759831 74.92333984 13.04760742 C74.92830475 13.74212509 74.93326965 14.43664276 74.93838501 15.15220642 C74.95301545 17.45483382 74.95981061 19.7573923 74.96533203 22.06005859 C74.97108345 23.6594798 74.97684119 25.25890098 74.98260498 26.85832214 C74.99311795 30.2150403 74.99895844 33.57173449 75.00244141 36.9284668 C75.00792202 41.22598084 75.03193933 45.52317738 75.06041336 49.82059193 C75.07905573 53.12604186 75.08424622 56.43141562 75.08577728 59.73691368 C75.08880153 61.32092713 75.09682242 62.90493931 75.10996246 64.48890114 C75.12705434 66.70793261 75.1251353 68.92619273 75.11865234 71.14526367 C75.12412079 73.03816887 75.12412079 73.03816887 75.12969971 74.96931458 C74.72997978 78.58178094 73.95478338 80.42222875 71.76220703 83.29052734 C68.07327587 85.74981479 65.04579282 85.98358313 60.76220703 85.29052734 C57.31907989 83.16604464 56.04603156 82.14200093 54.76220703 78.29052734 C54.64642527 76.21183249 54.58375361 74.13000324 54.55126953 72.04833984 C54.52291016 70.81728516 54.49455078 69.58623047 54.46533203 68.31787109 C54.41340795 65.72426302 54.3690897 63.1304911 54.33251953 60.53662109 C54.28611328 58.68617188 54.28611328 58.68617188 54.23876953 56.79833984 C54.2189502 55.67057129 54.19913086 54.54280273 54.17871094 53.38085938 C53.71831727 49.96487872 52.81065976 48.03957664 50.76220703 45.29052734 C47.65509697 44.13838397 44.95307301 44.57314296 41.76220703 45.29052734 C39.79500786 46.55195068 39.79500786 46.55195068 38.02392578 48.27490234 C37.33516357 48.90879883 36.64640137 49.54269531 35.93676758 50.19580078 C32.15483044 53.83889281 28.44374113 57.54616843 24.76220703 61.29052734 C16.34028746 69.85616568 16.34028746 69.85616568 11.79345703 73.75927734 C7.03054189 77.85255491 2.66506577 82.31699672 -1.73779297 86.79052734 C-6.83141513 91.96590909 -11.92628608 97.03567271 -17.47387695 101.72705078 C-19.92572707 103.90028928 -22.11500112 106.2786964 -24.30419922 108.71240234 C-29.25128623 112.75002487 -34.21217147 113.66498822 -40.45825195 113.63110352 C-41.14202408 113.6315416 -41.8257962 113.63197968 -42.5302887 113.63243103 C-44.76512339 113.63035973 -46.99918493 113.60710923 -49.23388672 113.58349609 C-50.79329519 113.57789419 -52.35270897 113.5736269 -53.91212463 113.57063293 C-57.99749574 113.55923084 -62.08254203 113.52980424 -66.16778564 113.496521 C-70.34407153 113.46571958 -74.52041038 113.45210617 -78.69677734 113.43701172 C-86.87728086 113.40492945 -95.05745897 113.35220007 -103.23779297 113.29052734 C-103.23779297 108.67052734 -103.23779297 104.05052734 -103.23779297 99.29052734 C-101.54364258 99.29165527 -99.84949219 99.2927832 -98.10400391 99.29394531 C-92.45998517 99.29065384 -86.8165589 99.25958439 -81.1727562 99.21024895 C-77.75610165 99.18137128 -74.3401238 99.16309833 -70.92333984 99.17041016 C-66.98082396 99.17835503 -63.03947363 99.13774872 -59.09716797 99.09521484 C-57.28705231 99.10885574 -57.28705231 99.10885574 -55.44036865 99.12277222 C-45.52872649 98.95561961 -37.82046449 96.10358991 -30.16748047 89.73583984 C-29.48943359 88.97013672 -28.81138672 88.20443359 -28.11279297 87.41552734 C-26.84999871 86.01396449 -25.56580866 84.63045349 -24.23779297 83.29052734 C-23.57779297 83.29052734 -22.91779297 83.29052734 -22.23779297 83.29052734 C-21.74279297 81.80552734 -21.74279297 81.80552734 -21.23779297 80.29052734 C-19.72412109 78.80029297 -19.72412109 78.80029297 -17.76904297 77.19677734 C-12.81425158 72.99271192 -8.29327303 68.41912908 -3.73779297 63.79052734 C1.31246287 58.65920801 6.38352624 53.6656917 11.84667969 48.97460938 C15.10083911 46.11363669 18.14685562 43.05068103 21.19970703 39.97802734 C21.82296875 39.35863281 22.44623047 38.73923828 23.08837891 38.10107422 C23.68070312 37.50746094 24.27302734 36.91384766 24.88330078 36.30224609 C25.67885376 35.50500122 25.67885376 35.50500122 26.49047852 34.69165039 C28.40888178 32.5780554 28.76323514 31.28264516 29.13720703 28.41552734 C29.06724509 25.16977548 29.06724509 25.16977548 26.6706543 23.12890625 C23.13117039 20.89166006 21.0159272 20.77985681 16.85205078 20.75146484 C15.53269531 20.72826172 14.21333984 20.70505859 12.85400391 20.68115234 C11.46924395 20.67460888 10.084477 20.66941396 8.69970703 20.66552734 C5.97921191 20.64394871 3.25990084 20.60653267 0.53955078 20.56396484 C-1.26654663 20.55502197 -1.26654663 20.55502197 -3.10913086 20.54589844 C-6.11427625 20.30060916 -7.75669569 19.9441131 -10.23779297 18.29052734 C-12.36627781 15.55390397 -13.18154067 13.74054577 -13.61279297 10.29052734 C-13.18476492 6.86630293 -12.29861362 5.03828822 -10.23779297 2.29052734 C-6.66758232 -0.08961309 -4.12199789 -0.00539882 0 0 Z M-101.23779297 100.29052734 C-102.5611738 104.89686641 -102.5611738 104.89686641 -102.23779297 112.29052734 C-83.75779297 112.29052734 -65.27779297 112.29052734 -46.23779297 112.29052734 C-46.23779297 108.33052734 -46.23779297 104.37052734 -46.23779297 100.29052734 C-64.38779297 100.29052734 -82.53779297 100.29052734 -101.23779297 100.29052734 Z " fill="#22AB81" transform="translate(325.23779296875,159.70947265625)"/>
<path d="M0 0 C1.31848434 -0.00087616 1.31848434 -0.00087616 2.66360474 -0.00177002 C5.54242723 0.0009963 8.42018858 0.03201882 11.29882812 0.06347656 C13.30521072 0.07094413 15.31160065 0.07663463 17.31799316 0.08062744 C22.57886161 0.0958431 27.83928287 0.13508979 33.09997559 0.17944336 C39.42260498 0.22770953 45.74538455 0.24594944 52.06814575 0.26925659 C61.65576682 0.30794325 71.24240818 0.38462569 80.83007812 0.45410156 C80.83007812 13.98410156 80.83007812 27.51410156 80.83007812 41.45410156 C58.64990656 41.57442799 58.64990656 41.57442799 49.1796875 41.60058594 C42.72315047 41.61850434 36.26674135 41.6396795 29.81030273 41.68041992 C24.60372073 41.71306728 19.39727593 41.73096601 14.19059944 41.73873329 C12.20631819 41.74426713 10.22204427 41.75507337 8.23782158 41.77129173 C5.45387546 41.79313735 2.67049295 41.79606549 -0.11352539 41.79467773 C-0.92992493 41.80546356 -1.74632446 41.81624939 -2.58746338 41.82736206 C-9.9134753 41.78796637 -15.86093335 39.76309009 -21.16992188 34.45410156 C-25.45206927 28.54865647 -26.06729898 22.58934393 -25.16992188 15.45410156 C-22.71446956 8.4754476 -17.90387848 4.4364647 -11.417099 1.29163361 C-7.62259849 -0.12259215 -4.00899104 -0.07093186 0 0 Z " fill="#12ACAD" transform="translate(125.169921875,288.5458984375)"/>
<path d="M0 0 C1.4058284 -0.00087616 1.4058284 -0.00087616 2.84005737 -0.00177002 C5.92451574 0.00100707 9.00799651 0.03208176 12.09228516 0.06347656 C14.2360481 0.07094027 16.37981788 0.07663259 18.52359009 0.08062744 C24.15601559 0.09587341 29.78802612 0.13514669 35.42028809 0.17944336 C41.17157376 0.2204182 46.92292672 0.23864321 52.67431641 0.25878906 C63.95187147 0.30164172 75.22901008 0.37198349 86.50634766 0.45410156 C86.50634766 11.01410156 86.50634766 21.57410156 86.50634766 32.45410156 C74.3711768 32.54453535 62.23623042 32.61789436 50.10079861 32.66135025 C44.46559041 32.68220879 38.83062508 32.7104952 33.19555664 32.75585938 C27.75554587 32.79937831 22.31576844 32.82325171 16.875597 32.83361053 C14.80198558 32.84099099 12.72838666 32.85540336 10.6548748 32.87702179 C7.74628151 32.90613578 4.83864763 32.91005417 1.92993164 32.90820312 C0.64922791 32.92977478 0.64922791 32.92977478 -0.65734863 32.95178223 C-6.4272386 32.91215132 -9.74152123 31.76529447 -14.49365234 28.45410156 C-18.82768866 23.77790449 -19.86202536 20.02209131 -19.77099609 13.80175781 C-19.17800572 8.78221959 -16.78687991 5.55284685 -12.93856812 2.28326416 C-8.43955723 -0.10559611 -5.01077405 -0.08225148 0 0 Z " fill="#16ADAD" transform="translate(119.49365234375,209.5458984375)"/>
<path d="M0 0 C0.33 0 0.66 0 1 0 C1.06954996 9.30124275 1.12283657 18.6023958 1.15543652 27.90384197 C1.17108389 32.22301617 1.1923051 36.54201228 1.22631836 40.86108398 C1.2589451 45.03024353 1.27686 49.19923192 1.28463173 53.36850929 C1.2901693 54.95811469 1.30098291 56.54771085 1.31719017 58.13724327 C1.339009 60.36603316 1.34196514 62.59411832 1.34057617 64.82299805 C1.34723801 66.09096725 1.35389984 67.35893646 1.36076355 68.66532898 C0.96865834 72.28970256 0.20101945 74.12499052 -2 77 C-5.68893116 79.45928744 -8.71641421 79.69305579 -13 79 C-16.44312714 76.8755173 -17.71617547 75.85147359 -19 72 C-19.36351863 67.29993686 -19.4682733 62.58602027 -19.625 57.875 C-19.6765625 56.58078125 -19.728125 55.2865625 -19.78125 53.953125 C-20.01605165 47.17150084 -19.98482637 40.71739776 -19 34 C-15.7 34 -12.4 34 -9 34 C-9 30.7 -9 27.4 -9 24 C-12.3 24 -15.6 24 -19 24 C-19 20.7 -19 17.4 -19 14 C-15.7 14 -12.4 14 -9 14 C-9 10.7 -9 7.4 -9 4 C-6.03 4 -3.06 4 0 4 C0 2.68 0 1.36 0 0 Z " fill="#2EB887" transform="translate(399,166)"/>
<path d="M0 0 C3.3 0 6.6 0 10 0 C10.75191566 4.01898918 10.99288196 6.1014415 10 10 C6.36986748 14.95304249 1.97713391 19.00824473 -2.5 23.1875 C-3.68713104 24.33297448 -4.87205005 25.48074609 -6.0546875 26.63085938 C-11.35858728 31.75997549 -16.74444 36.7838385 -22.37670898 41.55297852 C-24.77417117 43.69010566 -26.92026786 46.03603804 -29.06640625 48.421875 C-34.01349326 52.45949753 -38.9743785 53.37446088 -45.22045898 53.34057617 C-45.90423111 53.34101425 -46.58800323 53.34145233 -47.29249573 53.34190369 C-49.52733042 53.33983239 -51.76139196 53.31658188 -53.99609375 53.29296875 C-55.55550222 53.28736685 -57.11491601 53.28309956 -58.67433167 53.28010559 C-62.75970277 53.26870349 -66.84474906 53.2392769 -70.92999268 53.20599365 C-75.10627856 53.17519224 -79.28261741 53.16157882 -83.45898438 53.14648438 C-91.63948789 53.1144021 -99.819666 53.06167273 -108 53 C-108 48.38 -108 43.76 -108 39 C-106.30584961 39.00112793 -104.61169922 39.00225586 -102.86621094 39.00341797 C-97.22219221 39.00012649 -91.57876593 38.96905704 -85.93496323 38.9197216 C-82.51830868 38.89084394 -79.10233083 38.87257099 -75.68554688 38.87988281 C-71.74303099 38.88782768 -67.80168066 38.84722137 -63.859375 38.8046875 C-62.65263123 38.81378143 -61.44588745 38.82287537 -60.20257568 38.83224487 C-50.29093352 38.66509226 -42.58267152 35.81306256 -34.9296875 29.4453125 C-34.25164062 28.67960937 -33.57359375 27.91390625 -32.875 27.125 C-31.61220574 25.72343714 -30.3280157 24.33992615 -29 23 C-28.34 23 -27.68 23 -27 23 C-26.505 21.515 -26.505 21.515 -26 20 C-20.72 20 -15.44 20 -10 20 C-10 16.7 -10 13.4 -10 10 C-6.7 10 -3.4 10 0 10 C0 6.7 0 3.4 0 0 Z M-106 40 C-107.32338083 44.60633906 -107.32338083 44.60633906 -107 52 C-88.52 52 -70.04 52 -51 52 C-51 48.04 -51 44.08 -51 40 C-69.15 40 -87.3 40 -106 40 Z " fill="#2AA1BA" transform="translate(330,220)"/>
<path d="M0 0 C1.86159004 0.00022659 1.86159004 0.00022659 3.76078796 0.00045776 C5.11502238 0.01067098 6.46925516 0.02110297 7.82348633 0.03173828 C9.20925187 0.03546911 10.59502006 0.03831575 11.98078918 0.04031372 C15.62555238 0.0479447 19.27015582 0.06758848 22.91485596 0.08972168 C26.63502847 0.1101917 30.35522684 0.1193179 34.07543945 0.12939453 C41.37303827 0.15083498 48.67050553 0.18496434 55.96801758 0.22705078 C55.96801758 3.52705078 55.96801758 6.82705078 55.96801758 10.22705078 C52.66801758 10.22705078 49.36801758 10.22705078 45.96801758 10.22705078 C45.96801758 13.52705078 45.96801758 16.82705078 45.96801758 20.22705078 C42.66801758 20.22705078 39.36801758 20.22705078 35.96801758 20.22705078 C35.96801758 16.92705078 35.96801758 13.62705078 35.96801758 10.22705078 C32.66801758 10.22705078 29.36801758 10.22705078 25.96801758 10.22705078 C25.98864258 11.50580078 26.00926758 12.78455078 26.03051758 14.10205078 C26.09301758 17.97705078 26.09301758 17.97705078 24.96801758 20.22705078 C20.76881521 20.27658765 16.56976889 20.31283489 12.37036133 20.33691406 C10.9425968 20.34695506 9.51485275 20.36059059 8.0871582 20.37792969 C6.03176817 20.4022623 3.97665066 20.4135528 1.92114258 20.42236328 C0.06730957 20.43807373 0.06730957 20.43807373 -1.82397461 20.45410156 C-4.88709236 20.23730556 -6.51666131 19.92177588 -9.03198242 18.22705078 C-11.16046727 15.49042741 -11.97573012 13.67706921 -12.40698242 10.22705078 C-11.97895437 6.80282636 -11.09280308 4.97481166 -9.03198242 2.22705078 C-5.52555536 -0.11056726 -4.14342292 -0.01680902 0 0 Z " fill="#23A2A8" transform="translate(324.031982421875,159.77294921875)"/>
<path d="M0 0 C3.3 0 6.6 0 10 0 C10 3.3 10 6.6 10 10 C13.3 10 16.6 10 20 10 C20 13.3 20 16.6 20 20 C16.7 20 13.4 20 10 20 C10 23.3 10 26.6 10 30 C6.7 30 3.4 30 0 30 C0 33.3 0 36.6 0 40 C-3.3 40 -6.6 40 -10 40 C-10 43.3 -10 46.6 -10 50 C-13.3 50 -16.6 50 -20 50 C-20 53.3 -20 56.6 -20 60 C-23.3 60 -26.6 60 -30 60 C-30 63.3 -30 66.6 -30 70 C-34.95 70.33 -39.9 70.66 -45 71 C-40.02639952 64.99906565 -34.64642579 59.49681319 -29.125 54 C-28.26519531 53.13632813 -27.40539062 52.27265625 -26.51953125 51.3828125 C-22.1053431 46.97532266 -17.62428289 42.73111698 -12.89355469 38.66650391 C-9.6480826 35.81018719 -6.60860336 32.75336187 -3.5625 29.6875 C-2.93923828 29.06810547 -2.31597656 28.44871094 -1.67382812 27.81054688 C-1.08150391 27.21693359 -0.48917969 26.62332031 0.12109375 26.01171875 C0.6514624 25.48022217 1.18183105 24.94872559 1.72827148 24.40112305 C3.64667475 22.28752805 4.00102811 20.99211781 4.375 18.125 C4.32537085 14.80839641 4.32537085 14.80839641 1.5625 12.8125 C0.2940625 11.9153125 0.2940625 11.9153125 -1 11 C-1.495 9.515 -1.495 9.515 -2 8 C-1.34 8 -0.68 8 0 8 C0 5.36 0 2.72 0 0 Z " fill="#27A596" transform="translate(350,170)"/>
<path d="M0 0 C3.3 0 6.6 0 10 0 C10 3.3 10 6.6 10 10 C13.3 10 16.6 10 20 10 C20 12.97 20 15.94 20 19 C19.525625 18.34 19.05125 17.68 18.5625 17 C15.38304639 14.51847523 13.43602383 14.20313727 9.46533203 14.46069336 C6.59508618 15.0885774 5.43639845 15.97228054 3.29296875 17.953125 C2.60477051 18.58645752 1.91657227 19.21979004 1.20751953 19.87231445 C-2.73296247 23.67029063 -6.59927859 27.53640846 -10.4375 31.4375 C-12.03809217 33.06343804 -13.64083187 34.68726587 -15.24609375 36.30859375 C-15.94404053 37.01814209 -16.6419873 37.72769043 -17.36108398 38.45874023 C-19 40 -19 40 -20 40 C-20 33.4 -20 26.8 -20 20 C-16.7 20 -13.4 20 -10 20 C-10 16.7 -10 13.4 -10 10 C-6.7 10 -3.4 10 0 10 C0 6.7 0 3.4 0 0 Z " fill="#24A58C" transform="translate(360,190)"/>
<path d="M0 0 C1.32 0 2.64 0 4 0 C4 0.99 4 1.98 4 3 C7.3 3 10.6 3 14 3 C14.48932039 11.4407767 14.48932039 11.4407767 12.25 14 C7.81519423 15.97102479 3.97112159 16.12225022 -0.87988281 16.11352539 C-1.90488388 16.11374443 -1.90488388 16.11374443 -2.95059204 16.1139679 C-5.20146904 16.11327315 -7.45226252 16.10550132 -9.703125 16.09765625 C-11.2668249 16.09579051 -12.83052538 16.09436734 -14.39422607 16.09336853 C-18.50416689 16.08955562 -22.61407221 16.0797358 -26.72399902 16.06866455 C-30.92016113 16.05842407 -35.11632899 16.05386526 -39.3125 16.04882812 C-47.54168475 16.03811242 -55.77083387 16.02052555 -64 16 C-64 11.38 -64 6.76 -64 2 C-62.09677979 1.97494385 -60.19355957 1.9498877 -58.23266602 1.92407227 C-51.95814036 1.84031884 -45.68369114 1.75204723 -39.40927219 1.66066074 C-35.60352595 1.60539706 -31.79777208 1.55197171 -27.99194336 1.50268555 C-24.32200665 1.45509259 -20.65216609 1.40275191 -16.98234367 1.34705925 C-15.57927773 1.32661263 -14.1761854 1.30790343 -12.7730732 1.29092598 C-10.81423074 1.26693313 -8.85547299 1.23629801 -6.89672852 1.20532227 C-5.77976089 1.18977798 -4.66279327 1.1742337 -3.51197815 1.15821838 C-1.06138999 1.28180962 -1.06138999 1.28180962 0 0 Z M-62 3 C-63.32338083 7.60633906 -63.32338083 7.60633906 -63 15 C-44.52 15 -26.04 15 -7 15 C-7 11.04 -7 7.08 -7 3 C-25.15 3 -43.3 3 -62 3 Z " fill="#49BFD9" transform="translate(286,257)"/>
<path d="M0 0 C29.7 0 59.4 0 90 0 C90 13.53 90 27.06 90 41 C67.69950201 41.08021762 67.69950201 41.08021762 58.203125 41.09765625 C51.72001884 41.10961782 45.2369691 41.12377764 38.75390625 41.15087891 C33.5278944 41.17258891 28.30194305 41.18456477 23.07588959 41.18975449 C21.0807678 41.19345355 19.08564936 41.20067676 17.09055328 41.21146011 C14.29890249 41.22595046 11.50750259 41.22797896 8.71582031 41.22705078 C7.88863495 41.23424133 7.06144958 41.24143188 6.209198 41.24884033 C2.34106174 41.23489807 -0.72811705 41.21640807 -4 39 C-3.00743195 39.00222061 -2.01486389 39.00444122 -0.99221802 39.00672913 C8.39356512 39.027062 17.77934375 39.04202084 27.16514397 39.05181217 C31.98966266 39.05701531 36.81416347 39.06406597 41.63867188 39.07543945 C46.30061136 39.08636004 50.96253372 39.09229616 55.62448502 39.09487724 C57.39693598 39.09671503 59.16938607 39.10030359 60.94182968 39.10573006 C69.69598436 39.13144878 78.30068971 39.12136515 87 38 C88.08681478 19.98334883 88.08681478 19.98334883 87 2 C86.50651062 2.16644516 86.01302124 2.33289032 85.50457764 2.50437927 C81.97234955 3.20335759 78.50650848 3.03471522 74.92675781 2.92993164 C73.71156212 2.90088997 73.71156212 2.90088997 72.47181702 2.8712616 C69.79876158 2.80608788 67.12597716 2.73315758 64.453125 2.66015625 C62.59797341 2.61340861 60.74280955 2.56714535 58.88763428 2.52134705 C54.0081878 2.39958668 49.12893572 2.27124553 44.24969482 2.14154053 C39.26942838 2.01031288 34.28900639 1.88529955 29.30859375 1.75976562 C19.53890009 1.51259764 9.76940051 1.25847828 0 1 C0 0.67 0 0.34 0 0 Z " fill="#218D84" transform="translate(116,289)"/>
<path d="M0 0 C0.66 0 1.32 0 2 0 C4 3 4 3 4 8 C0.7 8 -2.6 8 -6 8 C-6 11.3 -6 14.6 -6 18 C-9.3 18 -12.6 18 -16 18 C-16 21.3 -16 24.6 -16 28 C-20.95 28.33 -25.9 28.66 -31 29 C-26.54779576 23.68518119 -21.88339759 18.67011487 -17 13.75 C-16.31421875 13.04359375 -15.6284375 12.3371875 -14.921875 11.609375 C-11.17961952 7.83855268 -7.949621 5.12655872 -3 3 C-1.98198643 2.01834406 -0.9753197 1.02408568 0 0 Z " fill="#24A4B0" transform="translate(336,212)"/>
<path d="M0 0 C2.97 0 5.94 0 9 0 C9.33 2.97 9.66 5.94 10 9 C12.64 9.33 15.28 9.66 18 10 C19.34400949 17.20877817 19.34400949 17.20877817 17.75 20.875 C15.03189912 24.17555107 13.40037637 24.95479622 9.125 25.4375 C5.47951714 25.37696615 5.02373665 25.01978054 2 22.5 C1.34 21.675 0.68 20.85 0 20 C2.97 20 5.94 20 9 20 C9 16.7 9 13.4 9 10 C6.03 10 3.06 10 0 10 C0 6.7 0 3.4 0 0 Z " fill="#20AF7C" transform="translate(381,220)"/>
<path d="M0 0 C3.3 0 6.6 0 10 0 C10.75587184 5.2911029 11.08223453 8.3315551 8.125 12.890625 C2.02538499 19.56207892 2.02538499 19.56207892 -2.890625 20.625 C-5.625 20.625 -5.625 20.625 -10 20 C-10 16.7 -10 13.4 -10 10 C-6.7 10 -3.4 10 0 10 C0 6.7 0 3.4 0 0 Z " fill="#39C3C0" transform="translate(330,220)"/>
<path d="M0 0 C1.08667969 0.01804688 2.17335938 0.03609375 3.29296875 0.0546875 C4.54013672 0.08949219 4.54013672 0.08949219 5.8125 0.125 C5.8125 3.425 5.8125 6.725 5.8125 10.125 C2.5125 10.125 -0.7875 10.125 -4.1875 10.125 C-4.1875 13.425 -4.1875 16.725 -4.1875 20.125 C-7.32908949 19.19101394 -8.9200148 18.45705059 -11 15.875 C-12.40288638 12.62621048 -12.62601607 10.63312857 -12.1875 7.125 C-9.32845178 1.13461326 -6.47868034 -0.13932646 0 0 Z " fill="#219FAC" transform="translate(324.1875,159.875)"/>
<path d="M0 0 C6.6 0 13.2 0 20 0 C13.23827936 7.88867408 13.23827936 7.88867408 10.60546875 10.52734375 C9.76145508 11.37329102 9.76145508 11.37329102 8.90039062 12.23632812 C8.33513672 12.79771484 7.76988281 13.35910156 7.1875 13.9375 C6.60291016 14.52595703 6.01832031 15.11441406 5.41601562 15.72070312 C1.12677846 20 1.12677846 20 0 20 C0 13.4 0 6.8 0 0 Z " fill="#37BEB2" transform="translate(340,210)"/>
<path d="M0 0 C3.3 0 6.6 0 10 0 C10 3.3 10 6.6 10 10 C7.03 10 4.06 10 1 10 C1 13.3 1 16.6 1 20 C3.97 20 6.94 20 10 20 C10 23.3 10 26.6 10 30 C7.03 30 4.06 30 1 30 C-0.40912096 27.18175808 -0.11183553 24.82748718 -0.09765625 21.6796875 C-0.09443359 20.42285156 -0.09121094 19.16601562 -0.08789062 17.87109375 C-0.07951172 16.55238281 -0.07113281 15.23367187 -0.0625 13.875 C-0.05748489 12.53515789 -0.05292201 11.195314 -0.04882812 9.85546875 C-0.03701086 6.57026794 -0.02053617 3.28515603 0 0 Z " fill="#38C693" transform="translate(380,210)"/>
<path d="M0 0 C1.32 0 2.64 0 4 0 C4 0.99 4 1.98 4 3 C0.7 3 -2.6 3 -6 3 C-6 6.3 -6 9.6 -6 13 C-2.7 13 0.6 13 4 13 C4 13.99 4 14.98 4 16 C-18.44 16 -40.88 16 -64 16 C-64 11.38 -64 6.76 -64 2 C-62.09677979 1.97494385 -60.19355957 1.9498877 -58.23266602 1.92407227 C-51.95814036 1.84031884 -45.68369114 1.75204723 -39.40927219 1.66066074 C-35.60352595 1.60539706 -31.79777208 1.55197171 -27.99194336 1.50268555 C-24.32200665 1.45509259 -20.65216609 1.40275191 -16.98234367 1.34705925 C-15.57927773 1.32661263 -14.1761854 1.30790343 -12.7730732 1.29092598 C-10.81423074 1.26693313 -8.85547299 1.23629801 -6.89672852 1.20532227 C-5.77976089 1.18977798 -4.66279327 1.1742337 -3.51197815 1.15821838 C-1.06138999 1.28180962 -1.06138999 1.28180962 0 0 Z M-62 3 C-63.32338083 7.60633906 -63.32338083 7.60633906 -63 15 C-44.52 15 -26.04 15 -7 15 C-7 11.04 -7 7.08 -7 3 C-25.15 3 -43.3 3 -62 3 Z " fill="#B9CCD7" transform="translate(286,257)"/>
<path d="M0 0 C-4.625 3 -4.625 3 -8 3 C-9.07525194 5.65228812 -10.09456151 8.28368454 -11 11 C-13.0625 11.6875 -13.0625 11.6875 -15 12 C-15 12.60328125 -15 13.2065625 -15 13.828125 C-15 17.55208333 -15 21.27604167 -15 25 C-13.42323914 27.12862715 -12.58185177 27.91184064 -9.9375 28.3125 C-9.298125 28.539375 -8.65875 28.76625 -8 29 C-6.75 32.0625 -6.75 32.0625 -6 35 C-2.04 35 1.92 35 6 35 C6.33 35.66 6.66 36.32 7 37 C-8.59483838 37.31826201 -8.59483838 37.31826201 -13.64453125 32.56640625 C-18.40272865 27.06774009 -19.61878725 21.75006559 -19.3203125 14.546875 C-18.57226973 8.59902276 -15.55309023 4.72525564 -11 1 C-7.05614813 -0.52218844 -4.04099915 -1.61639966 0 0 Z " fill="#169ED3" transform="translate(119,292)"/>
<path d="M0 0 C9.9 0 19.8 0 30 0 C30 10.56 30 21.12 30 32 C14.82 32 -0.36 32 -16 32 C-16 31.67 -16 31.34 -16 31 C-2.14 30.67 11.72 30.34 26 30 C29.91168901 22.17662198 28.15044914 12.4845624 27 4 C25.02 4.99 25.02 4.99 23 6 C22.505 5.01 22.505 5.01 22 4 C22.66 4 23.32 4 24 4 C21.47871644 1.47871644 20.48760987 1.70646931 16.9921875 1.5859375 C16.00605469 1.54726562 15.01992187 1.50859375 14.00390625 1.46875 C12.97136719 1.4378125 11.93882812 1.406875 10.875 1.375 C9.83472656 1.33632812 8.79445312 1.29765625 7.72265625 1.2578125 C5.14861689 1.16335234 2.57458845 1.07778786 0 1 C0 0.67 0 0.34 0 0 Z " fill="#2B9B84" transform="translate(176,210)"/>
<path d="M0 0 C2.97 0 5.94 0 9 0 C0.33004408 10.44840841 -9.55145586 19.37995109 -20 28 C-20 25.36 -20 22.72 -20 20 C-17.69 20 -15.38 20 -13 20 C-12.67 18.68 -12.34 17.36 -12 16 C-11.34 16.33 -10.68 16.66 -10 17 C-10 14.69 -10 12.38 -10 10 C-7.36 10 -4.72 10 -2 10 C-2 9.34 -2 8.68 -2 8 C-1.34 8 -0.68 8 0 8 C0 5.36 0 2.72 0 0 Z " fill="#319EB0" transform="translate(320,240)"/>
<path d="M0 0 C-1.98 2.31 -3.96 4.62 -6 7 C-6.99 6.67 -7.98 6.34 -9 6 C-9.13396276 9.76164048 -9.13396276 9.76164048 -8.5 12.4375 C-7.99518157 15.02469443 -7.92490189 17.37156604 -8 20 C-5.69 20.33 -3.38 20.66 -1 21 C-1.33 21.99 -1.66 22.98 -2 24 C-1.61067144 26.14255793 -1.61067144 26.14255793 -1 28 C-3.94606829 27.86297357 -6.20159518 27.70124445 -8.4765625 25.703125 C-12.44076753 21.02026292 -13.37023569 17.29497119 -13.2734375 11.3515625 C-12.80147723 7.29270417 -11.5326876 5.24703539 -9 2 C-3.32750243 -1.66375121 -3.32750243 -1.66375121 0 0 Z " fill="#2599CB" transform="translate(113,212)"/>
<path d="M0 0 C1.19981003 0.48513565 1.19981003 0.48513565 2.42385864 0.98007202 C6.79087308 2.22555976 10.70273954 2.3073455 15.21826172 2.31884766 C16.12621994 2.32889328 17.03417816 2.3389389 17.96965027 2.34928894 C20.95632319 2.38006052 23.94290672 2.39713938 26.9296875 2.4140625 C29.00620286 2.43277898 31.08271065 2.45235276 33.15921021 2.4727478 C38.61384618 2.52402416 44.06850679 2.56367403 49.52325439 2.60089111 C55.09368972 2.64095889 60.66402292 2.6920386 66.234375 2.7421875 C77.15617821 2.83889359 88.07803915 2.92331546 99 3 C99 3.33 99 3.66 99 4 C97.84377136 4.01030746 96.68754272 4.02061493 95.49627686 4.03123474 C84.60752264 4.12893035 73.71882607 4.23166087 62.83016586 4.33933926 C57.23201208 4.39453729 51.63385305 4.44795239 46.03564453 4.49731445 C40.63452848 4.5450039 35.23347589 4.5973485 29.83243561 4.65294075 C27.77035347 4.67334352 25.70825394 4.69206003 23.64614105 4.70907402 C20.76110035 4.73316393 17.8761793 4.76321239 14.99121094 4.79467773 C14.13597336 4.8004332 13.28073578 4.80618866 12.39958191 4.81211853 C11.61156693 4.82190735 10.82355194 4.83169617 10.01165771 4.84178162 C9.32953091 4.84823417 8.6474041 4.85468672 7.94460678 4.8613348 C5.86860019 5.0093698 4.00087875 5.43939323 2 6 C1.34 4.02 0.68 2.04 0 0 Z " fill="#002E32" transform="translate(106,239)"/>
<path d="M0 0 C0.66 0 1.32 0 2 0 C4 3 4 3 4 8 C0.7 8 -2.6 8 -6 8 C-6 10.64 -6 13.28 -6 16 C-8.475 15.01 -8.475 15.01 -11 14 C-11 13.34 -11 12.68 -11 12 C-12.65 12.66 -14.3 13.32 -16 14 C-12.41515514 9.28810165 -8.89500234 5.97332497 -3.734375 3.04296875 C-1.83452428 1.99557235 -1.83452428 1.99557235 0 0 Z " fill="#26ACAB" transform="translate(336,212)"/>
<path d="M0 0 C0.33 0 0.66 0 1 0 C1 4.62 1 9.24 1 14 C-2.3 14 -5.6 14 -9 14 C-9 10.7 -9 7.4 -9 4 C-6.03 4 -3.06 4 0 4 C0 2.68 0 1.36 0 0 Z " fill="#23AB7B" transform="translate(399,166)"/>
<path d="M0 0 C3.3 0 6.6 0 10 0 C10 3.3 10 6.6 10 10 C6.37 10 2.74 10 -1 10 C-0.67 6.7 -0.34 3.4 0 0 Z " fill="#1EAC7D" transform="translate(380,200)"/>
<path d="M0 0 C3.3 0 6.6 0 10 0 C10 3.3 10 6.6 10 10 C6.7 10 3.4 10 0 10 C0 6.7 0 3.4 0 0 Z " fill="#3FA8C1" transform="translate(280,260)"/>
<path d="M0 0 C3.3 0 6.6 0 10 0 C10 3.3 10 6.6 10 10 C6.7 10 3.4 10 0 10 C0 6.7 0 3.4 0 0 Z " fill="#3BC5B3" transform="translate(350,200)"/>
<path d="M0 0 C3.3 0 6.6 0 10 0 C10 3.3 10 6.6 10 10 C6.7 10 3.4 10 0 10 C0 6.7 0 3.4 0 0 Z " fill="#39C798" transform="translate(380,190)"/>
<path d="M0 0 C3.3 0 6.6 0 10 0 C10 3.3 10 6.6 10 10 C6.7 10 3.4 10 0 10 C0 6.7 0 3.4 0 0 Z " fill="#22A887" transform="translate(370,190)"/>
<path d="M0 0 C3.3 0 6.6 0 10 0 C10 3.3 10 6.6 10 10 C6.7 10 3.4 10 0 10 C0 6.7 0 3.4 0 0 Z " fill="#3DC4A9" transform="translate(360,190)"/>
<path d="M0 0 C3.3 0 6.6 0 10 0 C10 3.3 10 6.6 10 10 C6.7 10 3.4 10 0 10 C0 6.7 0 3.4 0 0 Z " fill="#3CC5A0" transform="translate(370,180)"/>
<path d="M0 0 C3.3 0 6.6 0 10 0 C10 3.3 10 6.6 10 10 C6.7 10 3.4 10 0 10 C0 6.7 0 3.4 0 0 Z " fill="#23AA91" transform="translate(360,180)"/>
<path d="M0 0 C3.3 0 6.6 0 10 0 C10 3.3 10 6.6 10 10 C6.7 10 3.4 10 0 10 C0 6.7 0 3.4 0 0 Z " fill="#23AD8C" transform="translate(370,170)"/>
<path d="M0 0 C3.3 0 6.6 0 10 0 C10 3.3 10 6.6 10 10 C6.7 10 3.4 10 0 10 C0 6.7 0 3.4 0 0 Z " fill="#38C597" transform="translate(380,170)"/>
<path d="M0 0 C3.3 0 6.6 0 10 0 C10 3.3 10 6.6 10 10 C6.7 10 3.4 10 0 10 C0 6.7 0 3.4 0 0 Z " fill="#39C4A6" transform="translate(360,170)"/>
<path d="M0 0 C3.3 0 6.6 0 10 0 C10 3.3 10 6.6 10 10 C6.7 10 3.4 10 0 10 C0 6.7 0 3.4 0 0 Z " fill="#37BBC9" transform="translate(320,170)"/>
<path d="M0 0 C3.3 0 6.6 0 10 0 C10 3.3 10 6.6 10 10 C6.7 10 3.4 10 0 10 C0 6.7 0 3.4 0 0 Z " fill="#3DC19E" transform="translate(370,160)"/>
<path d="M0 0 C3.3 0 6.6 0 10 0 C10 3.3 10 6.6 10 10 C6.7 10 3.4 10 0 10 C0 6.7 0 3.4 0 0 Z " fill="#25A891" transform="translate(360,160)"/>
<path d="M0 0 C3.3 0 6.6 0 10 0 C10 3.3 10 6.6 10 10 C6.7 10 3.4 10 0 10 C0 6.7 0 3.4 0 0 Z " fill="#3DC0B1" transform="translate(350,160)"/>
<path d="M0 0 C3.3 0 6.6 0 10 0 C10 3.3 10 6.6 10 10 C6.7 10 3.4 10 0 10 C0 6.7 0 3.4 0 0 Z " fill="#23A49E" transform="translate(340,160)"/>
<path d="M0 0 C3.3 0 6.6 0 10 0 C10 3.3 10 6.6 10 10 C6.7 10 3.4 10 0 10 C0 6.7 0 3.4 0 0 Z " fill="#3ABCC0" transform="translate(330,160)"/>
<path d="M0 0 C3.3 0 6.6 0 10 0 C10 3.3 10 6.6 10 10 C3.06640625 10.09765625 3.06640625 10.09765625 1 10 C0 9 0 9 -0.09765625 6.93359375 C-0.06510417 4.62239583 -0.03255208 2.31119792 0 0 Z " fill="#39C38F" transform="translate(390,180)"/>
<path d="M0 0 C3.3 0 6.6 0 10 0 C10.125 7.75 10.125 7.75 9 10 C6.03 10 3.06 10 0 10 C0 6.7 0 3.4 0 0 Z " fill="#3BC3CB" transform="translate(320,230)"/>
<path d="M0 0 C3.3 0 6.6 0 10 0 C10.125 7.75 10.125 7.75 9 10 C6.03 10 3.06 10 0 10 C0 6.7 0 3.4 0 0 Z " fill="#3BBFB9" transform="translate(340,170)"/>
<path d="M0 0 C3.3 0 6.6 0 10 0 C10 2.64 10 5.28 10 8 C9.34 8 8.68 8 8 8 C8 8.66 8 9.32 8 10 C5.36 10 2.72 10 0 10 C0 6.7 0 3.4 0 0 Z " fill="#38BFCD" transform="translate(310,240)"/>
<path d="M0 0 C3.3 0 6.6 0 10 0 C10 2.31 10 4.62 10 7 C9.34 7 8.68 7 8 7 C7.67 7.99 7.34 8.98 7 10 C4.69 10 2.38 10 0 10 C0 6.7 0 3.4 0 0 Z " fill="#3BBDD2" transform="translate(300,250)"/>
<path d="M0 0 C2.97 0 5.94 0 9 0 C9 3.3 9 6.6 9 10 C6.03 10 3.06 10 0 10 C0 6.7 0 3.4 0 0 Z " fill="#1FB17B" transform="translate(390,210)"/>
<path d="M0 0 C5.4 -0.36 5.4 -0.36 7.875 1.125 C9.4682099 3.78034983 9.20214032 5.96789518 9 9 C6.03 9 3.06 9 0 9 C0 6.03 0 3.06 0 0 Z " fill="#32C38E" transform="translate(390,161)"/>
<path d="M0 0 C0.433125 0.474375 0.86625 0.94875 1.3125 1.4375 C4.67305044 4.54912078 8.29430972 4.1231437 12.64453125 4.140625 C14.61969727 4.16962891 14.61969727 4.16962891 16.63476562 4.19921875 C18.72172061 4.22813277 20.80760735 4.24999885 22.89477539 4.25048828 C36.01023951 4.27224637 36.01023951 4.27224637 39.9140625 7.3515625 C42 10 42 10 42.5625 13.125 C41.9474585 16.26854544 41.29131998 16.93475692 39 19 C39.08701172 18.07767578 39.08701172 18.07767578 39.17578125 17.13671875 C39.22089844 16.32847656 39.26601563 15.52023438 39.3125 14.6875 C39.39951172 13.48673828 39.39951172 13.48673828 39.48828125 12.26171875 C39.2117649 9.80691544 39.2117649 9.80691544 36.91723633 8.38183594 C33.34787017 6.69109927 30.77812524 6.63118673 26.8359375 6.62890625 C25.45312236 6.61153711 24.07030991 6.59395261 22.6875 6.57617188 C20.52371487 6.56607224 18.36009689 6.56251169 16.19628906 6.56420898 C14.0965029 6.56064439 11.99799621 6.53334255 9.8984375 6.50390625 C8.02164307 6.50112671 8.02164307 6.50112671 6.10693359 6.49829102 C3 6 3 6 1.06884766 4.09350586 C0 2 0 2 0 0 Z " fill="#042F3C" transform="translate(313,175)"/>
<path d="M0 0 C1 3 1 3 1 5 C2.45833358 6.62514468 2.45833358 6.62514468 4 8 C1.36 8 -1.28 8 -4 8 C-4 9.65 -4 11.3 -4 13 C-4.66 12.67 -5.32 12.34 -6 12 C-6 11.34 -6 10.68 -6 10 C-8.64 11.98 -11.28 13.96 -14 16 C-14.66 15.67 -15.32 15.34 -16 15 C-14.64455078 13.75283203 -14.64455078 13.75283203 -13.26171875 12.48046875 C-12.07028184 11.38284577 -10.87887729 10.28518768 -9.6875 9.1875 C-9.09259766 8.64029297 -8.49769531 8.09308594 -7.88476562 7.52929688 C-7.30791016 6.99755859 -6.73105469 6.46582031 -6.13671875 5.91796875 C-5.60780029 5.43094482 -5.07888184 4.9439209 -4.53393555 4.44213867 C-2.9907165 2.99127207 -1.48984144 1.50546232 0 0 Z " fill="#2E9B98" transform="translate(344,202)"/>
<path d="M0 0 C2.97 0 5.94 0 9 0 C4.30233025 5.66129431 -0.74723372 10.85228904 -6 16 C-6.33 14.68 -6.66 13.36 -7 12 C-6.01 12 -5.02 12 -4 12 C-4 11.34 -4 10.68 -4 10 C-3.34 10 -2.68 10 -2 10 C-2 9.34 -2 8.68 -2 8 C-1.34 8 -0.68 8 0 8 C0 5.36 0 2.72 0 0 Z " fill="#2DA5AE" transform="translate(320,240)"/>
<path d="M0 0 C0.33 1.32 0.66 2.64 1 4 C0.34 4 -0.32 4 -1 4 C-1.33 4.66 -1.66 5.32 -2 6 C-5.12176481 9.29519619 -8.33015382 12.32200414 -12 15 C-12.66 15 -13.32 15 -14 15 C-14.061875 15.598125 -14.12375 16.19625 -14.1875 16.8125 C-15.33938899 19.91373958 -17.06759592 20.64108103 -20 22 C-20.66 21.67 -21.32 21.34 -22 21 C-19.65015244 18.62069437 -17.29433422 16.24738355 -14.9375 13.875 C-14.28072266 13.20984375 -13.62394531 12.5446875 -12.94726562 11.859375 C-8.79271195 7.68435554 -4.52172121 3.77496101 0 0 Z " fill="#072836" transform="translate(346,224)"/>
<path d="M0 0 C0.66 0.66 1.32 1.32 2 2 C3.98821313 2.39764263 5.98944339 2.73775349 8 3 C8 6.3 8 9.6 8 13 C4.85841051 12.06601394 3.2674852 11.33205059 1.1875 8.75 C-0.16280181 5.62298529 -0.23523553 3.3717092 0 0 Z " fill="#2699A8" transform="translate(312,167)"/>
<path d="M0 0 C0.66 0.33 1.32 0.66 2 1 C-2.26497631 5.38492876 -6.65919429 9.53451455 -11.30078125 13.51953125 C-12.57729445 14.63171172 -13.80283014 15.80283014 -15 17 C-13.68 17.99 -12.36 18.98 -11 20 C-12.98 19.67 -14.96 19.34 -17 19 C-17.33 17.35 -17.66 15.7 -18 14 C-13.45389118 10.38490258 -8.98328349 6.98997009 -4 4 C-2.63015802 2.70420353 -1.2848951 1.38007251 0 0 Z " fill="#83868D" transform="translate(336,256)"/>
<path d="M0 0 C9.57 0 19.14 0 29 0 C29 4.29 29 8.58 29 13 C28.67 13 28.34 13 28 13 C27.67 10.03 27.34 7.06 27 4 C25.02 4.99 25.02 4.99 23 6 C22.67 5.34 22.34 4.68 22 4 C22.66 4 23.32 4 24 4 C21.47871644 1.47871644 20.48760987 1.70646931 16.9921875 1.5859375 C16.00605469 1.54726562 15.01992187 1.50859375 14.00390625 1.46875 C12.97136719 1.4378125 11.93882812 1.406875 10.875 1.375 C9.83472656 1.33632812 8.79445312 1.29765625 7.72265625 1.2578125 C5.14861689 1.16335234 2.57458845 1.07778786 0 1 C0 0.67 0 0.34 0 0 Z " fill="#2AA98C" transform="translate(176,210)"/>
<path d="M0 0 C0.66 0.33 1.32 0.66 2 1 C1.360625 1.721875 0.72125 2.44375 0.0625 3.1875 C-2.16828928 5.75371883 -2.16828928 5.75371883 -2.3125 8.4375 C-3.41295915 12.53921136 -6.71139834 14.50134966 -10 17 C-10.57294686 12.12995165 -8.94689289 9.79994083 -6 6 C-4.05980487 3.92257156 -2.05804287 1.96449547 0 0 Z " fill="#3D424E" transform="translate(306,147)"/>
<path d="M0 0 C2.31 0 4.62 0 7 0 C7 3.3 7 6.6 7 10 C5.35 10 3.7 10 2 10 C1.34 6.7 0.68 3.4 0 0 Z " fill="#3DBCA7" transform="translate(353,180)"/>
<path d="M0 0 C1.98 0 3.96 0 6 0 C5 3 5 3 3.453125 4.62890625 C1.22248232 8.26869148 1.64257482 11.75798914 1.75 15.9375 C1.75515625 16.73607422 1.7603125 17.53464844 1.765625 18.35742188 C1.81862006 22.35523687 2.02305568 26.1001013 3 30 C2.34 30 1.68 30 1 30 C-0.40912096 27.18175808 -0.11183553 24.82748718 -0.09765625 21.6796875 C-0.09443359 20.42285156 -0.09121094 19.16601562 -0.08789062 17.87109375 C-0.07951172 16.55238281 -0.07113281 15.23367187 -0.0625 13.875 C-0.05748489 12.53515789 -0.05292201 11.195314 -0.04882812 9.85546875 C-0.03701086 6.57026794 -0.02053617 3.28515603 0 0 Z " fill="#3FB995" transform="translate(380,210)"/>
<path d="M0 0 C3.3 0 6.6 0 10 0 C6.7366183 3.93089159 4.11767846 6.91174115 0 10 C0 6.7 0 3.4 0 0 Z " fill="#28A7A0" transform="translate(340,220)"/>
<path d="M0 0 C3.3 0 6.6 0 10 0 C6.7366183 3.93089159 4.11767846 6.91174115 0 10 C0 6.7 0 3.4 0 0 Z " fill="#2BAC9B" transform="translate(350,210)"/>
<path d="M0 0 C0 2.97 0 5.94 0 9 C-1.98 9 -3.96 9 -6 9 C-6.75 6.75 -6.75 6.75 -7 4 C-4.69139139 0.94933862 -3.89789797 0 0 0 Z " fill="#3BBDD0" transform="translate(320,161)"/>
<path d="M0 0 C0.82902832 0.32145996 1.65805664 0.64291992 2.51220703 0.97412109 C6.33098559 2.09735415 9.86072803 2.34812 13.8046875 2.4140625 C14.8906572 2.44311172 14.8906572 2.44311172 15.99856567 2.4727478 C18.29059398 2.53209886 20.58267374 2.57874878 22.875 2.625 C24.43752081 2.66322087 26.00002148 2.70227494 27.5625 2.7421875 C31.37483465 2.83776308 35.1872678 2.92195606 39 3 C39 3.33 39 3.66 39 4 C37.53191895 4.03758423 37.53191895 4.03758423 36.03417969 4.07592773 C32.39619296 4.17023983 28.75838657 4.27040203 25.12060547 4.37231445 C23.54740626 4.41557338 21.97416283 4.45725474 20.40087891 4.49731445 C18.13690885 4.55523662 15.87315949 4.61886714 13.609375 4.68359375 C12.90818542 4.70030624 12.20699585 4.71701874 11.48455811 4.73423767 C8.19766179 4.83351022 5.14857995 5.00812672 2 6 C1.34 4.02 0.68 2.04 0 0 Z " fill="#002B41" transform="translate(106,239)"/>
<path d="M0 0 C0.66 0.33 1.32 0.66 2 1 C1.67 4.96 1.34 8.92 1 13 C-1.475 12.01 -1.475 12.01 -4 11 C-5 8 -5 8 -4.25 5.5 C-3.06488343 3.12976686 -1.98707119 1.71610694 0 0 Z " fill="#27ABA2" transform="translate(349,197)"/>
<path d="M0 0 C0.33 0.66 0.66 1.32 1 2 C1.66 2 2.32 2 3 2 C3 2.66 3 3.32 3 4 C3.66 4 4.32 4 5 4 C5.99 5.485 5.99 5.485 7 7 C8.32 6.67 9.64 6.34 11 6 C10.67 6.99 10.34 7.98 10 9 C13.465 10.485 13.465 10.485 17 12 C17 12.33 17 12.66 17 13 C12.41351131 13.45113003 10.09124313 12.15103565 6.3125 9.625 C4.88357422 8.68527344 4.88357422 8.68527344 3.42578125 7.7265625 C1 6 1 6 -1 4 C-0.625 1.875 -0.625 1.875 0 0 Z " fill="#545561" transform="translate(92,245)"/>
<path d="M0 0 C0.66 0.33 1.32 0.66 2 1 C1.57847656 1.38671875 1.15695313 1.7734375 0.72265625 2.171875 C-0.09912109 2.95304688 -0.09912109 2.95304688 -0.9375 3.75 C-1.48277344 4.26046875 -2.02804688 4.7709375 -2.58984375 5.296875 C-4.1691747 7.2043218 -4.44640275 8.62601538 -5 11 C-5.99 11.495 -5.99 11.495 -7 12 C-7.65213292 14.02463255 -7.65213292 14.02463255 -8 16 C-9.32 16.33 -10.64 16.66 -12 17 C-11.42415568 14.61435923 -10.77772405 12.33317216 -10 10 C-9.34 10 -8.68 10 -8 10 C-7.79375 9.46375 -7.5875 8.9275 -7.375 8.375 C-5.42003056 4.9982346 -2.81776305 2.69525161 0 0 Z M-7 12 C-6.34 12 -5.68 12 -5 12 C-5 12.66 -5 13.32 -5 14 C-5.66 14 -6.32 14 -7 14 C-7 13.34 -7 12.68 -7 12 Z " fill="#82848B" transform="translate(97,197)"/>
<path d="M0 0 C2.97 0 5.94 0 9 0 C5.7366183 3.93089159 3.11767846 6.91174115 -1 10 C-0.67 6.7 -0.34 3.4 0 0 Z " fill="#31A5A8" transform="translate(330,230)"/>
<path d="M0 0 C0.33 0.66 0.66 1.32 1 2 C1.66 2 2.32 2 3 2 C3 4.64 3 7.28 3 10 C0.525 9.01 0.525 9.01 -2 8 C-2 7.34 -2 6.68 -2 6 C-3.65 6.66 -5.3 7.32 -7 8 C-6.02133662 6.85373678 -5.04205413 5.70800212 -4.0625 4.5625 C-3.51722656 3.92441406 -2.97195313 3.28632813 -2.41015625 2.62890625 C-1.63204305 1.73008851 -0.84063472 0.84063472 0 0 Z " fill="#23A1A6" transform="translate(327,218)"/>
<path d="M0 0 C3.3 0 6.6 0 10 0 C10 2.97 10 5.94 10 9 C9.0925 8.195625 8.185 7.39125 7.25 6.5625 C4.89690092 4.58857329 3.13061954 3.36122533 0 3 C0 2.01 0 1.02 0 0 Z " fill="#49BE9F" transform="translate(370,200)"/>
<path d="M0 0 C0.33 0.66 0.66 1.32 1 2 C-2.23450227 6.8517534 -7.44622836 7.84354132 -13 9 C-16.0567188 8.772372 -18.10794939 8.11232716 -21 7 C-21 6.67 -21 6.34 -21 6 C-19.90300781 5.90203125 -18.80601562 5.8040625 -17.67578125 5.703125 C-16.22126122 5.552981 -14.76683882 5.40188917 -13.3125 5.25 C-12.2306543 5.1571875 -12.2306543 5.1571875 -11.12695312 5.0625 C-6.29830909 4.53333353 -3.60408795 3.49745813 0 0 Z " fill="#032034" transform="translate(301,267)"/>
<path d="M0 0 C0.99 0 1.98 0 3 0 C3 3.3 3 6.6 3 10 C1.68 10 0.36 10 -1 10 C-0.67 8.68 -0.34 7.36 0 6 C-0.99 6.33 -1.98 6.66 -3 7 C-2.38722388 4.03824877 -1.74627478 2.61941217 0 0 Z " fill="#25AA97" transform="translate(357,190)"/>
<path d="M0 0 C0.33 0 0.66 0 1 0 C1.04125 1.27875 1.0825 2.5575 1.125 3.875 C1.65901872 9.06730505 3.84196875 12.56574191 6.72265625 16.8359375 C8 19 8 19 8 22 C3.53481655 17.89685845 0.21882887 14.44417607 -0.1796875 8.171875 C-0.18669053 5.44069272 -0.13104935 2.72776803 0 0 Z " fill="#2090BC" transform="translate(100,304)"/>
<path d="M0 0 C2.97 0 5.94 0 9 0 C9 1.32 9 2.64 9 4 C10.32 4.33 11.64 4.66 13 5 C5.73846154 5.61538462 5.73846154 5.61538462 2 2.5 C1.34 1.675 0.68 0.85 0 0 Z " fill="#2B9976" transform="translate(381,240)"/>
<path d="M0 0 C0.66 0 1.32 0 2 0 C1.84015625 0.54914063 1.6803125 1.09828125 1.515625 1.6640625 C0.00034779 8.52872742 0.27918041 14.95366817 4 21 C4 21.66 4 22.32 4 23 C1 22 1 22 -0.17578125 19.91796875 C-1.20118945 16.28773215 -1.22810645 13.08151645 -1.1875 9.3125 C-1.18685547 8.63638672 -1.18621094 7.96027344 -1.18554688 7.26367188 C-1.1409337 2.2818674 -1.1409337 2.2818674 0 0 Z " fill="#032C4A" transform="translate(100,300)"/>
<path d="M0 0 C1.98 0 3.96 0 6 0 C6 0.66 6 1.32 6 2 C5.01 2 4.02 2 3 2 C2.896875 2.763125 2.79375 3.52625 2.6875 4.3125 C1.95288806 7.18416484 1.3283935 8.23042094 -1 10 C-1.66 10 -2.32 10 -3 10 C-2.67 8.68 -2.34 7.36 -2 6 C-1.34 6.33 -0.68 6.66 0 7 C0 4.69 0 2.38 0 0 Z " fill="#33AFBC" transform="translate(310,250)"/>
<path d="M0 0 C0.66 0.33 1.32 0.66 2 1 C1.34 2.32 0.68 3.64 0 5 C-0.66 5 -1.32 5 -2 5 C-2 5.66 -2 6.32 -2 7 C-2.99 7.33 -3.98 7.66 -5 8 C-5.33 8.99 -5.66 9.98 -6 11 C-7.65 11.33 -9.3 11.66 -11 12 C-7.49102731 7.81576108 -3.91939465 3.80411834 0 0 Z " fill="#35A1AD" transform="translate(316,229)"/>
<path d="M0 0 C0.66 0.33 1.32 0.66 2 1 C1.67386719 1.5671875 1.34773438 2.134375 1.01171875 2.71875 C-0.08943661 5.20166401 -0.23828102 6.80398946 -0.1875 9.5 C-0.18105469 10.2528125 -0.17460938 11.005625 -0.16796875 11.78125 C-0.00303563 13.95990143 0.40399094 15.90204811 1 18 C0.34 18 -0.32 18 -1 18 C-1.12375 16.865625 -1.2475 15.73125 -1.375 14.5625 C-1.58125 13.386875 -1.7875 12.21125 -2 11 C-2.66 10.67 -3.32 10.34 -4 10 C-3.38461538 3.47692308 -3.38461538 3.47692308 -1.4375 1.0625 C-0.7259375 0.5365625 -0.7259375 0.5365625 0 0 Z " fill="#052A48" transform="translate(101,216)"/>
<path d="M0 0 C2.53552912 1.26776456 2.84919575 2.46823065 4 5 C4.33 5.66 4.66 6.32 5 7 C2 8 -1 9 -4 10 C-3.29445932 6.33118845 -1.72264494 3.29549466 0 0 Z " fill="#5D616E" transform="translate(89,287)"/>
<path d="M0 0 C0.99 0 1.98 0 3 0 C2.75881648 3.25597758 1.47775788 4.7276304 -0.875 6.8125 C-1.90625 7.534375 -2.9375 8.25625 -4 9 C-4.99 8.67 -5.98 8.34 -7 8 C-6.34 7.34 -5.68 6.68 -5 6 C-5.33 5.34 -5.66 4.68 -6 4 C-5.38125 3.896875 -4.7625 3.79375 -4.125 3.6875 C-1.63473516 3.12474627 -1.63473516 3.12474627 0 0 Z " fill="#5D626A" transform="translate(407,251)"/>
<path d="M0 0 C2.5 1.3125 2.5 1.3125 5 3 C5 3.99 5 4.98 5 6 C1.7 6 -1.6 6 -5 6 C-4.67 5.01 -4.34 4.02 -4 3 C-2.68 3 -1.36 3 0 3 C0 2.01 0 1.02 0 0 Z " fill="#39B8B7" transform="translate(335,224)"/>
<path d="M0 0 C-4.40086567 3.12319499 -8.79459302 4.03603575 -14 5 C-14 4.34 -14 3.68 -14 3 C-10.01355947 -0.83311589 -5.22191505 -1.80758598 0 0 Z " fill="#169BC9" transform="translate(119,292)"/>
<path d="M0 0 C1.32 0 2.64 0 4 0 C4 0.99 4 1.98 4 3 C-2.6 3 -9.2 3 -16 3 C-16 2.67 -16 2.34 -16 2 C-14.92878906 1.93941406 -13.85757812 1.87882812 -12.75390625 1.81640625 C-11.35675609 1.73201463 -9.95962143 1.64736594 -8.5625 1.5625 C-7.50192383 1.50352539 -7.50192383 1.50352539 -6.41992188 1.44335938 C-2.91309581 1.52375562 -2.91309581 1.52375562 0 0 Z " fill="#7BC3D7" transform="translate(286,257)"/>
<path d="M0 0 C2.74526635 1.37263317 3.44355648 3.40592747 5 6 C7.40545638 7.20272819 8.94996953 7.10071472 11.625 7.0625 C12.44226563 7.05347656 13.25953125 7.04445312 14.1015625 7.03515625 C14.72804688 7.02355469 15.35453125 7.01195312 16 7 C16 7.66 16 8.32 16 9 C5.32728444 9.37302695 5.32728444 9.37302695 1 7 C0 6 0 6 -0.0625 2.9375 C-0.041875 1.968125 -0.02125 0.99875 0 0 Z " fill="#04282A" transform="translate(379,237)"/>
<path d="M0 0 C0.5775 0.495 1.155 0.99 1.75 1.5 C4.10400629 3.36980013 4.10400629 3.36980013 8 3 C8 3.66 8 4.32 8 5 C8.66 5 9.32 5 10 5 C10 5.99 10 6.98 10 8 C11.32 8.66 12.64 9.32 14 10 C8.70459011 9.66903688 4.75586243 6.52770257 1 3 C0.67 2.01 0.34 1.02 0 0 Z " fill="#8C8E94" transform="translate(300,186)"/>
<path d="M0 0 C3.875 1.875 3.875 1.875 5 3 C5.04080783 4.99958364 5.04254356 7.00045254 5 9 C3.35 9 1.7 9 0 9 C0.185625 8.2575 0.37125 7.515 0.5625 6.75 C0.99203108 4.05009037 0.85122974 2.55368923 0 0 Z " fill="#40B990" transform="translate(394,161)"/>
<path d="M0 0 C0 4.8 0 4.8 -1 7 C-3.25821397 8.71351914 -5.4024169 9.7695659 -8 11 C-8.66 10.67 -9.32 10.34 -10 10 C-6.7 6.7 -3.4 3.4 0 0 Z " fill="#062330" transform="translate(357,213)"/>
<path d="M0 0 C3.3 0 6.6 0 10 0 C8.73058503 3.91402949 7.48832306 5.79072873 4 8 C3.34 7.67 2.68 7.34 2 7 C2.99 5.68 3.98 4.36 5 3 C2.525 2.01 2.525 2.01 0 1 C0 0.67 0 0.34 0 0 Z " fill="#9598A0" transform="translate(316,196)"/>
<path d="M0 0 C0.66 0.33 1.32 0.66 2 1 C0.02 3.31 -1.96 5.62 -4 8 C-4.99 7.67 -5.98 7.34 -7 7 C-7 5.68 -7 4.36 -7 3 C-4.69631264 1.93347808 -2.35981813 0.93578995 0 0 Z " fill="#15A2DA" transform="translate(111,211)"/>
<path d="M0 0 C1.65 0 3.3 0 5 0 C5 3.96 5 7.92 5 12 C4.67 12 4.34 12 4 12 C3.67 9.03 3.34 6.06 3 3 C1.02 3.99 1.02 3.99 -1 5 C-1.33 4.34 -1.66 3.68 -2 3 C-1.34 3 -0.68 3 0 3 C0 2.01 0 1.02 0 0 Z " fill="#16B483" transform="translate(200,211)"/>
<path d="M0 0 C0.99 0.99 1.98 1.98 3 3 C0.03 5.97 -2.94 8.94 -6 12 C-6.33 10.68 -6.66 9.36 -7 8 C-6.01 8 -5.02 8 -4 8 C-4 7.34 -4 6.68 -4 6 C-3.34 6 -2.68 6 -2 6 C-2 5.34 -2 4.68 -2 4 C-1.34 4 -0.68 4 0 4 C0 2.68 0 1.36 0 0 Z " fill="#31909C" transform="translate(320,244)"/>
<path d="M0 0 C0.33 0.99 0.66 1.98 1 3 C0.01 3.33 -0.98 3.66 -2 4 C-2.12375 4.61875 -2.2475 5.2375 -2.375 5.875 C-3 8 -3 8 -5.4375 9.8125 C-6.283125 10.204375 -7.12875 10.59625 -8 11 C-8.66 10.67 -9.32 10.34 -10 10 C-6.7 6.7 -3.4 3.4 0 0 Z " fill="#062F42" transform="translate(334,235)"/>
<path d="M0 0 C0.66 0.66 1.32 1.32 2 2 C1.01 2.495 1.01 2.495 0 3 C-1.05352843 5.30965848 -2.05719096 7.6429774 -3 10 C-3.99 9.67 -4.98 9.34 -6 9 C-4.83857315 4.64464931 -3.92300495 2.35380297 0 0 Z " fill="#111525" transform="translate(301,221)"/>
<path d="M0 0 C0.66 0.33 1.32 0.66 2 1 C0.73046875 2.46484375 -0.5390625 3.9296875 -1.80859375 5.39453125 C-3.20871231 7.10712971 -3.20871231 7.10712971 -4 10 C-5.65 10.33 -7.3 10.66 -9 11 C-9 10.34 -9 9.68 -9 9 C-8.34 9 -7.68 9 -7 9 C-7 8.34 -7 7.68 -7 7 C-6.34 7 -5.68 7 -5 7 C-4.731875 6.401875 -4.46375 5.80375 -4.1875 5.1875 C-3.01506533 3.02775192 -1.80630718 1.64209744 0 0 Z " fill="#979CA2" transform="translate(311,209)"/>
<path d="M0 0 C1.65 0.33 3.3 0.66 5 1 C3.06745228 3.0245738 1.36841312 4.42105792 -1 6 C-3.1875 5.625 -3.1875 5.625 -5 5 C-4.67 4.34 -4.34 3.68 -4 3 C-3.34 3 -2.68 3 -2 3 C-1.34 2.01 -0.68 1.02 0 0 Z " fill="#5B5E6B" transform="translate(327,338)"/>
<path d="M0 0 C2 1 2 1 3.25 2.75 C4 5 4 5 3.125 7.75 C2.75375 8.4925 2.3825 9.235 2 10 C1.34 10 0.68 10 0 10 C0 6.7 0 3.4 0 0 Z " fill="#111525" transform="translate(363,230)"/>
<path d="M0 0 C0.66 0 1.32 0 2 0 C3.05404945 3.98196457 2.84098656 6.98195309 2 11 C-0.7865517 8.2134483 -0.65662895 5.84575573 -1 2 C-0.67 1.34 -0.34 0.68 0 0 Z " fill="#13A4DC" transform="translate(102,222)"/>
<path d="M0 0 C0.66 0.33 1.32 0.66 2 1 C1.125 4.875 1.125 4.875 0 6 C1.32 6.99 2.64 7.98 4 9 C1.03 8.505 1.03 8.505 -2 8 C-2.6875 5.6875 -2.6875 5.6875 -3 3 C-1.5625 1.1875 -1.5625 1.1875 0 0 Z " fill="#70727D" transform="translate(321,267)"/>
<path d="M0 0 C2 2 2 2 2.3125 5 C2.209375 5.99 2.10625 6.98 2 8 C1.01 8.66 0.02 9.32 -1 10 C-1.125 2.25 -1.125 2.25 0 0 Z " fill="#111526" transform="translate(85,216)"/>
<path d="M0 0 C1.9375 0.3125 1.9375 0.3125 4 1 C4.33 1.99 4.66 2.98 5 4 C3.35 5.32 1.7 6.64 0 8 C0 5.36 0 2.72 0 0 Z " fill="#299A8D" transform="translate(350,212)"/>
<path d="M0 0 C0.66 0.33 1.32 0.66 2 1 C-0.66666667 3.66666667 -3.33333333 6.33333333 -6 9 C-6.99 8.67 -7.98 8.34 -9 8 C-6.03 5.36 -3.06 2.72 0 0 Z " fill="#092B42" transform="translate(316,253)"/>
<path d="M0 0 C1.4540625 0.0309375 1.4540625 0.0309375 2.9375 0.0625 C1.9375 3.0625 1.9375 3.0625 -0.0625 4.0625 C-1.0525 5.5475 -1.0525 5.5475 -2.0625 7.0625 C-2.7225 5.0825 -3.3825 3.1025 -4.0625 1.0625 C-3.0625 0.0625 -3.0625 0.0625 0 0 Z " fill="#239CB1" transform="translate(307.0625,239.9375)"/>
<path d="M0 0 C3.96 0 7.92 0 12 0 C12 0.33 12 0.66 12 1 C11.030625 1.12375 10.06125 1.2475 9.0625 1.375 C7.5465625 1.684375 7.5465625 1.684375 6 2 C5.67 2.66 5.34 3.32 5 4 C3.68 3.67 2.36 3.34 1 3 C1.33 2.34 1.66 1.68 2 1 C1.34 0.67 0.68 0.34 0 0 Z " fill="#111525" transform="translate(295,330)"/>
<path d="M0 0 C0.99 0 1.98 0 3 0 C2.67 0.99 2.34 1.98 2 3 C5.465 4.485 5.465 4.485 9 6 C9 6.33 9 6.66 9 7 C4.72656908 7.36629408 2.51187196 6.40814077 -1 4 C-0.67 2.68 -0.34 1.36 0 0 Z " fill="#6D6F78" transform="translate(100,251)"/>
<path d="M0 0 C0.33 0 0.66 0 1 0 C1 1.98 1 3.96 1 6 C-2.63 6 -6.26 6 -10 6 C-10 5.34 -10 4.68 -10 4 C-7.36 4 -4.72 4 -2 4 C-1.34 2.68 -0.68 1.36 0 0 Z " fill="#29AC87" transform="translate(204,236)"/>
<path d="M0 0 C0.33 0.66 0.66 1.32 1 2 C-2 5 -5 8 -8 11 C-8.66 10.67 -9.32 10.34 -10 10 C-6.7 6.7 -3.4 3.4 0 0 Z " fill="#8B8E96" transform="translate(296,224)"/>
<path d="M0 0 C1.32 0.33 2.64 0.66 4 1 C2.8572081 2.16964602 1.71068285 3.33564556 0.5625 4.5 C-0.07558594 5.1496875 -0.71367187 5.799375 -1.37109375 6.46875 C-3 8 -3 8 -4 8 C-4 6.35 -4 4.7 -4 3 C-3.01 3.33 -2.02 3.66 -1 4 C-0.67 2.68 -0.34 1.36 0 0 Z " fill="#092A3E" transform="translate(316,225)"/>
<path d="M0 0 C0.66 0.99 1.32 1.98 2 3 C-0.52956528 6.0916909 -3.22454612 6.90931332 -7 8 C-6.02133662 6.85373678 -5.04205413 5.70800212 -4.0625 4.5625 C-3.51722656 3.92441406 -2.97195313 3.28632813 -2.41015625 2.62890625 C-1.63204305 1.73008851 -0.84063472 0.84063472 0 0 Z " fill="#2E8C93" transform="translate(327,218)"/>
<path d="M0 0 C0.99 0 1.98 0 3 0 C3 0.66 3 1.32 3 2 C3.66 2 4.32 2 5 2 C4.67 2.99 4.34 3.98 4 5 C2.35 5 0.7 5 -1 5 C-0.67 3.35 -0.34 1.7 0 0 Z " fill="#3AC6BB" transform="translate(341,215)"/>
<path d="M0 0 C0.33 0.66 0.66 1.32 1 2 C0.67 2.99 0.34 3.98 0 5 C-0.66 5 -1.32 5 -2 5 C-1.67 5.99 -1.34 6.98 -1 8 C-2.98 8.99 -2.98 8.99 -5 10 C-4.300926 6.22500037 -2.74803773 2.74803773 0 0 Z " fill="#7C7F87" transform="translate(301,152)"/>
<path d="M0 0 C-5.75 4 -5.75 4 -8 4 C-8.33 4.99 -8.66 5.98 -9 7 C-9.33 6.01 -9.66 5.02 -10 4 C-7.26634436 -0.10048346 -4.7993062 -1.59976873 0 0 Z " fill="#052B48" transform="translate(113,291)"/>
<path d="M0 0 C0.33 2.31 0.66 4.62 1 7 C-0.32 7 -1.64 7 -3 7 C-3 6.01 -3 5.02 -3 4 C-3.66 3.67 -4.32 3.34 -5 3 C-2.25 0 -2.25 0 0 0 Z " fill="#279AB1" transform="translate(303,243)"/>
<path d="M0 0 C2.31 0.33 4.62 0.66 7 1 C5.8125 2.5 5.8125 2.5 4 4 C1.3125 4.1875 1.3125 4.1875 -1 4 C-0.67 2.68 -0.34 1.36 0 0 Z " fill="#12A7E2" transform="translate(105,232)"/>
<path d="M0 0 C2.64 0 5.28 0 8 0 C6.35 1.65 4.7 3.3 3 5 C2.01 3.35 1.02 1.7 0 0 Z " fill="#2B9A9A" transform="translate(331,230)"/>
<path d="M0 0 C1.65 0 3.3 0 5 0 C3.515 1.485 3.515 1.485 2 3 C2.33 3.66 2.66 4.32 3 5 C2.0625 7.625 2.0625 7.625 1 10 C0.34 9.67 -0.32 9.34 -1 9 C-0.67 6.03 -0.34 3.06 0 0 Z " fill="#27B087" transform="translate(380,200)"/>
<path d="M0 0 C1.98 0.495 1.98 0.495 4 1 C4 2.65 4 4.3 4 6 C2.35 6 0.7 6 -1 6 C-0.67 4.02 -0.34 2.04 0 0 Z " fill="#44C4AF" transform="translate(356,184)"/>
<path d="M0 0 C4.875 1.75 4.875 1.75 6 4 C4.35 4.66 2.7 5.32 1 6 C0.34 5.01 -0.32 4.02 -1 3 C-0.34 3 0.32 3 1 3 C0.67 2.01 0.34 1.02 0 0 Z " fill="#565C65" transform="translate(401,145)"/>
<path d="M0 0 C0.66 0.33 1.32 0.66 2 1 C2 1.66 2 2.32 2 3 C3.32 3.33 4.64 3.66 6 4 C5.01 4.99 4.02 5.98 3 7 C1.68 5.68 0.36 4.36 -1 3 C-0.67 2.01 -0.34 1.02 0 0 Z " fill="#464A55" transform="translate(90,329)"/>
<path d="M0 0 C1.65 0 3.3 0 5 0 C5.33 0.99 5.66 1.98 6 3 C5 4 5 4 2.4375 4.0625 C1.2309375 4.0315625 1.2309375 4.0315625 0 4 C0 2.68 0 1.36 0 0 Z " fill="#3BC291" transform="translate(390,240)"/>
<path d="M0 0 C1.65 0 3.3 0 5 0 C4.02433888 1.16959987 3.044375 2.33561177 2.0625 3.5 C1.51722656 4.1496875 0.97195313 4.799375 0.41015625 5.46875 C-0.05519531 5.9740625 -0.52054687 6.479375 -1 7 C-1.33 7 -1.66 7 -2 7 C-2 5.35 -2 3.7 -2 2 C-1.01 2.33 -0.02 2.66 1 3 C0.67 2.01 0.34 1.02 0 0 Z " fill="#309893" transform="translate(345,220)"/>
<path d="M0 0 C0.33 0 0.66 0 1 0 C1 2.64 1 5.28 1 8 C-0.65 8 -2.3 8 -4 8 C-2.68 5.36 -1.36 2.72 0 0 Z " fill="#36BBAA" transform="translate(349,212)"/>
<path d="M0 0 C-4.5 3 -4.5 3 -9 6 C-8.1875 3.0625 -8.1875 3.0625 -7 0 C-3.86650268 -1.04449911 -3.01031744 -0.93423645 0 0 Z " fill="#339F8F" transform="translate(369,204)"/>
<path d="M0 0 C0.66 0.33 1.32 0.66 2 1 C1.67 2.98 1.34 4.96 1 7 C0.01 7 -0.98 7 -2 7 C-2.66 6.01 -3.32 5.02 -4 4 C-2.68 2.68 -1.36 1.36 0 0 Z " fill="#35A6A0" transform="translate(349,197)"/>
<path d="M0 0 C0.66 0.33 1.32 0.66 2 1 C1.505 1.7425 1.505 1.7425 1 2.5 C-0.43636358 6.09090894 -0.12851462 9.14456127 0 13 C-0.66 13 -1.32 13 -2 13 C-2.05391993 11.20866022 -2.09275571 9.41686101 -2.125 7.625 C-2.14820313 6.62726563 -2.17140625 5.62953125 -2.1953125 4.6015625 C-2 2 -2 2 0 0 Z " fill="#04283E" transform="translate(313,162)"/>
<path d="M0 0 C0 0.99 0 1.98 0 3 C-1.175625 3.433125 -1.175625 3.433125 -2.375 3.875 C-5.09671632 4.84912254 -5.09671632 4.84912254 -7 7 C-6.6875 4.625 -6.6875 4.625 -6 2 C-3 0 -3 0 0 0 Z " fill="#44AAB9" transform="translate(320,161)"/>
<path d="M0 0 C1.32 0 2.64 0 4 0 C2.84826645 2.46800047 1.95216435 4.04783565 0 6 C-0.99 5.67 -1.98 5.34 -3 5 C-1.75 2.5 -1.75 2.5 0 0 Z " fill="#121723" transform="translate(331,256)"/>
<path d="M0 0 C1.24546405 2.49092811 0.7767578 3.41080733 0 6 C-1.98 6.33 -3.96 6.66 -6 7 C-4.02 4.69 -2.04 2.38 0 0 Z " fill="#0B383E" transform="translate(364,206)"/>
<path d="M0 0 C0.66 0.33 1.32 0.66 2 1 C1.67 2.32 1.34 3.64 1 5 C-0.32 5.33 -1.64 5.66 -3 6 C-2.67 4.68 -2.34 3.36 -2 2 C-1.34 2 -0.68 2 0 2 C0 1.34 0 0.68 0 0 Z M2 1 C2.66 1 3.32 1 4 1 C4 1.66 4 2.32 4 3 C3.34 3 2.68 3 2 3 C2 2.34 2 1.68 2 1 Z " fill="#515663" transform="translate(88,208)"/>
<path d="M0 0 C0.33 0.66 0.66 1.32 1 2 C1.99 2.33 2.98 2.66 4 3 C0.25 6 0.25 6 -2 6 C-2 4.35 -2 2.7 -2 1 C-1.34 0.67 -0.68 0.34 0 0 Z " fill="#082237" transform="translate(106,208)"/>
<path d="M0 0 C0.185625 0.9590625 0.185625 0.9590625 0.375 1.9375 C0.684375 2.9584375 0.684375 2.9584375 1 4 C1.66 4.33 2.32 4.66 3 5 C1.35 5.33 -0.3 5.66 -2 6 C-2 4.35 -2 2.7 -2 1 C-1.34 0.67 -0.68 0.34 0 0 Z " fill="#0FA6E4" transform="translate(108,221)"/>
<path d="M0 0 C1.98 0 3.96 0 6 0 C6 1.98 6 3.96 6 6 C3.97945196 4.35830472 1.97956942 2.69088222 0 1 C0 0.67 0 0.34 0 0 Z " fill="#3BC299" transform="translate(374,200)"/>
<path d="M0 0 C1.32 0.33 2.64 0.66 4 1 C1.69 3.31 -0.62 5.62 -3 8 C-3.33 7.34 -3.66 6.68 -4 6 C-3.525625 5.566875 -3.05125 5.13375 -2.5625 4.6875 C-0.76313043 2.97690387 -0.76313043 2.97690387 0 0 Z " fill="#032736" transform="translate(348,194)"/>
<path d="M0 0 C0 3 0 3 -2 5.1875 C-2.66 5.785625 -3.32 6.38375 -4 7 C-4.33 5.68 -4.66 4.36 -5 3 C-3.35 2.01 -1.7 1.02 0 0 Z " fill="#696B74" transform="translate(340,328)"/>
<path d="M0 0 C-0.66 1.65 -1.32 3.3 -2 5 C-2.99 4.67 -3.98 4.34 -5 4 C-5 3.01 -5 2.02 -5 1 C-3 0 -3 0 0 0 Z " fill="#0DA5E3" transform="translate(111,295)"/>
<path d="M0 0 C0.33 0.66 0.66 1.32 1 2 C-1 5 -1 5 -2.9453125 5.51171875 C-3.66460937 5.56972656 -4.38390625 5.62773437 -5.125 5.6875 C-7.043125 5.8421875 -7.043125 5.8421875 -9 6 C-8.443125 5.7525 -7.88625 5.505 -7.3125 5.25 C-4.60028873 3.78393985 -2.36412635 1.97010529 0 0 Z " fill="#0C2A43" transform="translate(301,267)"/>
<path d="M0 0 C-6.75 3 -6.75 3 -9 3 C-9 2.01 -9 1.02 -9 0 C-3.375 -1.125 -3.375 -1.125 0 0 Z " fill="#4096AE" transform="translate(299,270)"/>
<path d="M0 0 C1.32 0.33 2.64 0.66 4 1 C4 1.99 4 2.98 4 4 C2.02 4 0.04 4 -2 4 C-1.34 2.68 -0.68 1.36 0 0 Z " fill="#0E172A" transform="translate(289,248)"/>
<path d="M0 0 C2.4375 0.8125 2.4375 0.8125 5 2 C5.33 2.99 5.66 3.98 6 5 C4.68 5.33 3.36 5.66 2 6 C1.34 4.02 0.68 2.04 0 0 Z " fill="#06233E" transform="translate(106,239)"/>
<path d="M0 0 C0.66 0 1.32 0 2 0 C2 2.64 2 5.28 2 8 C1.67 7.34 1.34 6.68 1 6 C0.34 5.67 -0.32 5.34 -1 5 C-0.67 3.35 -0.34 1.7 0 0 Z " fill="#31B3BE" transform="translate(318,227)"/>
<path d="M0 0 C1.5625 1.75 1.5625 1.75 3 4 C2.6875 6.25 2.6875 6.25 2 8 C2 7.34 2 6.68 2 6 C1.34 6 0.68 6 0 6 C0 5.34 0 4.68 0 4 C-0.66 3.67 -1.32 3.34 -2 3 C-1.34 2.01 -0.68 1.02 0 0 Z " fill="#797B84" transform="translate(341,291)"/>
<path d="M0 0 C1.98 0.495 1.98 0.495 4 1 C2.515 3.475 2.515 3.475 1 6 C0.34 5.67 -0.32 5.34 -1 5 C-0.67 3.35 -0.34 1.7 0 0 Z " fill="#339D7B" transform="translate(396,237)"/>
<path d="M0 0 C1.32 0.66 2.64 1.32 4 2 C1.03 4.475 1.03 4.475 -2 7 C-2 3.89448334 -1.4606285 2.64738916 0 0 Z " fill="#092F3F" transform="translate(332,209)"/>
<path d="M0 0 C0 3.20395416 -0.74335022 5.09399739 -2 8 C-2.99 7.67 -3.98 7.34 -5 7 C-3.70700306 4.11562221 -2.34058637 2.12780579 0 0 Z " fill="#101420" transform="translate(97,199)"/>
</svg>
