<?xml version="1.0" encoding="UTF-8"?>
<svg version="1.1" xmlns="http://www.w3.org/2000/svg" width="500" height="500">
<path d="M0 0 C1.51727846 -0.00135726 3.03455659 -0.00313901 4.55183411 -0.00531006 C8.65369402 -0.00984963 12.75552864 -0.00810813 16.85738897 -0.00493097 C21.17397978 -0.00238474 25.49056853 -0.00475162 29.80715942 -0.00631714 C37.06496566 -0.0081342 44.32276172 -0.00574672 51.58056641 -0.00097656 C59.92428342 0.00444463 68.26797591 0.00271718 76.61169231 -0.00280297 C83.81041479 -0.00737196 91.00912997 -0.00796567 98.20785344 -0.0053643 C102.49128375 -0.00381955 106.77470263 -0.00355709 111.05813217 -0.00690079 C141.69264798 -0.02727624 141.69264798 -0.02727624 153.04785156 0.51269531 C154.08883405 0.55820935 154.08883405 0.55820935 155.15084648 0.60464287 C161.68853548 0.99275809 168.0664506 2.01040541 173.86767578 5.12939453 C173.86767578 5.78939453 173.86767578 6.44939453 173.86767578 7.12939453 C174.44517578 7.35626953 175.02267578 7.58314453 175.61767578 7.81689453 C179.34265955 9.98980173 181.41106373 12.89631095 182.9003458 16.91812611 C184.84851401 25.525999 185.30239149 33.78255048 185.27172852 42.58325195 C185.27744638 44.08617149 185.28441605 45.5890867 185.29252625 47.09199524 C185.3103096 51.13315414 185.30931842 55.17409419 185.30358386 59.21528029 C185.30047257 62.60250801 185.30660535 65.98969485 185.31262261 69.37691671 C185.32661539 77.37020958 185.32514846 85.36339544 185.3137207 93.35668945 C185.30222443 101.57922349 185.31635237 109.80143191 185.34311718 118.0239231 C185.36531601 125.1113549 185.37190275 132.19868478 185.36604077 139.28614885 C185.36268242 143.50726883 185.36501207 147.72817981 185.38229179 151.94927025 C185.39782768 155.91644991 185.39373257 159.88314826 185.37498665 163.85030937 C185.3713201 165.29903323 185.37435236 166.74779331 185.38487244 168.19648361 C185.45548573 178.73068027 184.52364033 188.24143106 176.86767578 196.12939453 C169.50082455 202.57538936 163.10910216 203.21073398 153.55126953 203.35986328 C150.61800123 203.10795232 148.49475755 202.44524392 145.86767578 201.12939453 C144.3427558 198.07955457 144.6320503 195.48705763 144.86767578 192.12939453 C146.69882785 189.513463 147.77735944 189.15949998 150.86767578 188.12939453 C152.82520904 188.02900821 154.78376369 187.94778548 156.74267578 187.87939453 C161.93186742 187.54670448 161.93186742 187.54670448 166.05517578 184.69189453 C168.77656695 180.84441046 169.03037547 178.72686131 169.18408203 174.02783203 C169.24692383 172.21025391 169.24692383 172.21025391 169.31103516 170.35595703 C169.35035156 169.08494141 169.38966797 167.81392578 169.43017578 166.50439453 C169.49495117 164.58626953 169.49495117 164.58626953 169.56103516 162.62939453 C169.66737464 159.46284106 169.76940411 156.29620701 169.86767578 153.12939453 C169.20767578 153.12939453 168.54767578 153.12939453 167.86767578 153.12939453 C166.35205078 151.59033203 166.35205078 151.59033203 164.61767578 149.50439453 C162.32107505 146.78891694 159.99616803 144.21677189 157.43017578 141.75439453 C154.86767578 139.12939453 154.86767578 139.12939453 154.86767578 137.12939453 C154.20767578 137.12939453 153.54767578 137.12939453 152.86767578 137.12939453 C152.86767578 136.46939453 152.86767578 135.80939453 152.86767578 135.12939453 C152.20767578 135.12939453 151.54767578 135.12939453 150.86767578 135.12939453 C149.49267578 133.73095703 149.49267578 133.73095703 147.86767578 131.75439453 C144.90647723 128.29759789 141.88576885 124.92260548 138.74267578 121.62939453 C137.93572266 120.77345703 137.12876953 119.91751953 136.29736328 119.03564453 C134.05787222 116.9484728 134.05787222 116.9484728 131.4519043 116.7980957 C128.19926952 117.2150844 127.30249249 118.14646361 125.09033203 120.52392578 C124.41164063 121.23226562 123.73294922 121.94060547 123.03369141 122.67041016 C121.99245117 123.79479492 121.99245117 123.79479492 120.93017578 124.94189453 C113.97831549 132.37408877 108.92990451 136.49135323 98.48876953 137.19970703 C94.95309584 137.10486035 92.7701184 136.11155047 89.86767578 134.12939453 C88.69205078 133.35595703 88.69205078 133.35595703 87.49267578 132.56689453 C86.95642578 132.09251953 86.42017578 131.61814453 85.86767578 131.12939453 C85.86767578 130.46939453 85.86767578 129.80939453 85.86767578 129.12939453 C85.20767578 129.12939453 84.54767578 129.12939453 83.86767578 129.12939453 C83.86767578 128.46939453 83.86767578 127.80939453 83.86767578 127.12939453 C83.31595703 126.90638672 82.76423828 126.68337891 82.19580078 126.45361328 C79.13710818 124.71385357 77.06029458 122.47174972 74.61767578 119.94189453 C70.79484792 116.0272576 66.88461997 112.31049514 62.71923828 108.76220703 C60.12050187 106.47049433 57.7169261 104.00559369 55.31298828 101.51220703 C53.89657801 100.02084968 53.89657801 100.02084968 51.86767578 99.12939453 C51.86767578 98.46939453 51.86767578 97.80939453 51.86767578 97.12939453 C50.97048828 96.72720703 50.97048828 96.72720703 50.05517578 96.31689453 C47.86767578 95.12939453 47.86767578 95.12939453 46.49267578 93.56689453 C44.04886398 91.40506102 42.08499892 91.25808746 38.86767578 91.12939453 C35.60391898 92.56226337 33.70967689 94.28739342 31.18017578 96.81689453 C30.41705078 97.58001953 29.65392578 98.34314453 28.86767578 99.12939453 C28.20767578 99.12939453 27.54767578 99.12939453 26.86767578 99.12939453 C26.86767578 99.78939453 26.86767578 100.44939453 26.86767578 101.12939453 C26.20767578 101.12939453 25.54767578 101.12939453 24.86767578 101.12939453 C24.86767578 101.78939453 24.86767578 102.44939453 24.86767578 103.12939453 C24.20767578 103.12939453 23.54767578 103.12939453 22.86767578 103.12939453 C22.86767578 103.78939453 22.86767578 104.44939453 22.86767578 105.12939453 C22.20767578 105.12939453 21.54767578 105.12939453 20.86767578 105.12939453 C20.86767578 105.78939453 20.86767578 106.44939453 20.86767578 107.12939453 C20.20767578 107.12939453 19.54767578 107.12939453 18.86767578 107.12939453 C18.86767578 107.78939453 18.86767578 108.44939453 18.86767578 109.12939453 C18.20767578 109.12939453 17.54767578 109.12939453 16.86767578 109.12939453 C16.86767578 109.78939453 16.86767578 110.44939453 16.86767578 111.12939453 C15.60986328 112.36376953 15.60986328 112.36376953 13.74267578 113.87939453 C8.72153515 118.11485309 4.18061089 122.78868511 -0.3828125 127.50537109 C-0.96788574 128.10188477 -1.55295898 128.69839844 -2.15576172 129.31298828 C-2.68089355 129.8549585 -3.20602539 130.39692871 -3.74707031 130.95532227 C-5.13232422 132.12939453 -5.13232422 132.12939453 -7.13232422 132.12939453 C-7.13232422 132.78939453 -7.13232422 133.44939453 -7.13232422 134.12939453 C-7.79232422 134.12939453 -8.45232422 134.12939453 -9.13232422 134.12939453 C-9.13232422 134.78939453 -9.13232422 135.44939453 -9.13232422 136.12939453 C-9.79232422 136.12939453 -10.45232422 136.12939453 -11.13232422 136.12939453 C-11.13232422 136.78939453 -11.13232422 137.44939453 -11.13232422 138.12939453 C-12.60107422 139.57470703 -12.60107422 139.57470703 -14.63232422 141.25439453 C-16.15598424 142.51806495 -17.65056208 143.81684597 -19.13232422 145.12939453 C-19.80626221 145.63929932 -20.4802002 146.1492041 -21.17456055 146.67456055 C-24.63462226 149.57608868 -26.82040373 151.73181441 -27.82324219 156.22509766 C-28.02745275 159.78783351 -27.97897656 163.2522656 -27.81982422 166.81689453 C-27.80886719 168.02667969 -27.79791016 169.23646484 -27.78662109 170.48291016 C-27.65559594 178.30400307 -27.65559594 178.30400307 -24.13232422 185.12939453 C-20.12950497 187.7979407 -16.85885881 187.50467953 -12.14013672 187.68798828 C-8.78601061 188.18021718 -6.85610965 189.14269082 -4.13232422 191.12939453 C-2.74682225 193.90039847 -2.94457752 196.06286513 -3.13232422 199.12939453 C-5.13232422 202.12939453 -5.13232422 202.12939453 -8.13232422 203.12939453 C-18.14921036 203.74075378 -25.53722858 203.74071104 -33.75732422 197.56689453 C-38.62435216 193.20410822 -41.0977336 187.23316638 -43.13232422 181.12939453 C-43.22821605 179.05469982 -43.26297645 176.97700803 -43.26603699 174.90010071 C-43.27030197 173.59492996 -43.27456696 172.28975922 -43.27896118 170.94503784 C-43.27861165 169.49517819 -43.27815011 168.04531857 -43.27758789 166.59545898 C-43.28057957 165.07106951 -43.28398212 163.5466808 -43.2877655 162.02229309 C-43.29661123 157.87743363 -43.29894393 153.73259481 -43.29958129 149.58772683 C-43.30029175 146.99710834 -43.30242605 144.4064951 -43.30507851 141.81587791 C-43.31433553 132.77462811 -43.31841316 123.73339306 -43.31762695 114.69213867 C-43.31702685 106.27105648 -43.32756459 97.85003849 -43.34337062 89.42897254 C-43.35646215 82.1957228 -43.36181013 74.96249399 -43.36117154 67.72923249 C-43.36091692 63.41083311 -43.36374786 59.09249072 -43.37434959 54.77410316 C-43.38405709 50.70870008 -43.38409161 46.64340811 -43.37683296 42.57800102 C-43.37579024 41.08974164 -43.37813139 39.60147525 -43.38419342 38.11322784 C-43.42248123 28.05814139 -43.06275464 20.09381348 -38.13232422 11.12939453 C-37.47232422 11.12939453 -36.81232422 11.12939453 -36.13232422 11.12939453 C-35.86419922 10.53126953 -35.59607422 9.93314453 -35.31982422 9.31689453 C-32.7669076 4.6141534 -29.16925442 2.71226694 -24.13232422 1.12939453 C-16.10605318 -0.09227927 -8.10258609 -0.01222242 0 0 Z M-26.47894287 20.6546936 C-28.75659805 25.44135131 -28.66261931 29.48838492 -28.58642578 34.72460938 C-28.58700989 35.77887115 -28.58759399 36.83313293 -28.5881958 37.91934204 C-28.58541594 41.39334387 -28.55432722 44.86648065 -28.52294922 48.34033203 C-28.51548652 50.75313854 -28.50979372 53.16595112 -28.50579834 55.57876587 C-28.49054451 61.9213746 -28.45126418 68.26361546 -28.40698242 74.6060791 C-28.36602472 81.08124821 -28.34778621 87.5564769 -28.32763672 94.03173828 C-28.28477025 106.73111375 -28.21729308 119.43023455 -28.13232422 132.12939453 C-27.47232422 132.12939453 -26.81232422 132.12939453 -26.13232422 132.12939453 C-26.13232422 131.46939453 -26.13232422 130.80939453 -26.13232422 130.12939453 C-24.15232422 129.13939453 -24.15232422 129.13939453 -22.13232422 128.12939453 C-22.13232422 127.13939453 -22.13232422 126.14939453 -22.13232422 125.12939453 C-20.15232422 124.63439453 -20.15232422 124.63439453 -18.13232422 124.12939453 C-18.13232422 123.46939453 -18.13232422 122.80939453 -18.13232422 122.12939453 C-17.59865234 121.92443359 -17.06498047 121.71947266 -16.51513672 121.50830078 C-13.13294988 119.55106807 -10.70194934 116.86969803 -8.00732422 114.06689453 C-2.37218908 108.24932696 -2.37218908 108.24932696 -0.13232422 107.12939453 C-0.13232422 106.46939453 -0.13232422 105.80939453 -0.13232422 105.12939453 C0.4398584 104.88390869 1.01204102 104.63842285 1.6015625 104.38549805 C4.25138199 102.9167067 6.00866862 101.19803405 8.12548828 99.03173828 C8.91568359 98.23058594 9.70587891 97.42943359 10.52001953 96.60400391 C11.33599609 95.76675781 12.15197266 94.92951172 12.99267578 94.06689453 C14.61806284 92.40716831 16.24556205 90.74950706 17.87548828 89.09423828 C18.59365723 88.35810303 19.31182617 87.62196777 20.05175781 86.86352539 C21.86767578 85.12939453 21.86767578 85.12939453 23.86767578 84.12939453 C23.86767578 83.46939453 23.86767578 82.80939453 23.86767578 82.12939453 C24.52767578 81.88189453 25.18767578 81.63439453 25.86767578 81.37939453 C28.72102882 80.30065507 28.72102882 80.30065507 30.52392578 79.03564453 C36.13367574 75.51766574 40.44500877 76.18078289 46.81689453 77.35595703 C49.63642122 78.07076661 52.20303098 78.97257285 54.86767578 80.12939453 C54.86767578 80.78939453 54.86767578 81.44939453 54.86767578 82.12939453 C56.51928359 83.80019734 56.51928359 83.80019734 58.61767578 85.50439453 C60.9367128 87.4669718 63.11986862 89.38822403 65.24267578 91.56689453 C66.73223079 93.36043077 66.73223079 93.36043077 68.86767578 93.12939453 C68.86767578 93.78939453 68.86767578 94.44939453 68.86767578 95.12939453 C69.52767578 95.12939453 70.18767578 95.12939453 70.86767578 95.12939453 C70.86767578 95.78939453 70.86767578 96.44939453 70.86767578 97.12939453 C71.52767578 97.12939453 72.18767578 97.12939453 72.86767578 97.12939453 C72.86767578 97.78939453 72.86767578 98.44939453 72.86767578 99.12939453 C76.34766085 102.76572992 76.34766085 102.76572992 80.86767578 104.12939453 C80.86767578 104.78939453 80.86767578 105.44939453 80.86767578 106.12939453 C81.52767578 106.12939453 82.18767578 106.12939453 82.86767578 106.12939453 C83.10486328 106.70173828 83.34205078 107.27408203 83.58642578 107.86376953 C85.14360816 110.61732373 86.99260375 112.29735087 89.36767578 114.37939453 C90.16173828 115.08580078 90.95580078 115.79220703 91.77392578 116.52001953 C93.69182209 118.33253613 93.69182209 118.33253613 95.86767578 118.12939453 C96.19767578 119.11939453 96.52767578 120.10939453 96.86767578 121.12939453 C98.62801201 122.15426984 98.62801201 122.15426984 100.86767578 122.12939453 C105.06519503 120.02354451 107.90928416 117.20822076 111.11767578 113.81689453 C122.25654819 102.50774875 122.25654819 102.50774875 128.81298828 101.82080078 C137.82688771 102.17096479 143.67763187 105.6249165 149.82470703 112.08251953 C151.11909333 113.50647533 152.40420805 114.93891116 153.68017578 116.37939453 C154.97327969 117.82665171 156.27124519 119.2695841 157.57470703 120.70751953 C158.13649658 121.34077148 158.69828613 121.97402344 159.27709961 122.62646484 C160.90475566 124.37603399 160.90475566 124.37603399 163.86767578 125.12939453 C164.93017578 127.00439453 164.93017578 127.00439453 165.86767578 129.12939453 C166.85767578 130.61439453 166.85767578 130.61439453 167.86767578 132.12939453 C168.52767578 132.12939453 169.18767578 132.12939453 169.86767578 132.12939453 C169.96119963 118.1516342 170.03142818 104.17392252 170.07492447 90.19591331 C170.09580037 83.70536829 170.12411881 77.21503344 170.16943359 70.72460938 C170.21289012 64.4611568 170.23681286 58.19790642 170.24718475 51.93431473 C170.25457638 49.54448895 170.26901038 47.15467426 170.29059601 44.76493454 C170.31962641 41.41791609 170.32363179 38.07173344 170.32177734 34.72460938 C170.343349 33.24214722 170.343349 33.24214722 170.36535645 31.72973633 C170.33138577 26.06466029 169.89682558 22.46533903 165.86767578 18.12939453 C161.25351492 15.31792546 157.79599919 14.75311573 152.42895508 14.7484436 C151.33730687 14.74142365 151.33730687 14.74142365 150.22360516 14.73426187 C147.79618037 14.72233973 145.36932305 14.73175791 142.94189453 14.74121094 C141.19706901 14.73714399 139.45224606 14.73180142 137.70742798 14.72528076 C132.97606199 14.711616 128.24489248 14.71690236 123.5135231 14.72641802 C118.55954717 14.73401894 113.60558793 14.7269678 108.65161133 14.72225952 C100.3326516 14.71680324 92.01377181 14.72399026 83.69482422 14.73828125 C74.08015506 14.75460751 64.46567676 14.74931891 54.85101223 14.73280203 C46.59267513 14.71918356 38.33439546 14.71726928 30.07605076 14.72511804 C25.14518163 14.72979256 20.21440217 14.73042545 15.28353882 14.72050858 C10.64760794 14.71183596 6.01192288 14.71786625 1.37601852 14.73519135 C-0.32432268 14.7391546 -2.02468461 14.73802488 -3.72501755 14.73140335 C-6.04815785 14.72319126 -8.37051307 14.73350473 -10.69360352 14.7484436 C-12.64256783 14.75014022 -12.64256783 14.75014022 -14.63090515 14.75187111 C-19.74898558 15.30370315 -22.98633278 16.89614297 -26.47894287 20.6546936 Z " fill="#1A253C" transform="translate(179.13232421875,122.87060546875)"/>
<path d="M0 0 C3.52141425 1.95021572 6.11158236 4.31148041 8.8125 7.3125 C9.9571875 8.3953125 9.9571875 8.3953125 11.125 9.5 C12.8125 11.3125 12.8125 11.3125 12.8125 13.3125 C13.4725 13.3125 14.1325 13.3125 14.8125 13.3125 C16.37682787 15.00524284 17.86578572 16.76819852 19.3125 18.5625 C20.1065625 19.53703125 20.900625 20.5115625 21.71875 21.515625 C23.39998034 23.76144762 24.69385899 25.7590803 25.8125 28.3125 C26.4725 28.3125 27.1325 28.3125 27.8125 28.3125 C29.37682787 30.00524284 30.86578572 31.76819852 32.3125 33.5625 C33.1065625 34.53703125 33.900625 35.5115625 34.71875 36.515625 C36.39998034 38.76144762 37.69385899 40.7590803 38.8125 43.3125 C39.4725 43.3125 40.1325 43.3125 40.8125 43.3125 C46.27055124 49.28965937 49.28872097 54.82735164 49.05859375 62.9765625 C48.41010607 69.13204874 46.13876922 73.8872443 41.546875 78.05859375 C36.42449663 81.76193487 31.08048766 82.88231706 24.8125 82.3125 C22.41828191 81.7632382 20.15239735 81.07654812 17.8125 80.3125 C17.97637207 81.40256348 18.14024414 82.49262695 18.30908203 83.61572266 C18.96534038 88.90244946 18.9276191 94.1409728 18.8671875 99.4609375 C18.85543488 100.51350739 18.84368225 101.56607727 18.83157349 102.65054321 C18.80296696 104.8676622 18.77082904 107.08473813 18.73535156 109.30175781 C18.70350291 111.55521282 18.68230859 113.80884409 18.671875 116.0625 C18.65655072 119.34189544 18.60908256 122.61948351 18.5546875 125.8984375 C18.55548309 126.8935434 18.55627869 127.88864929 18.55709839 128.91390991 C18.34163022 137.90579206 15.55126118 144.97880874 9 151.25 C2.67932395 156.24993777 -3.31969375 157.98677611 -11.3828125 157.71875 C-19.19389811 156.58733927 -24.70316038 152.45626988 -29.71484375 146.5703125 C-34.52971672 139.18835871 -34.65349108 132.82401732 -34.69921875 124.16015625 C-34.72614555 122.27725136 -34.72614555 122.27725136 -34.75361633 120.35630798 C-34.79846047 117.04041007 -34.83083777 113.72487687 -34.85705566 110.40881348 C-34.88698562 107.01654866 -34.93347273 103.62451372 -34.97851562 100.23242188 C-35.06334907 93.59255456 -35.13173805 86.95267168 -35.1875 80.3125 C-36.31865234 80.79976562 -36.31865234 80.79976562 -37.47265625 81.296875 C-42.93994307 83.34219093 -47.91689623 82.55531011 -53.1875 80.3125 C-58.49294022 77.23534467 -61.972772 74.1063744 -64.4375 68.4375 C-65.91261325 62.2911948 -65.32018036 57.21934064 -63.1875 51.3125 C-61.49864323 48.80375199 -59.53808679 46.60444914 -57.5 44.375 C-56.96197754 43.76744873 -56.42395508 43.15989746 -55.86962891 42.53393555 C-54.31841504 40.78467949 -52.75387514 39.04817076 -51.1875 37.3125 C-49.809572 35.75258151 -48.43390156 34.19065929 -47.0625 32.625 C-46.54429687 32.04363281 -46.02609375 31.46226562 -45.4921875 30.86328125 C-43.98799643 29.1337051 -43.98799643 29.1337051 -42.1875 26.3125 C-41.5275 26.3125 -40.8675 26.3125 -40.1875 26.3125 C-39.97480469 25.79300781 -39.76210937 25.27351563 -39.54296875 24.73828125 C-37.615402 21.28865891 -35.08885233 18.47194718 -32.5 15.5 C-31.95835205 14.87633545 -31.4167041 14.2526709 -30.85864258 13.61010742 C-29.30947724 11.83708364 -27.75126026 10.07265419 -26.1875 8.3125 C-25.49398437 7.53132813 -24.80046875 6.75015625 -24.0859375 5.9453125 C-17.4480909 -1.11687133 -9.12544952 -4.21966275 0 0 Z M-12.6015625 15.44921875 C-13.45492187 16.39410156 -14.30828125 17.33898437 -15.1875 18.3125 C-16.06148437 19.24707031 -16.93546875 20.18164062 -17.8359375 21.14453125 C-18.74629546 22.13664305 -19.65510856 23.13017427 -20.5625 24.125 C-21.04654297 24.65488525 -21.53058594 25.18477051 -22.02929688 25.73071289 C-25.80674954 29.87569808 -29.53399365 34.05759343 -33.1875 38.3125 C-33.6319043 38.82522461 -34.07630859 39.33794922 -34.53417969 39.86621094 C-36.04855883 41.61494646 -37.55610109 43.36938779 -39.0625 45.125 C-39.55169922 45.68888428 -40.04089844 46.25276855 -40.54492188 46.83374023 C-42.66635481 49.32058925 -44.14318147 51.17954442 -45.1875 54.3125 C-45.8475 54.3125 -46.5075 54.3125 -47.1875 54.3125 C-47.1875 54.9725 -47.1875 55.6325 -47.1875 56.3125 C-47.8475 56.3125 -48.5075 56.3125 -49.1875 56.3125 C-50.37246548 61.21145217 -50.37246548 61.21145217 -48.75 65.75 C-47.20895081 67.64334346 -47.20895081 67.64334346 -44.25 67.4375 C-39.99249023 66.90315667 -38.30335046 64.49928309 -35.625 61.3125 C-34.92246094 60.405 -34.21992188 59.4975 -33.49609375 58.5625 C-30.70429934 55.84156331 -29.02551295 55.52659324 -25.1875 55.3125 C-22.8125 55.75 -22.8125 55.75 -21.1875 56.3125 C-19.99471339 60.06784894 -20.05607956 63.65174558 -20.0456543 67.57202148 C-20.04044266 68.65812714 -20.04044266 68.65812714 -20.03512573 69.76617432 C-20.02778766 71.33487116 -20.02243192 72.90357825 -20.01883507 74.47228813 C-20.01165214 76.95663186 -19.99597307 79.44078008 -19.97749329 81.92506409 C-19.92510178 88.98720667 -19.8770337 96.04923938 -19.86157227 103.11157227 C-19.85148811 107.43468488 -19.82215748 111.75730097 -19.78025246 116.08021736 C-19.76794817 117.72557889 -19.76282017 119.37101053 -19.76505089 121.01641655 C-19.76740538 123.31934475 -19.74523037 125.62084845 -19.7175293 127.92358398 C-19.70872993 129.88738258 -19.70872993 129.88738258 -19.69975281 131.89085388 C-19.10595411 135.85719426 -17.97280823 137.4871347 -15.1875 140.3125 C-12.29631104 142.23614256 -10.18980783 142.59865386 -6.75 142.3125 C-6.00878906 142.27125 -5.26757812 142.23 -4.50390625 142.1875 C-1.03821493 140.87836871 0.93249363 138.40399202 2.8125 135.3125 C3.55937725 131.72043996 3.55937725 131.72043996 3.45605469 127.81005859 C3.4693708 126.72110542 3.4693708 126.72110542 3.48295593 125.6101532 C3.50652795 123.22660799 3.49547302 120.84455132 3.484375 118.4609375 C3.49496073 116.79756073 3.50787467 115.1341973 3.52301025 113.47085571 C3.55716625 109.10263202 3.56259428 104.73485514 3.56109619 100.36651611 C3.56432475 94.20516499 3.60705253 88.04393815 3.64483643 81.88272095 C3.66481277 78.60399535 3.67418355 75.32550629 3.67498779 72.04672241 C3.67880891 70.54986566 3.6826529 69.05300897 3.68652344 67.55615234 C3.68698669 66.25076508 3.68744995 64.94537781 3.68792725 63.60043335 C3.78835151 60.94986753 4.014833 58.82040738 4.8125 56.3125 C8.8200843 55.35067977 11.03738926 54.94109277 14.8125 56.75 C17.3661472 58.93124031 19.21776938 60.97624268 21.3125 63.5625 C24.0084596 66.81328206 24.0084596 66.81328206 28.0625 68 C30.75554818 67.45034199 30.75554818 67.45034199 32.75 66.25 C34.46256941 63.12707932 33.59369236 60.6776363 32.8125 57.3125 C32.1525 56.3225 31.4925 55.3325 30.8125 54.3125 C30.1525 54.3125 29.4925 54.3125 28.8125 54.3125 C28.59851563 53.77882813 28.38453125 53.24515625 28.1640625 52.6953125 C26.30742647 49.42205246 23.77258268 46.88696335 21.1875 44.1875 C16.80265465 39.53076679 12.69458599 34.77355159 8.75390625 29.73046875 C5.2968771 25.42483284 1.57913727 21.34818279 -2.1875 17.3125 C-2.85265625 16.55710937 -3.5178125 15.80171875 -4.203125 15.0234375 C-7.46291858 12.21282807 -9.50597682 12.70927479 -12.6015625 15.44921875 Z " fill="#17AC84" transform="translate(258.1875,262.6875)"/>
<path d="M0 0 C1.4540625 0.0309375 1.4540625 0.0309375 2.9375 0.0625 C2.9375 0.7225 2.9375 1.3825 2.9375 2.0625 C3.659375 2.165625 4.38125 2.26875 5.125 2.375 C8.26175235 3.14176169 10.33179577 4.16104016 12.9375 6.0625 C13.39189453 7.00416016 13.39189453 7.00416016 13.85546875 7.96484375 C15.10031956 10.37814658 16.46731365 11.60531113 18.5625 13.3125 C19.50996094 14.09367187 19.50996094 14.09367187 20.4765625 14.890625 C20.95867187 15.27734375 21.44078125 15.6640625 21.9375 16.0625 C21.46104792 20.35056873 20.27847516 22.32897487 16.9375 25.0625 C14.9375 25.0625 14.9375 25.0625 13.5625 23.8125 C13.02625 23.235 12.49 22.6575 11.9375 22.0625 C10.8546875 21.0725 10.8546875 21.0725 9.75 20.0625 C7.9375 18.0625 7.9375 18.0625 7.9375 15.0625 C6.33342672 15.03541433 4.7292215 15.01606517 3.125 15 C2.23167969 14.98839844 1.33835938 14.97679687 0.41796875 14.96484375 C-2.19663791 14.95240033 -2.19663791 14.95240033 -5.0625 16.0625 C-5.74582443 17.38737356 -6.40880011 18.72276171 -7.0625 20.0625 C-8.58126459 21.85058847 -10.14969036 23.59700727 -11.75 25.3125 C-12.66197997 26.29899719 -13.57343666 27.28597839 -14.484375 28.2734375 C-15.33515625 29.19382812 -16.1859375 30.11421875 -17.0625 31.0625 C-21.42090295 35.9237956 -25.64632015 40.90096989 -29.875 45.875 C-30.59610962 46.72070557 -30.59610962 46.72070557 -31.33178711 47.58349609 C-33.38965406 50.01289698 -35.29405991 52.40983986 -37.0625 55.0625 C-37.7225 55.0625 -38.3825 55.0625 -39.0625 55.0625 C-39.0625 55.7225 -39.0625 56.3825 -39.0625 57.0625 C-39.7225 57.0625 -40.3825 57.0625 -41.0625 57.0625 C-41.35812367 62.38420494 -41.35812367 62.38420494 -39.0625 67.0625 C-36.16884891 67.18563409 -34.70417333 67.15593987 -32.0625 66.0625 C-29.61416215 63.61416215 -27.49009309 61.04970282 -25.37109375 58.3125 C-22.58083499 55.59305999 -20.90196496 55.25630655 -17.0625 55.0625 C-14.52501478 55.83784271 -13.45431368 56.4822552 -11.97206116 58.67735291 C-10.72378485 61.95071456 -10.7624253 65.08262709 -10.75952148 68.53735352 C-10.75108215 69.28414368 -10.74264282 70.03093384 -10.73394775 70.800354 C-10.70819819 73.26404469 -10.69603649 75.72761561 -10.68359375 78.19140625 C-10.66741682 79.90487107 -10.65023662 81.6183267 -10.63209534 83.33177185 C-10.58642506 87.83999377 -10.55161121 92.34822802 -10.51989746 96.85656738 C-10.46800698 104.07634845 -10.40288502 111.29599411 -10.33168221 118.51560783 C-10.30884326 121.03884051 -10.29257657 123.56205599 -10.27696228 126.08534241 C-10.26355586 127.62924387 -10.24994108 129.17314354 -10.23608398 130.71704102 C-10.23347061 131.41997787 -10.23085724 132.12291473 -10.22816467 132.84715271 C-10.19598333 135.86181658 -10.02415931 138.17752207 -9.0625 141.0625 C-9.7225 141.0625 -10.3825 141.0625 -11.0625 141.0625 C-15.06190984 134.15609055 -14.35124079 127.14264104 -14.13671875 119.37890625 C-14.10864812 117.95404129 -14.08196176 116.52914845 -14.05659485 115.10423279 C-13.98649543 111.3737219 -13.89772433 107.64388558 -13.80493164 103.91387939 C-13.7133942 100.09971775 -13.6396961 96.28521485 -13.56445312 92.47070312 C-13.41449844 85.00085722 -13.24479767 77.53163406 -13.0625 70.0625 C-14.0525 70.0625 -15.0425 70.0625 -16.0625 70.0625 C-16.0625 68.4125 -16.0625 66.7625 -16.0625 65.0625 C-17.0525 65.5575 -17.0525 65.5575 -18.0625 66.0625 C-18.3925 64.4125 -18.7225 62.7625 -19.0625 61.0625 C-19.84625 61.5575 -20.63 62.0525 -21.4375 62.5625 C-24.0625 64.0625 -24.0625 64.0625 -26.0625 64.0625 C-26.330625 64.990625 -26.59875 65.91875 -26.875 66.875 C-28.50424974 71.2482493 -30.23264178 72.50926119 -34.0625 75.0625 C-34.3925 76.0525 -34.7225 77.0425 -35.0625 78.0625 C-34.505625 77.546875 -33.94875 77.03125 -33.375 76.5 C-31.0625 75.0625 -31.0625 75.0625 -28.3125 75.375 C-27.57 75.601875 -26.8275 75.82875 -26.0625 76.0625 C-26.0625 76.7225 -26.0625 77.3825 -26.0625 78.0625 C-29.0625 79.0625 -29.0625 79.0625 -32.0625 78.0625 C-32.0625 79.0525 -32.0625 80.0425 -32.0625 81.0625 C-30.5775 81.5575 -30.5775 81.5575 -29.0625 82.0625 C-34.67452687 83.93317562 -39.67359084 83.35565283 -45.0625 81.0625 C-50.36794022 77.98534467 -53.847772 74.8563744 -56.3125 69.1875 C-57.78761325 63.0411948 -57.19518036 57.96934064 -55.0625 52.0625 C-53.37364323 49.55375199 -51.41308679 47.35444914 -49.375 45.125 C-48.83697754 44.51744873 -48.29895508 43.90989746 -47.74462891 43.28393555 C-46.19341504 41.53467949 -44.62887514 39.79817076 -43.0625 38.0625 C-41.684572 36.50258151 -40.30890156 34.94065929 -38.9375 33.375 C-38.41929687 32.79363281 -37.90109375 32.21226562 -37.3671875 31.61328125 C-35.86299643 29.8837051 -35.86299643 29.8837051 -34.0625 27.0625 C-33.4025 27.0625 -32.7425 27.0625 -32.0625 27.0625 C-31.84078125 26.54171875 -31.6190625 26.0209375 -31.390625 25.484375 C-29.54703329 22.1225313 -27.23816502 19.27142113 -24.8125 16.3125 C-24.34714844 15.71050781 -23.88179687 15.10851562 -23.40234375 14.48828125 C-20.90279385 11.45163798 -19.68536726 10.13492643 -15.703125 9.671875 C-14.39601563 9.86523438 -14.39601563 9.86523438 -13.0625 10.0625 C-13.0625 9.4025 -13.0625 8.7425 -13.0625 8.0625 C-10.5625 6.4375 -10.5625 6.4375 -8.0625 5.0625 C-8.5575 4.0725 -8.5575 4.0725 -9.0625 3.0625 C-8.258125 2.753125 -7.45375 2.44375 -6.625 2.125 C-1.57765152 0.03219697 -1.57765152 0.03219697 0 0 Z " fill="#12A2DD" transform="translate(250.0625,261.9375)"/>
<path d="M0 0 C0.66 1.32 1.32 2.64 2 4 C2.66 3.67 3.32 3.34 4 3 C3.67 4.98 3.34 6.96 3 9 C3.99 9 4.98 9 6 9 C5.99333817 10.20150192 5.99333817 10.20150192 5.98654175 11.42727661 C5.94640662 18.9894987 5.91598596 26.55166886 5.89637566 34.1139698 C5.88595477 38.00148196 5.87182667 41.88890583 5.84912109 45.77636719 C5.82733206 49.53055561 5.81541863 53.2846593 5.81024551 57.0389061 C5.80656061 58.46857918 5.79936495 59.89824782 5.78853989 61.32788467 C5.77394519 63.33589373 5.7731824 65.3439887 5.77294922 67.35205078 C5.76628738 69.0641423 5.76628738 69.0641423 5.75949097 70.81082153 C6.0122438 74.16235421 6.80605684 76.86983091 8 80 C8 79.01 8 78.02 8 77 C8.33 76.34 8.66 75.68 9 75 C9.78375 75.804375 10.5675 76.60875 11.375 77.4375 C13.71982856 79.98690417 13.71982856 79.98690417 16 81 C18.11620405 80.97691383 18.11620405 80.97691383 20.4375 80.6875 C21.21996094 80.60886719 22.00242188 80.53023438 22.80859375 80.44921875 C25.27847118 80.08613351 25.27847118 80.08613351 28 78 C27.505 79.98 27.505 79.98 27 82 C26.34 82 25.68 82 25 82 C25 82.66 25 83.32 25 84 C27.64 84 30.28 84 33 84 C33 85.65 33 87.3 33 89 C34.32 89.33 35.64 89.66 37 90 C30.70025889 95.70914038 24.24709465 97.68688403 15.8046875 97.40625 C7.99360189 96.27483927 2.48433962 92.14376988 -2.52734375 86.2578125 C-7.34221672 78.87585871 -7.46599108 72.51151732 -7.51171875 63.84765625 C-7.52966995 62.59238632 -7.54762115 61.33711639 -7.56611633 60.04380798 C-7.61096047 56.72791007 -7.64333777 53.41237687 -7.66955566 50.09631348 C-7.69948562 46.70404866 -7.74597273 43.31201372 -7.79101562 39.91992188 C-7.87584907 33.28005456 -7.94423805 26.64017168 -8 20 C-9.65 20 -11.3 20 -13 20 C-13 19.01 -13 18.02 -13 17 C-11.02 17 -9.04 17 -7 17 C-7 16.34 -7 15.68 -7 15 C-10.62528568 14.79859524 -12.86501708 15.14223235 -16 17 C-15.67 15.35 -15.34 13.7 -15 12 C-14.01 12 -13.02 12 -12 12 C-11.67 11.01 -11.34 10.02 -11 9 C-10.34 9 -9.68 9 -9 9 C-8.938125 8.443125 -8.87625 7.88625 -8.8125 7.3125 C-7.31059735 3.03785401 -4.59925477 0 0 0 Z " fill="#15AB9A" transform="translate(231,323)"/>
<path d="M0 0 C4.83623455 2.88531191 9.73557122 7.36386383 11.30078125 12.8828125 C12.19448041 20.09701057 12.87882568 27.27118383 8.625 33.5 C8.068125 34.345625 7.51125 35.19125 6.9375 36.0625 C2.42702214 40.81678747 -2.65106273 44.12612698 -9.30078125 44.5703125 C-17.56744969 44.29008645 -23.36939891 41.64221932 -29.125 35.625 C-32.77483118 30.55579003 -34.49999536 24.78385753 -34.375 18.5 C-33.46887004 14.64740661 -32.14384994 11.03769989 -30.375 7.5 C-29.715 7.5 -29.055 7.5 -28.375 7.5 C-28.16875 6.9225 -27.9625 6.345 -27.75 5.75 C-22.41384015 -2.98189793 -8.66001593 -3.86212891 0 0 Z M-18.375 16.5 C-19.64676524 20.61453459 -19.88186067 22.52851705 -17.875 26.375 C-14.59550496 29.16257079 -12.66747606 29.6506132 -8.375 29.5 C-5.59903072 27.38784946 -3.9194448 25.66148224 -2.4375 22.5 C-2.34950291 19.68409297 -3.04278005 17.97412276 -4.375 15.5 C-6.51855951 13.35644049 -7.82708316 12.59834405 -10.8125 12.0625 C-14.38986253 12.67326921 -15.91852595 13.83881978 -18.375 16.5 Z " fill="#1A253B" transform="translate(291.375,163.5)"/>
<path d="M0 0 C0.33 1.32 0.66 2.64 1 4 C0.01 4.495 0.01 4.495 -1 5 C-2.13350534 7.01669827 -2.13350534 7.01669827 -3 9 C-3.66 9 -4.32 9 -5 9 C-5.23074219 9.63808594 -5.46148437 10.27617187 -5.69921875 10.93359375 C-6.67450112 13.40456607 -7.64838308 15.71131959 -9 18 C-11.75 19.0625 -11.75 19.0625 -14 19 C-14.268125 20.0725 -14.53625 21.145 -14.8125 22.25 C-16 26 -16 26 -17.6875 27.875 C-19.58338653 30.94453058 -19.00634431 33.38239129 -18.6171875 36.87890625 C-17.90259466 39.3347538 -16.93009067 40.36724762 -15 42 C-15.350625 41.443125 -15.70125 40.88625 -16.0625 40.3125 C-17.21845993 37.46113217 -16.80967438 35.91482778 -16 33 C-14.68 33.99 -13.36 34.98 -12 36 C-11.67 35.34 -11.34 34.68 -11 34 C-10.34 34 -9.68 34 -9 34 C-8.87625 33.278125 -8.7525 32.55625 -8.625 31.8125 C-8.0095069 29.04278106 -7.11555626 26.6029646 -6 24 C-4.68 24 -3.36 24 -2 24 C-2 24.66 -2 25.32 -2 26 C-2.66 26 -3.32 26 -4 26 C-4 26.66 -4 27.32 -4 28 C-4.66 28 -5.32 28 -6 28 C-6.29562367 33.32170494 -6.29562367 33.32170494 -4 38 C-1.10634891 38.12313409 0.35832667 38.09343987 3 37 C5.44833785 34.55166215 7.57240691 31.98720282 9.69140625 29.25 C12.48166501 26.53055999 14.16053504 26.19380655 18 26 C20.53748522 26.77534271 21.60818632 27.4197552 23.09043884 29.61485291 C24.33871515 32.88821456 24.3000747 36.02012709 24.30297852 39.47485352 C24.31141785 40.22164368 24.31985718 40.96843384 24.32855225 41.737854 C24.35430181 44.20154469 24.36646351 46.66511561 24.37890625 49.12890625 C24.39508318 50.84237107 24.41226338 52.5558267 24.43040466 54.26927185 C24.47607494 58.77749377 24.51088879 63.28572802 24.54260254 67.79406738 C24.59449302 75.01384845 24.65961498 82.23349411 24.73081779 89.45310783 C24.75365674 91.97634051 24.76992343 94.49955599 24.78553772 97.02284241 C24.79894414 98.56674387 24.81255892 100.11064354 24.82641602 101.65454102 C24.82902939 102.35747787 24.83164276 103.06041473 24.83433533 103.78465271 C24.86651667 106.79931658 25.03834069 109.11502207 26 112 C25.34 112 24.68 112 24 112 C20.00059016 105.09359055 20.71125921 98.08014104 20.92578125 90.31640625 C20.95385188 88.89154129 20.98053824 87.46664845 21.00590515 86.04173279 C21.07600457 82.3112219 21.16477567 78.58138558 21.25756836 74.85137939 C21.3491058 71.03721775 21.4228039 67.22271485 21.49804688 63.40820312 C21.64800156 55.93835722 21.81770233 48.46913406 22 41 C21.01 41 20.02 41 19 41 C19 39.35 19 37.7 19 36 C18.01 36.495 18.01 36.495 17 37 C16.67 35.35 16.34 33.7 16 32 C15.21625 32.495 14.4325 32.99 13.625 33.5 C11 35 11 35 9 35 C8.731875 35.928125 8.46375 36.85625 8.1875 37.8125 C6.55825026 42.1857493 4.82985822 43.44676119 1 46 C0.67 46.99 0.34 47.98 0 49 C0.556875 48.484375 1.11375 47.96875 1.6875 47.4375 C4 46 4 46 6.75 46.3125 C7.4925 46.539375 8.235 46.76625 9 47 C9 47.66 9 48.32 9 49 C6 50 6 50 3 49 C3 49.99 3 50.98 3 52 C4.485 52.495 4.485 52.495 6 53 C0.38797313 54.87067562 -4.61109084 54.29315283 -10 52 C-15.30544022 48.92284467 -18.785272 45.7938744 -21.25 40.125 C-22.72511325 33.9786948 -22.13268036 28.90684064 -20 23 C-18.3111537 20.49126755 -16.35071994 18.29181278 -14.3125 16.0625 C-13.77520264 15.45639893 -13.23790527 14.85029785 -12.68432617 14.22583008 C-11.61850425 13.02491527 -10.54806888 11.82807621 -9.47265625 10.63574219 C-7.55868497 8.50981255 -5.68563712 6.34941242 -3.8125 4.1875 C-1.15517241 1.15517241 -1.15517241 1.15517241 0 0 Z " fill="#1AA6C6" transform="translate(215,291)"/>
<path d="M0 0 C3.52141425 1.95021572 6.11158236 4.31148041 8.8125 7.3125 C9.575625 8.034375 10.33875 8.75625 11.125 9.5 C12.8125 11.3125 12.8125 11.3125 12.8125 13.3125 C13.4725 13.3125 14.1325 13.3125 14.8125 13.3125 C16.37682787 15.00524284 17.86578572 16.76819852 19.3125 18.5625 C20.1065625 19.53703125 20.900625 20.5115625 21.71875 21.515625 C23.39998034 23.76144762 24.69385899 25.7590803 25.8125 28.3125 C26.4725 28.3125 27.1325 28.3125 27.8125 28.3125 C29.41428593 30.09354718 30.94631926 31.93787278 32.4375 33.8125 C33.25476563 34.8334375 34.07203125 35.854375 34.9140625 36.90625 C35.54054688 37.7003125 36.16703125 38.494375 36.8125 39.3125 C35.8225 39.6425 34.8325 39.9725 33.8125 40.3125 C32.8225 39.3225 31.8325 38.3325 30.8125 37.3125 C30.8125 38.6325 30.8125 39.9525 30.8125 41.3125 C28.3375 41.8075 28.3375 41.8075 25.8125 42.3125 C26.3075 44.2925 26.3075 44.2925 26.8125 46.3125 C27.4725 46.3125 28.1325 46.3125 28.8125 46.3125 C29.3075 49.2825 29.3075 49.2825 29.8125 52.3125 C30.8025 52.6425 31.7925 52.9725 32.8125 53.3125 C33.3075 56.2825 33.3075 56.2825 33.8125 59.3125 C32.3125 57.9375 32.3125 57.9375 30.8125 56.3125 C30.8125 55.6525 30.8125 54.9925 30.8125 54.3125 C30.1525 54.3125 29.4925 54.3125 28.8125 54.3125 C27.41924046 52.76009659 26.09869872 51.14220015 24.8125 49.5 C21.59504658 45.47302706 18.31211778 41.60192988 14.8125 37.8125 C10.62012059 33.26096036 6.68023763 28.55824511 2.8203125 23.72265625 C0.85201264 21.27371763 0.85201264 21.27371763 -1.4453125 19.12109375 C-3.1875 17.3125 -3.1875 17.3125 -3.1875 15.3125 C-4.1775 14.9825 -5.1675 14.6525 -6.1875 14.3125 C-2.4375 13.1875 -2.4375 13.1875 -0.1875 14.3125 C0.080625 15.281875 0.34875 16.25125 0.625 17.25 C1.50610946 20.51896204 1.50610946 20.51896204 4.4375 21.6875 C5.613125 21.996875 5.613125 21.996875 6.8125 22.3125 C6.8125 22.9725 6.8125 23.6325 6.8125 24.3125 C11.07297719 21.28744614 11.07297719 21.28744614 13.6875 17 C13.72875 16.443125 13.77 15.88625 13.8125 15.3125 C13.255625 15.085625 12.69875 14.85875 12.125 14.625 C8.59000515 12.61865157 5.47623518 10.04842277 4 6.1875 C1.9783001 2.99534227 -1.6956694 2.38441079 -5.1875 1.3125 C-5.1875 0.6525 -5.1875 -0.0075 -5.1875 -0.6875 C-10.6619285 0.42973031 -13.67103597 2.20979528 -17.70703125 6.0703125 C-19.1875 7.3125 -19.1875 7.3125 -21.1875 7.3125 C-21.1875 7.9725 -21.1875 8.6325 -21.1875 9.3125 C-22.1775 9.6425 -23.1675 9.9725 -24.1875 10.3125 C-24.8475 9.6525 -25.5075 8.9925 -26.1875 8.3125 C-18.98987789 0.32729614 -10.64938985 -4.92434192 0 0 Z " fill="#1AAAAE" transform="translate(258.1875,262.6875)"/>
<path d="M0 0 C1.4540625 0.0309375 1.4540625 0.0309375 2.9375 0.0625 C2.9375 0.7225 2.9375 1.3825 2.9375 2.0625 C3.659375 2.165625 4.38125 2.26875 5.125 2.375 C8.26175235 3.14176169 10.33179577 4.16104016 12.9375 6.0625 C13.24042969 6.69027344 13.54335938 7.31804687 13.85546875 7.96484375 C15.10031956 10.37814658 16.46731365 11.60531113 18.5625 13.3125 C19.19414062 13.83328125 19.82578125 14.3540625 20.4765625 14.890625 C20.95867187 15.27734375 21.44078125 15.6640625 21.9375 16.0625 C21.46104792 20.35056873 20.27847516 22.32897487 16.9375 25.0625 C14.9375 25.0625 14.9375 25.0625 13.5625 23.8125 C13.02625 23.235 12.49 22.6575 11.9375 22.0625 C11.215625 21.4025 10.49375 20.7425 9.75 20.0625 C7.9375 18.0625 7.9375 18.0625 7.9375 15.0625 C6.33342672 15.03541433 4.7292215 15.01606517 3.125 15 C2.23167969 14.98839844 1.33835938 14.97679687 0.41796875 14.96484375 C-2.19663791 14.95240033 -2.19663791 14.95240033 -5.0625 16.0625 C-5.74582443 17.38737356 -6.40880011 18.72276171 -7.0625 20.0625 C-8.58126459 21.85058847 -10.14969036 23.59700727 -11.75 25.3125 C-12.66197997 26.29899719 -13.57343666 27.28597839 -14.484375 28.2734375 C-15.76054687 29.65402344 -15.76054687 29.65402344 -17.0625 31.0625 C-20.40098424 34.78619396 -23.6588438 38.57400044 -26.8671875 42.41015625 C-27.3629126 43.00135254 -27.8586377 43.59254883 -28.36938477 44.20166016 C-29.36001556 45.3848913 -30.34757518 46.57070165 -31.33178711 47.75927734 C-34.84079449 51.95164724 -34.84079449 51.95164724 -37.0625 53.0625 C-36.53807578 49.2866456 -35.73595333 46.83877845 -33.0625 44.0625 C-32.0725 44.0625 -31.0825 44.0625 -30.0625 44.0625 C-29.7325 41.7525 -29.4025 39.4425 -29.0625 37.0625 C-27.7425 37.0625 -26.4225 37.0625 -25.0625 37.0625 C-24.4025 34.0925 -23.7425 31.1225 -23.0625 28.0625 C-21.94875 27.835625 -20.835 27.60875 -19.6875 27.375 C-15.90211627 26.45626342 -15.90211627 26.45626342 -14.625 23.4375 C-14.439375 22.65375 -14.25375 21.87 -14.0625 21.0625 C-13.0725 21.0625 -12.0825 21.0625 -11.0625 21.0625 C-11.330625 20.505625 -11.59875 19.94875 -11.875 19.375 C-11.936875 18.611875 -11.99875 17.84875 -12.0625 17.0625 C-9.625 14.3125 -9.625 14.3125 -7.0625 12.0625 C-7.0625 12.7225 -7.0625 13.3825 -7.0625 14.0625 C-5.7425 13.0725 -4.4225 12.0825 -3.0625 11.0625 C-3.7225 11.0625 -4.3825 11.0625 -5.0625 11.0625 C-5.0625 10.4025 -5.0625 9.7425 -5.0625 9.0625 C-7.0425 9.0625 -9.0225 9.0625 -11.0625 9.0625 C-10.7325 8.0725 -10.4025 7.0825 -10.0625 6.0625 C-9.4025 5.7325 -8.7425 5.4025 -8.0625 5.0625 C-8.3925 4.4025 -8.7225 3.7425 -9.0625 3.0625 C-8.258125 2.753125 -7.45375 2.44375 -6.625 2.125 C-1.57765152 0.03219697 -1.57765152 0.03219697 0 0 Z " fill="#11A5DA" transform="translate(250.0625,261.9375)"/>
<path d="M0 0 C0.94875 0.04125 1.8975 0.0825 2.875 0.125 C6.95377462 7.1797046 6.95377462 7.1797046 6.625 11.125 C6.3775 11.785 6.13 12.445 5.875 13.125 C5.215 13.125 4.555 13.125 3.875 13.125 C3.875 13.785 3.875 14.445 3.875 15.125 C0.98920926 18.33513034 -1.7171023 20.94526838 -6.0625 21.5 C-6.743125 21.37625 -7.42375 21.2525 -8.125 21.125 C-8.125 21.785 -8.125 22.445 -8.125 23.125 C-9.775 23.455 -11.425 23.785 -13.125 24.125 C-13.455 23.135 -13.785 22.145 -14.125 21.125 C-15.115 20.795 -16.105 20.465 -17.125 20.125 C-16.465 18.805 -15.805 17.485 -15.125 16.125 C-15.785 15.795 -16.445 15.465 -17.125 15.125 C-16.650625 14.691875 -16.17625 14.25875 -15.6875 13.8125 C-13.88813043 12.10190387 -13.88813043 12.10190387 -13.125 9.125 C-11.34765625 7.37109375 -11.34765625 7.37109375 -9.1875 5.5625 C-2.72541539 0.10901662 -2.72541539 0.10901662 0 0 Z M6.875 4.125 C7.535 4.785 8.195 5.445 8.875 6.125 C7.885 5.795 6.895 5.465 5.875 5.125 C6.205 4.795 6.535 4.465 6.875 4.125 Z " fill="#152138" transform="translate(192.125,218.875)"/>
<path d="M0 0 C3.52141425 1.95021572 6.11158236 4.31148041 8.8125 7.3125 C9.575625 8.034375 10.33875 8.75625 11.125 9.5 C12.8125 11.3125 12.8125 11.3125 12.8125 13.3125 C13.4725 13.3125 14.1325 13.3125 14.8125 13.3125 C16.24831474 14.92707079 17.61394783 16.60469075 18.9375 18.3125 C19.66195312 19.240625 20.38640625 20.16875 21.1328125 21.125 C21.96425781 22.2078125 21.96425781 22.2078125 22.8125 23.3125 C20.47932784 24.09022405 18.19814077 24.73665568 15.8125 25.3125 C15.3175 24.3225 15.3175 24.3225 14.8125 23.3125 C13.8225 22.9825 12.8325 22.6525 11.8125 22.3125 C11.10983387 25.28824276 11.10983387 25.28824276 10.8125 28.3125 C10.1525 28.9725 9.4925 29.6325 8.8125 30.3125 C6.80640948 28.19296983 4.80756397 26.06736559 2.8125 23.9375 C2.24015625 23.33421875 1.6678125 22.7309375 1.078125 22.109375 C0.53671875 21.52929688 -0.0046875 20.94921875 -0.5625 20.3515625 C-1.06523437 19.81740723 -1.56796875 19.28325195 -2.0859375 18.73291016 C-3.1875 17.3125 -3.1875 17.3125 -3.1875 15.3125 C-4.1775 14.9825 -5.1675 14.6525 -6.1875 14.3125 C-2.4375 13.1875 -2.4375 13.1875 -0.1875 14.3125 C0.080625 15.281875 0.34875 16.25125 0.625 17.25 C1.50610946 20.51896204 1.50610946 20.51896204 4.4375 21.6875 C5.613125 21.996875 5.613125 21.996875 6.8125 22.3125 C6.8125 22.9725 6.8125 23.6325 6.8125 24.3125 C11.07297719 21.28744614 11.07297719 21.28744614 13.6875 17 C13.72875 16.443125 13.77 15.88625 13.8125 15.3125 C13.255625 15.085625 12.69875 14.85875 12.125 14.625 C8.59000515 12.61865157 5.47623518 10.04842277 4 6.1875 C1.9783001 2.99534227 -1.6956694 2.38441079 -5.1875 1.3125 C-5.1875 0.6525 -5.1875 -0.0075 -5.1875 -0.6875 C-10.6619285 0.42973031 -13.67103597 2.20979528 -17.70703125 6.0703125 C-19.1875 7.3125 -19.1875 7.3125 -21.1875 7.3125 C-21.1875 7.9725 -21.1875 8.6325 -21.1875 9.3125 C-22.1775 9.6425 -23.1675 9.9725 -24.1875 10.3125 C-24.8475 9.6525 -25.5075 8.9925 -26.1875 8.3125 C-18.98987789 0.32729614 -10.64938985 -4.92434192 0 0 Z " fill="#2CAABD" transform="translate(258.1875,262.6875)"/>
<path d="M0 0 C0.66 0 1.32 0 2 0 C2.33 1.32 2.66 2.64 3 4 C5.31 4.66 7.62 5.32 10 6 C10 6.66 10 7.32 10 8 C10.66 8 11.32 8 12 8 C13.5078125 9.75 13.5078125 9.75 15.125 12 C15.66382813 12.7425 16.20265625 13.485 16.7578125 14.25 C17.16773438 14.8275 17.57765625 15.405 18 16 C16.73134318 18.53731364 15.50290879 18.78646846 13 20 C12.34 20.66 11.68 21.32 11 22 C6.61230128 21.7628271 4.10236071 20.01851312 1 17 C0.31246699 15.34183216 -0.35561283 13.67540664 -1 12 C-3.01317219 10.19651922 -3.01317219 10.19651922 -5 9 C-4.34 8.01 -3.68 7.02 -3 6 C-1.68 6 -0.36 6 1 6 C0.67 4.02 0.34 2.04 0 0 Z " fill="#18AA97" transform="translate(287,298)"/>
<path d="M0 0 C10.12760874 -0.02324466 20.25521105 -0.04097663 30.38284111 -0.05181217 C35.08629173 -0.05701458 39.789724 -0.06406388 44.49316406 -0.07543945 C49.0383942 -0.08636268 53.58360677 -0.09229671 58.12884903 -0.09487724 C59.85664267 -0.09671457 61.58443543 -0.10030219 63.31222153 -0.10573006 C71.93188335 -0.13171408 80.43288845 -0.09649922 89 1 C89 1.33 89 1.66 89 2 C79.65474718 3.19187028 70.36166814 3.12757948 60.9609375 3.09765625 C59.22645102 3.09578791 57.49196401 3.09436597 55.75747681 3.09336853 C51.22347521 3.08957612 46.68950636 3.07977432 42.15551758 3.06866455 C37.51644331 3.05837948 32.87736367 3.0538558 28.23828125 3.04882812 C19.15883989 3.03814868 10.07942268 3.02111226 1 3 C0.67 2.01 0.34 1.02 0 0 Z " fill="#4D5460" transform="translate(248,136)"/>
<path d="M0 0 C0.33 0.66 0.66 1.32 1 2 C1.598125 1.67 2.19625 1.34 2.8125 1 C5 0 5 0 8 0 C8 0.66 8 1.32 8 2 C7.21625 2.2475 6.4325 2.495 5.625 2.75 C2.92177742 3.7062734 2.92177742 3.7062734 2.12890625 5.75 C0.63282278 8.73181342 -1.4140484 10.81291559 -3.6875 13.25 C-4.59947997 14.23649719 -5.51093666 15.22347839 -6.421875 16.2109375 C-7.69804687 17.59152344 -7.69804687 17.59152344 -9 19 C-12.33848424 22.72369396 -15.5963438 26.51150044 -18.8046875 30.34765625 C-19.3004126 30.93885254 -19.7961377 31.53004883 -20.30688477 32.13916016 C-21.29751556 33.3223913 -22.28507518 34.50820165 -23.26928711 35.69677734 C-26.77829449 39.88914724 -26.77829449 39.88914724 -29 41 C-28.47557578 37.2241456 -27.67345333 34.77627845 -25 32 C-24.01 32 -23.02 32 -22 32 C-21.67 29.69 -21.34 27.38 -21 25 C-19.68 25 -18.36 25 -17 25 C-16.34 22.03 -15.68 19.06 -15 16 C-13.88625 15.773125 -12.7725 15.54625 -11.625 15.3125 C-7.83961627 14.39376342 -7.83961627 14.39376342 -6.5625 11.375 C-6.376875 10.59125 -6.19125 9.8075 -6 9 C-5.01 9 -4.02 9 -3 9 C-3.2475 8.443125 -3.495 7.88625 -3.75 7.3125 C-4 5 -4 5 -2.0625 2.25 C-1.381875 1.5075 -0.70125 0.765 0 0 Z " fill="#36AAD4" transform="translate(242,274)"/>
<path d="M0 0 C0.33 1.32 0.66 2.64 1 4 C0.01 4.495 0.01 4.495 -1 5 C-2.13350534 7.01669827 -2.13350534 7.01669827 -3 9 C-3.66 9 -4.32 9 -5 9 C-5.23074219 9.63808594 -5.46148437 10.27617187 -5.69921875 10.93359375 C-6.67450112 13.40456607 -7.64838308 15.71131959 -9 18 C-11.75 19.0625 -11.75 19.0625 -14 19 C-14.268125 20.0725 -14.53625 21.145 -14.8125 22.25 C-16 26 -16 26 -17.6875 27.875 C-19.59143202 30.95755661 -19.04096166 33.38568603 -18.51953125 36.88671875 C-17.8769637 39.50047095 -16.81966917 41.0347573 -15 43 C-14.71125 43.66 -14.4225 44.32 -14.125 45 C-12.59782499 47.71497779 -10.48276822 49.17059184 -8 51 C-8.99 51.495 -8.99 51.495 -10 52 C-16.36131405 48.09646638 -20.22685773 44.38809279 -22 37 C-22.47589333 30.45646671 -21.64159775 24.71473521 -17.42578125 19.53515625 C-16.39974547 18.36719903 -15.36151375 17.20986379 -14.3125 16.0625 C-13.77520264 15.45639893 -13.23790527 14.85029785 -12.68432617 14.22583008 C-11.61850425 13.02491527 -10.54806888 11.82807621 -9.47265625 10.63574219 C-7.55868497 8.50981255 -5.68563712 6.34941242 -3.8125 4.1875 C-1.15517241 1.15517241 -1.15517241 1.15517241 0 0 Z " fill="#36A6CB" transform="translate(215,291)"/>
<path d="M0 0 C0.66 0 1.32 0 2 0 C2.01030746 0.95800003 2.02061493 1.91600006 2.03123474 2.9030304 C2.12891289 11.923156 2.2316417 20.94321175 2.33933926 29.96322346 C2.39454705 34.60070223 2.44796368 39.23818733 2.49731445 43.87573242 C2.54498955 48.34966244 2.59733359 52.82351553 2.65294075 57.29735374 C2.67335003 59.00579098 2.69206548 60.7142493 2.70907402 62.42272377 C2.73314958 64.81224832 2.76319985 67.20162757 2.79467773 69.59106445 C2.8004332 70.30028549 2.80618866 71.00950653 2.81211853 71.74021912 C2.85750011 74.76299652 3.03606919 77.10820756 4 80 C3.34 80 2.68 80 2 80 C-0.49993104 74.8947032 -1.35909807 71.29087131 -1.2487793 65.50415039 C-1.23946381 64.79111755 -1.23014832 64.07808472 -1.22055054 63.34344482 C-1.18646034 61.01100665 -1.13052308 58.67965468 -1.07421875 56.34765625 C-1.04615544 54.72100569 -1.01946828 53.09433085 -0.99409485 51.46763611 C-0.92392531 47.20452291 -0.83516364 42.94199542 -0.74243164 38.67932129 C-0.65096853 34.32222187 -0.57722244 29.9648258 -0.50195312 25.60742188 C-0.35190388 17.07122681 -0.18219783 8.53556913 0 0 Z " fill="#64BCAC" transform="translate(237,323)"/>
<path d="M0 0 C1.44066884 -0.00592911 2.88134473 -0.01015945 4.32202148 -0.01367188 C5.52543434 -0.01747864 5.52543434 -0.01747864 6.75315857 -0.0213623 C10.55123731 0.01474871 14.23557132 0.52197731 18 1 C14.25405125 3.49729916 12.44844343 3.2965629 8 3 C5.60170883 2.45980238 3.34192605 1.76471055 1 1 C1.16387207 2.09006348 1.32774414 3.18012695 1.49658203 4.30322266 C2.15284038 9.58994946 2.1151191 14.8284728 2.0546875 20.1484375 C2.04293488 21.20100739 2.03118225 22.25357727 2.01907349 23.33804321 C1.99046696 25.5551622 1.95832904 27.77223813 1.92285156 29.98925781 C1.89100291 32.24271282 1.86980859 34.49634409 1.859375 36.75 C1.84405072 40.02939544 1.79658256 43.30698351 1.7421875 46.5859375 C1.74298309 47.5810434 1.74377869 48.57614929 1.74459839 49.60140991 C1.57273357 56.77364456 -0.32920358 61.8586427 -4 68 C-4.87840996 64.90279155 -4.99435406 63.09354597 -4 60 C-3.34 60 -2.68 60 -2 60 C-2.020625 58.783125 -2.04125 57.56625 -2.0625 56.3125 C-2.10215039 53.97312681 -1.99170139 51.96072079 -1.50672913 49.66523743 C-1.01751255 47.09211057 -0.84401718 44.73291041 -0.79467773 42.11791992 C-0.77473251 41.17732224 -0.75478729 40.23672455 -0.73423767 39.2676239 C-0.71752518 38.2653627 -0.70081268 37.2631015 -0.68359375 36.23046875 C-0.66281265 35.19432938 -0.64203156 34.15819 -0.62062073 33.09065247 C-0.5553787 29.78966735 -0.49635821 26.48860451 -0.4375 23.1875 C-0.39429068 20.94595559 -0.35067562 18.70441897 -0.30664062 16.46289062 C-0.19972333 10.97534193 -0.09791038 5.48771639 0 0 Z " fill="#349E7A" transform="translate(275,342)"/>
<path d="M0 0 C3.89075454 1.29691818 6.52462743 2.66776769 9 6 C9 9.39097216 8.24000841 10.71353835 6.0625 13.3125 C4 15 4 15 2 15 C0.625 13.75 0.625 13.75 -1 12 C-1.721875 11.278125 -2.44375 10.55625 -3.1875 9.8125 C-3.785625 9.214375 -4.38375 8.61625 -5 8 C-3.8141763 4.62496331 -2.72426311 2.35277269 0 0 Z " fill="#12AAC8" transform="translate(263,272)"/>
<path d="M0 0 C0.33 0 0.66 0 1 0 C1.01030746 0.55836044 1.02061493 1.11672089 1.03123474 1.69200134 C1.1626047 8.77391406 1.29901731 15.85572303 1.4375 22.9375 C1.45923279 24.05802765 1.48096558 25.1785553 1.50335693 26.33303833 C1.7722055 40.0365388 2.05792217 53.73138601 2.78295898 67.41967773 C3.09994418 73.80011164 3.09994418 73.80011164 2 76 C1.34 76 0.68 76 0 76 C0 76.66 0 77.32 0 78 C-0.66 78 -1.32 78 -2 78 C-1.67 77.01 -1.34 76.02 -1 75 C-0.88079838 72.58305476 -0.81483143 70.19262565 -0.79467773 67.7746582 C-0.78477814 67.04270233 -0.77487854 66.31074646 -0.76467896 65.55661011 C-0.73309989 63.13803335 -0.70832077 60.71943696 -0.68359375 58.30078125 C-0.66302112 56.62354523 -0.64202456 54.94631436 -0.62062073 53.26908875 C-0.56543199 48.85505341 -0.51600861 44.44097154 -0.46777344 40.02685547 C-0.41753507 35.52241881 -0.36186119 31.01804972 -0.30664062 26.51367188 C-0.19909817 17.67583898 -0.09764449 8.83794741 0 0 Z " fill="#71BAA5" transform="translate(261,323)"/>
<path d="M0 0 C0.66 0 1.32 0 2 0 C2.19672365 1.72814161 2.38196799 3.45759197 2.5625 5.1875 C2.66691406 6.15042969 2.77132812 7.11335938 2.87890625 8.10546875 C3 11 3 11 2.52734375 13.34960938 C1.99267632 16.03680828 1.79557799 18.56516633 1.68359375 21.30078125 C1.64169922 22.27724609 1.59980469 23.25371094 1.55664062 24.25976562 C1.51732422 25.26716797 1.47800781 26.27457031 1.4375 27.3125 C1.39431641 28.33923828 1.35113281 29.36597656 1.30664062 30.42382812 C1.20093175 32.94909569 1.09883532 35.47445562 1 38 C1.99 38 2.98 38 4 38 C4.061875 39.03125 4.12375 40.0625 4.1875 41.125 C4.9668757 44.84202258 5.24008187 45.60438923 7.625 48.1875 C8.40875 49.115625 9.1925 50.04375 10 51 C9.6484375 53.17578125 9.6484375 53.17578125 9 55 C8.05113597 53.98972083 7.11655956 52.96602092 6.1875 51.9375 C5.66542969 51.36902344 5.14335937 50.80054688 4.60546875 50.21484375 C0.14752293 44.0648309 -0.42566763 38.72394444 -0.29296875 31.34765625 C-0.28872391 30.44752304 -0.28447906 29.54738983 -0.28010559 28.61997986 C-0.26341816 25.76717214 -0.22578497 22.91509137 -0.1875 20.0625 C-0.1724403 18.11915088 -0.15875415 16.17579061 -0.14648438 14.23242188 C-0.11354726 9.48800451 -0.0618344 4.74412517 0 0 Z " fill="#2B9D8F" transform="translate(224,359)"/>
<path d="M0 0 C0.66 0.33 1.32 0.66 2 1 C2.43825768 8.01212292 1.99625668 14.03943082 -2.359375 19.796875 C-4.6696459 22.2976837 -6.50029174 23.80244092 -9.6875 25.0625 C-12 25 -12 25 -13.875 23.875 C-15 22 -15 22 -14.6875 19.3125 C-14.3471875 18.1678125 -14.3471875 18.1678125 -14 17 C-11.03824877 17.61277612 -9.61941217 18.25372522 -7 20 C-6.34 18.68 -5.68 17.36 -5 16 C-4.34 16.33 -3.68 16.66 -3 17 C-3 16.34 -3 15.68 -3 15 C-2.34 15 -1.68 15 -1 15 C-0.67 10.05 -0.34 5.1 0 0 Z " fill="#3CAF8F" transform="translate(305,318)"/>
<path d="M0 0 C3.26460973 1.80412643 4.88929795 2.83394693 7 6 C7 5.34 7 4.68 7 4 C7.99 4.33 8.98 4.66 10 5 C10 6.98 10 8.96 10 11 C11.32 11.33 12.64 11.66 14 12 C14 12.99 14 13.98 14 15 C15.65 15.33 17.3 15.66 19 16 C19.33 17.98 19.66 19.96 20 22 C20.99 22.33 21.98 22.66 23 23 C23.33 24.98 23.66 26.96 24 29 C22.5 27.625 22.5 27.625 21 26 C21 25.34 21 24.68 21 24 C20.34 24 19.68 24 19 24 C17.60674046 22.44759659 16.28619872 20.82970015 15 19.1875 C10.83993799 13.96543842 6.44945698 9.07195055 1.87109375 4.21484375 C0 2 0 2 0 0 Z " fill="#4EB6B2" transform="translate(268,293)"/>
<path d="M0 0 C0.99 0.495 0.99 0.495 2 1 C2 1.66 2 2.32 2 3 C2.66 3 3.32 3 4 3 C5.5078125 4.75 5.5078125 4.75 7.125 7 C7.66382813 7.7425 8.20265625 8.485 8.7578125 9.25 C9.16773438 9.8275 9.57765625 10.405 10 11 C8.73134318 13.53731364 7.50290879 13.78646846 5 15 C4.34 15.66 3.68 16.32 3 17 C2.01 17 1.02 17 0 17 C0.12568359 15.78763672 0.12568359 15.78763672 0.25390625 14.55078125 C0.35574219 13.48214844 0.45757812 12.41351563 0.5625 11.3125 C0.66691406 10.25675781 0.77132813 9.20101563 0.87890625 8.11328125 C0.99277552 5.18573914 0.70848415 2.82868856 0 0 Z " fill="#2FB399" transform="translate(295,303)"/>
<path d="M0 0 C0.99 0.33 1.98 0.66 3 1 C3 1.66 3 2.32 3 3 C3.99 3.33 4.98 3.66 6 4 C5.67 4.99 5.34 5.98 5 7 C5.99 7.33 6.98 7.66 8 8 C7.34 8 6.68 8 6 8 C6.350625 8.5775 6.70125 9.155 7.0625 9.75 C8.14917407 12.35801776 7.93065133 13.39417629 7 16 C3.25 17.125 3.25 17.125 1 16 C0.68758545 13.28553021 0.48663408 10.66090639 0.375 7.9375 C0.33632812 7.17888672 0.29765625 6.42027344 0.2578125 5.63867188 C0.16326438 3.75952805 0.08053244 1.87979664 0 0 Z " fill="#21A9AF" transform="translate(223,341)"/>
<path d="M0 0 C1.11826172 0.00322266 2.23652344 0.00644531 3.38867188 0.00976562 C4.55591797 0.01814453 5.72316406 0.02652344 6.92578125 0.03515625 C8.10462891 0.03966797 9.28347656 0.04417969 10.49804688 0.04882812 C13.41150914 0.06062352 16.32486988 0.07708355 19.23828125 0.09765625 C19.56828125 1.08765625 19.89828125 2.07765625 20.23828125 3.09765625 C10.99828125 3.09765625 1.75828125 3.09765625 -7.76171875 3.09765625 C-8.09171875 2.43765625 -8.42171875 1.77765625 -8.76171875 1.09765625 C-5.58384334 0.03836445 -3.33582932 -0.01693314 0 0 Z " fill="#686D78" transform="translate(180.76171875,135.90234375)"/>
<path d="M0 0 C0.33 0 0.66 0 1 0 C1 3.63 1 7.26 1 11 C1.66 11.33 2.32 11.66 3 12 C4.09036928 14.9737344 4.03864166 15.88407501 3 19 C4.0209375 19.86625 4.0209375 19.86625 5.0625 20.75 C5.701875 21.4925 6.34125 22.235 7 23 C6.75 25.25 6.75 25.25 6 27 C4.68 27 3.36 27 2 27 C2 26.34 2 25.68 2 25 C1.50653076 24.56905029 1.01306152 24.13810059 0.50463867 23.6940918 C-1 22 -1 22 -1.2487793 19.63989258 C-1.19117432 18.73392334 -1.13356934 17.8279541 -1.07421875 16.89453125 C-1.01943359 15.91162109 -0.96464844 14.92871094 -0.90820312 13.91601562 C-0.79895508 12.37977539 -0.79895508 12.37977539 -0.6875 10.8125 C-0.62626953 9.77673828 -0.56503906 8.74097656 -0.50195312 7.67382812 C-0.34864013 5.11468043 -0.1807893 2.55732955 0 0 Z " fill="#0E1729" transform="translate(137,158)"/>
<path d="M0 0 C1 2 1 2 0.875 5.6875 C0.80972045 10.15914928 1.91012016 13.06138029 4 17 C4.66 17.33 5.32 17.66 6 18 C6.33 18.99 6.66 19.98 7 21 C8.62332967 22.38576923 10.28724465 23.72641268 12 25 C11.34 25.33 10.68 25.66 10 26 C3.63868595 22.09646638 -0.22685773 18.38809279 -2 11 C-2.2947685 6.72585673 -2.34402262 3.66253535 0 0 Z " fill="#54A5C1" transform="translate(195,317)"/>
<path d="M0 0 C1 2 1 2 0.25 4.875 C-0.89946631 7.74866578 -1.8628678 9.77738251 -4 12 C-4.99 12 -5.98 12 -7 12 C-7.33 12.99 -7.66 13.98 -8 15 C-9.875 17.1875 -9.875 17.1875 -12 19 C-12.99 19 -13.98 19 -15 19 C-15 18.34 -15 17.68 -15 17 C-14.34 17 -13.68 17 -13 17 C-12.78601563 16.47921875 -12.57203125 15.9584375 -12.3515625 15.421875 C-10.44194057 12.00000911 -7.93324112 9.20431398 -5.375 6.25 C-4.859375 5.64800781 -4.34375 5.04601562 -3.8125 4.42578125 C-2.54530865 2.94739134 -1.27314225 1.47326829 0 0 Z " fill="#37AAD0" transform="translate(231,272)"/>
<path d="M0 0 C1.67542976 0.28604898 3.34385343 0.61781233 5 1 C5 1.66 5 2.32 5 3 C4.01 3 3.02 3 2 3 C2.33 3.66 2.66 4.32 3 5 C2.34 5 1.68 5 1 5 C0.67 5.99 0.34 6.98 0 8 C-1.98 8 -3.96 8 -6 8 C-6.66 6.68 -7.32 5.36 -8 4 C-7.34 3.01 -6.68 2.02 -6 1 C-3.4375 0.875 -3.4375 0.875 -1 1 C-0.67 0.67 -0.34 0.34 0 0 Z " fill="#101A30" transform="translate(353,136)"/>
<path d="M0 0 C0.33 0 0.66 0 1 0 C1 13.86 1 27.72 1 42 C0.67 42 0.34 42 0 42 C-1.69372774 35.60315328 -3.26666813 28.7232227 -1.50927734 22.17016602 C-0.95833672 19.8224617 -0.79165178 17.64252541 -0.68359375 15.234375 C-0.64169922 14.34492188 -0.59980469 13.45546875 -0.55664062 12.5390625 C-0.51732422 11.61867187 -0.47800781 10.69828125 -0.4375 9.75 C-0.39431641 8.81414062 -0.35113281 7.87828125 -0.30664062 6.9140625 C-0.2008195 4.60951359 -0.09873443 2.30486161 0 0 Z " fill="#4B4F75" transform="translate(363,180)"/>
<path d="M0 0 C5.75 0.875 5.75 0.875 8 2 C7.67 5.63 7.34 9.26 7 13 C6.01 13 5.02 13 4 13 C4 11.35 4 9.7 4 8 C3.01 8.495 3.01 8.495 2 9 C1.67 7.35 1.34 5.7 1 4 C0.34 4 -0.32 4 -1 4 C-0.67 2.68 -0.34 1.36 0 0 Z " fill="#17AAC5" transform="translate(230,319)"/>
<path d="M0 0 C1.71208597 0.09182468 3.4207989 0.24943421 5.125 0.4375 C9.45640809 0.87798218 13.65029981 1.09666 18 1 C17.67 1.99 17.34 2.98 17 4 C12.39885754 5.53371415 7.8049918 5.55386882 3 5 C0.3125 3 0.3125 3 -1 1 C-0.67 0.67 -0.34 0.34 0 0 Z " fill="#45AF8D" transform="translate(241,415)"/>
<path d="M0 0 C0.66 0.33 1.32 0.66 2 1 C1.34 2.32 0.68 3.64 0 5 C-0.66 4.67 -1.32 4.34 -2 4 C-2 4.66 -2 5.32 -2 6 C-3.97946592 7.36363208 -5.9819245 8.69418644 -8 10 C-8.804375 10.8971875 -8.804375 10.8971875 -9.625 11.8125 C-10.07875 12.204375 -10.5325 12.59625 -11 13 C-13.0859375 12.57421875 -13.0859375 12.57421875 -15 12 C-13.44233138 10.55726615 -11.87864043 9.12103292 -10.3125 7.6875 C-9.44238281 6.88699219 -8.57226562 6.08648437 -7.67578125 5.26171875 C-5.19940565 3.16854871 -2.89996432 1.447512 0 0 Z " fill="#3E445A" transform="translate(305,224)"/>
<path d="M0 0 C1.32 0.33 2.64 0.66 4 1 C4.061875 2.03125 4.12375 3.0625 4.1875 4.125 C4.9668757 7.84202258 5.24008187 8.60438923 7.625 11.1875 C8.800625 12.5796875 8.800625 12.5796875 10 14 C9.6484375 16.17578125 9.6484375 16.17578125 9 18 C3.86670761 12.53445567 0 7.81546979 0 0 Z " fill="#3EA789" transform="translate(224,396)"/>
<path d="M0 0 C0.66 0.99 1.32 1.98 2 3 C2.66 2.67 3.32 2.34 4 2 C4 2.66 4 3.32 4 4 C4.99 4 5.98 4 7 4 C6.25 6.4375 6.25 6.4375 5 9 C2.875 9.8125 2.875 9.8125 1 10 C1 9.34 1 8.68 1 8 C-1.97 7.505 -1.97 7.505 -5 7 C-4.67 6.01 -4.34 5.02 -4 4 C-3.34 4 -2.68 4 -2 4 C-1.34 2.68 -0.68 1.36 0 0 Z " fill="#111D35" transform="translate(233,211)"/>
<path d="M0 0 C2.75 0.875 2.75 0.875 4.75 1.875 C4.42 2.535 4.09 3.195 3.75 3.875 C0.78 3.38 0.78 3.38 -2.25 2.875 C-2.62125 3.65875 -2.9925 4.4425 -3.375 5.25 C-5.68306306 8.48128829 -7.46616321 8.95006212 -11.25 9.875 C-9.64384912 4.25347192 -6.18148367 -0.23774937 0 0 Z " fill="#30A7B9" transform="translate(232.25,317.125)"/>
<path d="M0 0 C0.66 0.33 1.32 0.66 2 1 C4.04498425 0.91219597 6.08744948 0.75758462 8.125 0.5625 C9.22070312 0.46066406 10.31640625 0.35882813 11.4453125 0.25390625 C12.28835937 0.17011719 13.13140625 0.08632813 14 0 C14.33 0.99 14.66 1.98 15 3 C14 4 14 4 10.62109375 4.09765625 C9.22652923 4.09098369 7.83198257 4.07902532 6.4375 4.0625 C5.72658203 4.05798828 5.01566406 4.05347656 4.28320312 4.04882812 C2.52209987 4.03700864 0.76103964 4.01907263 -1 4 C-1 1 -1 1 0 0 Z " fill="#2D3642" transform="translate(157,322)"/>
<path d="M0 0 C0.86625 0.3403125 0.86625 0.3403125 1.75 0.6875 C0.76 2.1725 0.76 2.1725 -0.25 3.6875 C-0.25 5.0075 -0.25 6.3275 -0.25 7.6875 C-2.0625 8.3125 -2.0625 8.3125 -4.25 8.6875 C-5.24 8.0275 -6.23 7.3675 -7.25 6.6875 C-6.87492618 3.96821483 -6.40781339 2.84531339 -4.4375 0.875 C-2.25 -0.3125 -2.25 -0.3125 0 0 Z " fill="#1A2439" transform="translate(205.25,206.3125)"/>
<path d="M0 0 C0.99 0.99 1.98 1.98 3 3 C-0.3 6.3 -3.6 9.6 -7 13 C-7.99 12.67 -8.98 12.34 -10 12 C-9.57847656 11.52949219 -9.15695312 11.05898437 -8.72265625 10.57421875 C-7.90087891 9.64029297 -7.90087891 9.64029297 -7.0625 8.6875 C-6.24458984 7.76517578 -6.24458984 7.76517578 -5.41015625 6.82421875 C-3.79918441 4.94758042 -3.79918441 4.94758042 -3 2 C-2.01 2 -1.02 2 0 2 C0 1.34 0 0.68 0 0 Z " fill="#48505B" transform="translate(299,243)"/>
<path d="M0 0 C-2.65654657 3.73884332 -4.58110387 5.64978174 -9 7 C-9 7.66 -9 8.32 -9 9 C-9.99 9.33 -10.98 9.66 -12 10 C-12.66 9.34 -13.32 8.68 -14 8 C-12.87811441 6.85111717 -11.75238316 5.70598863 -10.625 4.5625 C-9.99851563 3.92441406 -9.37203125 3.28632813 -8.7265625 2.62890625 C-5.82223815 -0.11114636 -3.88767505 -0.10230724 0 0 Z " fill="#2B9FD4" transform="translate(246,263)"/>
<path d="M0 0 C0.33663062 3.70293685 0.47736015 5.39534381 -1.875 8.375 C-4 10 -4 10 -6 10 C-6.125 3.25 -6.125 3.25 -5 1 C-3.3176559 0.47426747 -1.77322566 0 0 0 Z " fill="#2AA1D2" transform="translate(232,289)"/>
<path d="M0 0 C6.11485027 -0.09706112 11.93303301 0.22959149 18 1 C14.25405125 3.49729916 12.44844343 3.2965629 8 3 C5.60170883 2.45980238 3.34192605 1.76471055 1 1 C1.33 3.64 1.66 6.28 2 9 C1.01 9.495 1.01 9.495 0 10 C0 6.7 0 3.4 0 0 Z " fill="#58B199" transform="translate(275,342)"/>
<path d="M0 0 C-0.3125 1.9375 -0.3125 1.9375 -1 4 C-1.99 4.33 -2.98 4.66 -4 5 C-3.65555119 7.47266765 -3.65555119 7.47266765 -3 10 C-2.34 10.33 -1.68 10.66 -1 11 C-1 11.66 -1 12.32 -1 13 C-2.9375 12.625 -2.9375 12.625 -5 12 C-6.52491998 8.95016004 -6.23562548 6.3576631 -6 3 C-4.06841072 0.1486063 -3.51636254 0 0 0 Z " fill="#353E4B" transform="translate(330,312)"/>
<path d="M0 0 C2.475 0.495 2.475 0.495 5 1 C5.33 2.98 5.66 4.96 6 7 C6.99 7.33 7.98 7.66 9 8 C9.33 9.98 9.66 11.96 10 14 C8.5 12.625 8.5 12.625 7 11 C7 10.34 7 9.68 7 9 C6.34 9 5.68 9 5 9 C0 3.64285714 0 3.64285714 0 0 Z " fill="#34A594" transform="translate(282,308)"/>
<path d="M0 0 C0.33 0 0.66 0 1 0 C2.7578125 5.95703125 2.7578125 5.95703125 3 8 C2.01 9.485 2.01 9.485 1 11 C1.66 11.33 2.32 11.66 3 12 C3 13.98 3 15.96 3 18 C1.68 18.33 0.36 18.66 -1 19 C-0.67 12.73 -0.34 6.46 0 0 Z " fill="#232B38" transform="translate(137,184)"/>
<path d="M0 0 C0 0.66 0 1.32 0 2 C-1.32 2.33 -2.64 2.66 -4 3 C-4 3.66 -4 4.32 -4 5 C-5.65 5.66 -7.3 6.32 -9 7 C-9 7.66 -9 8.32 -9 9 C-10.65 9.33 -12.3 9.66 -14 10 C-13.67 9.34 -13.34 8.68 -13 8 C-12.34 8 -11.68 8 -11 8 C-10.731875 7.401875 -10.46375 6.80375 -10.1875 6.1875 C-7.73902458 1.67715054 -5.25163604 0 0 0 Z " fill="#444854" transform="translate(154,126)"/>
<path d="M0 0 C0.845625 0.78375 1.69125 1.5675 2.5625 2.375 C5.87925917 5.16931023 8.79604094 6.07512901 13 7 C13 7.66 13 8.32 13 9 C10.36 9.33 7.72 9.66 5 10 C4.16121545 8.71186658 3.32913217 7.41936744 2.5 6.125 C2.0359375 5.40570313 1.571875 4.68640625 1.09375 3.9453125 C0 2 0 2 0 0 Z " fill="#55B494" transform="translate(239,398)"/>
<path d="M0 0 C1.32 0.33 2.64 0.66 4 1 C0.7 4.3 -2.6 7.6 -6 11 C-6.33 9.68 -6.66 8.36 -7 7 C-6.34 6.01 -5.68 5.02 -5 4 C-4.34 4 -3.68 4 -3 4 C-3 3.34 -3 2.68 -3 2 C-2.01 2 -1.02 2 0 2 C0 1.34 0 0.68 0 0 Z " fill="#26303D" transform="translate(184,240)"/>
<path d="M0 0 C0.99 0.66 1.98 1.32 3 2 C3 3.32 3 4.64 3 6 C2.34 6 1.68 6 1 6 C1 6.66 1 7.32 1 8 C1.66 8 2.32 8 3 8 C2.67 9.32 2.34 10.64 2 12 C1.34 12 0.68 12 0 12 C0 9.69 0 7.38 0 5 C-0.99 5 -1.98 5 -3 5 C-2.625 3.0625 -2.625 3.0625 -2 1 C-1.34 0.67 -0.68 0.34 0 0 Z " fill="#14AE85" transform="translate(228,392)"/>
<path d="M0 0 C0.98120464 3.05263664 0.98120464 4.94736336 0 8 C-6.23352019 10.3548854 -11.45688671 9.87557031 -18 9 C-18 8.67 -18 8.34 -18 8 C-16.78763672 7.97873047 -16.78763672 7.97873047 -15.55078125 7.95703125 C-8.57452756 7.92313545 -8.57452756 7.92313545 -2.8125 4.5625 C-1.01873797 2.16363259 -1.01873797 2.16363259 0 0 Z " fill="#51616B" transform="translate(348,303)"/>
<path d="M0 0 C2.31 1.98 4.62 3.96 7 6 C6.34 6.66 5.68 7.32 5 8 C2.69 7.34 0.38 6.68 -2 6 C-1.34 4.02 -0.68 2.04 0 0 Z " fill="#253040" transform="translate(333,240)"/>
<path d="M0 0 C2.27492349 3.41238523 2.19555565 4.36044265 1.9765625 8.32421875 C1.925 9.35224609 1.8734375 10.38027344 1.8203125 11.43945312 C1.75585938 12.51130859 1.69140625 13.58316406 1.625 14.6875 C1.56828125 15.77095703 1.5115625 16.85441406 1.453125 17.97070312 C1.31160446 20.64780007 1.16018849 23.32396576 1 26 C0.67 26 0.34 26 0 26 C-0.99814117 20.51022355 -1.05071364 15.24764661 -0.9375 9.671875 C-0.8714665 6.89567395 -0.8714665 6.89567395 -2 4 C-1.0625 1.8125 -1.0625 1.8125 0 0 Z " fill="#091324" transform="translate(362,174)"/>
<path d="M0 0 C4.87990172 0.13555283 7.5824619 2.73435248 11 6 C12.375 8.3125 12.375 8.3125 13 10 C10.525 9.01 10.525 9.01 8 8 C8 7.34 8 6.68 8 6 C7.34 6 6.68 6 6 6 C6 5.34 6 4.68 6 4 C3.36 3.34 0.72 2.68 -2 2 C-1.34 1.34 -0.68 0.68 0 0 Z " fill="#69BAAD" transform="translate(267,317)"/>
<path d="M0 0 C1.32 0 2.64 0 4 0 C4.33 1.98 4.66 3.96 5 6 C3.02 6.99 3.02 6.99 1 8 C-0.42944945 5.64561267 -1.08661261 4.51967567 -0.625 1.75 C-0.41875 1.1725 -0.2125 0.595 0 0 Z " fill="#171F2E" transform="translate(137,300)"/>
<path d="M0 0 C0 3.41321235 -0.66867466 4.39472885 -2.5 7.1875 C-2.9640625 7.90292969 -3.428125 8.61835938 -3.90625 9.35546875 C-4.2671875 9.89816406 -4.628125 10.44085938 -5 11 C-6.32 10.67 -7.64 10.34 -9 10 C-9 10.66 -9 11.32 -9 12 C-9.99 11.67 -10.98 11.34 -12 11 C-11.34 11 -10.68 11 -10 11 C-10 10.34 -10 9.68 -10 9 C-8.3203125 7.34375 -8.3203125 7.34375 -6.125 5.5 C-4.00964496 3.71066742 -1.95980876 1.95980876 0 0 Z " fill="#3D4451" transform="translate(171,236)"/>
<path d="M0 0 C0.66 0 1.32 0 2 0 C3.09644404 5.94457613 3.41029848 9.67993436 0 15 C-0.33 15 -0.66 15 -1 15 C-1.02703381 13.06257659 -1.04641125 11.12504521 -1.0625 9.1875 C-1.07410156 8.10855469 -1.08570313 7.02960938 -1.09765625 5.91796875 C-1 3 -1 3 0 0 Z " fill="#626776" transform="translate(137,206)"/>
<path d="M0 0 C0.99 0.99 1.98 1.98 3 3 C2.01 2.67 1.02 2.34 0 2 C0 1.34 0 0.68 0 0 Z M-5 2 C-2.69 2.66 -0.38 3.32 2 4 C2 5.32 2 6.64 2 8 C0.68 8.33 -0.64 8.66 -2 9 C-2.33 8.34 -2.66 7.68 -3 7 C-3.66 6.67 -4.32 6.34 -5 6 C-5 4.68 -5 3.36 -5 2 Z " fill="#0E1C32" transform="translate(250,227)"/>
<path d="M0 0 C-3 2 -3 2 -5 2 C-5.33 2.66 -5.66 3.32 -6 4 C-8.5625 4.625 -8.5625 4.625 -11 5 C-10.11515888 2.19800311 -9.52111519 0.41329825 -7.1875 -1.4375 C-4.22706547 -2.19875459 -2.67668533 -1.33834267 0 0 Z " fill="#131D2F" transform="translate(276,165)"/>
<path d="M0 0 C-2.97 3.3 -5.94 6.6 -9 10 C-9.33 9.01 -9.66 8.02 -10 7 C-9.525625 6.5875 -9.05125 6.175 -8.5625 5.75 C-6.83733482 3.817815 -6.43415125 2.51807725 -6 0 C-2.25 -1.125 -2.25 -1.125 0 0 Z " fill="#4FABC9" transform="translate(242,283)"/>
<path d="M0 0 C0 4.33799584 -1.15398148 6.99023597 -3.9375 10.3125 C-6 12 -6 12 -9 12 C-9 11.34 -9 10.68 -9 10 C-8.34 10 -7.68 10 -7 10 C-6.773125 9.46375 -6.54625 8.9275 -6.3125 8.375 C-4.56617944 5.21499137 -2.3597151 2.7323017 0 0 Z " fill="#4AAECC" transform="translate(225,279)"/>
<path d="M0 0 C1.8125 0.1875 1.8125 0.1875 4 1 C5.75 3.5625 5.75 3.5625 7 6 C4.69 6.33 2.38 6.66 0 7 C0 4.69 0 2.38 0 0 Z " fill="#3EB3BD" transform="translate(274,281)"/>
<path d="M0 0 C0.89203125 0.00902344 1.7840625 0.01804687 2.703125 0.02734375 C3.37859375 0.03894531 4.0540625 0.05054687 4.75 0.0625 C4.42 1.0525 4.09 2.0425 3.75 3.0625 C-2.19 3.5575 -2.19 3.5575 -8.25 4.0625 C-8.58 3.0725 -8.91 2.0825 -9.25 1.0625 C-6.09493858 0.12630187 -3.28413498 -0.0432123 0 0 Z " fill="#575B68" transform="translate(262.25,122.9375)"/>
<path d="M0 0 C0.99 0.66 1.98 1.32 3 2 C-2.02439385 3.67479795 -6.90085558 3.23615622 -12 2 C-8.07178453 -0.61881031 -4.56556861 -0.28987737 0 0 Z " fill="#55B3C3" transform="translate(218,342)"/>
<path d="M0 0 C2.81627654 1.09973447 5.40481193 2.45393051 8 4 C4.28272326 5.13583456 2.52948291 4.66670026 -1 3 C-1 2.34 -1 1.68 -1 1 C-4.3 1.33 -7.6 1.66 -11 2 C-7.27198642 -0.48534239 -4.31947817 -0.65747809 0 0 Z " fill="#66BDD6" transform="translate(254,261)"/>
<path d="M0 0 C1.98 0.66 3.96 1.32 6 2 C5.67 3.32 5.34 4.64 5 6 C0.25 5.125 0.25 5.125 -2 4 C-2 3.34 -2 2.68 -2 2 C-1.34 2 -0.68 2 0 2 C0 1.34 0 0.68 0 0 Z " fill="#121C33" transform="translate(317,236)"/>
<path d="M0 0 C0.33 1.32 0.66 2.64 1 4 C0.01 4.495 0.01 4.495 -1 5 C-2.13350534 7.01669827 -2.13350534 7.01669827 -3 9 C-4.32 9 -5.64 9 -7 9 C-5.44499019 5.18315774 -2.96404505 2.80804268 0 0 Z " fill="#4CACCE" transform="translate(215,291)"/>
<path d="M0 0 C3.59905908 0.55550695 4.99909799 1.74887248 7.25 4.5625 C8.03117187 5.52349609 8.03117187 5.52349609 8.828125 6.50390625 C9.21484375 6.99761719 9.6015625 7.49132812 10 8 C9.67 8.66 9.34 9.32 9 10 C1.33257403 5.18223235 1.33257403 5.18223235 0 0 Z " fill="#50B0C6" transform="translate(261,266)"/>
<path d="M0 0 C2.93200474 2.85276137 5.64315404 5.65079784 8 9 C6.35 8.67 4.7 8.34 3 8 C2.896875 7.360625 2.79375 6.72125 2.6875 6.0625 C2.460625 5.381875 2.23375 4.70125 2 4 C1.01 3.67 0.02 3.34 -1 3 C-0.67 2.01 -0.34 1.02 0 0 Z " fill="#54B5AC" transform="translate(287,294)"/>
<path d="M0 0 C0.33 0 0.66 0 1 0 C1.33 6.27 1.66 12.54 2 19 C1.01 19.33 0.02 19.66 -1 20 C-1.02888514 16.85418577 -1.04675923 13.70840531 -1.0625 10.5625 C-1.07087891 9.66466797 -1.07925781 8.76683594 -1.08789062 7.84179688 C-1.09111328 6.98779297 -1.09433594 6.13378906 -1.09765625 5.25390625 C-1.10551147 4.06776733 -1.10551147 4.06776733 -1.11352539 2.85766602 C-1 1 -1 1 0 0 Z " fill="#08101D" transform="translate(362,281)"/>
<path d="M0 0 C0.99 0.33 1.98 0.66 3 1 C0.2180632 4.27286682 -3.27954067 5.96427697 -7 8 C-7.33 7.01 -7.66 6.02 -8 5 C-6.35 4.67 -4.7 4.34 -3 4 C-3 3.34 -3 2.68 -3 2 C-2.01 1.34 -1.02 0.68 0 0 Z " fill="#10182C" transform="translate(148,131)"/>
<path d="M0 0 C0.66 0.33 1.32 0.66 2 1 C2.33 1.99 2.66 2.98 3 4 C4.62332967 5.38576923 6.28724465 6.72641268 8 8 C7.01 8.495 7.01 8.495 6 9 C0.24489796 5.57142857 0.24489796 5.57142857 -0.9375 2.8125 C-0.958125 2.214375 -0.97875 1.61625 -1 1 C-0.67 0.67 -0.34 0.34 0 0 Z " fill="#3AA5BE" transform="translate(199,334)"/>
<path d="M0 0 C1.32 0.33 2.64 0.66 4 1 C3.67 4.63 3.34 8.26 3 12 C2.01 12 1.02 12 0 12 C0.08378906 11.38511719 0.16757813 10.77023437 0.25390625 10.13671875 C0.35574219 9.32847656 0.45757812 8.52023437 0.5625 7.6875 C0.66691406 6.88699219 0.77132812 6.08648437 0.87890625 5.26171875 C1.14755178 2.83182884 1.14755178 2.83182884 0 0 Z " fill="#20A8B4" transform="translate(234,320)"/>
<path d="M0 0 C-0.61538462 5.53846154 -0.61538462 5.53846154 -2.5625 7.875 C-3.036875 8.24625 -3.51125 8.6175 -4 9 C-4.6875 6.1875 -4.6875 6.1875 -5 3 C-3.41464922 0.73521317 -2.79754986 0 0 0 Z " fill="#32A0C9" transform="translate(209,300)"/>
<path d="M0 0 C0.33 0 0.66 0 1 0 C1 1.65 1 3.3 1 5 C1.66 5 2.32 5 3 5 C3 4.34 3 3.68 3 3 C4.32 2.34 5.64 1.68 7 1 C7.33 2.32 7.66 3.64 8 5 C6.02 5.99 4.04 6.98 2 8 C2 7.34 2 6.68 2 6 C1.34 6 0.68 6 0 6 C0 4.02 0 2.04 0 0 Z " fill="#58606D" transform="translate(150,250)"/>
<path d="M0 0 C0.66 0.33 1.32 0.66 2 1 C1.34 2.32 0.68 3.64 0 5 C-0.66 4.67 -1.32 4.34 -2 4 C-2 4.66 -2 5.32 -2 6 C-2.99 6.33 -3.98 6.66 -5 7 C-5.66 6.34 -6.32 5.68 -7 5 C-4.69 3.35 -2.38 1.7 0 0 Z " fill="#373D55" transform="translate(305,224)"/>
<path d="M0 0 C1.32 0.33 2.64 0.66 4 1 C-1.14285714 5.42857143 -1.14285714 5.42857143 -5 6 C-5.33 5.01 -5.66 4.02 -6 3 C-4.35 3 -2.7 3 -1 3 C-0.67 2.01 -0.34 1.02 0 0 Z " fill="#50B092" transform="translate(264,412)"/>
<path d="M0 0 C1.32 0.66 2.64 1.32 4 2 C2.6875 4 2.6875 4 1 6 C0.01 6 -0.98 6 -2 6 C-2.33 4.68 -2.66 3.36 -3 2 C-2.01 2 -1.02 2 0 2 C0 1.34 0 0.68 0 0 Z " fill="#17A97A" transform="translate(236,408)"/>
<path d="M0 0 C0.99 0.495 0.99 0.495 2 1 C2 1.66 2 2.32 2 3 C2.66 3 3.32 3 4 3 C4.33 4.98 4.66 6.96 5 9 C3.68 9 2.36 9 1 9 C0.67 6.03 0.34 3.06 0 0 Z " fill="#3EB19B" transform="translate(295,303)"/>
<path d="M0 0 C2.875 0.25 2.875 0.25 6 1 C7.4375 2.875 7.4375 2.875 8 5 C7.67 5.99 7.34 6.98 7 8 C5.62437146 6.71034824 4.29233607 5.37310707 3 4 C3 3.34 3 2.68 3 2 C2.01 1.67 1.02 1.34 0 1 C0 0.67 0 0.34 0 0 Z " fill="#49AEC9" transform="translate(252,276)"/>
<path d="M0 0 C0.99 0.99 1.98 1.98 3 3 C1.68 4.32 0.36 5.64 -1 7 C-1.99 6.67 -2.98 6.34 -4 6 C-3.67 4.68 -3.34 3.36 -3 2 C-2.01 2 -1.02 2 0 2 C0 1.34 0 0.68 0 0 Z " fill="#36404B" transform="translate(299,243)"/>
<path d="M0 0 C1.65 0.33 3.3 0.66 5 1 C4.67 2.32 4.34 3.64 4 5 C3.01 5 2.02 5 1 5 C0.67 5.66 0.34 6.32 0 7 C-0.93423645 3.98968256 -1.04449911 3.13349732 0 0 Z " fill="#0E1729" transform="translate(194,226)"/>
<path d="M0 0 C2.475 0.99 2.475 0.99 5 2 C4.67 3.65 4.34 5.3 4 7 C2.68 7 1.36 7 0 7 C0 4.69 0 2.38 0 0 Z " fill="#0F1D35" transform="translate(139,178)"/>
<path d="M0 0 C0.66 0.33 1.32 0.66 2 1 C0.90931332 4.77545388 0.0916909 7.47043472 -3 10 C-2.67 7.36 -2.34 4.72 -2 2 C-1.34 2 -0.68 2 0 2 C0 1.34 0 0.68 0 0 Z " fill="#52B593" transform="translate(273,400)"/>
<path d="M0 0 C0.33 0 0.66 0 1 0 C1 1.65 1 3.3 1 5 C-0.65 5.66 -2.3 6.32 -4 7 C-4 6.01 -4 5.02 -4 4 C-4.99 3.67 -5.98 3.34 -7 3 C-5.5459375 2.5359375 -5.5459375 2.5359375 -4.0625 2.0625 C-1.15934208 1.30476658 -1.15934208 1.30476658 0 0 Z " fill="#35AA8B" transform="translate(291,327)"/>
<path d="M0 0 C2 1.375 2 1.375 4 3 C4 3.66 4 4.32 4 5 C4.66 5 5.32 5 6 5 C6 3.35 6 1.7 6 0 C6.33 0 6.66 0 7 0 C7 2.31 7 4.62 7 7 C6.34 7 5.68 7 5 7 C4.67 7.66 4.34 8.32 4 9 C2.47551369 6.0173094 1.06059933 3.181798 0 0 Z " fill="#7A818C" transform="translate(343,250)"/>
<path d="M0 0 C2.31 0.33 4.62 0.66 7 1 C6.01 1.495 6.01 1.495 5 2 C5 2.66 5 3.32 5 4 C3.35 4.66 1.7 5.32 0 6 C-1.125 2.25 -1.125 2.25 0 0 Z " fill="#20293A" transform="translate(191,230)"/>
<path d="M0 0 C0 0.99 0 1.98 0 3 C-5.25714286 7 -5.25714286 7 -8 7 C-8 5.68 -8 4.36 -8 3 C-6.865625 2.690625 -5.73125 2.38125 -4.5625 2.0625 C-1.21224901 1.37075469 -1.21224901 1.37075469 0 0 Z " fill="#2D3746" transform="translate(286,190)"/>
<path d="M0 0 C0.66 0.33 1.32 0.66 2 1 C1.34 2.98 0.68 4.96 0 7 C-1.65 7.33 -3.3 7.66 -5 8 C-4.67 6.68 -4.34 5.36 -4 4 C-3.34 4 -2.68 4 -2 4 C-1.34 2.68 -0.68 1.36 0 0 Z " fill="#49525F" transform="translate(265,167)"/>
<path d="M0 0 C0.99 0 1.98 0 3 0 C3.75 1.75 3.75 1.75 4 4 C2.0625 6.25 2.0625 6.25 0 8 C0 5.36 0 2.72 0 0 Z " fill="#2AA98B" transform="translate(292,318)"/>
<path d="M0 0 C0.33 0.66 0.66 1.32 1 2 C-0.98 4.97 -0.98 4.97 -3 8 C-3.66 7.01 -4.32 6.02 -5 5 C-4 2 -4 2 -1.9375 0.8125 C-1.298125 0.544375 -0.65875 0.27625 0 0 Z " fill="#3C4155" transform="translate(360,310)"/>
<path d="M0 0 C0.33 0 0.66 0 1 0 C1 3.3 1 6.6 1 10 C0.34 9.67 -0.32 9.34 -1 9 C-1.75 5.5625 -1.75 5.5625 -2 2 C-1.34 1.34 -0.68 0.68 0 0 Z " fill="#060D21" transform="translate(363,270)"/>
<path d="M0 0 C1.98 0.495 1.98 0.495 4 1 C4 1.99 4 2.98 4 4 C3.01 4.66 2.02 5.32 1 6 C1 6.66 1 7.32 1 8 C0.34 8 -0.32 8 -1 8 C-0.67 5.36 -0.34 2.72 0 0 Z " fill="#313846" transform="translate(137,271)"/>
<path d="M0 0 C0.66 0 1.32 0 2 0 C1.25 5.75 1.25 5.75 -1 8 C-2.0625 6.125 -2.0625 6.125 -3 4 C-2.67 3.34 -2.34 2.68 -2 2 C-1.34 2 -0.68 2 0 2 C0 1.34 0 0.68 0 0 Z " fill="#0E192D" transform="translate(350,255)"/>
<path d="M0 0 C1.32 0 2.64 0 4 0 C2.9024777 2.99324263 2.32317108 3.84610901 -0.625 5.25 C-1.40875 5.4975 -2.1925 5.745 -3 6 C-1.125 1.125 -1.125 1.125 0 0 Z " fill="#3D444F" transform="translate(294,198)"/>
<path d="M0 0 C2.9375 0.6875 2.9375 0.6875 4.9375 1.6875 C4.6075 2.3475 4.2775 3.0075 3.9375 3.6875 C0.56044375 3.15024105 -2.759186 2.57685377 -6.0625 1.6875 C-3.0625 -0.3125 -3.0625 -0.3125 0 0 Z " fill="#6CBFCA" transform="translate(232.0625,317.3125)"/>
<path d="M0 0 C0.33 0.66 0.66 1.32 1 2 C1.66 2 2.32 2 3 2 C3.33 2.99 3.66 3.98 4 5 C3.34 5.66 2.68 6.32 2 7 C0.35 5.02 -1.3 3.04 -3 1 C-2.01 0.67 -1.02 0.34 0 0 Z " fill="#2B3645" transform="translate(326,248)"/>
<path d="M0 0 C1.65 0.33 3.3 0.66 5 1 C5.33 2.32 5.66 3.64 6 5 C5.01 5.66 4.02 6.32 3 7 C2.67 5.35 2.34 3.7 2 2 C1.67 2.66 1.34 3.32 1 4 C0.01 3.67 -0.98 3.34 -2 3 C-1.34 2.01 -0.68 1.02 0 0 Z " fill="#394457" transform="translate(170,248)"/>
<path d="M0 0 C0.66 0.33 1.32 0.66 2 1 C1.67 1.66 1.34 2.32 1 3 C0.34 3 -0.32 3 -1 3 C-1 3.66 -1 4.32 -1 5 C-1.66 5 -2.32 5 -3 5 C-3.33 5.66 -3.66 6.32 -4 7 C-4 6.01 -4 5.02 -4 4 C-4.66 3.67 -5.32 3.34 -6 3 C-4.03533587 1.93224776 -2.03144641 0.93446535 0 0 Z " fill="#343D4D" transform="translate(203,223)"/>
<path d="M0 0 C1.32 0.33 2.64 0.66 4 1 C2.35 2.65 0.7 4.3 -1 6 C-1.66 5.34 -2.32 4.68 -3 4 C-2.01 2.68 -1.02 1.36 0 0 Z " fill="#0E1728" transform="translate(203,206)"/>
<path d="M0 0 C1.35158203 0.15275391 1.35158203 0.15275391 2.73046875 0.30859375 C3.41753906 0.39238281 4.10460937 0.47617188 4.8125 0.5625 C4.4825 1.2225 4.1525 1.8825 3.8125 2.5625 C2.3754191 2.61672947 0.93774538 2.65539723 -0.5 2.6875 C-1.30050781 2.71070312 -2.10101563 2.73390625 -2.92578125 2.7578125 C-5.1875 2.5625 -5.1875 2.5625 -8.1875 0.5625 C-4.98734144 -0.50421952 -3.30205706 -0.38595472 0 0 Z " fill="#131A2E" transform="translate(225.1875,124.4375)"/>
<path d="M0 0 C2.31 0 4.62 0 7 0 C2.375 4 2.375 4 -1 4 C-0.67 2.68 -0.34 1.36 0 0 Z " fill="#3AAB9E" transform="translate(263,319)"/>
<path d="M0 0 C0.99 0 1.98 0 3 0 C2.60196439 2.88575819 2.20990931 3.82189513 -0.0625 5.75 C-0.701875 6.1625 -1.34125 6.575 -2 7 C-1.125 2.25 -1.125 2.25 0 0 Z " fill="#309CC2" transform="translate(215,308)"/>
<path d="M0 0 C0.99 0 1.98 0 3 0 C3 0.99 3 1.98 3 3 C2.34 3 1.68 3 1 3 C1 3.66 1 4.32 1 5 C0.34 5 -0.32 5 -1 5 C-1.33 5.66 -1.66 6.32 -2 7 C-2.33 6.01 -2.66 5.02 -3 4 C-1.75 1.8125 -1.75 1.8125 0 0 Z " fill="#3B434D" transform="translate(169,254)"/>
<path d="M0 0 C2.31 0.33 4.62 0.66 7 1 C6.67 2.65 6.34 4.3 6 6 C3.97945196 4.35830472 1.97956942 2.69088222 0 1 C0 0.67 0 0.34 0 0 Z " fill="#263040" transform="translate(252,240)"/>
<path d="M0 0 C2.4375 0.8125 2.4375 0.8125 5 2 C5.33 2.99 5.66 3.98 6 5 C4.68 5.33 3.36 5.66 2 6 C1.34 4.02 0.68 2.04 0 0 Z " fill="#3B4256" transform="translate(138,308)"/>
<path d="M0 0 C0 2.66420516 -0.09162237 4.52260646 -1 7 C-1.99 7.33 -2.98 7.66 -4 8 C-4.66 7.34 -5.32 6.68 -6 6 C-4.02 4.02 -2.04 2.04 0 0 Z " fill="#43A5CF" transform="translate(238,265)"/>
<path d="M0 0 C0.99 0.33 1.98 0.66 3 1 C3.33 2.65 3.66 4.3 4 6 C3.01 6.33 2.02 6.66 1 7 C0.34 5.02 -0.32 3.04 -1 1 C-0.67 0.67 -0.34 0.34 0 0 Z " fill="#393F4A" transform="translate(357,134)"/>
<path d="M0 0 C3.96 0 7.92 0 12 0 C12 0.33 12 0.66 12 1 C8.7 1.66 5.4 2.32 2 3 C1.34 2.01 0.68 1.02 0 0 Z " fill="#999EA3" transform="translate(307,123)"/>
<path d="M0 0 C0.99 0.33 1.98 0.66 3 1 C3 3.64 3 6.28 3 9 C0.23776722 6.23776722 0.42143709 3.79293383 0 0 Z " fill="#5BB5A3" transform="translate(224,396)"/>
<path d="M0 0 C1.32 0 2.64 0 4 0 C4 0.66 4 1.32 4 2 C3.34 2 2.68 2 2 2 C2 2.66 2 3.32 2 4 C1.34 4 0.68 4 0 4 C-0.33 4.99 -0.66 5.98 -1 7 C-1.04254356 5.00045254 -1.04080783 2.99958364 -1 1 C-0.67 0.67 -0.34 0.34 0 0 Z " fill="#58B3D1" transform="translate(209,315)"/>
<path d="M0 0 C2.4375 0.625 2.4375 0.625 5 2 C5.8125 5.125 5.8125 5.125 6 8 C4.5 6.625 4.5 6.625 3 5 C3 4.34 3 3.68 3 3 C2.34 3 1.68 3 1 3 C0.67 2.01 0.34 1.02 0 0 Z " fill="#66B2A4" transform="translate(286,314)"/>
<path d="M0 0 C2.475 0.99 2.475 0.99 5 2 C4.34 3.32 3.68 4.64 3 6 C1.5 4.6875 1.5 4.6875 0 3 C0 2.01 0 1.02 0 0 Z " fill="#29303D" transform="translate(142,314)"/>
<path d="M0 0 C2.475 0.495 2.475 0.495 5 1 C5 2.32 5 3.64 5 5 C4.34 5 3.68 5 3 5 C3 4.34 3 3.68 3 3 C2.34 3 1.68 3 1 3 C0.67 2.01 0.34 1.02 0 0 Z " fill="#384552" transform="translate(329,255)"/>
<path d="M0 0 C0.598125 0.350625 1.19625 0.70125 1.8125 1.0625 C1.8125 2.0525 1.8125 3.0425 1.8125 4.0625 C-1.10267292 2.98848892 -2.96560176 2.28439824 -5.1875 0.0625 C-2.1875 -0.9375 -2.1875 -0.9375 0 0 Z " fill="#4BB398" transform="translate(239.1875,413.9375)"/>
<path d="M0 0 C1.32 0.33 2.64 0.66 4 1 C3.01 2.485 3.01 2.485 2 4 C-0.625 4.1875 -0.625 4.1875 -3 4 C-3 3.34 -3 2.68 -3 2 C-2.01 2 -1.02 2 0 2 C0 1.34 0 0.68 0 0 Z " fill="#0D192E" transform="translate(339,320)"/>
<path d="M0 0 C0.33 0 0.66 0 1 0 C1 1.65 1 3.3 1 5 C-0.98 5.66 -2.96 6.32 -5 7 C-4.19152271 5.83054208 -3.37810888 4.66449539 -2.5625 3.5 C-2.11003906 2.8503125 -1.65757812 2.200625 -1.19140625 1.53125 C-0.79824219 1.0259375 -0.40507812 0.520625 0 0 Z " fill="#4FAED2" transform="translate(203,304)"/>
<path d="M0 0 C2.4375 1.1875 2.4375 1.1875 5 3 C5.8125 5.6875 5.8125 5.6875 6 8 C1.125 3.375 1.125 3.375 0 0 Z " fill="#65B4BD" transform="translate(268,293)"/>
<path d="M0 0 C0.99 0 1.98 0 3 0 C3 0.66 3 1.32 3 2 C3.99 2.33 4.98 2.66 6 3 C6 3.66 6 4.32 6 5 C6.66 5.33 7.32 5.66 8 6 C5 6 5 6 3.61328125 4.6875 C2.40885417 3.125 1.20442708 1.5625 0 0 Z " fill="#5BB9C0" transform="translate(261,286)"/>
<path d="M0 0 C0.66 0.33 1.32 0.66 2 1 C2 1.99 2 2.98 2 4 C0 5.6875 0 5.6875 -2 7 C-1.125 1.125 -1.125 1.125 0 0 Z " fill="#41515B" transform="translate(179,244)"/>
<path d="M0 0 C0.99 0 1.98 0 3 0 C3.66 0.99 4.32 1.98 5 3 C5.66 3.33 6.32 3.66 7 4 C6.67 4.66 6.34 5.32 6 6 C3.37812506 4.95125002 2.20628639 4.35068687 0.75 1.875 C0.5025 1.25625 0.255 0.6375 0 0 Z " fill="#555D66" transform="translate(242,230)"/>
<path d="M0 0 C1.32 0.66 2.64 1.32 4 2 C0.77208445 4.1519437 -0.28400809 4.20086443 -4 4 C-2.68 2.68 -1.36 1.36 0 0 Z " fill="#50565F" transform="translate(287,203)"/>
<path d="M0 0 C0.33 0 0.66 0 1 0 C2.85546875 5.95703125 2.85546875 5.95703125 3 8 C2.01 8.99 1.02 9.98 0 11 C0 7.37 0 3.74 0 0 Z " fill="#3A4454" transform="translate(137,184)"/>
</svg>
