<?xml version="1.0" encoding="UTF-8"?>
<svg version="1.1" xmlns="http://www.w3.org/2000/svg" width="500" height="500">
<path d="M0 0 C0 0.66 0 1.32 0 2 C0.66 2 1.32 2 2 2 C5.08536234 5.38394579 6.96545628 8.93091256 9 13 C11.70192339 14.35096169 13.98154873 14.15033416 17 14.25 C23.6211515 14.68453608 28.38341725 16.56412206 34 20 C34 20.66 34 21.32 34 22 C34.66 22 35.32 22 36 22 C36.64834654 23.269553 37.29357815 24.54069706 37.9375 25.8125 C38.47697266 26.87404297 38.47697266 26.87404297 39.02734375 27.95703125 C40.98894521 32.07718212 41.20877066 35.76866454 41.31640625 40.2421875 C41.34764587 41.35237999 41.34764587 41.35237999 41.3795166 42.48500061 C41.44622796 44.94822223 41.50489459 47.41154958 41.5625 49.875 C41.58367889 50.71837921 41.60485779 51.56175842 41.62667847 52.43069458 C42.15985948 73.95147494 42.09726562 95.47436957 42 117 C42.68126953 117.32178223 43.36253906 117.64356445 44.06445312 117.97509766 C45.40926758 118.62551025 45.40926758 118.62551025 46.78125 119.2890625 C47.66876953 119.71396973 48.55628906 120.13887695 49.47070312 120.57666016 C56.18447096 124.35477468 57.90322368 128.66128287 60 136 C67.92 135.67 75.84 135.34 84 135 C84.02578125 131.24367187 84.0515625 127.48734375 84.078125 123.6171875 C84.11655353 119.97323153 84.16171142 116.32941666 84.20751953 112.68554688 C84.23571932 110.15599317 84.25693873 107.62635151 84.27099609 105.09667969 C84.29243829 101.45722454 84.3390986 97.81882585 84.390625 94.1796875 C84.39185364 93.05134491 84.39308228 91.92300232 84.39434814 90.76046753 C84.50968318 84.5567031 84.80891065 80.70584514 89 76 C94.10418353 71.9144145 99.38517657 70.89372218 105.74316406 70.77539062 C106.89826477 70.75287231 108.05336548 70.730354 109.24346924 70.70715332 C114.51887131 70.63596446 119.7941029 70.57849078 125.06982422 70.54003906 C127.85007582 70.5177782 130.62898188 70.47602535 133.40869141 70.41699219 C137.42370799 70.33191988 141.43726884 70.30472316 145.453125 70.28125 C146.68983948 70.24825806 147.92655396 70.21526611 149.20074463 70.18127441 C154.85471303 70.19434266 158.92817853 70.26708956 163.33520508 74.04174805 C164.58152629 75.33783752 165.80309589 76.6581412 167 78 C168.33188585 79.30077058 169.66985525 80.59533736 171.01342773 81.8840332 C172.40615266 83.27027229 173.79611759 84.65928872 175.18359375 86.05078125 C175.92456802 86.7907988 176.6655423 87.53081635 177.42897034 88.29325867 C178.97885859 89.8424716 180.52750558 91.39292727 182.07495117 92.94458008 C184.45182249 95.32685505 186.83404646 97.70368497 189.21679688 100.08007812 C190.72688365 101.5908249 192.23666062 103.10188141 193.74609375 104.61328125 C194.45954453 105.32470779 195.1729953 106.03613434 195.9080658 106.76911926 C196.5628743 107.42707993 197.2176828 108.08504059 197.89233398 108.76293945 C198.75881813 109.63061699 198.75881813 109.63061699 199.64280701 110.51582336 C202.71795052 113.87868788 202.15486181 117.522621 202.16113281 121.8269043 C202.16609772 122.63525223 202.17106262 123.44360016 202.17617798 124.27644348 C202.19081895 126.95904382 202.19760611 129.64158496 202.203125 132.32421875 C202.20887649 134.18789166 202.21463422 136.05156455 202.22039795 137.91523743 C202.23091455 141.82850419 202.23675236 145.74175038 202.24023438 149.6550293 C202.24570926 154.66080073 202.26971295 159.66629879 202.29820633 164.67198467 C202.31686777 168.52481366 202.32204026 172.37757741 202.32357025 176.23044777 C202.32659126 178.07516786 202.33460112 179.91988695 202.34775543 181.76456261 C202.36488329 184.35195786 202.36291895 186.9386935 202.35644531 189.52612305 C202.3656601 190.28327606 202.37487488 191.04042908 202.3843689 191.82052612 C202.3349613 198.15063991 200.82451694 202.70632157 196.8125 207.75 C190.82724211 212.53820631 184.72614481 213.44710819 177.32421875 213.38818359 C176.49709381 213.39344055 175.66996887 213.39869751 174.81777954 213.40411377 C172.10748925 213.41722306 169.39779536 213.40860813 166.6875 213.3984375 C164.78995655 213.40046084 162.89241385 213.40337445 160.99487305 213.40713501 C157.02743084 213.41154608 153.06019193 213.40516659 149.09277344 213.39111328 C144.02220982 213.37402218 138.9521227 213.38386989 133.88157654 213.40183067 C129.96606901 213.41270144 126.05067336 213.40920708 122.13516235 213.4014473 C120.26616356 213.39945439 118.39715442 213.40187242 116.52816772 213.40888596 C113.91043413 213.41655484 111.29345877 213.40482077 108.67578125 213.38818359 C107.9129483 213.39425629 107.15011536 213.40032898 106.36416626 213.40658569 C99.73984498 213.32908343 94.24674824 211.95369412 89.125 207.5 C86.20523328 204.06498033 84.76432523 202.00719933 84.5859375 197.53515625 C84.54710449 196.65923828 84.50827148 195.78332031 84.46826172 194.88085938 C84.42209717 193.48577148 84.42209717 193.48577148 84.375 192.0625 C84.33777832 191.10537109 84.30055664 190.14824219 84.26220703 189.16210938 C84.16201278 186.44162756 84.07687995 183.72122987 84 181 C83.9690625 179.90558594 83.938125 178.81117188 83.90625 177.68359375 C83.79103148 167.78920303 84.49358091 157.87517222 85 148 C76.75 148 68.5 148 60 148 C59.34 150.31 58.68 152.62 58 155 C54.01016481 160.8674047 48.75386944 164.74871019 42 167 C42.00079559 168.05742905 42.00159119 169.11485809 42.00241089 170.20433044 C42.00602103 180.19401727 41.97810629 190.1831909 41.9197216 200.17271328 C41.89071105 205.30789182 41.87261559 210.44261535 41.87988281 215.57788086 C41.88649424 220.53843245 41.86388792 225.49808636 41.82144547 230.45845222 C41.8103465 232.346129 41.80958501 234.23389716 41.81957626 236.12158012 C41.9019746 253.9864257 41.9019746 253.9864257 36.53445435 260.49159241 C34.44741602 262.54320409 32.43999427 264.37333715 30 266 C28.92492187 266.76957031 28.92492187 266.76957031 27.828125 267.5546875 C24.23831199 269.38926045 21.32594929 269.54559318 17.3125 269.75 C16.29833008 269.81380859 16.29833008 269.81380859 15.26367188 269.87890625 C10.29207379 270.14603689 10.29207379 270.14603689 8 269 C7.896875 269.721875 7.79375 270.44375 7.6875 271.1875 C6.21362705 277.21698027 2.38573865 281.72508796 -2.73828125 285.16796875 C-9.00246438 288.88355489 -14.32159791 290.09494517 -21.5703125 288.3984375 C-25.48238839 287.26929606 -28.58772478 286.27485015 -32 284 C-32 283.34 -32 282.68 -32 282 C-33.32 281.34 -34.64 280.68 -36 280 C-36 279.34 -36 278.68 -36 278 C-36.66 278 -37.32 278 -38 278 C-41.90697819 268.35464761 -43.34178128 261.65210523 -39.44921875 251.72265625 C-36.11775522 245.46381506 -30.82064107 241.31944921 -24.1875 238.9375 C-17.31078129 237.32760151 -10.48793784 237.18740815 -4.12109375 240.49609375 C-0.10758721 243.21265931 3.40415898 245.84499568 6 250 C6 250.99 6 251.98 6 253 C6.66 253 7.32 253 8 253 C8.33 254.32 8.66 255.64 9 257 C16.1785353 257.46731875 21.21537468 257.55385398 27 253 C29.29754703 248.78699103 29.27258365 244.67915457 29.22705078 239.99682617 C29.22734283 239.20605682 29.22763489 238.41528748 29.22793579 237.60055542 C29.2265472 234.99791325 29.21100829 232.39556065 29.1953125 229.79296875 C29.19158069 227.9840765 29.18873451 226.17518223 29.18673706 224.36628723 C29.1791138 219.61351913 29.15947654 214.86087395 29.1373291 210.1081543 C29.11684251 205.25506249 29.10772933 200.40195075 29.09765625 195.54882812 C29.07622942 186.03249818 29.04210924 176.51625933 29 167 C28.4536792 166.73735352 27.9073584 166.47470703 27.34448242 166.20410156 C26.62623291 165.8531543 25.9079834 165.50220703 25.16796875 165.140625 C24.45664795 164.79547852 23.74532715 164.45033203 23.01245117 164.09472656 C17.48094962 161.08571856 13.62354432 155.62188069 11 150 C9.06657947 142.97731767 9.91478132 136.00904273 13.26171875 129.57421875 C17.35319015 123.01283023 21.82340603 119.79560406 29 117 C29.06956471 106.54257885 29.12284419 96.08521291 29.15543652 85.62760735 C29.17108061 80.77151175 29.19229598 75.91557468 29.22631836 71.05957031 C29.25895655 66.37169973 29.27686247 61.68398146 29.28463173 56.99600601 C29.29016722 55.20906299 29.30097674 53.42212813 29.31719017 51.63525009 C29.33902385 49.12888438 29.34196447 46.623145 29.34057617 44.11669922 C29.351362 43.38086105 29.36214783 42.64502289 29.3732605 41.8868866 C29.33920811 36.19115616 28.0610302 32.0610302 24 28 C21.44132526 27.5342637 18.95312092 27.16515752 16.375 26.875 C15.66859375 26.78863281 14.9621875 26.70226562 14.234375 26.61328125 C12.49049859 26.40118817 10.7453516 26.19959009 9 26 C8.69320312 26.77601563 8.38640625 27.55203125 8.0703125 28.3515625 C5.22016053 35.40412833 0.50557288 39.98633867 -5.76953125 44.18359375 C-12.14214392 46.51612623 -22.49682557 46.21544678 -28.625 43.4375 C-35.51422855 39.11842515 -39.68122154 32.57136117 -41.5390625 24.72265625 C-42.64870673 17.83633471 -41.48196867 12.05285228 -38 6 C-27.38156335 -5.96032699 -13.86848057 -8.11175278 0 0 Z M97.21708679 84.24917603 C92.93177815 90.41374962 94.85494905 102.17063706 94.8671875 109.33984375 C94.86623077 110.58375381 94.86527405 111.82766388 94.86428833 113.10926819 C94.86361145 115.7203883 94.86543123 118.33151013 94.86962891 120.94262695 C94.87322658 123.61848209 94.87416532 126.29413747 94.86962891 128.9699707 C94.86347139 132.84328236 94.8641923 136.71652947 94.8671875 140.58984375 C94.86516327 141.78979477 94.86313904 142.98974579 94.86105347 144.22605896 C94.86420563 145.33473831 94.86735779 146.44341766 94.87060547 147.58569336 C94.87140106 148.56146835 94.87219666 149.53724335 94.87301636 150.54258728 C94.89750833 153.13727456 94.89750833 153.13727456 96 156 C95.91015699 157.85772162 95.75388139 159.71247985 95.5625 161.5625 C93.40839454 180.71986823 93.40839454 180.71986823 97.00878906 199.09022522 C100.06127578 202.01787193 103.36499051 201.54968088 107.37109375 201.50170898 C108.22502716 201.50711197 109.07896057 201.51251495 109.95877075 201.51808167 C112.78536492 201.53060317 115.6109473 201.51405546 118.4375 201.49609375 C120.39900771 201.49624866 122.36051572 201.49773628 124.32202148 201.50050354 C128.43454506 201.50188907 132.54672052 201.48930377 136.65917969 201.46655273 C141.93553728 201.43816772 147.21131627 201.44090341 152.48771667 201.45364285 C156.53858396 201.46059175 160.58931708 201.45281976 164.64016724 201.44038582 C166.58586106 201.43586365 168.53156925 201.43554118 170.4772644 201.43945122 C173.19477962 201.44235571 175.91149233 201.42589319 178.62890625 201.40405273 C179.83995529 201.41080521 179.83995529 201.41080521 181.07546997 201.41769409 C183.9921927 201.37866716 186.39308017 201.32202644 189.00190735 199.93780518 C190.55910436 196.91449425 190.39105205 193.91010104 190.34057617 190.59106445 C190.34101425 189.83960144 190.34145233 189.08813843 190.34190369 188.31390381 C190.33981367 185.83009863 190.31647326 183.3469685 190.29296875 180.86328125 C190.28737354 179.14121367 190.28310309 177.41914132 190.28010559 175.69706726 C190.26865091 171.16448788 190.23917845 166.63219688 190.20599365 162.09973145 C190.17530615 157.47473044 190.16160308 152.84968284 190.14648438 148.22460938 C190.11430928 139.14961288 190.06310545 130.07483042 190 121 C189.00202393 120.970271 189.00202393 120.970271 187.98388672 120.93994141 C184.94721732 120.84423582 181.91119322 120.73474192 178.875 120.625 C177.30492187 120.57859375 177.30492187 120.57859375 175.703125 120.53125 C170.44896037 120.33172476 165.91704811 120.04745251 161 118 C160.0925 117.731875 159.185 117.46375 158.25 117.1875 C156 116 156 116 154.75 113.5 C154.5025 112.675 154.255 111.85 154 111 C153.505 110.01 153.505 110.01 153 109 C152.84621148 107.04225931 152.75028537 105.07982648 152.68359375 103.1171875 C152.64169922 101.95058594 152.59980469 100.78398437 152.55664062 99.58203125 C152.51732422 98.35871094 152.47800781 97.13539063 152.4375 95.875 C152.39431641 94.64394531 152.35113281 93.41289062 152.30664062 92.14453125 C152.20031296 89.09647147 152.09828219 86.0483281 152 83 C144.5069832 82.92406017 137.01406529 82.87144668 129.52075195 82.83520508 C126.97058402 82.82009995 124.42044214 82.79961467 121.87036133 82.77368164 C118.20908181 82.73737496 114.54814515 82.72029085 110.88671875 82.70703125 C109.17097908 82.68380547 109.17097908 82.68380547 107.420578 82.66011047 C106.35970474 82.65988388 105.29883148 82.65965729 104.20581055 82.65942383 C103.27093307 82.65276199 102.3360556 82.64610016 101.37284851 82.63923645 C98.96890355 82.82500089 98.96890355 82.82500089 97.21708679 84.24917603 Z M164 92 C163.69674878 94.2458605 163.43347478 96.4971469 163.1875 98.75 C163.03667969 100.00296875 162.88585937 101.2559375 162.73046875 102.546875 C162.67159132 106.08374327 162.67159132 106.08374327 165.03125 108.4375 C168.71397127 110.37577435 171.17356607 110.4047265 175.3125 110.25 C176.56675781 110.21390625 177.82101562 110.1778125 179.11328125 110.140625 C180.06589844 110.09421875 181.01851562 110.0478125 182 110 C178.2698595 105.46334263 174.32946434 101.22058878 170.1875 97.0625 C169.69531982 96.56580811 169.20313965 96.06911621 168.69604492 95.55737305 C166.69370733 93.08668196 166.69370733 93.08668196 164 92 Z " fill="#142035" transform="translate(170,108)"/>
<path d="M0 0 C0.33 0 0.66 0 1 0 C1 7.26 1 14.52 1 22 C2.98 22.33 4.96 22.66 7 23 C6.01 25.31 5.02 27.62 4 30 C3.34 29.67 2.68 29.34 2 29 C2.33 28.34 2.66 27.68 3 27 C2.34 27 1.68 27 1 27 C0.7497843 29.91634129 0.7497843 29.91634129 1 33 C2.485 33.99 2.485 33.99 4 35 C4.6875 37.125 4.6875 37.125 5 39 C3.39950296 39.39036513 1.79437629 39.76178619 0.1875 40.125 C-0.70582031 40.33382812 -1.59914063 40.54265625 -2.51953125 40.7578125 C-5 41 -5 41 -8 39 C-8.15811388 42.05270463 -8.15811388 42.05270463 -7 45 C-7.66 45 -8.32 45 -9 45 C-9 46.65 -9 48.3 -9 50 C-8.2265625 48.63875 -8.2265625 48.63875 -7.4375 47.25 C-4.95945809 43.60225299 -2.23724494 41.33764007 2 40 C7.97039146 39.57354347 12.42278641 41.07667407 17 45 C20.22135553 48.75824811 20.38937103 52.07653973 20.23828125 56.83984375 C19.9472153 59.4785236 19.21577722 61.64443164 18 64 C19.1446875 64.185625 19.1446875 64.185625 20.3125 64.375 C23 65 23 65 26 67 C26.66 66.67 27.32 66.34 28 66 C25.52646736 72.07139831 20.44835415 75.68361052 15 79 C13.515 79.495 13.515 79.495 12 80 C12.00079559 81.05742905 12.00159119 82.11485809 12.00241089 83.20433044 C12.00602103 93.19401727 11.97810629 103.1831909 11.9197216 113.17271328 C11.89071105 118.30789182 11.87261559 123.44261535 11.87988281 128.57788086 C11.88649424 133.53843245 11.86388792 138.49808636 11.82144547 143.45845222 C11.8103465 145.346129 11.80958501 147.23389716 11.81957626 149.12158012 C11.9019746 166.9864257 11.9019746 166.9864257 6.53445435 173.49159241 C4.44741602 175.54320409 2.43999427 177.37333715 0 179 C-0.71671875 179.51304687 -1.4334375 180.02609375 -2.171875 180.5546875 C-5.76168801 182.38926045 -8.67405071 182.54559318 -12.6875 182.75 C-13.70166992 182.81380859 -13.70166992 182.81380859 -14.73632812 182.87890625 C-19.70792621 183.14603689 -19.70792621 183.14603689 -22 182 C-22.103125 182.721875 -22.20625 183.44375 -22.3125 184.1875 C-23.78637295 190.21698027 -27.61426135 194.72508796 -32.73828125 198.16796875 C-39.00246438 201.88355489 -44.32159791 203.09494517 -51.5703125 201.3984375 C-55.48238839 200.26929606 -58.58772478 199.27485015 -62 197 C-62 196.34 -62 195.68 -62 195 C-63.32 194.34 -64.64 193.68 -66 193 C-66 192.34 -66 191.68 -66 191 C-66.66 191 -67.32 191 -68 191 C-71.90697819 181.35464761 -73.34178128 174.65210523 -69.44921875 164.72265625 C-66.11775522 158.46381506 -60.82064107 154.31944921 -54.1875 151.9375 C-47.31078129 150.32760151 -40.48793784 150.18740815 -34.12109375 153.49609375 C-30.10758721 156.21265931 -26.59584102 158.84499568 -24 163 C-24 163.99 -24 164.98 -24 166 C-23.34 166 -22.68 166 -22 166 C-21.67 167.32 -21.34 168.64 -21 170 C-13.8214647 170.46731875 -8.78462532 170.55385398 -3 166 C-0.70245297 161.78699103 -0.72741635 157.67915457 -0.77294922 152.99682617 C-0.77265717 152.20605682 -0.77236511 151.41528748 -0.77206421 150.60055542 C-0.7734528 147.99791325 -0.78899171 145.39556065 -0.8046875 142.79296875 C-0.80841931 140.9840765 -0.81126549 139.17518223 -0.81326294 137.36628723 C-0.8208862 132.61351913 -0.84052346 127.86087395 -0.8626709 123.1081543 C-0.88315749 118.25506249 -0.89227067 113.40195075 -0.90234375 108.54882812 C-0.92377058 99.03249818 -0.95789076 89.51625933 -1 80 C-1.8194812 79.60603027 -1.8194812 79.60603027 -2.65551758 79.20410156 C-3.37376709 78.8531543 -4.0920166 78.50220703 -4.83203125 78.140625 C-5.54335205 77.79547852 -6.25467285 77.45033203 -6.98754883 77.09472656 C-12.51905038 74.08571856 -16.37645568 68.62188069 -19 63 C-20.93342053 55.97731767 -20.08521868 49.00904273 -16.73828125 42.57421875 C-12.58499401 35.91369775 -8.32126681 32.92850673 -1 30 C-0.67 20.1 -0.34 10.2 0 0 Z " fill="#1B273B" transform="translate(200,195)"/>
<path d="M0 0 C4.16593199 -0.20478598 8.33055793 -0.32813027 12.5 -0.4375 C14.25957031 -0.52547852 14.25957031 -0.52547852 16.0546875 -0.61523438 C17.77558594 -0.64907227 17.77558594 -0.64907227 19.53125 -0.68359375 C20.57861328 -0.72025146 21.62597656 -0.75690918 22.70507812 -0.79467773 C27.66946701 0.40264635 30.42755174 3.47629411 34 7 C34.66091644 7.63661057 35.32183289 8.27322113 36.0027771 8.92912292 C38.08237172 10.95106588 40.13559807 12.99685717 42.18359375 15.05078125 C42.92456802 15.7907988 43.6655423 16.53081635 44.42897034 17.29325867 C45.97885859 18.8424716 47.52750558 20.39292727 49.07495117 21.94458008 C51.45182249 24.32685505 53.83404646 26.70368497 56.21679688 29.08007812 C57.72688365 30.5908249 59.23666062 32.10188141 60.74609375 33.61328125 C61.45954453 34.32470779 62.1729953 35.03613434 62.9080658 35.76911926 C63.5628743 36.42707993 64.2176828 37.08504059 64.89233398 37.76293945 C65.46999008 38.34139114 66.04764618 38.91984283 66.64280701 39.51582336 C69.71795052 42.87868788 69.15486181 46.522621 69.16113281 50.8269043 C69.16858017 52.03942619 69.16858017 52.03942619 69.17617798 53.27644348 C69.19081895 55.95904382 69.19760611 58.64158496 69.203125 61.32421875 C69.20887649 63.18789166 69.21463422 65.05156455 69.22039795 66.91523743 C69.23091455 70.82850419 69.23675236 74.74175038 69.24023438 78.6550293 C69.24570926 83.66080073 69.26971295 88.66629879 69.29820633 93.67198467 C69.31686777 97.52481366 69.32204026 101.37757741 69.32357025 105.23044777 C69.32659126 107.07516786 69.33460112 108.91988695 69.34775543 110.76456261 C69.36488329 113.35195786 69.36291895 115.9386935 69.35644531 118.52612305 C69.3656601 119.28327606 69.37487488 120.04042908 69.3843689 120.82052612 C69.3349613 127.15063991 67.82451694 131.70632157 63.8125 136.75 C57.82724211 141.53820631 51.72614481 142.44710819 44.32421875 142.38818359 C43.08353134 142.39606903 43.08353134 142.39606903 41.81777954 142.40411377 C39.10748925 142.41722306 36.39779536 142.40860813 33.6875 142.3984375 C31.78995655 142.40046084 29.89241385 142.40337445 27.99487305 142.40713501 C24.02743084 142.41154608 20.06019193 142.40516659 16.09277344 142.39111328 C11.02220982 142.37402218 5.9521227 142.38386989 0.88157654 142.40183067 C-3.03393099 142.41270144 -6.94932664 142.40920708 -10.86483765 142.4014473 C-12.73383644 142.39945439 -14.60284558 142.40187242 -16.47183228 142.40888596 C-19.08956587 142.41655484 -21.70654123 142.40482077 -24.32421875 142.38818359 C-25.0870517 142.39425629 -25.84988464 142.40032898 -26.63583374 142.40658569 C-33.26015502 142.32908343 -38.75325176 140.95369412 -43.875 136.5 C-46.79476672 133.06498033 -48.23567477 131.00719933 -48.4140625 126.53515625 C-48.47219116 125.21874146 -48.47219116 125.21874146 -48.53149414 123.87573242 C-48.56235107 122.94736572 -48.59320801 122.01899902 -48.625 121.0625 C-48.68192017 119.64964722 -48.68192017 119.64964722 -48.73999023 118.20825195 C-48.99533138 111.47037236 -49.12563731 104.74253575 -49 98 C-48.34 98 -47.68 98 -47 98 C-46.63917123 100.64508361 -46.28604648 103.29079547 -45.9375 105.9375 C-45.83373047 106.69224609 -45.72996094 107.44699219 -45.62304688 108.22460938 C-45.37334362 110.14474128 -45.18209719 112.07228144 -45 114 C-45.495 114.495 -45.495 114.495 -46 115 C-46.23363881 116.84891946 -46.41303635 118.70488031 -46.5625 120.5625 C-46.64628906 121.57441406 -46.73007812 122.58632813 -46.81640625 123.62890625 C-46.87699219 124.41136719 -46.93757813 125.19382812 -47 126 C-46.34 126 -45.68 126 -45 126 C-45 126.66 -45 127.32 -45 128 C-44.34 128 -43.68 128 -43 128 C-43 127.34 -43 126.68 -43 126 C-42.01 126 -41.02 126 -40 126 C-39.34 123.03 -38.68 120.06 -38 117 C-37.67 117 -37.34 117 -37 117 C-36.92652344 117.92232422 -36.92652344 117.92232422 -36.8515625 118.86328125 C-36.77679688 119.67152344 -36.70203125 120.47976563 -36.625 121.3125 C-36.55539062 122.11300781 -36.48578125 122.91351563 -36.4140625 123.73828125 C-36.10435574 126.27224441 -36.10435574 126.27224441 -34 129 C-31.17011387 129.29681708 -28.55874464 129.39895765 -25.7265625 129.37231445 C-24.87116882 129.37596512 -24.01577515 129.37961578 -23.13446045 129.38337708 C-20.2977737 129.39150457 -17.46165425 129.37785434 -14.625 129.36328125 C-12.65966797 129.36276291 -10.69433542 129.36327961 -8.72900391 129.36479187 C-4.60636677 129.36470205 -0.48392479 129.3542523 3.63867188 129.33618164 C8.93187659 129.31349415 14.22479594 129.3129493 19.51803589 129.31969929 C23.57741853 129.32303554 27.63673572 129.31641567 31.69610596 129.30657005 C33.64821022 129.30271182 35.60032176 129.3015724 37.5524292 129.3031559 C40.27728224 129.3035254 43.00176492 129.29093872 45.7265625 129.2746582 C46.94536102 129.27837433 46.94536102 129.27837433 48.18878174 129.28216553 C52.56189119 129.4113121 52.56189119 129.4113121 56 127 C56.21715601 124.53289357 56.3113626 122.17450218 56.31884766 119.70458984 C56.32889328 118.95327286 56.3389389 118.20195587 56.34928894 117.4278717 C56.38023551 114.93890159 56.39718765 112.45003957 56.4140625 109.9609375 C56.43276495 108.23742739 56.45233766 106.51392652 56.4727478 104.79043579 C56.52417265 100.24981119 56.56374278 95.70915686 56.60089111 91.168396 C56.64086604 86.53666774 56.691988 81.90506422 56.7421875 77.2734375 C56.83906927 68.18237916 56.92343467 59.09125055 57 50 C56.33468262 50.01047363 55.66936523 50.02094727 54.98388672 50.03173828 C51.9476301 50.07350465 48.91143414 50.09939152 45.875 50.125 C44.82828125 50.14175781 43.7815625 50.15851563 42.703125 50.17578125 C35.30590979 50.22259907 29.06444201 49.62812679 23 45 C19 38 19 38 19 12 C1.84 12 -15.32 12 -33 12 C-33 11.67 -33 11.34 -33 11 C-20.46 10.67 -7.92 10.34 5 10 C4.34 8.35 3.68 6.7 3 5 C2.01 4.67 1.02 4.34 0 4 C0 2.68 0 1.36 0 0 Z M31 21 C30.69674878 23.2458605 30.43347478 25.4971469 30.1875 27.75 C30.03667969 29.00296875 29.88585937 30.2559375 29.73046875 31.546875 C29.67159132 35.08374327 29.67159132 35.08374327 32.03125 37.4375 C35.71397127 39.37577435 38.17356607 39.4047265 42.3125 39.25 C43.56675781 39.21390625 44.82101562 39.1778125 46.11328125 39.140625 C47.06589844 39.09421875 48.01851562 39.0478125 49 39 C45.2698595 34.46334263 41.32946434 30.22058878 37.1875 26.0625 C36.69531982 25.56580811 36.20313965 25.06911621 35.69604492 24.55737305 C33.69370733 22.08668196 33.69370733 22.08668196 31 21 Z " fill="#202C40" transform="translate(303,179)"/>
<path d="M0 0 C0 0.66 0 1.32 0 2 C0.66 2 1.32 2 2 2 C5.08536234 5.38394579 6.96545628 8.93091256 9 13 C11.70192339 14.35096169 13.98154873 14.15033416 17 14.25 C23.6211515 14.68453608 28.38341725 16.56412206 34 20 C34 20.66 34 21.32 34 22 C34.66 22 35.32 22 36 22 C36.64834654 23.269553 37.29357815 24.54069706 37.9375 25.8125 C38.47697266 26.87404297 38.47697266 26.87404297 39.02734375 27.95703125 C41.28739731 32.70405138 41.86410896 37.1263353 40.328125 42.234375 C39.59886418 44.17448398 38.80430317 46.08977996 38 48 C38.33 48.33 38.66 48.66 39 49 C39.32049797 52.84597567 38.59555725 55.50971852 37 59 C35.02 59 33.04 59 31 59 C31 67.91 31 76.82 31 86 C30.67 86 30.34 86 30 86 C29.99413376 85.38691986 29.98826752 84.77383972 29.98222351 84.1421814 C29.91819543 77.75024796 29.83375122 71.35881362 29.73754883 64.96728516 C29.70433354 62.58323759 29.67629108 60.19911203 29.65356445 57.81494141 C29.61995682 54.38410261 29.56763593 50.95397637 29.51171875 47.5234375 C29.50532883 46.46071625 29.4989389 45.397995 29.49235535 44.30307007 C29.36263996 37.74602501 28.85152942 32.85152942 24 28 C21.44132526 27.5342637 18.95312092 27.16515752 16.375 26.875 C15.66859375 26.78863281 14.9621875 26.70226562 14.234375 26.61328125 C12.49049859 26.40118817 10.7453516 26.19959009 9 26 C8.69320312 26.77601563 8.38640625 27.55203125 8.0703125 28.3515625 C5.22016053 35.40412833 0.50557288 39.98633867 -5.76953125 44.18359375 C-12.14214392 46.51612623 -22.49682557 46.21544678 -28.625 43.4375 C-35.51422855 39.11842515 -39.68122154 32.57136117 -41.5390625 24.72265625 C-42.64870673 17.83633471 -41.48196867 12.05285228 -38 6 C-27.38156335 -5.96032699 -13.86848057 -8.11175278 0 0 Z " fill="#1B283D" transform="translate(170,108)"/>
<path d="M0 0 C0.33 0 0.66 0 1 0 C1 7.26 1 14.52 1 22 C2.98 22.33 4.96 22.66 7 23 C6.01 25.31 5.02 27.62 4 30 C3.34 29.67 2.68 29.34 2 29 C2.33 28.34 2.66 27.68 3 27 C2.34 27 1.68 27 1 27 C0.7497843 29.91634129 0.7497843 29.91634129 1 33 C1.99 33.66 2.98 34.32 4 35 C4.6875 37.125 4.6875 37.125 5 39 C3.39950296 39.39036513 1.79437629 39.76178619 0.1875 40.125 C-0.70582031 40.33382812 -1.59914062 40.54265625 -2.51953125 40.7578125 C-5 41 -5 41 -8 39 C-8.15811388 42.05270463 -8.15811388 42.05270463 -7 45 C-7.66 45 -8.32 45 -9 45 C-9 46.65 -9 48.3 -9 50 C-8.2265625 48.63875 -8.2265625 48.63875 -7.4375 47.25 C-4.95945809 43.60225299 -2.23724494 41.33764007 2 40 C7.97039146 39.57354347 12.42278641 41.07667407 17 45 C20.22135553 48.75824811 20.38937103 52.07653973 20.23828125 56.83984375 C19.9472153 59.4785236 19.21577722 61.64443164 18 64 C19.1446875 64.185625 19.1446875 64.185625 20.3125 64.375 C23 65 23 65 26 67 C26.66 66.67 27.32 66.34 28 66 C25.5581712 71.99357978 20.48818237 75.86389579 15 79 C11.625 79.75 11.625 79.75 9 80 C9 80.66 9 81.32 9 82 C8.0409375 82.185625 8.0409375 82.185625 7.0625 82.375 C6.0415625 82.684375 6.0415625 82.684375 5 83 C4.67 83.66 4.34 84.32 4 85 C2.515 84.505 2.515 84.505 1 84 C1 88.29 1 92.58 1 97 C0.67 97 0.34 97 0 97 C-0.33 91.39 -0.66 85.78 -1 80 C-2.216875 79.443125 -3.43375 78.88625 -4.6875 78.3125 C-11.33820919 74.95201842 -15.86334869 69.72139567 -19 63 C-20.93342053 55.97731767 -20.08521868 49.00904273 -16.73828125 42.57421875 C-12.58499401 35.91369775 -8.32126681 32.92850673 -1 30 C-0.67 20.1 -0.34 10.2 0 0 Z " fill="#132337" transform="translate(200,195)"/>
<path d="M0 0 C4.16593199 -0.20478598 8.33055793 -0.32813027 12.5 -0.4375 C14.25957031 -0.52547852 14.25957031 -0.52547852 16.0546875 -0.61523438 C21.83039094 -0.72880158 25.94093133 -0.76423012 30.4375 3.125 C31.65148049 4.39181112 32.84022721 5.68338081 34 7 C35.12947842 8.10894535 36.26465633 9.21212433 37.40625 10.30859375 C38.44013999 11.34894555 39.47143676 12.3918815 40.5 13.4375 C41.03625 13.97826172 41.5725 14.51902344 42.125 15.07617188 C43.41904036 16.38176617 44.70988174 17.69052996 46 19 C42.37673261 20.2077558 41.35853631 19.54311128 38 18 C37.71125 18.61875 37.4225 19.2375 37.125 19.875 C36 22 36 22 34 24 C33.01 23.01 33.01 23.01 32 22 C31.34 26.29 30.68 30.58 30 35 C31.32 35.66 32.64 36.32 34 37 C34.33 37.33 34.66 37.66 35 38 C37.18639453 38.07258946 39.37500389 38.08373783 41.5625 38.0625 C42.76003906 38.05347656 43.95757812 38.04445312 45.19140625 38.03515625 C46.58166016 38.01775391 46.58166016 38.01775391 48 38 C46.35 36.02 44.7 34.04 43 32 C45.31 32.66 47.62 33.32 50 34 C50 35.98 50 37.96 50 40 C46.535 40.495 46.535 40.495 43 41 C42.67 42.32 42.34 43.64 42 45 C41.34 45 40.68 45 40 45 C40 45.66 40 46.32 40 47 C39.01 47.495 39.01 47.495 38 48 C44.27 48.33 50.54 48.66 57 49 C57 49.33 57 49.66 57 50 C53.29173349 50.05837668 49.5835863 50.09372277 45.875 50.125 C44.82828125 50.14175781 43.7815625 50.15851563 42.703125 50.17578125 C35.30590979 50.22259907 29.06444201 49.62812679 23 45 C19 38 19 38 19 12 C1.84 12 -15.32 12 -33 12 C-33 11.67 -33 11.34 -33 11 C-20.46 10.67 -7.92 10.34 5 10 C4.34 8.35 3.68 6.7 3 5 C2.01 4.67 1.02 4.34 0 4 C0 2.68 0 1.36 0 0 Z " fill="#3B4657" transform="translate(303,179)"/>
<path d="M0 0 C0.66 0 1.32 0 2 0 C2 28.38 2 56.76 2 86 C0 87 -2 88 -4 89 C-5.13350534 91.01669827 -5.13350534 91.01669827 -6 93 C-8.31 93 -10.62 93 -13 93 C-13.6875 90.6875 -13.6875 90.6875 -14 88 C-12.625 86.4375 -12.625 86.4375 -11 85 C-9.84329338 81.65148279 -9.85103862 78.39648016 -9.81054688 74.87719727 C-9.79382935 73.63813126 -9.77711182 72.39906525 -9.7598877 71.12245178 C-9.75320572 70.4622661 -9.74652374 69.80208042 -9.73963928 69.12188911 C-9.71846756 67.03861444 -9.69144778 64.95548593 -9.66296387 62.87229919 C-9.60338567 58.43575758 -9.55133028 53.99914356 -9.5 49.5625 C-9.44035444 44.44736918 -9.37749967 39.33230715 -9.30812073 34.21729851 C-9.28200491 32.18757768 -9.26090444 30.15784826 -9.2401123 28.12806702 C-9.1335463 20.04879096 -8.72703461 12.04746795 -8 4 C-5.33333333 3.33333333 -2.66666667 2.66666667 0 2 C0 1.34 0 0.68 0 0 Z " fill="#162337" transform="translate(209,275)"/>
<path d="M0 0 C1.16485931 -0.00960754 2.32971863 -0.01921509 3.52987671 -0.02911377 C4.78926056 -0.03336365 6.04864441 -0.03761353 7.34619141 -0.04199219 C8.63965485 -0.04769226 9.93311829 -0.05339233 11.26577759 -0.05926514 C14.00450025 -0.06976392 16.74319365 -0.07561394 19.48193359 -0.07910156 C22.98465914 -0.08458457 26.48699563 -0.1086126 29.98959923 -0.13707352 C33.33762246 -0.16021976 36.68559231 -0.1621507 40.03369141 -0.16699219 C41.28902679 -0.17933899 42.54436218 -0.19168579 43.83773804 -0.20440674 C45.00890167 -0.20140564 46.18006531 -0.19840454 47.38671875 -0.1953125 C48.41469574 -0.19895813 49.44267273 -0.20260376 50.50180054 -0.20635986 C53.82270204 0.22626231 55.70583767 1.08055004 58.32275391 3.16113281 C58.63525391 6.84863281 58.63525391 6.84863281 58.32275391 10.16113281 C53.86439138 12.64799581 49.90662287 12.65975361 44.88525391 12.84863281 C43.91547607 12.88770752 42.94569824 12.92678223 41.9465332 12.96704102 C31.83889837 13.28379572 21.74198656 13.0875502 11.63525391 12.84863281 C10.80776642 12.83166351 9.98027893 12.81469421 9.12771606 12.79721069 C6.75089297 12.74571939 4.37487556 12.68041378 1.99853516 12.61035156 C1.28276306 12.59560791 0.56699097 12.58086426 -0.17047119 12.56567383 C-3.77000402 12.44132337 -6.68842792 12.28726622 -9.67724609 10.16113281 C-10.72367209 7.32083368 -10.88716041 5.79087575 -9.92724609 2.91113281 C-7.4899977 -0.50101494 -3.84021116 0.0255469 0 0 Z " fill="#16A8AA" transform="translate(288.67724609375,238.8388671875)"/>
<path d="M0 0 C1.61155781 -0.01251849 3.22308493 -0.03000825 4.83453369 -0.05255127 C7.11974792 -0.08249295 9.40421712 -0.09233669 11.68960571 -0.09695435 C12.71319435 -0.11540657 12.71319435 -0.11540657 13.75746155 -0.13423157 C18.03462241 -0.11449357 20.84594642 0.48068997 24.17398071 3.23117065 C24.61148071 6.79367065 24.61148071 6.79367065 24.17398071 10.23117065 C18.87237828 15.53277309 5.72154492 13.35379099 -1.56958008 13.36929321 C-3.27298144 13.36835164 -4.97638263 13.36574806 -6.67977905 13.36154175 C-9.25527857 13.35618779 -11.8306032 13.36151381 -14.40609741 13.3678894 C-19.21390017 13.37147296 -24.01917211 13.32704997 -28.82601929 13.23117065 C-29.85000824 13.21129089 -29.85000824 13.21129089 -30.89468384 13.19100952 C-32.71767232 13.14349263 -34.53961316 13.05970248 -36.36117554 12.97335815 C-37.35641235 12.92807983 -38.35164917 12.88280151 -39.37704468 12.83615112 C-41.82601929 12.23117065 -41.82601929 12.23117065 -43.71444702 10.38400269 C-44.82601929 8.23117065 -44.82601929 8.23117065 -44.07601929 5.04367065 C-42.82601929 2.23117065 -42.82601929 2.23117065 -41.82601929 1.23117065 C-28.06754276 -0.30648765 -13.84169199 0.09405983 0 0 Z " fill="#37AFB9" transform="translate(322.8260192871094,262.7688293457031)"/>
<path d="M0 0 C3.82547135 1.27515712 5.60804136 2.58741196 8.375 5.5 C10.65429258 10.40924556 10.77661125 14.67466573 10 20 C8.2423733 23.78565751 6.74404501 25.46853928 3.375 27.875 C-2.10419616 29.70139872 -7.41761267 29.95436053 -12.875 27.9375 C-16.42409129 24.70156382 -18.62183455 21.45387361 -19.3515625 16.71875 C-19.59189781 10.16415058 -17.83834371 7.01769432 -13.4375 2.1875 C-9.36169836 -1.03451775 -4.94785351 -0.7252554 0 0 Z " fill="#16A5AD" transform="translate(158,357)"/>
<path d="M0 0 C3.32428285 2.8493853 5.31253036 4.90647772 5.90625 9.359375 C6.10796071 14.36852422 5.56262416 18.03940537 2.625 22.25 C-1.33117307 25.73520008 -4.96280768 27.05810153 -10.1328125 27.40625 C-14.67919157 27.08942916 -17.73652739 25.12600266 -20.6953125 21.73828125 C-23.72728179 17.19032731 -24.32118714 12.5954696 -23.375 7.25 C-21.29568144 2.84184466 -18.66058089 0.08088269 -14.3671875 -2.12109375 C-9.20543644 -3.75058771 -4.65895089 -2.41575231 0 0 Z " fill="#14A999" transform="translate(214.375,237.75)"/>
<path d="M0 0 C3.78827039 1.2627568 5.60044481 2.5899302 8.375 5.4375 C10.74295838 10.62879336 10.77285799 15.38495013 10 21 C7.66023801 25.40955145 4.67464828 27.35521635 0 29 C-4.3430546 29.71786027 -8.20795422 30.01604063 -12.12890625 27.79296875 C-15.84791962 24.72614144 -18.62245879 21.74085109 -19.30078125 16.81640625 C-19.33546172 10.14619517 -17.97577285 7.16853117 -13.4375 2.1875 C-9.36169836 -1.03451775 -4.94785351 -0.7252554 0 0 Z " fill="#15A4D4" transform="translate(158,114)"/>
<path d="M0 0 C0.33 0 0.66 0 1 0 C1.85717444 17.70133249 2.14451626 35.37736473 1.8588562 53.09805298 C1.82802949 55.11096229 1.80384609 57.12398463 1.78640747 59.13705444 C1.75901689 61.99053992 1.70543113 64.84236894 1.64453125 67.6953125 C1.64012024 68.54721664 1.63570923 69.39912079 1.63116455 70.27684021 C1.4738116 75.76166987 0.4688137 78.71918918 -3 83 C-5.31 82.01 -7.62 81.02 -10 80 C-9.67 78.02 -9.34 76.04 -9 74 C-8.34 74 -7.68 74 -7 74 C-6.67 74.66 -6.34 75.32 -6 76 C-5.34 74.35 -4.68 72.7 -4 71 C-5.65 70.34 -7.3 69.68 -9 69 C-10.07087214 52.26185569 -9.85305238 35.74574714 -9 19 C-5.25 17.875 -5.25 17.875 -3 19 C-2.855625 18.278125 -2.71125 17.55625 -2.5625 16.8125 C-2.04166667 14.20833333 -1.52083333 11.60416667 -1 9 C-1.66 8.67 -2.32 8.34 -3 8 C-2.01 5.36 -1.02 2.72 0 0 Z " fill="#101B2F" transform="translate(210,148)"/>
<path d="M0 0 C6.75479274 -0.7342166 11.18524285 1.72408048 17 5 C17 5.66 17 6.32 17 7 C17.66 7 18.32 7 19 7 C19.64834654 8.269553 20.29357815 9.54069706 20.9375 10.8125 C21.29714844 11.52019531 21.65679687 12.22789062 22.02734375 12.95703125 C24.28739731 17.70405138 24.86410896 22.1263353 23.328125 27.234375 C22.59886418 29.17448398 21.80430317 31.08977996 21 33 C21.495 33.495 21.495 33.495 22 34 C22.32049797 37.84597567 21.59555725 40.50971852 20 44 C18.02 44 16.04 44 14 44 C14 52.91 14 61.82 14 71 C13.67 71 13.34 71 13 71 C12.99120064 70.08037979 12.99120064 70.08037979 12.98222351 69.1421814 C12.91819543 62.75024796 12.83375122 56.35881362 12.73754883 49.96728516 C12.70433354 47.58323759 12.67629108 45.19911203 12.65356445 42.81494141 C12.61995682 39.38410261 12.56763593 35.95397637 12.51171875 32.5234375 C12.50532883 31.46071625 12.4989389 30.397995 12.49235535 29.30307007 C12.36263996 22.74602501 11.85152942 17.85152942 7 13 C5.03309626 12.32707499 5.03309626 12.32707499 2.875 11.875 C1.59625 11.58625 0.3175 11.2975 -1 11 C-0.01 10.34 0.98 9.68 2 9 C-0.97 8.505 -0.97 8.505 -4 8 C-3.34 7.34 -2.68 6.68 -2 6 C-1.28591666 4.01643517 -0.61382258 2.01684563 0 0 Z " fill="#252E41" transform="translate(187,123)"/>
<path d="M0 0 C5.94 0 11.88 0 18 0 C18.33 1.65 18.66 3.3 19 5 C19.99 5.33 20.98 5.66 22 6 C22.66 6.33 23.32 6.66 24 7 C24 10.3 24 13.6 24 17 C23.01 17.33 22.02 17.66 21 18 C21.02320313 18.69867188 21.04640625 19.39734375 21.0703125 20.1171875 C21.09738281 21.48230469 21.09738281 21.48230469 21.125 22.875 C21.14820313 23.77992188 21.17140625 24.68484375 21.1953125 25.6171875 C21 28 21 28 19 30 C19 29.34 19 28.68 19 28 C18.566875 28.495 18.13375 28.99 17.6875 29.5 C16 31 16 31 13 31 C12.505 33.475 12.505 33.475 12 36 C11.67 36 11.34 36 11 36 C11 27.42 11 18.84 11 10 C8.03 10 5.06 10 2 10 C2.99 8.35 3.98 6.7 5 5 C4.67 5.33 4.34 5.66 4 6 C3.01 5.67 2.02 5.34 1 5 C1.33 3.68 1.66 2.36 2 1 C1.34 0.67 0.68 0.34 0 0 Z " fill="#0E1A30" transform="translate(312,180)"/>
<path d="M0 0 C2.00461299 0.65266469 4.00379834 1.32204472 6 2 C7.3303125 2.4021875 7.3303125 2.4021875 8.6875 2.8125 C12.56776272 4.80506734 13.66829429 8.00488288 15 12 C15.99 12.33 16.98 12.66 18 13 C18.66666667 14.66666667 19.33333333 16.33333333 20 18 C20.99 18.33 21.98 18.66 23 19 C21.66666667 21 20.33333333 23 19 25 C18.175 25.144375 17.35 25.28875 16.5 25.4375 C15.675 25.623125 14.85 25.80875 14 26 C13.34 27.32 12.68 28.64 12 30 C15.3 30 18.6 30 22 30 C22.33 30.99 22.66 31.98 23 33 C15.08 32.67 7.16 32.34 -1 32 C0.32 31.34 1.64 30.68 3 30 C3 29.34 3 28.68 3 28 C3.66 28 4.32 28 5 28 C4.2236068 24.9254644 4.2236068 24.9254644 2 23 C5.63 23 9.26 23 13 23 C13 21.02 13 19.04 13 17 C12.41992188 16.85304687 11.83984375 16.70609375 11.2421875 16.5546875 C5.28996625 14.84563388 1.82749132 12.93544934 -2 8 C-1.68359375 5.94921875 -1.68359375 5.94921875 -1 4 C-0.814375 3.2575 -0.62875 2.515 -0.4375 1.75 C-0.293125 1.1725 -0.14875 0.595 0 0 Z " fill="#0E1C32" transform="translate(340,196)"/>
<path d="M0 0 C0.81700882 0.00141495 1.63401764 0.0028299 2.4757843 0.00428772 C5.08415393 0.00988331 7.69243759 0.02243496 10.30078125 0.03515625 C12.06966022 0.04017182 13.83854053 0.04473463 15.60742188 0.04882812 C19.94274144 0.05985129 24.27799677 0.07711287 28.61328125 0.09765625 C28.61328125 0.42765625 28.61328125 0.75765625 28.61328125 1.09765625 C15.24828125 1.59265625 15.24828125 1.59265625 1.61328125 2.09765625 C1.61328125 2.75765625 1.61328125 3.41765625 1.61328125 4.09765625 C-0.03671875 4.42765625 -1.68671875 4.75765625 -3.38671875 5.09765625 C-3.71671875 6.41765625 -4.04671875 7.73765625 -4.38671875 9.09765625 C2.94563052 9.12299529 10.27796852 9.14051852 17.61035156 9.15258789 C20.10514752 9.15761903 22.59994053 9.16444459 25.09472656 9.1730957 C28.67904387 9.18521452 32.26332221 9.19089675 35.84765625 9.1953125 C36.96444763 9.20047379 38.08123901 9.20563507 39.23187256 9.21095276 C40.27264954 9.21102829 41.31342651 9.21110382 42.38574219 9.21118164 C43.75808014 9.21451256 43.75808014 9.21451256 45.15814209 9.21791077 C47.45469694 9.10542383 49.41415455 8.7454621 51.61328125 8.09765625 C51.94328125 6.44765625 52.27328125 4.79765625 52.61328125 3.09765625 C51.75605469 3.10925781 50.89882813 3.12085938 50.015625 3.1328125 C44.10467573 3.17946035 38.43171421 3.18015541 32.61328125 2.09765625 C32.94328125 1.43765625 33.27328125 0.77765625 33.61328125 0.09765625 C36.34305189 0.01639516 39.07038295 -0.04296038 41.80078125 -0.08984375 C42.56970703 -0.11498047 43.33863281 -0.14011719 44.13085938 -0.16601562 C48.72938848 -0.22522415 51.9810061 -0.07337761 55.61328125 3.09765625 C55.92578125 6.78515625 55.92578125 6.78515625 55.61328125 10.09765625 C51.15491872 12.58451925 47.19715022 12.59627705 42.17578125 12.78515625 C41.20600342 12.82423096 40.23622559 12.86330566 39.23706055 12.90356445 C29.12942572 13.22031915 19.03251391 13.02407364 8.92578125 12.78515625 C8.09829376 12.76818695 7.27080627 12.75121765 6.41824341 12.73373413 C4.04142032 12.68224283 1.6654029 12.61693722 -0.7109375 12.546875 C-1.42670959 12.53213135 -2.14248169 12.5173877 -2.87994385 12.50219727 C-6.47947668 12.3778468 -9.39790058 12.22378966 -12.38671875 10.09765625 C-13.43314475 7.25735712 -13.59663306 5.72739919 -12.63671875 2.84765625 C-9.78360703 -1.14670015 -4.42242595 -0.02875294 0 0 Z " fill="#4EAEB0" transform="translate(291.38671875,238.90234375)"/>
<path d="M0 0 C0 0.66 0 1.32 0 2 C0.66 2 1.32 2 2 2 C1.67 2.66 1.34 3.32 1 4 C-1.91517292 2.92598892 -3.77810176 2.22189824 -6 0 C-9.62019769 -1.36763024 -13.19172777 -2.32795196 -17 -3 C-15.60240095 0.54518884 -15.60240095 0.54518884 -14 4 C-11.46425873 4.60374792 -8.92544828 4.95781126 -6.34765625 5.33984375 C-4 6 -4 6 -2 9 C-2.66 10.32 -3.32 11.64 -4 13 C-4.20625 12.38125 -4.4125 11.7625 -4.625 11.125 C-5.87576453 8.7975422 -5.87576453 8.7975422 -8.5 7.75 C-14.65985868 6.43003028 -21.94027802 6.12437177 -28 8 C-29.33827304 9.66270287 -30.67189785 11.32916181 -32 13 C-34.75 13.3125 -34.75 13.3125 -37 13 C-37.99 15.475 -37.99 15.475 -39 18 C-39.66 18 -40.32 18 -41 18 C-41 19.65 -41 21.3 -41 23 C-41.33 23 -41.66 23 -42 23 C-41.4043034 14.12617482 -40.33365958 7.79576119 -33.5625 1.625 C-23.36104632 -7.04019416 -11.28492182 -6.60061465 0 0 Z " fill="#0C203A" transform="translate(170,108)"/>
<path d="M0 0 C1.32 0.33 2.64 0.66 4 1 C3.195625 1.763125 2.39125 2.52625 1.5625 3.3125 C-2.18365492 7.24139418 -2.34422648 10.52510172 -2.28515625 15.71484375 C-1.74333928 20.05680167 0.67042746 22.80904247 3.8359375 25.64453125 C8.47919066 28.55285047 14.45013715 27.35347749 19.5625 26.1875 C20.366875 25.795625 21.17125 25.40375 22 25 C22.495 23.515 22.495 23.515 23 22 C23.495 22.99 23.495 22.99 24 24 C22.36078391 26.45882414 21.52623837 27.54125433 19 29 C14.33942493 29.74949225 9.7155539 29.92980908 5 30 C5 29.34 5 28.68 5 28 C3.16299211 27.22757731 3.16299211 27.22757731 1 27 C-0.56249809 28.31201173 -0.56249809 28.31201173 -2 30 C-3.31825013 30.69601639 -4.65048732 31.36672458 -6 32 C-6.98712878 30.75627811 -7.96439905 29.50472782 -8.9375 28.25 C-9.48277344 27.55390625 -10.02804688 26.8578125 -10.58984375 26.140625 C-12.94946424 22.55870802 -13.12454254 19.46889241 -13.0625 15.25 C-13.05347656 14.45078125 -13.04445312 13.6515625 -13.03515625 12.828125 C-13.02355469 12.22484375 -13.01195312 11.6215625 -13 11 C-12.34 11 -11.68 11 -11 11 C-10.67 9.35 -10.34 7.7 -10 6 C-7 5 -7 5 -4 6 C-3.67 5.01 -3.34 4.02 -3 3 C-2.34 3 -1.68 3 -1 3 C-0.67 2.01 -0.34 1.02 0 0 Z " fill="#1B263A" transform="translate(142,115)"/>
<path d="M0 0 C3.96309709 0.26420647 5.81662078 0.58329162 8.75 3.25 C9.0625 6.4375 9.0625 6.4375 8.75 9.25 C8.09 9.25 7.43 9.25 6.75 9.25 C6.42 9.91 6.09 10.57 5.75 11.25 C2.08335046 11.27932237 -1.5832684 11.29690637 -5.25 11.3125 C-6.27996094 11.32087891 -7.30992187 11.32925781 -8.37109375 11.33789062 C-14.10025613 11.35613637 -19.58484101 11.11475384 -25.25 10.25 C-25.58 8.27 -25.91 6.29 -26.25 4.25 C-24.93 3.92 -23.61 3.59 -22.25 3.25 C-22.25 3.91 -22.25 4.57 -22.25 5.25 C-21.26 4.92 -20.27 4.59 -19.25 4.25 C-18.92 3.59 -18.59 2.93 -18.25 2.25 C-15.92616498 1.968235 -13.58823176 1.79828316 -11.25 1.6875 C-6.98590745 1.47687446 -3.94073924 0.30313379 0 0 Z " fill="#2EAC89" transform="translate(338.25,262.75)"/>
<path d="M0 0 C-0.33 2.64 -0.66 5.28 -1 8 C-1.886875 7.835 -2.77375 7.67 -3.6875 7.5 C-9.41790827 6.65938226 -15.22424581 6.9218319 -21 7 C-21 7.66 -21 8.32 -21 9 C-23.31 9.66 -25.62 10.32 -28 11 C-28 10.34 -28 9.68 -28 9 C-29.32 9.33 -30.64 9.66 -32 10 C-31.16726766 6.02138994 -30.07223269 3.68980171 -26.875 1.25 C-19.20940374 -3.62953766 -7.84451782 -5.22967855 0 0 Z " fill="#162439" transform="translate(166,349)"/>
<path d="M0 0 C7.92 0 15.84 0 24 0 C23.01 1.65 22.02 3.3 21 5 C20.34 5 19.68 5 19 5 C19.33 5.66 19.66 6.32 20 7 C20.99 6.67 21.98 6.34 23 6 C23.66 6.66 24.32 7.32 25 8 C24.67 8.66 24.34 9.32 24 10 C18.45151349 11.51901188 12.79925277 10.89695799 7.125 10.5625 C6.15046875 10.51029297 5.1759375 10.45808594 4.171875 10.40429688 C1.78086598 10.27536992 -0.60964426 10.14044056 -3 10 C-2.21616433 6.13857796 -0.57189568 3.98671756 2 1 C1.34 0.67 0.68 0.34 0 0 Z " fill="#0E1B32" transform="translate(231,245)"/>
<path d="M0 0 C3.40312738 1.05875074 6.01353231 2.00902154 9 4 C9.1875 7.125 9.1875 7.125 9 10 C8.01 10.495 8.01 10.495 7 11 C7.33 11.99 7.66 12.98 8 14 C8.66 14.33 9.32 14.66 10 15 C9.38461538 20.53846154 9.38461538 20.53846154 7.4375 22.875 C6.7259375 23.431875 6.7259375 23.431875 6 24 C7.32 24.66 8.64 25.32 10 26 C9.67 27.32 9.34 28.64 9 30 C5.83214131 30 4.71896141 29.44444825 2 28 C1.01 27.67 0.02 27.34 -1 27 C-0.67386719 26.30132812 -0.34773437 25.60265625 -0.01171875 24.8828125 C1.1083599 21.69123705 1.23397381 19.24646385 1.1875 15.875 C1.18105469 14.84117187 1.17460937 13.80734375 1.16796875 12.7421875 C1.11257378 9.90833023 1.11257378 9.90833023 0 7 C-0.66 6.67 -1.32 6.34 -2 6 C-1.125 1.125 -1.125 1.125 0 0 Z " fill="#0C1B31" transform="translate(218,232)"/>
<path d="M0 0 C0.66 0 1.32 0 2 0 C2.36082877 2.64508361 2.71395352 5.29079547 3.0625 7.9375 C3.16626953 8.69224609 3.27003906 9.44699219 3.37695312 10.22460938 C3.62665638 12.14474128 3.81790281 14.07228144 4 16 C3.67 16.33 3.34 16.66 3 17 C2.76636119 18.84891946 2.58696365 20.70488031 2.4375 22.5625 C2.35371094 23.57441406 2.26992188 24.58632813 2.18359375 25.62890625 C2.12300781 26.41136719 2.06242187 27.19382812 2 28 C2.66 28 3.32 28 4 28 C4 28.66 4 29.32 4 30 C4.66 30 5.32 30 6 30 C6 29.34 6 28.68 6 28 C6.99 28 7.98 28 9 28 C9.66 25.03 10.32 22.06 11 19 C11.33 19 11.66 19 12 19 C12.07347656 19.92232422 12.07347656 19.92232422 12.1484375 20.86328125 C12.22320312 21.67152344 12.29796875 22.47976563 12.375 23.3125 C12.44460938 24.11300781 12.51421875 24.91351563 12.5859375 25.73828125 C12.89564426 28.27224441 12.89564426 28.27224441 15 31 C17.47491114 31.33814748 19.71351688 31.48872339 22.1953125 31.51171875 C22.90275604 31.52966995 23.61019958 31.54762115 24.33908081 31.56611633 C26.60099303 31.62034442 28.86269284 31.65415316 31.125 31.6875 C32.65758173 31.72066226 34.19013538 31.7551509 35.72265625 31.79101562 C39.48161779 31.87607727 43.240515 31.94282753 47 32 C47 32.33 47 32.66 47 33 C45.47862427 33.029729 45.47862427 33.029729 43.92651367 33.06005859 C40.16356576 33.13613023 36.40100377 33.22484491 32.63842773 33.31738281 C31.00992451 33.35566618 29.38133691 33.39052024 27.75268555 33.421875 C25.41163986 33.46754002 23.0711747 33.52553077 20.73046875 33.5859375 C19.63813179 33.60326431 19.63813179 33.60326431 18.52372742 33.62094116 C14.83038626 33.72878512 13.15173586 33.89884276 10 36 C10.33 36.99 10.66 37.98 11 39 C11.66 39.33 12.32 39.66 13 40 C12.34 40 11.68 40 11 40 C11 40.66 11 41.32 11 42 C6.68679932 40.24277009 3.0968916 37.1937832 1 33 C0.84826915 31.5483634 0.75099716 30.0908001 0.68359375 28.6328125 C0.64161865 27.75197998 0.59964355 26.87114746 0.55639648 25.96362305 C0.51716064 25.02687744 0.4779248 24.09013184 0.4375 23.125 C0.3950415 22.17858643 0.35258301 21.23217285 0.30883789 20.25708008 C0.02161737 13.49959598 -0.12603239 6.76373837 0 0 Z " fill="#4A5361" transform="translate(254,277)"/>
<path d="M0 0 C7.33333333 0 14.66666667 0 22 0 C22 0.66 22 1.32 22 2 C23.32 2.33 24.64 2.66 26 3 C26 4.32 26 5.64 26 7 C9.21720243 10.33275413 9.21720243 10.33275413 2 9 C0.140625 7.1484375 0.140625 7.1484375 -1 5 C-0.6875 2.25 -0.6875 2.25 0 0 Z " fill="#10A2CC" transform="translate(279,266)"/>
<path d="M0 0 C0.33 0 0.66 0 1 0 C1 7.26 1 14.52 1 22 C2.98 22.33 4.96 22.66 7 23 C6.01 25.31 5.02 27.62 4 30 C3.34 29.67 2.68 29.34 2 29 C2.33 28.34 2.66 27.68 3 27 C2.34 27 1.68 27 1 27 C0.7497843 29.91634129 0.7497843 29.91634129 1 33 C1.99 33.66 2.98 34.32 4 35 C4.6875 37.125 4.6875 37.125 5 39 C3.39950296 39.39036513 1.79437629 39.76178619 0.1875 40.125 C-0.70582031 40.33382812 -1.59914062 40.54265625 -2.51953125 40.7578125 C-5 41 -5 41 -8 39 C-8.15811388 42.05270463 -8.15811388 42.05270463 -7 45 C-7.66 45 -8.32 45 -9 45 C-9.33 47.64 -9.66 50.28 -10 53 C-12.68092691 50.31907309 -12.38670257 48.60832637 -12.625 44.875 C-12.69976562 43.77929688 -12.77453125 42.68359375 -12.8515625 41.5546875 C-12.90054688 40.71164063 -12.94953125 39.86859375 -13 39 C-12.01 38.34 -11.02 37.68 -10 37 C-9.7525 36.360625 -9.505 35.72125 -9.25 35.0625 C-8 33 -8 33 -1 30 C-0.67 20.1 -0.34 10.2 0 0 Z " fill="#16223E" transform="translate(200,195)"/>
<path d="M0 0 C3.78827039 1.2627568 5.60044481 2.5899302 8.375 5.4375 C10.73998053 10.622265 10.78551099 15.39145156 10 21 C8.19221352 24.29275395 7.25312226 25.54748363 3.75 26.8125 C3.1725 26.874375 2.595 26.93625 2 27 C2.165 26.319375 2.33 25.63875 2.5 24.9375 C3.07089059 21.5835178 3.06659023 18.39610195 3 15 C2.34 15 1.68 15 1 15 C1.144375 14.319375 1.28875 13.63875 1.4375 12.9375 C2.06945909 9.63726918 2.54313941 6.32855574 3 3 C1.35 3 -0.3 3 -2 3 C-2 2.34 -2 1.68 -2 1 C-2.68707031 1.2165625 -3.37414062 1.433125 -4.08203125 1.65625 C-5.43361328 2.07390625 -5.43361328 2.07390625 -6.8125 2.5 C-8.15248047 2.91765625 -8.15248047 2.91765625 -9.51953125 3.34375 C-12 4 -12 4 -15 4 C-10.50052738 -0.79943747 -6.18639221 -0.80433029 0 0 Z " fill="#15A8BE" transform="translate(158,114)"/>
<path d="M0 0 C0.66 0 1.32 0 2 0 C2.05392397 2.77109307 2.09363455 5.54113818 2.125 8.3125 C2.14175781 9.09818359 2.15851563 9.88386719 2.17578125 10.69335938 C2.18222656 11.45068359 2.18867188 12.20800781 2.1953125 12.98828125 C2.20578613 13.68477783 2.21625977 14.38127441 2.22705078 15.09887695 C2 17 2 17 0 20 C-0.2475 19.360625 -0.495 18.72125 -0.75 18.0625 C-1.81562433 15.81258459 -1.81562433 15.81258459 -4.125 15.25 C-4.74375 15.1675 -5.3625 15.085 -6 15 C-5.7215625 15.86625 -5.7215625 15.86625 -5.4375 16.75 C-4.95976454 19.20692525 -5.24270636 20.64397534 -6 23 C-6.66 23 -7.32 23 -8 23 C-8.9154645 18.53795824 -8.97847873 14.65454615 -8.5625 10.125 C-8.46066406 8.97257812 -8.35882813 7.82015625 -8.25390625 6.6328125 C-8.17011719 5.76398438 -8.08632812 4.89515625 -8 4 C-5.33333333 3.33333333 -2.66666667 2.66666667 0 2 C0 1.34 0 0.68 0 0 Z " fill="#0E192E" transform="translate(209,275)"/>
<path d="M0 0 C0.99 0 1.98 0 3 0 C3 0.66 3 1.32 3 2 C3.99 1.67 4.98 1.34 6 1 C6 0.67 6 0.34 6 0 C8.62561109 -0.08074203 11.24875676 -0.1403623 13.875 -0.1875 C14.99455078 -0.22520508 14.99455078 -0.22520508 16.13671875 -0.26367188 C18.3046875 -0.29296875 18.3046875 -0.29296875 22 0 C22.66 0.99 23.32 1.98 24 3 C23.67 4.32 23.34 5.64 23 7 C15.41 7 7.82 7 0 7 C-0.33 5.02 -0.66 3.04 -1 1 C-0.67 0.67 -0.34 0.34 0 0 Z " fill="#13A997" transform="translate(313,266)"/>
<path d="M0 0 C0.66 0.66 1.32 1.32 2 2 C1.34 2 0.68 2 0 2 C0 1.34 0 0.68 0 0 Z M-2.8125 1 C0 2 0 2 3 4 C2.67 5.32 2.34 6.64 2 8 C1.13375 8.0928125 1.13375 8.0928125 0.25 8.1875 C-2.26313203 8.86382492 -2.26313203 8.86382492 -3.9375 11.5625 C-6 14 -6 14 -8.75 14.3125 C-9.86375 14.1578125 -9.86375 14.1578125 -11 14 C-11.66 15.65 -12.32 17.3 -13 19 C-13.66 19 -14.32 19 -15 19 C-15 20.65 -15 22.3 -15 24 C-15.33 24 -15.66 24 -16 24 C-15.42901794 15.49433618 -14.14174586 7.98505404 -7.6171875 1.99609375 C-6 1 -6 1 -2.8125 1 Z " fill="#131F34" transform="translate(144,107)"/>
<path d="M0 0 C0.12375 0.86625 0.12375 0.86625 0.25 1.75 C1.2026631 4.60798931 2.86053074 5.92954588 5 8 C5 8.66 5 9.32 5 10 C5.99 10.33 6.98 10.66 8 11 C1.73 11 -4.54 11 -11 11 C-10.67 10.01 -10.34 9.02 -10 8 C-9.01 7.67 -8.02 7.34 -7 7 C-8.32 6.67 -9.64 6.34 -11 6 C-11 5.01 -11 4.02 -11 3 C-10.01 3.33 -9.02 3.66 -8 4 C-7.67 3.34 -7.34 2.68 -7 2 C-7.66 1.67 -8.32 1.34 -9 1 C-6.04335481 -0.4783226 -3.25770263 -0.06032783 0 0 Z " fill="#0F1B2F" transform="translate(303,179)"/>
<path d="M0 0 C2 3 2 3 3 7 C10.59 7 18.18 7 26 7 C26 7.33 26 7.66 26 8 C16.1 8.495 16.1 8.495 6 9 C5.34 10.65 4.68 12.3 4 14 C3.34 14.66 2.68 15.32 2 16 C2 16.33 2 16.66 2 17 C8.6 17.33 15.2 17.66 22 18 C22 18.33 22 18.66 22 19 C15.73 19 9.46 19 3 19 C2.34 20.32 1.68 21.64 1 23 C1 22.34 1 21.68 1 21 C-0.32 20.67 -1.64 20.34 -3 20 C-3 17 -3 17 -1.375 14.625 C0.348534 12.06376978 0.348534 12.06376978 -0.75 9.3125 C-1.36875 8.1678125 -1.36875 8.1678125 -2 7 C-2.33 6.34 -2.66 5.68 -3 5 C-2.01 5 -1.02 5 0 5 C0 3.35 0 1.7 0 0 Z " fill="#717B8B" transform="translate(227,237)"/>
<path d="M0 0 C0.81700882 0.00141495 1.63401764 0.0028299 2.4757843 0.00428772 C5.08415393 0.00988331 7.69243759 0.02243496 10.30078125 0.03515625 C12.06966022 0.04017182 13.83854053 0.04473463 15.60742188 0.04882812 C19.94274144 0.05985129 24.27799677 0.07711287 28.61328125 0.09765625 C28.61328125 0.42765625 28.61328125 0.75765625 28.61328125 1.09765625 C15.24828125 1.59265625 15.24828125 1.59265625 1.61328125 2.09765625 C1.61328125 2.75765625 1.61328125 3.41765625 1.61328125 4.09765625 C-0.03671875 4.42765625 -1.68671875 4.75765625 -3.38671875 5.09765625 C-3.71671875 6.41765625 -4.04671875 7.73765625 -4.38671875 9.09765625 C-3.72671875 9.42765625 -3.06671875 9.75765625 -2.38671875 10.09765625 C-6.84171875 10.59265625 -6.84171875 10.59265625 -11.38671875 11.09765625 C-13.5780231 5.74113451 -13.5780231 5.74113451 -12.69921875 2.78515625 C-9.68730479 -1.08730456 -4.45467773 -0.02896262 0 0 Z " fill="#4CB7DB" transform="translate(291.38671875,238.90234375)"/>
<path d="M0 0 C2.64 0 5.28 0 8 0 C8.33 0.66 8.66 1.32 9 2 C9.8971875 2.2165625 9.8971875 2.2165625 10.8125 2.4375 C13.42346965 3.10889219 14.88420604 4.36196596 17 6 C17.99 6.33 18.98 6.66 20 7 C19.67 8.65 19.34 10.3 19 12 C17.68 12 16.36 12 15 12 C14.34 11.34 13.68 10.68 13 10 C10.44996539 9.41848873 7.89863351 9.04732449 5.3125 8.66015625 C3 8 3 8 1 5 C0.61500109 3.34450469 0.27206865 1.6777567 0 0 Z " fill="#111D34" transform="translate(153,105)"/>
<path d="M0 0 C2.125 0.9375 2.125 0.9375 4 2 C4 2.66 4 3.32 4 4 C4.66 4 5.32 4 6 4 C6.22036864 7.85645121 5.60355101 10.49223216 4 14 C2.02 14 0.04 14 -2 14 C-2 22.91 -2 31.82 -2 41 C-2.33 41 -2.66 41 -3 41 C-3.02945039 36.58334775 -3.04694816 32.16672133 -3.0625 27.75 C-3.07087891 26.51507813 -3.07925781 25.28015625 -3.08789062 24.0078125 C-3.13248875 7.06052661 -3.13248875 7.06052661 -2 1 C-1.34 0.67 -0.68 0.34 0 0 Z " fill="#2C384B" transform="translate(203,153)"/>
<path d="M0 0 C8.58 0 17.16 0 26 0 C26 0.33 26 0.66 26 1 C21.05 1.33 16.1 1.66 11 2 C11.33 3.32 11.66 4.64 12 6 C12.66 5.34 13.32 4.68 14 4 C15 7 15 7 14 10 C8.375 11.125 8.375 11.125 5 10 C4.33333333 8.33333333 3.66666667 6.66666667 3 5 C2.01 4.67 1.02 4.34 0 4 C0 2.68 0 1.36 0 0 Z " fill="#121E36" transform="translate(303,179)"/>
<path d="M0 0 C10.97977197 -0.58587716 10.97977197 -0.58587716 16 3 C19.46987891 6.65250412 20.30013186 9.5965683 20.5 14.5 C20.30736476 19.38230688 19.4528928 22.36046434 16 26 C13.25 27.375 13.25 27.375 11 28 C11.66 26.02 12.32 24.04 13 22 C13.99 22 14.98 22 16 22 C18.12046792 18.46588679 18.53199289 15.05606165 19 11 C17.5459375 11.0309375 17.5459375 11.0309375 16.0625 11.0625 C13 11 13 11 12 10 C12.28730055 7.66055264 12.61936779 5.3260857 13 3 C8.71 2.34 4.42 1.68 0 1 C0 0.67 0 0.34 0 0 Z " fill="#24988A" transform="translate(148,357)"/>
<path d="M0 0 C3.63 0 7.26 0 11 0 C11.33 1.32 11.66 2.64 12 4 C11.01 5.485 11.01 5.485 10 7 C13.3 7 16.6 7 20 7 C20.33 7.99 20.66 8.98 21 10 C13.08 9.67 5.16 9.34 -3 9 C-1.68 8.34 -0.36 7.68 1 7 C1 6.34 1 5.68 1 5 C1.66 5 2.32 5 3 5 C2.2236068 1.9254644 2.2236068 1.9254644 0 0 Z " fill="#0B1A2F" transform="translate(342,219)"/>
<path d="M0 0 C1.60379341 -0.05416188 3.20811406 -0.09286638 4.8125 -0.125 C5.70582031 -0.14820313 6.59914062 -0.17140625 7.51953125 -0.1953125 C10 0 10 0 13 2 C12.67 4.64 12.34 7.28 12 10 C10.20739868 9.94004678 8.41574205 9.8512759 6.625 9.75 C5.12839844 9.68039062 5.12839844 9.68039062 3.6015625 9.609375 C1 9 1 9 -0.375 7.125 C-1.16398398 4.44245446 -0.73980543 2.66329954 0 0 Z " fill="#131F31" transform="translate(153,347)"/>
<path d="M0 0 C4.41889613 1.35021826 6.34345343 3.26115668 9 7 C8.34 7.33 7.68 7.66 7 8 C6.505 7.01 6.505 7.01 6 6 C5.34 6 4.68 6 4 6 C3.67 6.66 3.34 7.32 3 8 C0.25 9.25 0.25 9.25 -3 10 C-4.67299959 9.34938905 -6.33859237 8.67966676 -8 8 C-12.5020778 7.29776949 -16.36349798 7.09346748 -20.42578125 9.34375 C-22.38031319 10.81572432 -24.21659201 12.32618692 -26 14 C-26.33 13.01 -26.66 12.02 -27 11 C-26.34 11 -25.68 11 -25 11 C-25 10.01 -25 9.02 -25 8 C-23.68 8 -22.36 8 -21 8 C-21 7.34 -21 6.68 -21 6 C-18.58373582 5.80465526 -16.16734771 5.61846596 -13.75 5.4375 C-12.72712891 5.35338867 -12.72712891 5.35338867 -11.68359375 5.26757812 C-8.2579419 5.01813746 -5.27298823 4.86120255 -2 6 C-1.34 4.02 -0.68 2.04 0 0 Z " fill="#052946" transform="translate(166,350)"/>
<path d="M0 0 C0.66 0 1.32 0 2 0 C2.33 3.3 2.66 6.6 3 10 C2.01 10.33 1.02 10.66 0 11 C2.25740623 13.33524782 4.2805761 15.18705073 7 17 C6.67 18.65 6.34 20.3 6 22 C5.01 21.67 4.02 21.34 3 21 C3 20.34 3 19.68 3 19 C1.68 18.34 0.36 17.68 -1 17 C-1 16.34 -1 15.68 -1 15 C-1.66 15 -2.32 15 -3 15 C-3.53229326 13.73392393 -4.05044544 12.46189588 -4.5625 11.1875 C-4.85253906 10.47980469 -5.14257812 9.77210938 -5.44140625 9.04296875 C-6 7 -6 7 -5 4 C-5 4.66 -5 5.32 -5 6 C-3.68 6 -2.36 6 -1 6 C-0.67 4.02 -0.34 2.04 0 0 Z " fill="#1C283A" transform="translate(135,371)"/>
<path d="M0 0 C4.35445423 2.25786516 7.16135677 4.40339193 9 9 C9.75265197 14.6448898 9.33065686 19.2260585 6 24 C3 26.4375 3 26.4375 0 28 C-0.99 27.67 -1.98 27.34 -3 27 C-2.05125 26.38125 -1.1025 25.7625 -0.125 25.125 C3.77737829 22.47138276 5.20011387 21.13951037 6.25 16.625 C6.44078125 15.85414063 6.6315625 15.08328125 6.828125 14.2890625 C7.03389683 11.54855586 6.30593985 10.3682342 5 8 C5 7.01 5 6.02 5 5 C1.6136749 3.49069817 1.6136749 3.49069817 -2 3 C-2 2.34 -2 1.68 -2 1 C-4.64 1 -7.28 1 -10 1 C-10 1.66 -10 2.32 -10 3 C-11.32 2.67 -12.64 2.34 -14 2 C-9.40138131 -1.70856346 -5.46489435 -1.41682446 0 0 Z " fill="#249D7A" transform="translate(211,236)"/>
<path d="M0 0 C0.99 1.32 1.98 2.64 3 4 C6.46254569 7.81360884 6.46254569 7.81360884 11 10 C11 10.66 11 11.32 11 12 C11.99 12.33 12.98 12.66 14 13 C13.195625 13.45375 12.39125 13.9075 11.5625 14.375 C8.91143428 15.74725665 8.91143428 15.74725665 8 18 C7.34 18 6.68 18 6 18 C6 16.68 6 15.36 6 14 C4.68 14 3.36 14 2 14 C2 14.66 2 15.32 2 16 C1.34 16 0.68 16 0 16 C0 10.72 0 5.44 0 0 Z " fill="#0C1C32" transform="translate(191,254)"/>
<path d="M0 0 C3.3 0 6.6 0 10 0 C9.34 2.31 8.68 4.62 8 7 C10.475 7.99 10.475 7.99 13 9 C10.25322435 10.94563275 8.13332551 11.14159027 4.875 10.875 C1 10 1 10 -0.5625 8.3125 C-1.12735449 5.32684055 -0.66889966 2.9431585 0 0 Z " fill="#111B31" transform="translate(177,123)"/>
<path d="M0 0 C10.64356436 3.46534653 10.64356436 3.46534653 13 7 C10.36 7.66 7.72 8.32 5 9 C5.33 9.66 5.66 10.32 6 11 C4.25 11.75 4.25 11.75 2 12 C-0.3125 10.3125 -0.3125 10.3125 -2 8 C-1.8125 6 -1.8125 6 -1 4 C-0.814375 3.2575 -0.62875 2.515 -0.4375 1.75 C-0.293125 1.1725 -0.14875 0.595 0 0 Z " fill="#111F34" transform="translate(340,196)"/>
<path d="M0 0 C0.38281159 5.23175837 -0.78145293 8.37802694 -3 13 C-4.32 12.67 -5.64 12.34 -7 12 C-7 11.34 -7 10.68 -7 10 C-7.66 10 -8.32 10 -9 10 C-9.1875 6.625 -9.1875 6.625 -9 3 C-6.0415293 1.0276862 -3.59741463 0 0 0 Z " fill="#192334" transform="translate(137,365)"/>
<path d="M0 0 C0.66 0.33 1.32 0.66 2 1 C2 2.65 2 4.3 2 6 C2.66 6 3.32 6 4 6 C5 9 5 9 4.375 11.625 C3 14 3 14 0.5625 14.875 C-2 15 -2 15 -5 14 C-6 12.3125 -6 12.3125 -6 10 C-4.38405168 7.95880212 -2.7143618 5.95927063 -1 4 C-0.14720662 1.78264561 -0.14720662 1.78264561 0 0 Z " fill="#121F32" transform="translate(201,353)"/>
<path d="M0 0 C1.32 0.33 2.64 0.66 4 1 C4 4.96 4 8.92 4 13 C2.35 13 0.7 13 -1 13 C-1.33 12.34 -1.66 11.68 -2 11 C-2.99 11.495 -2.99 11.495 -4 12 C-4 10.02 -4 8.04 -4 6 C-3.34 6 -2.68 6 -2 6 C-1.855625 5.195625 -1.71125 4.39125 -1.5625 3.5625 C-1 1 -1 1 0 0 Z " fill="#111C35" transform="translate(133,120)"/>
<path d="M0 0 C2.72977064 -0.08126109 5.4571017 -0.14061663 8.1875 -0.1875 C9.34088867 -0.22520508 9.34088867 -0.22520508 10.51757812 -0.26367188 C15.11610723 -0.3228804 18.36772485 -0.17103386 22 3 C22.3125 6.6875 22.3125 6.6875 22 10 C19.13822943 11.43088528 17.06624227 10.59991697 14 10 C14.639375 9.773125 15.27875 9.54625 15.9375 9.3125 C18.2772507 8.15808353 18.2772507 8.15808353 18.62890625 5.41796875 C18.75136719 4.62003906 18.87382812 3.82210937 19 3 C18.14277344 3.01160156 17.28554688 3.02320313 16.40234375 3.03515625 C10.49139448 3.0818041 4.81843296 3.08249916 -1 2 C-0.67 1.34 -0.34 0.68 0 0 Z " fill="#4BB498" transform="translate(325,239)"/>
<path d="M0 0 C3 1 3 1 4 2 C4.99 1.67 5.98 1.34 7 1 C8.64279217 0.88207001 10.29052694 0.82488326 11.9375 0.8125 C12.79214844 0.79832031 13.64679688 0.78414062 14.52734375 0.76953125 C17.13909303 1.01296444 18.75500652 1.6821732 21 3 C18.4959061 4.25204695 17.52588356 3.82155131 14.8125 3.3125 C9.53621943 2.6582752 7.21088312 3.79972883 3 7 C-0.54559413 11.13652649 -0.66882366 15.75827797 -1 21 C-1.33 21 -1.66 21 -2 21 C-2.19543479 15.40839364 -2.14750595 11.2153716 0 6 C-0.76603959 3.7142289 -0.76603959 3.7142289 -2 2 C-1.34 1.34 -0.68 0.68 0 0 Z " fill="#052940" transform="translate(192,233)"/>
<path d="M0 0 C0.66 0.66 1.32 1.32 2 2 C-3.07187274 7.07187274 -14.78950364 5.0809793 -21.703125 5.09765625 C-25.21881291 5.09513002 -28.73435674 5.07946059 -32.25 5.0625 C-34.07421752 5.05747327 -35.89843638 5.05291244 -37.72265625 5.04882812 C-42.14847132 5.03791939 -46.57422043 5.02071994 -51 5 C-51.33 4.34 -51.66 3.68 -52 3 C-35.17 3 -18.34 3 -1 3 C-0.67 2.01 -0.34 1.02 0 0 Z " fill="#64B9B1" transform="translate(345,271)"/>
<path d="M0 0 C0.99 0.33 1.98 0.66 3 1 C2.01 1.495 2.01 1.495 1 2 C0.67 2.99 0.34 3.98 0 5 C0.99 5.33 1.98 5.66 3 6 C2.01 7.32 1.02 8.64 0 10 C-0.33 9.34 -0.66 8.68 -1 8 C-3.06402968 8.48705712 -3.06402968 8.48705712 -5 10 C-5.81870185 13.56206661 -5.81870185 13.56206661 -6 17 C-6.66 16.67 -7.32 16.34 -8 16 C-8.2832664 12.29235751 -8.44858884 8.69812265 -8 5 C-5.6875 2.9375 -5.6875 2.9375 -3 2 C-2.01 1.34 -1.02 0.68 0 0 Z " fill="#1A9EC0" transform="translate(148,359)"/>
<path d="M0 0 C1.32 0.33 2.64 0.66 4 1 C3.195625 1.763125 2.39125 2.52625 1.5625 3.3125 C-2.26181539 7.32336736 -2.21083431 10.51421362 -2.16796875 15.76953125 C-1.9647636 18.46790666 -1.23820093 20.60098569 0 23 C-1.65 23 -3.3 23 -5 23 C-5.66 21.68 -6.32 20.36 -7 19 C-6.34 19 -5.68 19 -5 19 C-5.02320313 18.09636719 -5.04640625 17.19273437 -5.0703125 16.26171875 C-5.08835938 15.08222656 -5.10640625 13.90273437 -5.125 12.6875 C-5.14820313 11.51574219 -5.17140625 10.34398438 -5.1953125 9.13671875 C-5 6 -5 6 -3 3 C-2.34 3 -1.68 3 -1 3 C-0.67 2.01 -0.34 1.02 0 0 Z " fill="#07284B" transform="translate(142,115)"/>
<path d="M0 0 C0.99 0.5259375 0.99 0.5259375 2 1.0625 C2.99 1.0625 3.98 1.0625 5 1.0625 C5 4.0625 5 4.0625 3 7.0625 C-3.3 8.4125 -3.3 8.4125 -6 7.0625 C-5.67 4.7525 -5.34 2.4425 -5 0.0625 C-2 -0.9375 -2 -0.9375 0 0 Z " fill="#1B273F" transform="translate(222,259.9375)"/>
<path d="M0 0 C0.33 0 0.66 0 1 0 C1 7.26 1 14.52 1 22 C2.98 22.33 4.96 22.66 7 23 C6.01 25.31 5.02 27.62 4 30 C3.34 29.67 2.68 29.34 2 29 C2.33 28.34 2.66 27.68 3 27 C2.34 27 1.68 27 1 27 C0.67 28.98 0.34 30.96 0 33 C-0.99 32.34 -1.98 31.68 -3 31 C-2.34 30.67 -1.68 30.34 -1 30 C-0.67 20.1 -0.34 10.2 0 0 Z " fill="#4F5968" transform="translate(200,195)"/>
<path d="M0 0 C4.52671196 0.53255435 7.4200555 2.21559872 11 5 C12.375 7.25 12.375 7.25 13 9 C10.69 8.34 8.38 7.68 6 7 C5.01 7.99 4.02 8.98 3 10 C1.5783681 6.6828589 0.60990891 3.55780196 0 0 Z " fill="#30384A" transform="translate(212,226)"/>
<path d="M0 0 C0.33 0.66 0.66 1.32 1 2 C0.34 2 -0.32 2 -1 2 C-0.67 2.99 -0.34 3.98 0 5 C-0.97850195 6.02104551 -1.97980427 7.0206121 -3 8 C-3.33 8 -3.66 8 -4 8 C-4.33 20.54 -4.66 33.08 -5 46 C-5.33 46 -5.66 46 -6 46 C-6.09916726 40.55571763 -6.17160909 35.11196552 -6.21972656 29.66699219 C-6.23979339 27.81631304 -6.26705345 25.96569691 -6.30175781 24.11523438 C-6.35049433 21.44906023 -6.37301787 18.78372713 -6.390625 16.1171875 C-6.41127014 15.29507782 -6.43191528 14.47296814 -6.45318604 13.62594604 C-6.45525694 8.2770092 -5.57116884 5.23775381 -2 1 C-1.34 0.67 -0.68 0.34 0 0 Z " fill="#404751" transform="translate(261,183)"/>
<path d="M0 0 C1.37478516 0.01740234 1.37478516 0.01740234 2.77734375 0.03515625 C3.69644531 0.04417969 4.61554688 0.05320312 5.5625 0.0625 C6.27277344 0.07410156 6.98304688 0.08570313 7.71484375 0.09765625 C7.38484375 1.41765625 7.05484375 2.73765625 6.71484375 4.09765625 C5.39484375 4.09765625 4.07484375 4.09765625 2.71484375 4.09765625 C2.71484375 5.08765625 2.71484375 6.07765625 2.71484375 7.09765625 C1.0487247 7.14037725 -0.6189851 7.13829457 -2.28515625 7.09765625 C-3.28515625 6.09765625 -3.28515625 6.09765625 -3.41015625 3.59765625 C-3.24867212 0.36797363 -3.22032317 0.13762065 0 0 Z " fill="#0FA4E1" transform="translate(284.28515625,265.90234375)"/>
<path d="M0 0 C0.98291016 0.00322266 1.96582031 0.00644531 2.97851562 0.00976562 C4.51475586 0.02233398 4.51475586 0.02233398 6.08203125 0.03515625 C7.11779297 0.03966797 8.15355469 0.04417969 9.22070312 0.04882812 C11.77870391 0.06061615 14.33658858 0.0770711 16.89453125 0.09765625 C16.56453125 1.74765625 16.23453125 3.39765625 15.89453125 5.09765625 C15.56453125 4.43765625 15.23453125 3.77765625 14.89453125 3.09765625 C14.00930786 3.1133667 14.00930786 3.1133667 13.10620117 3.12939453 C10.43152121 3.17097669 7.75690928 3.19698915 5.08203125 3.22265625 C4.15326172 3.23941406 3.22449219 3.25617188 2.26757812 3.2734375 C1.37490234 3.27988281 0.48222656 3.28632813 -0.4375 3.29296875 C-1.25968018 3.30344238 -2.08186035 3.31391602 -2.92895508 3.32470703 C-5.10546875 3.09765625 -5.10546875 3.09765625 -8.10546875 1.09765625 C-5.10530963 0.09760321 -3.13123119 -0.0180996 0 0 Z " fill="#36404C" transform="translate(279.10546875,178.90234375)"/>
<path d="M0 0 C2.475 0.99 2.475 0.99 5 2 C4.54738642 3.43931117 4.08767021 4.87638999 3.625 6.3125 C3.36976563 7.11300781 3.11453125 7.91351563 2.8515625 8.73828125 C2 11 2 11 0 14 C-0.30066154 16.75417318 -0.50925299 19.42645147 -0.625 22.1875 C-0.66367188 22.93708984 -0.70234375 23.68667969 -0.7421875 24.45898438 C-0.83628216 26.30559199 -0.91922319 28.1527619 -1 30 C-1.33 30 -1.66 30 -2 30 C-2 21.75 -2 13.5 -2 5 C-1.67 5 -1.34 5 -1 5 C-1 6.65 -1 8.3 -1 10 C-0.34 10 0.32 10 1 10 C0.7525 8.63875 0.7525 8.63875 0.5 7.25 C0 4 0 4 0 0 Z " fill="#3A4457" transform="translate(202,288)"/>
<path d="M0 0 C8.58 0 17.16 0 26 0 C26 0.33 26 0.66 26 1 C21.05 1.33 16.1 1.66 11 2 C10.67 3.65 10.34 5.3 10 7 C8.35 7 6.7 7 5 7 C6 5 6 5 7 3 C6.030625 2.87625 5.06125 2.7525 4.0625 2.625 C3.051875 2.41875 2.04125 2.2125 1 2 C0.67 1.34 0.34 0.68 0 0 Z " fill="#4D5865" transform="translate(303,179)"/>
<path d="M0 0 C-0.165 0.598125 -0.33 1.19625 -0.5 1.8125 C-1.22501134 4.98442461 -1.03305498 6.90083506 0 10 C-0.66 10 -1.32 10 -2 10 C-2.33 12.64 -2.66 15.28 -3 18 C-5.61502203 15.38497797 -5.50993097 13.76678615 -5.875 10.125 C-5.99617187 9.07570312 -6.11734375 8.02640625 -6.2421875 6.9453125 C-6 4 -6 4 -4.1328125 1.6171875 C-2 0 -2 0 0 0 Z " fill="#0F1F3B" transform="translate(193,230)"/>
<path d="M0 0 C1.0725 0.0825 2.145 0.165 3.25 0.25 C3.25 0.58 3.25 0.91 3.25 1.25 C1.27 1.25 -0.71 1.25 -2.75 1.25 C-3.018125 1.971875 -3.28625 2.69375 -3.5625 3.4375 C-5.78472052 8.70065387 -8.10247582 11.85856344 -12.75 15.25 C-12.42 13.6 -12.09 11.95 -11.75 10.25 C-10.76 10.25 -9.77 10.25 -8.75 10.25 C-9.08 8.27 -9.41 6.29 -9.75 4.25 C-9.09 4.25 -8.43 4.25 -7.75 4.25 C-7.193125 3.59 -6.63625 2.93 -6.0625 2.25 C-3.75 0.25 -3.75 0.25 0 0 Z " fill="#3E4352" transform="translate(181.75,132.75)"/>
<path d="M0 0 C2.36204559 1.82179048 2.9573269 2.75036237 3.46875 5.7421875 C3.55180871 14.06882281 3.55180871 14.06882281 1.875 16.8984375 C0.5 18.25 0.5 18.25 -2 20 C-2.36923077 13.47692308 -2.36923077 13.47692308 -0.5 11.0625 C-0.005 10.711875 0.49 10.36125 1 10 C0.67 9.34 0.34 8.68 0 8 C-0.13415472 5.3276379 -0.04318541 2.67749512 0 0 Z " fill="#1E97A5" transform="translate(165,120)"/>
<path d="M0 0 C4.41889613 1.35021826 6.34345343 3.26115668 9 7 C8.01 7.495 8.01 7.495 7 8 C6.67 7.34 6.34 6.68 6 6 C5.34 6 4.68 6 4 6 C3.67 6.66 3.34 7.32 3 8 C0.4375 8.625 0.4375 8.625 -2 9 C-2 5.61976483 -1.12544378 3.16531063 0 0 Z " fill="#1A293D" transform="translate(166,350)"/>
<path d="M0 0 C0.33 0.66 0.66 1.32 1 2 C1.66 2 2.32 2 3 2 C3.33 3.65 3.66 5.3 4 7 C5.32 7.33 6.64 7.66 8 8 C6.68 8.99 5.36 9.98 4 11 C-1.875 7.375 -1.875 7.375 -3 4 C-2.34 3.67 -1.68 3.34 -1 3 C-0.67 2.01 -0.34 1.02 0 0 Z " fill="#0C1B32" transform="translate(138,378)"/>
<path d="M0 0 C2.475 0.99 2.475 0.99 5 2 C5 4.31 5 6.62 5 9 C3.35 9 1.7 9 0 9 C-0.33 8.34 -0.66 7.68 -1 7 C-0.67 6.34 -0.34 5.68 0 5 C-0.66 5 -1.32 5 -2 5 C-2.33 5.66 -2.66 6.32 -3 7 C-3.66 6.34 -4.32 5.68 -5 5 C-3.35 4.34 -1.7 3.68 0 3 C0 2.01 0 1.02 0 0 Z " fill="#101E33" transform="translate(142,141)"/>
<path d="M0 0 C7.35423405 0.27037625 12.62151248 1.26918654 19 5 C19 5.66 19 6.32 19 7 C19.66 7 20.32 7 21 7 C20.67 7.66 20.34 8.32 20 9 C17.08482708 7.92598892 15.22189824 7.22189824 13 5 C8.71648089 3.3065157 4.56303876 2.54756465 0 2 C0 1.34 0 0.68 0 0 Z " fill="#484E59" transform="translate(151,103)"/>
<path d="M0 0 C0.66 0 1.32 0 2 0 C2.13690844 7.72772107 1.75166913 15.30881404 1 23 C0.67 23 0.34 23 0 23 C-0.07347656 21.78763672 -0.07347656 21.78763672 -0.1484375 20.55078125 C-0.26058594 18.94783203 -0.26058594 18.94783203 -0.375 17.3125 C-0.44460937 16.25675781 -0.51421875 15.20101563 -0.5859375 14.11328125 C-0.98760089 11.09322731 -1.74069019 8.75921946 -3 6 C-2.34 5.34 -1.68 4.68 -1 4 C-0.3574765 1.93125966 -0.3574765 1.93125966 0 0 Z " fill="#0C1828" transform="translate(209,323)"/>
<path d="M0 0 C1.32 0 2.64 0 4 0 C4 1.32 4 2.64 4 4 C5.32 4.33 6.64 4.66 8 5 C8 11.27 8 17.54 8 24 C7.67 24 7.34 24 7 24 C6.67 18.39 6.34 12.78 6 7 C3.36 5.68 0.72 4.36 -2 3 C-1.34 2.67 -0.68 2.34 0 2 C0 1.34 0 0.68 0 0 Z " fill="#515966" transform="translate(193,268)"/>
<path d="M0 0 C0.33 0.66 0.66 1.32 1 2 C-0.63921609 4.45882414 -1.47376163 5.54125433 -4 7 C-8.66057507 7.74949225 -13.2844461 7.92980908 -18 8 C-18 7.34 -18 6.68 -18 6 C-20.475 5.01 -20.475 5.01 -23 4 C-22.67 3.01 -22.34 2.02 -22 1 C-21.38125 1.66 -20.7625 2.32 -20.125 3 C-15.72597239 5.81537767 -12.08928985 5.54470035 -7 5 C-3.54439902 4.35373808 -3.54439902 4.35373808 -1 3 C-0.67 2.01 -0.34 1.02 0 0 Z " fill="#053C56" transform="translate(165,137)"/>
<path d="M0 0 C0.66 0 1.32 0 2 0 C1.67 1.32 1.34 2.64 1 4 C1.99 4.33 2.98 4.66 4 5 C4.33 6.98 4.66 8.96 5 11 C3.68 11.33 2.36 11.66 1 12 C1 11.34 1 10.68 1 10 C0.01 9.67 -0.98 9.34 -2 9 C-2.20140476 5.37471432 -1.85776765 3.13498292 0 0 Z " fill="#0B1C33" transform="translate(168,132)"/>
<path d="M0 0 C5.56521739 2.88198758 5.56521739 2.88198758 6.875 6.25 C6.91625 6.8275 6.9575 7.405 7 8 C6.34 8 5.68 8 5 8 C5 7.01 5 6.02 5 5 C1.6136749 3.49069817 1.6136749 3.49069817 -2 3 C-2 2.34 -2 1.68 -2 1 C-4.64 1 -7.28 1 -10 1 C-10 1.66 -10 2.32 -10 3 C-11.32 2.67 -12.64 2.34 -14 2 C-9.40391572 -1.70651958 -5.46206358 -1.4207125 0 0 Z " fill="#269E87" transform="translate(211,236)"/>
<path d="M0 0 C2 2 2 2 3 6 C8.28 6.33 13.56 6.66 19 7 C19 7.33 19 7.66 19 8 C15.26371079 8.84790327 11.70492457 9.22131132 7.875 9.3125 C6.32425781 9.36857422 6.32425781 9.36857422 4.7421875 9.42578125 C2 9 2 9 0.11328125 7.15234375 C-1.32430842 4.37300372 -0.89568297 2.93132608 0 0 Z " fill="#49ABCD" transform="translate(279,266)"/>
<path d="M0 0 C0.99 0.33 1.98 0.66 3 1 C3.99 0.67 4.98 0.34 6 0 C6.66 0.66 7.32 1.32 8 2 C7.67 2.66 7.34 3.32 7 4 C1.72125093 5.40822859 -3.48883184 4.91535891 -8.875 4.5625 C-10.19371094 4.48418945 -10.19371094 4.48418945 -11.5390625 4.40429688 C-13.69307499 4.27552439 -15.84659659 4.13858537 -18 4 C-16 2 -16 2 -12.3046875 1.8046875 C-10.82799892 1.817991 -9.35137642 1.84185165 -7.875 1.875 C-7.12089844 1.88402344 -6.36679688 1.89304688 -5.58984375 1.90234375 C-3.72642746 1.9259313 -1.86317407 1.96180281 0 2 C0 1.34 0 0.68 0 0 Z " fill="#0A1828" transform="translate(248,251)"/>
<path d="M0 0 C2.91517292 1.07401108 4.77810176 1.77810176 7 4 C6.01 4 5.02 4 4 4 C3.67 4.99 3.34 5.98 3 7 C2.34 6.67 1.68 6.34 1 6 C0.67 6.66 0.34 7.32 0 8 C-0.99 7.67 -1.98 7.34 -3 7 C-3.33 6.01 -3.66 5.02 -4 4 C-3.34 4 -2.68 4 -2 4 C-2 3.34 -2 2.68 -2 2 C-1.34 2 -0.68 2 0 2 C0 1.34 0 0.68 0 0 Z " fill="#2F384C" transform="translate(197,125)"/>
<path d="M0 0 C2.64 0 5.28 0 8 0 C8.33 0.99 8.66 1.98 9 3 C8.34 3 7.68 3 7 3 C6.67 4.65 6.34 6.3 6 8 C5.01 8.33 4.02 8.66 3 9 C2 6 1 3 0 0 Z " fill="#151C33" transform="translate(188,124)"/>
<path d="M0 0 C0.68707555 2.49064888 1 4.37886292 1 7 C0.02727325 8.35335895 -0.9739266 9.68662604 -2 11 C-2.33 11.99 -2.66 12.98 -3 14 C-3.66 14 -4.32 14 -5 14 C-5 15.65 -5 17.3 -5 19 C-5.33 19 -5.66 19 -6 19 C-5.55197406 12.3259584 -4.95319619 4.95319619 0 0 Z " fill="#595F6D" transform="translate(134,112)"/>
<path d="M0 0 C-0.66666667 2 -1.33333333 4 -2 6 C-3.98 6.33 -5.96 6.66 -8 7 C-8.99 5.68 -9.98 4.36 -11 3 C-7.16674383 0.29417212 -4.67461851 -0.32613618 0 0 Z M-7 3 C-7 3.66 -7 4.32 -7 5 C-6.34 4.67 -5.68 4.34 -5 4 C-5.66 3.67 -6.32 3.34 -7 3 Z " fill="#152035" transform="translate(151,104)"/>
<path d="M0 0 C4.91935902 4.11619836 9.52647956 8.40410362 14 13 C13.01 13.495 13.01 13.495 12 14 C11.34 13.67 10.68 13.34 10 13 C10 12.34 10 11.68 10 11 C9.01 11.33 8.02 11.66 7 12 C6.34 10.02 5.68 8.04 5 6 C3.35 5.67 1.7 5.34 0 5 C0 3.35 0 1.7 0 0 Z " fill="#39414D" transform="translate(353,203)"/>
<path d="M0 0 C0.78375 0.639375 1.5675 1.27875 2.375 1.9375 C6.28271326 5.00784614 8.19753354 5.11491986 13.125 5.0625 C14.22070312 5.05347656 15.31640625 5.04445313 16.4453125 5.03515625 C17.28835937 5.02355469 18.13140625 5.01195312 19 5 C19 5.66 19 6.32 19 7 C15.32612505 7.85298376 11.9552607 8.10789471 8.1875 8.0625 C7.21167969 8.05347656 6.23585937 8.04445313 5.23046875 8.03515625 C4.49441406 8.02355469 3.75835937 8.01195312 3 8 C3.33 7.34 3.66 6.68 4 6 C3.01 5.67 2.02 5.34 1 5 C0.67 3.35 0.34 1.7 0 0 Z " fill="#063048" transform="translate(141,380)"/>
<path d="M0 0 C0.66 0 1.32 0 2 0 C3.77686282 5.74867383 4.97394872 11.13391509 3 17 C1.15798682 19.19408772 -0.5731175 20.39929027 -3 22 C-3.66 21.67 -4.32 21.34 -5 21 C-4.195625 20.21625 -3.39125 19.4325 -2.5625 18.625 C0.95089512 15.02591232 1.13802383 13.46597376 1.125 8.5625 C1.12886719 7.11037109 1.12886719 7.11037109 1.1328125 5.62890625 C1.11213973 2.88982171 1.11213973 2.88982171 0 0 Z " fill="#043538" transform="translate(166,363)"/>
<path d="M0 0 C6.05106191 -0.21915315 11.30201576 -0.18220673 17 2 C17.33 2.66 17.66 3.32 18 4 C17.0625 6.125 17.0625 6.125 16 8 C15.79375 7.38125 15.5875 6.7625 15.375 6.125 C13.38538005 3.05013281 11.52177969 2.84783585 8 2 C5.33381973 1.58280992 2.68647132 1.27791083 0 1 C0 0.67 0 0.34 0 0 Z " fill="#0A3552" transform="translate(150,113)"/>
<path d="M0 0 C3.625 1.5 3.625 1.5 6 3 C5.01 3.66 4.02 4.32 3 5 C3 4.34 3 3.68 3 3 C1.35 3 -0.3 3 -2 3 C-2 2.34 -2 1.68 -2 1 C-2.68707031 1.2165625 -3.37414062 1.433125 -4.08203125 1.65625 C-5.43361328 2.07390625 -5.43361328 2.07390625 -6.8125 2.5 C-8.15248047 2.91765625 -8.15248047 2.91765625 -9.51953125 3.34375 C-12 4 -12 4 -15 4 C-10.52758621 -0.77057471 -6.16292482 -0.85514268 0 0 Z " fill="#2494B8" transform="translate(158,114)"/>
<path d="M0 0 C0.33 0.99 0.66 1.98 1 3 C-6.92 2.67 -14.84 2.34 -23 2 C-23 1.67 -23 1.34 -23 1 C-15.04579145 -0.67968453 -8.05686696 -1.1736381 0 0 Z " fill="#071323" transform="translate(362,226)"/>
<path d="M0 0 C0.66 0.33 1.32 0.66 2 1 C2.99 0.67 3.98 0.34 5 0 C4.71848913 1.31471568 4.42446661 2.62675767 4.125 3.9375 C3.96257812 4.66839844 3.80015625 5.39929688 3.6328125 6.15234375 C3 8 3 8 1 9 C0.01 8.67 -0.98 8.34 -2 8 C-2.6875 5.9375 -2.6875 5.9375 -3 4 C-2.01 4.495 -2.01 4.495 -1 5 C-0.67 3.35 -0.34 1.7 0 0 Z " fill="#0D182B" transform="translate(132,369)"/>
<path d="M0 0 C0.66 0.33 1.32 0.66 2 1 C2 1.66 2 2.32 2 3 C8.27 3 14.54 3 21 3 C21 3.33 21 3.66 21 4 C17.20913543 4.22519106 13.41738942 4.42729249 9.625 4.625 C8.54476563 4.68945312 7.46453125 4.75390625 6.3515625 4.8203125 C5.3203125 4.871875 4.2890625 4.9234375 3.2265625 4.9765625 C2.27346191 5.02893066 1.32036133 5.08129883 0.33837891 5.13525391 C-2 5 -2 5 -4 3 C-2.68 2.01 -1.36 1.02 0 0 Z " fill="#121A2D" transform="translate(270,186)"/>
<path d="M0 0 C0.5625 1.9375 0.5625 1.9375 1 4 C0.67 4.33 0.34 4.66 0 5 C-0.07258946 7.18639453 -0.08373783 9.37500389 -0.0625 11.5625 C-0.05347656 12.76003906 -0.04445312 13.95757812 -0.03515625 15.19140625 C-0.02355469 16.11824219 -0.01195312 17.04507813 0 18 C-3.17657961 14.29399045 -3.4456324 11.94045732 -3.3046875 7.1953125 C-2.9000522 4.27986326 -1.78845533 2.31008813 0 0 Z " fill="#258EC0" transform="translate(142,119)"/>
<path d="M0 0 C0 0.99 0 1.98 0 3 C-0.66 3.66 -1.32 4.32 -2 5 C-2.64767793 7.57061311 -2.64767793 7.57061311 -3 10 C-3.99 9.67 -4.98 9.34 -6 9 C-6.33 10.32 -6.66 11.64 -7 13 C-7.33 12.01 -7.66 11.02 -8 10 C-6.85546875 7.7734375 -6.85546875 7.7734375 -5.1875 5.375 C-4.64480469 4.57835937 -4.10210937 3.78171875 -3.54296875 2.9609375 C-2 1 -2 1 0 0 Z " fill="#474D5B" transform="translate(190,230)"/>
<path d="M0 0 C0.33 0.66 0.66 1.32 1 2 C2.65 1.67 4.3 1.34 6 1 C6 1.99 6 2.98 6 4 C4.02 4.66 2.04 5.32 0 6 C0 5.34 0 4.68 0 4 C-1.32 4.33 -2.64 4.66 -4 5 C-3.6875 3.0625 -3.6875 3.0625 -3 1 C-2.01 0.67 -1.02 0.34 0 0 Z " fill="#0F1B2F" transform="translate(138,354)"/>
<path d="M0 0 C2.38564077 0.57584432 4.66682784 1.22227595 7 2 C6.67 3.32 6.34 4.64 6 6 C2.87099787 6 1.62581138 5.57548683 -1 4 C-1.33 3.34 -1.66 2.68 -2 2 C-1.34 2 -0.68 2 0 2 C0 1.34 0 0.68 0 0 Z " fill="#0E1A2D" transform="translate(221,256)"/>
<path d="M0 0 C0.99 0.66 1.98 1.32 3 2 C1.7580393 5.43927579 0.44259716 8.25207819 -2 11 C-2.66 11 -3.32 11 -4 11 C-4.33 9.35 -4.66 7.7 -5 6 C-3.02 5.67 -1.04 5.34 1 5 C0.34 3.68 -0.32 2.36 -1 1 C-0.67 0.67 -0.34 0.34 0 0 Z " fill="#424856" transform="translate(368,306)"/>
<path d="M0 0 C1.14857926 3.44573777 1.03468706 6.15624655 0.9375 9.74609375 C0.99950143 11.98202025 1.3758017 13.85919489 2 16 C1.34 16 0.68 16 0 16 C-2.48709896 12.26935156 -2.29991053 10.42368032 -2 6 C-1 2.5625 -1 2.5625 0 0 Z " fill="#022F4E" transform="translate(139,364)"/>
<path d="M0 0 C6.27 0.33 12.54 0.66 19 1 C19 1.33 19 1.66 19 2 C17.72382813 2.06058594 16.44765625 2.12117188 15.1328125 2.18359375 C13.46352984 2.26799568 11.79425963 2.35264386 10.125 2.4375 C9.28324219 2.47681641 8.44148438 2.51613281 7.57421875 2.55664062 C6.76855469 2.59853516 5.96289062 2.64042969 5.1328125 2.68359375 C4.01737061 2.73858032 4.01737061 2.73858032 2.87939453 2.79467773 C0.91135688 2.89955865 0.91135688 2.89955865 -1 4 C-0.67 2.68 -0.34 1.36 0 0 Z " fill="#2DA0BF" transform="translate(281,264)"/>
<path d="M0 0 C0.99 0 1.98 0 3 0 C3 0.99 3 1.98 3 3 C4.32 2.34 5.64 1.68 7 1 C7.625 2.8125 7.625 2.8125 8 5 C7.01 6.485 7.01 6.485 6 8 C1.125 3.375 1.125 3.375 0 0 Z " fill="#384150" transform="translate(184,262)"/>
<path d="M0 0 C2 2 2 2 2.0625 4.875 C2.041875 5.90625 2.02125 6.9375 2 8 C2.226875 8.70125 2.45375 9.4025 2.6875 10.125 C3 12 3 12 1.5625 14.25 C1.046875 14.8275 0.53125 15.405 0 16 C-0.82622671 10.39436958 -1.06795656 5.57710648 0 0 Z " fill="#4C515D" transform="translate(181,242)"/>
<path d="M0 0 C0.99 0 1.98 0 3 0 C2.38722388 2.96175123 1.74627478 4.38058783 0 7 C-0.16713569 9.62531524 -0.16713569 9.62531524 0 12 C-0.66 11.67 -1.32 11.34 -2 11 C-2 8.03 -2 5.06 -2 2 C-1.34 2 -0.68 2 0 2 C0 1.34 0 0.68 0 0 Z " fill="#1BA3D6" transform="translate(142,364)"/>
<path d="M0 0 C6.6 0 13.2 0 20 0 C19.67 1.32 19.34 2.64 19 4 C18.01 3.67 17.02 3.34 16 3 C16 2.34 16 1.68 16 1 C10.72 1 5.44 1 0 1 C0 0.67 0 0.34 0 0 Z " fill="#1BA2A6" transform="translate(300,265)"/>
<path d="M0 0 C1.32 0 2.64 0 4 0 C3.75 2.375 3.75 2.375 3 5 C0.9375 6.3125 0.9375 6.3125 -1 7 C-1.625 4.625 -1.625 4.625 -2 2 C-1.34 1.34 -0.68 0.68 0 0 Z " fill="#0F182A" transform="translate(197,361)"/>
<path d="M0 0 C0.66 0.33 1.32 0.66 2 1 C2.125 8.75 2.125 8.75 1 11 C0.34 11 -0.32 11 -1 11 C-1 11.66 -1 12.32 -1 13 C-1.66 12.67 -2.32 12.34 -3 12 C-2.690625 11.319375 -2.38125 10.63875 -2.0625 9.9375 C-0.86629351 6.63034088 -0.40994603 3.48454122 0 0 Z " fill="#063536" transform="translate(220,247)"/>
<path d="M0 0 C3.375 0.3125 3.375 0.3125 7 1 C7.66 1.99 8.32 2.98 9 4 C11.56282742 4.72965366 11.56282742 4.72965366 14 5 C14 5.33 14 5.66 14 6 C8.97294083 5.87952582 5.90127449 5.75412763 1.9375 2.4375 C1.298125 1.633125 0.65875 0.82875 0 0 Z " fill="#20868F" transform="translate(194,259)"/>
<path d="M0 0 C0.99 0 1.98 0 3 0 C3.33 1.32 3.66 2.64 4 4 C2.35 5.32 0.7 6.64 -1 8 C-1.04241723 5.66705225 -1.04092937 3.33297433 -1 1 C-0.67 0.67 -0.34 0.34 0 0 Z " fill="#13A4BF" transform="translate(193,244)"/>
<path d="M0 0 C1.2065625 0.0309375 1.2065625 0.0309375 2.4375 0.0625 C1.7775 0.7225 1.1175 1.3825 0.4375 2.0625 C0.03985737 4.05071313 -0.30025349 6.05194339 -0.5625 8.0625 C-0.8925 7.0725 -1.2225 6.0825 -1.5625 5.0625 C-2.8825 5.3925 -4.2025 5.7225 -5.5625 6.0625 C-3.26136364 0.07954545 -3.26136364 0.07954545 0 0 Z " fill="#1A97AB" transform="translate(197.5625,238.9375)"/>
<path d="M0 0 C2.4375 0.75 2.4375 0.75 5 2 C5.8125 4.125 5.8125 4.125 6 6 C4.33388095 6.042721 2.66617115 6.04063832 1 6 C0 5 0 5 -0.0625 2.4375 C-0.041875 1.633125 -0.02125 0.82875 0 0 Z " fill="#12AA87" transform="translate(160,362)"/>
<path d="M0 0 C0.33 1.32 0.66 2.64 1 4 C0.195625 3.690625 -0.60875 3.38125 -1.4375 3.0625 C-5.62249087 1.81434483 -9.66306101 1.3662304 -14 1 C-14 0.67 -14 0.34 -14 0 C-4.58997722 -1.33257403 -4.58997722 -1.33257403 0 0 Z " fill="#05384A" transform="translate(163,356)"/>
<path d="M0 0 C0.66 0 1.32 0 2 0 C2 0.66 2 1.32 2 2 C2.66 2 3.32 2 4 2 C4 1.34 4 0.68 4 0 C4.99 0.33 5.98 0.66 7 1 C7 1.66 7 2.32 7 3 C7.66 3.33 8.32 3.66 9 4 C8.34 4 7.68 4 7 4 C7 4.66 7 5.32 7 6 C4.12549673 4.71142957 2.07476576 3.38598062 0 1 C0 0.67 0 0.34 0 0 Z " fill="#3C4457" transform="translate(258,313)"/>
<path d="M0 0 C1.14926266 0.95421808 2.29430541 1.91352045 3.4375 2.875 C4.07558594 3.40867188 4.71367187 3.94234375 5.37109375 4.4921875 C7 6 7 6 8 8 C4.62537285 7.45276317 2.91765 6.9451 0 5 C-0.1875 2.375 -0.1875 2.375 0 0 Z " fill="#505768" transform="translate(330,180)"/>
<path d="M0 0 C0.33 0 0.66 0 1 0 C1.25 2.3125 1.25 2.3125 1 5 C-1.04424538 6.97610386 -2.1176825 8 -5 8 C-4.34 6.02 -3.68 4.04 -3 2 C-2.01 2 -1.02 2 0 2 C0 1.34 0 0.68 0 0 Z " fill="#1F9C84" transform="translate(164,377)"/>
<path d="M0 0 C1.65 1.65 3.3 3.3 5 5 C2.64046906 7.35953094 1.22104383 7.49141413 -2 8 C-1.125 1.125 -1.125 1.125 0 0 Z " fill="#354351" transform="translate(131,360)"/>
<path d="M0 0 C0.33 0.99 0.66 1.98 1 3 C1.66 3 2.32 3 3 3 C3.33 2.01 3.66 1.02 4 0 C4.99 0.33 5.98 0.66 7 1 C6.67 2.32 6.34 3.64 6 5 C4.02 5.33 2.04 5.66 0 6 C0 4.02 0 2.04 0 0 Z " fill="#0A1929" transform="translate(129,126)"/>
<path d="M0 0 C1.98 0 3.96 0 6 0 C6.33 0.99 6.66 1.98 7 3 C2.25 4.125 2.25 4.125 0 3 C0 2.01 0 1.02 0 0 Z " fill="#12A8B6" transform="translate(194,256)"/>
<path d="M0 0 C0.66 0 1.32 0 2 0 C2 2.97 2 5.94 2 9 C1.01 8.67 0.02 8.34 -1 8 C-1.625 5.6875 -1.625 5.6875 -2 3 C-1.34 2.01 -0.68 1.02 0 0 Z " fill="#50ADD0" transform="translate(280,241)"/>
<path d="M0 0 C0.66 0 1.32 0 2 0 C1.7834375 0.8353125 1.7834375 0.8353125 1.5625 1.6875 C0.97230872 4.11384195 0.476571 6.54906345 0 9 C-1.32 7.68 -2.64 6.36 -4 5 C-2.71937515 3.2925002 -1.38232443 1.62626404 0 0 Z " fill="#0E172D" transform="translate(191,230)"/>
<path d="M0 0 C2 3 2 3 2 7 C0.68 7 -0.64 7 -2 7 C-2.125 4.625 -2.125 4.625 -2 2 C-1.34 1.34 -0.68 0.68 0 0 Z M2 2 C4 3 4 3 4 3 Z " fill="#09162C" transform="translate(267,312)"/>
<path d="M0 0 C2 1.1875 2 1.1875 4 3 C4.25 5.6875 4.25 5.6875 4 8 C3.67 7.34 3.34 6.68 3 6 C0.97536745 5.34786708 0.97536745 5.34786708 -1 5 C-1 2 -1 2 0 0 Z " fill="#1D2940" transform="translate(225,252)"/>
<path d="M0 0 C0 0.66 0 1.32 0 2 C-2.31 2 -4.62 2 -7 2 C-7 2.66 -7 3.32 -7 4 C-8.32 3.67 -9.64 3.34 -11 3 C-7.16674383 0.29417212 -4.67461851 -0.32613618 0 0 Z " fill="#229196" transform="translate(208,235)"/>
<path d="M0 0 C1.98 0.99 3.96 1.98 6 3 C6 3.99 6 4.98 6 6 C5.01 6.33 4.02 6.66 3 7 C0 2.25 0 2.25 0 0 Z " fill="#0D1E39" transform="translate(340,196)"/>
<path d="M0 0 C0.66 0.33 1.32 0.66 2 1 C1.34 5.29 0.68 9.58 0 14 C-0.33 14 -0.66 14 -1 14 C-1.22226864 12.23086176 -1.42733873 10.45955629 -1.625 8.6875 C-1.74101562 7.70136719 -1.85703125 6.71523437 -1.9765625 5.69921875 C-2 3 -2 3 0 0 Z " fill="#0E1626" transform="translate(210,179)"/>
<path d="M0 0 C0.33 0.66 0.66 1.32 1 2 C0.34 2 -0.32 2 -1 2 C-0.67 2.99 -0.34 3.98 0 5 C-1.93254772 7.0245738 -3.63158688 8.42105792 -6 10 C-5.35389319 6.51102321 -3.98128683 3.93230451 -2 1 C-1.34 0.67 -0.68 0.34 0 0 Z " fill="#5C636E" transform="translate(261,183)"/>
<path d="M0 0 C0.66 0.33 1.32 0.66 2 1 C1.01 2.98 0.02 4.96 -1 7 C-2.65 6.67 -4.3 6.34 -6 6 C-4 4 -2 2 0 0 Z " fill="#434A5B" transform="translate(141,349)"/>
<path d="M0 0 C0.4125 0.556875 0.825 1.11375 1.25 1.6875 C3.12256399 4.16195956 5.05339344 6.5835229 7 9 C4.03 8.505 4.03 8.505 1 8 C0.67 5.36 0.34 2.72 0 0 Z " fill="#06314B" transform="translate(191,254)"/>
<path d="M0 0 C3.68754757 0.49831724 5.60490662 1.10067643 8 4 C5.69 4 3.38 4 1 4 C0.67 2.68 0.34 1.36 0 0 Z " fill="#1B263D" transform="translate(219,233)"/>
<path d="M0 0 C2.31 0.66 4.62 1.32 7 2 C7 3.65 7 5.3 7 7 C5.83040013 6.02433888 4.66438823 5.044375 3.5 4.0625 C2.8503125 3.51722656 2.200625 2.97195312 1.53125 2.41015625 C1.0259375 1.94480469 0.520625 1.47945312 0 1 C0 0.67 0 0.34 0 0 Z " fill="#3A4451" transform="translate(346,211)"/>
<path d="M0 0 C4.455 2.97 4.455 2.97 9 6 C7.68 6.33 6.36 6.66 5 7 C5 6.34 5 5.68 5 5 C2.525 4.01 2.525 4.01 0 3 C0 2.01 0 1.02 0 0 Z " fill="#042D50" transform="translate(142,138)"/>
<path d="M0 0 C0.33 0.66 0.66 1.32 1 2 C1.99 2 2.98 2 4 2 C4 3.65 4 5.3 4 7 C3.01 7 2.02 7 1 7 C0.67 4.69 0.34 2.38 0 0 Z " fill="#515866" transform="translate(129,375)"/>
<path d="M0 0 C2.62187494 1.04874998 3.79371361 1.64931313 5.25 4.125 C5.4975 4.74375 5.745 5.3625 6 6 C5.34 6 4.68 6 4 6 C3.67 5.34 3.34 4.68 3 4 C2.01 4 1.02 4 0 4 C0 2.68 0 1.36 0 0 Z M-2 4 C-1.34 4 -0.68 4 0 4 C0 4.66 0 5.32 0 6 C-0.66 6 -1.32 6 -2 6 C-2 5.34 -2 4.68 -2 4 Z " fill="#565D6C" transform="translate(169,352)"/>
<path d="M0 0 C0.33 0.99 0.66 1.98 1 3 C-1.8125 5.0625 -1.8125 5.0625 -5 7 C-5.99 6.67 -6.98 6.34 -8 6 C-7.05125 5.38125 -6.1025 4.7625 -5.125 4.125 C-2.05554891 2.18029031 -2.05554891 2.18029031 0 0 Z " fill="#27A088" transform="translate(216,257)"/>
<path d="M0 0 C0.33 0 0.66 0 1 0 C1.144375 1.134375 1.28875 2.26875 1.4375 3.4375 C1.61171478 6.80777201 1.61171478 6.80777201 3 8 C3.04063832 9.66617115 3.042721 11.33388095 3 13 C1 12 1 12 0 9 C-0.06740865 7.43881572 -0.08514456 5.8749748 -0.0625 4.3125 C-0.05347656 3.50425781 -0.04445312 2.69601563 -0.03515625 1.86328125 C-0.02355469 1.24839844 -0.01195312 0.63351563 0 0 Z " fill="#1F86A2" transform="translate(191,245)"/>
<path d="M0 0 C0.66 0.33 1.32 0.66 2 1 C2 1.66 2 2.32 2 3 C2.99 3.33 3.98 3.66 5 4 C5.33 5.98 5.66 7.96 6 10 C5.401875 9.236875 4.80375 8.47375 4.1875 7.6875 C2.53040668 5.6516425 0.89702326 3.8021721 -1 2 C-0.67 1.34 -0.34 0.68 0 0 Z " fill="#053338" transform="translate(214,235)"/>
<path d="M0 0 C2.08351471 3.90659009 2.13112345 5.75828706 1 10 C0.67 9.01 0.34 8.02 0 7 C-0.66 6.67 -1.32 6.34 -2 6 C-1.125 1.125 -1.125 1.125 0 0 Z " fill="#0F2039" transform="translate(218,232)"/>
<path d="M0 0 C1.485 0.99 1.485 0.99 3 2 C2.67 4.31 2.34 6.62 2 9 C1.67 7.68 1.34 6.36 1 5 C0.34 5 -0.32 5 -1 5 C-0.67 3.35 -0.34 1.7 0 0 Z " fill="#404751" transform="translate(264,260)"/>
<path d="M0 0 C2.1519437 3.22791555 2.20086443 4.28400809 2 8 C-0.475 7.01 -0.475 7.01 -3 6 C-2.01 5.67 -1.02 5.34 0 5 C0 3.35 0 1.7 0 0 Z " fill="#1C2A39" transform="translate(227,237)"/>
<path d="M0 0 C0.99 0.33 1.98 0.66 3 1 C2.34 1 1.68 1 1 1 C0.67 1.99 0.34 2.98 0 4 C-0.99 4.33 -1.98 4.66 -3 5 C-3.66 4.34 -4.32 3.68 -5 3 C-2.6875 1.4375 -2.6875 1.4375 0 0 Z " fill="#4F5763" transform="translate(145,104)"/>
<path d="M0 0 C0.99 0.33 1.98 0.66 3 1 C3.33 1.99 3.66 2.98 4 4 C2.68 4 1.36 4 0 4 C0 2.68 0 1.36 0 0 Z " fill="#0D1827" transform="translate(170,355)"/>
<path d="M0 0 C0.33 1.65 0.66 3.3 1 5 C-0.65 5 -2.3 5 -4 5 C-4.33 3.68 -4.66 2.36 -5 1 C-2 0 -2 0 0 0 Z " fill="#142339" transform="translate(212,225)"/>
<path d="M0 0 C1.98 1.65 3.96 3.3 6 5 C4.125 5.625 4.125 5.625 2 6 C1.34 5.34 0.68 4.68 0 4 C0 2.68 0 1.36 0 0 Z " fill="#535A69" transform="translate(353,203)"/>
<path d="M0 0 C1.32 0.66 2.64 1.32 4 2 C4 2.66 4 3.32 4 4 C4.99 4.33 5.98 4.66 7 5 C5.68 5.33 4.36 5.66 3 6 C1.68 4.35 0.36 2.7 -1 1 C-0.67 0.67 -0.34 0.34 0 0 Z " fill="#364050" transform="translate(339,202)"/>
<path d="M0 0 C1.32 1.32 2.64 2.64 4 4 C2.35 4.33 0.7 4.66 -1 5 C-1.33 4.34 -1.66 3.68 -2 3 C-1.34 2.01 -0.68 1.02 0 0 Z " fill="#2D3342" transform="translate(349,199)"/>
<path d="M0 0 C0.33 0 0.66 0 1 0 C0.67 2.97 0.34 5.94 0 9 C-2 5 -2 5 -1.6875 2.8125 C-1 1 -1 1 0 0 Z " fill="#404B5D" transform="translate(131,130)"/>
<path d="M0 0 C0.75 1.75 0.75 1.75 1 4 C-0.9375 6.25 -0.9375 6.25 -3 8 C-2.25 2.25 -2.25 2.25 0 0 Z " fill="#3B434F" transform="translate(134,112)"/>
</svg>
