<?xml version="1.0" encoding="UTF-8"?>
<svg version="1.1" xmlns="http://www.w3.org/2000/svg" width="500" height="500">
<path d="M0 0 C6.19122031 5.08604802 9.12886881 11.12341896 11.14453125 18.76171875 C12.66433594 18.80039063 12.66433594 18.80039063 14.21484375 18.83984375 C15.56644722 18.89616056 16.91800806 18.95350708 18.26953125 19.01171875 C19.26726562 19.03298828 19.26726562 19.03298828 20.28515625 19.0546875 C25.31640248 19.30131722 28.24178721 20.63369852 32.14453125 23.76171875 C39.2023339 33.08810082 38.21612932 46.7115374 37.14453125 57.76171875 C35.74571742 63.1708658 33.57280325 67.03447973 29.01953125 70.32421875 C24.28444599 72.69176138 20.37666746 72.91527242 15.18823242 72.92285156 C14.37813217 72.92781647 13.56803192 72.93278137 12.73338318 72.93789673 C10.05141349 72.95251021 7.36950297 72.95931921 4.6875 72.96484375 C2.8228607 72.97059614 0.95822142 72.97635386 -0.90641785 72.9821167 C-4.81790441 72.99262455 -8.72937044 72.99846854 -12.64086914 73.00195312 C-17.64783095 73.00743553 -22.65452051 73.03145906 -27.66139698 73.05992508 C-31.51418343 73.07856878 -35.36690454 73.083758 -39.21973228 73.085289 C-41.06527888 73.08831245 -42.91082441 73.0963306 -44.75632668 73.10947418 C-47.34142255 73.12656994 -49.92585653 73.12464585 -52.51098633 73.11816406 C-53.27016357 73.12737885 -54.02934082 73.13659363 -54.81152344 73.14608765 C-60.42148828 73.1021272 -64.3280771 71.7592589 -68.71875 68.2890625 C-71.9062031 64.79231476 -73.19030443 62.28530679 -73.5234375 57.515625 C-73.59199951 56.62302979 -73.66056152 55.73043457 -73.73120117 54.81079102 C-73.77220947 54.13459717 -73.81321777 53.45840332 -73.85546875 52.76171875 C-77.48039842 52.70279891 -81.10520209 52.66781785 -84.73046875 52.63671875 C-85.74367187 52.61996094 -86.756875 52.60320312 -87.80078125 52.5859375 C-98.72066517 52.18413386 -98.72066517 52.18413386 -108.50732422 56.08544922 C-112.01355325 60.4450596 -112.14307083 64.37741585 -112.11616516 69.83309937 C-112.11999071 70.65307769 -112.12381626 71.47305602 -112.12775773 72.31788218 C-112.13808773 75.06924552 -112.13409557 77.82040018 -112.13012695 80.57177734 C-112.13447345 82.5429046 -112.13965639 84.51403016 -112.14561462 86.4851532 C-112.15902318 91.84260534 -112.15958118 97.19998702 -112.15705132 102.55745268 C-112.15598278 107.02819915 -112.16086205 111.4989313 -112.16565675 115.96967471 C-112.17675856 126.51657786 -112.17718568 137.06344539 -112.17114258 147.61035156 C-112.16510246 158.49395944 -112.17741326 169.37743806 -112.19871265 180.26102388 C-112.21632174 189.60210602 -112.22233106 198.943147 -112.2190749 208.28424513 C-112.21726066 213.86460548 -112.2199123 219.44487363 -112.23378944 225.02521896 C-112.24635171 230.27339958 -112.24443878 235.52137857 -112.23137856 240.76955605 C-112.22900966 242.69565842 -112.23175862 244.62177491 -112.24000168 246.5478611 C-112.25044446 249.17759905 -112.24238837 251.80665741 -112.22969055 254.43637085 C-112.23706484 255.19824593 -112.24443912 255.96012101 -112.25203687 256.74508321 C-112.2039846 261.47688191 -111.38265821 264.75042391 -108.85546875 268.76171875 C-108.19546875 269.09171875 -107.53546875 269.42171875 -106.85546875 269.76171875 C-106.85546875 270.42171875 -106.85546875 271.08171875 -106.85546875 271.76171875 C-99.44912812 272.93290197 -92.11104199 272.9030589 -84.62768555 272.89111328 C-83.19609533 272.89247026 -81.76450547 272.89425185 -80.33291626 272.89642334 C-76.46293135 272.90096365 -72.59297324 272.89922182 -68.72298789 272.89604425 C-64.65889654 272.89350156 -60.59480739 272.89586363 -56.53071594 272.89743042 C-49.70414826 272.89924717 -42.87759142 272.89685942 -36.05102539 272.89208984 C-28.18148067 272.88665472 -20.31196189 272.88840642 -12.4424178 272.89391625 C-5.6659176 272.89846929 1.11057484 272.89908703 7.88707608 272.89647758 C11.92546239 272.89492599 15.96383655 272.89469005 20.00222206 272.89801407 C23.80338745 272.90092447 27.60451976 272.89885944 31.40568161 272.89311981 C32.79270434 272.89180881 34.17972991 272.89215773 35.56675148 272.89438248 C50.22278425 273.44028512 50.22278425 273.44028512 64.14453125 269.76171875 C65.45521458 267.31883247 65.45521458 267.31883247 66.14453125 264.76171875 C66.47453125 264.10171875 66.80453125 263.44171875 67.14453125 262.76171875 C67.23500865 261.19222897 67.26208069 259.61888908 67.25805664 258.04679871 C67.25798615 257.05101807 67.25791565 256.05523743 67.25784302 255.02928162 C67.2526767 253.93189163 67.24751038 252.83450165 67.2421875 251.70385742 C67.24072723 250.55045868 67.23926697 249.39705994 67.23776245 248.20870972 C67.23394574 245.69165307 67.22781806 243.17459915 67.21969604 240.65755272 C67.20692476 236.64623875 67.20026552 232.63494054 67.19555664 228.62361145 C67.18350542 219.34794044 67.16174932 210.07229698 67.139328 200.79664612 C67.118966 192.36443286 67.10088827 183.93223099 67.09111309 175.49999791 C67.08546727 170.91640844 67.07195391 166.33288351 67.05688477 161.74931335 C67.0288619 149.02808898 67.13498786 136.31193696 67.4609375 123.5949707 C67.48316879 122.35131083 67.50540009 121.10765097 67.52830505 119.82630444 C67.56351761 118.68091355 67.59873016 117.53552267 67.63500977 116.35542297 C67.66079605 115.3450211 67.68658234 114.33461924 67.71315002 113.29359913 C68.20761419 110.39146976 68.76659131 109.45324783 71.14453125 107.76171875 C74.14453125 107.32421875 74.14453125 107.32421875 77.14453125 107.76171875 C80.548581 111.05623646 80.61863686 114.12775096 80.82373047 118.7253418 C80.87336095 119.82271054 80.87336095 119.82271054 80.92399406 120.94224834 C81.37300834 132.39632657 81.29020371 143.87080806 81.27885675 155.33137345 C81.27628522 158.75165267 81.27868353 162.17192951 81.28024292 165.59220886 C81.28204962 171.32506806 81.27969674 177.05791427 81.27490234 182.79077148 C81.26944959 189.38637827 81.2712358 195.98195419 81.27672875 202.57756025 C81.28128735 208.28335386 81.28189743 213.98913827 81.27929008 219.69493312 C81.27774403 223.08431961 81.27748731 226.47369164 81.28082657 229.86307716 C81.28338321 233.64026569 81.27947086 237.41739587 81.27392578 241.19458008 C81.27595001 242.29357132 81.27797424 243.39256256 81.28005981 244.52485657 C81.21208239 269.6852434 81.21208239 269.6852434 74.41796875 277.83203125 C65.445424 286.37560972 54.98509804 286.20020166 43.30273438 286.14990234 C41.71011496 286.15397328 40.11749838 286.15931808 38.52488708 286.16583252 C34.22116286 286.17944991 29.91765561 286.17423065 25.61392784 286.16469526 C21.09779678 286.15706965 16.58168359 286.16415231 12.06555176 286.16885376 C4.48328333 286.17430288 -3.09889727 286.16714187 -10.68115234 286.15283203 C-19.43184622 286.13650714 -28.18233036 286.14179624 -36.93301916 286.15831125 C-44.46280883 286.17195019 -51.99253558 286.17383402 -59.52233362 286.16599524 C-64.01227408 286.16133194 -68.50211614 286.16065676 -72.99205017 286.17060471 C-77.21436763 286.17930722 -81.43641617 286.17319285 -85.65870476 286.15592194 C-87.20298251 286.15197457 -88.74728311 286.15306096 -90.29155159 286.15970993 C-100.96938491 286.20142546 -110.26969662 285.92678554 -118.48046875 278.32421875 C-120.25208176 276.31102215 -121.17150275 274.34559032 -121.85546875 271.76171875 C-122.51546875 271.76171875 -123.17546875 271.76171875 -123.85546875 271.76171875 C-125.62315807 266.42882022 -126.14717019 261.80221472 -126.12962341 256.20463562 C-126.13486009 255.36858207 -126.14009677 254.53252852 -126.14549214 253.67114002 C-126.160436 250.88316862 -126.16119605 248.09538167 -126.16186523 245.30737305 C-126.16949044 243.30288383 -126.17791856 241.29839754 -126.18708801 239.29391479 C-126.20900291 233.85787514 -126.21782776 228.42189173 -126.22291446 222.9858129 C-126.22656127 219.58708581 -126.23280299 216.18837337 -126.23991585 212.78965187 C-126.26439888 200.92559794 -126.27745999 189.06158767 -126.28100586 177.19750977 C-126.28464129 166.14968567 -126.3145403 155.10213935 -126.35641044 144.05440015 C-126.39113026 134.5594795 -126.40655459 125.06465085 -126.40725189 115.56966716 C-126.40804405 109.90307069 -126.41675531 104.23675738 -126.44524956 98.57022667 C-126.4714593 93.23900296 -126.47361892 87.90829664 -126.45759392 82.57703781 C-126.45578182 80.62518878 -126.4624484 78.67330978 -126.47841263 76.72152519 C-126.56832575 65.01090627 -126.27693638 56.3553956 -118.54296875 46.94921875 C-107.98397481 38.3546888 -99.14208805 38.5990811 -85.79296875 38.69921875 C-84.64119141 38.70373047 -83.48941406 38.70824219 -82.30273438 38.71289062 C-79.48692357 38.72457449 -76.67122477 38.74095594 -73.85546875 38.76171875 C-73.82533691 38.0147876 -73.79520508 37.26785645 -73.76416016 36.49829102 C-73.67400635 35.02187134 -73.67400635 35.02187134 -73.58203125 33.515625 C-73.505896 32.05491577 -73.505896 32.05491577 -73.42822266 30.56469727 C-72.57519735 26.39010921 -70.36232451 24.53956637 -67.03125 22.06640625 C-61.17395971 18.55413523 -55.46939966 18.49176239 -48.85546875 18.76171875 C-48.57703125 17.33859375 -48.57703125 17.33859375 -48.29296875 15.88671875 C-45.82919925 7.3927442 -39.54782239 0.00066507 -31.85546875 -4.23828125 C-21.04011768 -8.73921523 -9.34746832 -6.57666851 0 0 Z M-29.88671875 10.67578125 C-34.43853658 15.8059038 -35.95377008 18.77932151 -36.37890625 25.5703125 C-36.9650905 28.26579911 -37.71378402 29.0565863 -39.85546875 30.76171875 C-41.90844727 31.14648438 -41.90844727 31.14648438 -44.234375 31.16796875 C-45.07291016 31.18988281 -45.91144531 31.21179688 -46.77539062 31.234375 C-48.54101521 31.25264458 -50.30664021 31.27087357 -52.07226562 31.2890625 C-52.90951172 31.31097656 -53.74675781 31.33289063 -54.609375 31.35546875 C-55.75901733 31.36610352 -55.75901733 31.36610352 -56.93188477 31.37695312 C-59.2633634 31.60754708 -59.2633634 31.60754708 -60.85546875 34.76171875 C-61.02615352 37.55053429 -61.08819645 40.22664457 -61.04296875 43.01171875 C-61.04232422 43.75035156 -61.04167969 44.48898438 -61.04101562 45.25 C-61.36718537 53.69367521 -61.36718537 53.69367521 -57.85546875 60.76171875 C-55.40745862 60.95991833 -53.07259295 61.03454103 -50.62353516 61.02050781 C-49.87864334 61.02401245 -49.13375153 61.02751709 -48.36628723 61.03112793 C-45.89644125 61.03995181 -43.4268803 61.03409269 -40.95703125 61.02734375 C-39.24311264 61.0286905 -37.5291944 61.03063111 -35.8152771 61.03314209 C-32.21893689 61.03609447 -28.62269589 61.03179313 -25.02636719 61.02246094 C-20.41717411 61.01108347 -15.80821438 61.01761428 -11.19902992 61.02960587 C-7.65770717 61.03683605 -4.11643963 61.03453091 -0.5751152 61.02935028 C1.12414197 61.0280161 2.82340416 61.02965341 4.52265549 61.03430939 C6.89984131 61.03939174 9.27665077 61.03163972 11.65380859 61.02050781 C12.7075341 61.02658051 12.7075341 61.02658051 13.782547 61.03277588 C17.40440304 61.00137534 20.06227349 60.74131484 23.14453125 58.76171875 C24.24515543 45.73448883 24.24515543 45.73448883 23.14453125 32.76171875 C21.56837824 31.18556574 19.92799228 31.57941433 17.7421875 31.515625 C16.40704102 31.46631836 16.40704102 31.46631836 15.04492188 31.41601562 C13.15701941 31.35494789 11.26899148 31.29763988 9.38085938 31.24414062 C8.48947266 31.20998047 7.59808594 31.17582031 6.6796875 31.140625 C5.44810913 31.10304077 5.44810913 31.10304077 4.19165039 31.06469727 C2.14453125 30.76171875 2.14453125 30.76171875 0.14453125 28.76171875 C-0.34765625 26.625 -0.34765625 26.625 -0.73046875 24.07421875 C-1.7999398 18.45139369 -3.07232444 14.05127123 -7.68359375 10.2578125 C-15.28698802 5.16469917 -22.84294893 4.03838277 -29.88671875 10.67578125 Z " fill="#1F293E" transform="translate(259.85546875,110.23828125)"/>
<path d="M0 0 C2.8125 0.5625 2.8125 0.5625 4.75 2.1875 C6.20963057 5.45020363 5.75126734 7.13303911 4.8125 10.5625 C2.66796875 13.16015625 2.66796875 13.16015625 0 15.625 C-6.25925637 21.28088074 -6.25925637 21.28088074 -10.1875 28.5625 C-8.516875 28.68625 -8.516875 28.68625 -6.8125 28.8125 C-3.1875 29.5625 -3.1875 29.5625 -1.98046875 31.09765625 C0.46787104 38.70801295 -0.05620435 50.3442356 -3.06640625 57.76171875 C-5.74497735 62.0642319 -9.41595034 64.97198345 -14.1875 66.5625 C-17.12756697 66.69588852 -20.04306848 66.77483853 -22.984375 66.80078125 C-23.85137024 66.808853 -24.71836548 66.81692474 -25.6116333 66.82524109 C-27.44744881 66.83906941 -29.2832899 66.84979717 -31.11914062 66.85766602 C-33.91326263 66.87485093 -36.70619244 66.91874412 -39.5 66.96289062 C-41.28644966 66.97302064 -43.07290935 66.98153578 -44.859375 66.98828125 C-46.10349152 67.01454338 -46.10349152 67.01454338 -47.3727417 67.04133606 C-53.80791974 67.01752362 -58.25770898 65.49886006 -62.9296875 60.81640625 C-63.30351562 60.25824219 -63.67734375 59.70007813 -64.0625 59.125 C-64.64644531 58.29162109 -64.64644531 58.29162109 -65.2421875 57.44140625 C-68.34183195 51.28054269 -67.40966384 43.73005026 -67.42773438 37.0078125 C-67.43740908 34.83293958 -67.46845475 32.65902541 -67.5 30.484375 C-67.56657037 21.73987667 -67.18865824 14.3229579 -62.375 6.6875 C-57.65350972 2.10090944 -52.88377847 1.10706997 -46.48828125 1.1640625 C-45.77141647 1.16119232 -45.0545517 1.15832214 -44.31596375 1.15536499 C-42.81081343 1.1533347 -41.3056361 1.15879175 -39.80053711 1.17138672 C-37.49598641 1.18752811 -35.19317033 1.17146822 -32.88867188 1.15234375 C-31.42187114 1.15432498 -29.95507148 1.15816617 -28.48828125 1.1640625 C-27.45698845 1.15495346 -27.45698845 1.15495346 -26.40486145 1.1456604 C-23.54599246 1.18783039 -21.64646217 1.22891373 -19.29370117 2.93896484 C-17.69890174 5.27959963 -17.1875 6.70649313 -17.1875 9.5625 C-18.83651357 12.24978138 -19.50375368 13.12856486 -22.1875 14.5625 C-27.6078248 15.76604051 -33.15488756 15.57877565 -38.6796875 15.5390625 C-39.44635742 15.53414795 -40.21302734 15.5292334 -41.00292969 15.52416992 C-42.52720089 15.50821825 -44.05139936 15.47998881 -45.57519531 15.4387207 C-47.4461431 15.406619 -49.31824157 15.47677338 -51.1875 15.5625 C-53.56273595 17.49840209 -53.56273595 17.49840209 -53.41455078 21.00244141 C-53.41405041 22.47301974 -53.4029947 23.94362258 -53.3828125 25.4140625 C-53.38079834 26.10008545 -53.37878418 26.7861084 -53.37670898 27.49291992 C-53.36623758 30.05784787 -53.33831496 32.62268059 -53.3125 35.1875 C-53.27125 40.92125 -53.23 46.655 -53.1875 52.5625 C-40.6475 52.5625 -28.1075 52.5625 -15.1875 52.5625 C-14.83130219 40.68589308 -14.83130219 40.68589308 -16.1875 33.5625 C-18.74922531 35.50110293 -20.94030761 37.23291015 -22.875 39.8125 C-23.308125 40.39 -23.74125 40.9675 -24.1875 41.5625 C-24.8475 41.5625 -25.5075 41.5625 -26.1875 41.5625 C-26.1875 42.2225 -26.1875 42.8825 -26.1875 43.5625 C-26.8475 43.5625 -27.5075 43.5625 -28.1875 43.5625 C-28.1875 44.2225 -28.1875 44.8825 -28.1875 45.5625 C-28.8475 45.5625 -29.5075 45.5625 -30.1875 45.5625 C-30.1875 46.2225 -30.1875 46.8825 -30.1875 47.5625 C-32.8275 47.5625 -35.4675 47.5625 -38.1875 47.5625 C-38.1875 46.9025 -38.1875 46.2425 -38.1875 45.5625 C-38.8475 45.5625 -39.5075 45.5625 -40.1875 45.5625 C-40.1875 44.9025 -40.1875 44.2425 -40.1875 43.5625 C-40.72375 43.35625 -41.26 43.15 -41.8125 42.9375 C-45.60763794 40.74031487 -49.39246108 37.75308597 -50.921875 33.5390625 C-51.29062435 30.79513352 -50.34954112 29.02329296 -49.1875 26.5625 C-46.53465591 25.78875381 -44.89408037 25.33484371 -42.1875 25.5625 C-39.22536367 27.23675097 -36.71670968 29.29606535 -34.1875 31.5625 C-33.218125 30.77875 -32.24875 29.995 -31.25 29.1875 C-30.70472656 28.74664062 -30.15945312 28.30578125 -29.59765625 27.8515625 C-28.05483563 26.5958609 -28.05483563 26.5958609 -27.1875 24.5625 C-26.5275 24.5625 -25.8675 24.5625 -25.1875 24.5625 C-25.1875 23.9025 -25.1875 23.2425 -25.1875 22.5625 C-24.5275 22.5625 -23.8675 22.5625 -23.1875 22.5625 C-22.92582031 21.98371094 -22.66414063 21.40492188 -22.39453125 20.80859375 C-19.27507607 15.00378233 -13.92964893 10.06146181 -9.1875 5.5625 C-8.71570313 5.09585938 -8.24390625 4.62921875 -7.7578125 4.1484375 C-5.1962467 1.77268476 -3.46533145 0.61152908 0 0 Z M-14.1875 29.5625 C-13.8575 30.2225 -13.5275 30.8825 -13.1875 31.5625 C-12.8575 30.9025 -12.5275 30.2425 -12.1875 29.5625 C-12.8475 29.5625 -13.5075 29.5625 -14.1875 29.5625 Z " fill="#11A8BC" transform="translate(228.1875,210.4375)"/>
<path d="M0 0 C0.99 0.66 1.98 1.32 3 2 C3.1875 5.625 3.1875 5.625 3 9 C3.66 9.061875 4.32 9.12375 5 9.1875 C12.76156699 11.28959106 16.82154354 15.43854771 20.7734375 22.3046875 C23.8041793 28.96459783 24.37621943 35.23841238 24.625 42.4375 C24.68300781 43.82098633 24.68300781 43.82098633 24.7421875 45.23242188 C24.83568676 47.48809143 24.9214391 49.74376916 25 52 C25.66 52 26.32 52 27 52 C32.07824164 60.93226431 32.07824164 60.93226431 31 66 C29.5126908 69.08503 27.85713194 71.09354166 25 73 C21.64492276 73.71924209 18.34120354 74.06598694 14.9296875 74.41796875 C11.70384369 74.74807249 11.70384369 74.74807249 9.5 77.875 C9.005 78.90625 8.51 79.9375 8 81 C4.21978311 84.78021689 1.33898285 85.81589714 -4 86 C-9.50793913 85.05035532 -12.5218865 83.39879061 -16 79 C-16.6328125 76.33203125 -16.6328125 76.33203125 -17 74 C-17.95261719 73.99742187 -18.90523438 73.99484375 -19.88671875 73.9921875 C-29.8453749 73.68513746 -29.8453749 73.68513746 -33.0078125 71.80859375 C-35.81445497 68.59019834 -37.08414002 65.20700117 -37 61 C-35.66934539 57.3671017 -33.95292868 54.12267752 -31.44580078 51.16894531 C-29.76267902 48.64397846 -29.6427845 47.36738534 -29.6640625 44.3671875 C-29.6549585 43.48305176 -29.64585449 42.59891602 -29.63647461 41.68798828 C-29.63268799 40.75970215 -29.62890137 39.83141602 -29.625 38.875 C-29.33362728 28.39449256 -27.89644802 21.45455403 -20.125 14 C-16.54598428 11.10820973 -13.49916952 9.84359428 -9 9 C-9.061875 8.071875 -9.12375 7.14375 -9.1875 6.1875 C-9 3 -9 3 -7.875 1.125 C-5.14747535 -0.51151479 -3.12026907 -0.32502803 0 0 Z M-14.8125 27 C-16.77319813 30.30222842 -17.1166121 33.43810946 -17.17578125 37.23046875 C-17.19962891 38.03419922 -17.22347656 38.83792969 -17.24804688 39.66601562 C-17.29051002 41.3272252 -17.3220312 42.98875599 -17.34179688 44.65039062 C-17.36951172 45.46056641 -17.39722656 46.27074219 -17.42578125 47.10546875 C-17.44036377 47.82887451 -17.45494629 48.55228027 -17.4699707 49.29760742 C-18.27503127 53.40226676 -20.30117805 57.17765062 -22 61 C-9.79 61 2.42 61 15 61 C14.01 57.7 13.02 54.4 12 51 C11.69087521 46.92931467 11.56382001 42.95590962 11.56054688 38.88085938 C11.42381069 33.10493442 10.3173347 29.76677345 7 25 C3.11632715 21.55765361 0.04540954 20.33695704 -5.04296875 20.609375 C-9.23070851 21.4452512 -12.01889668 23.91740324 -14.8125 27 Z " fill="#26B28A" transform="translate(335,123)"/>
<path d="M0 0 C0.88636139 -0.00524185 1.77272278 -0.0104837 2.6859436 -0.0158844 C4.55689448 -0.02229367 6.42788572 -0.02098179 8.29882812 -0.01245117 C11.14787334 -0.00395453 13.99490333 -0.03269533 16.84375 -0.06445312 C18.66666607 -0.06606576 20.48958566 -0.06548642 22.3125 -0.0625 C23.58001602 -0.07935097 23.58001602 -0.07935097 24.87313843 -0.09654236 C30.63102105 -0.02937559 34.09725956 1.02715816 38.7890625 4.43359375 C39.2840625 5.91859375 39.2840625 5.91859375 39.7890625 7.43359375 C40.4490625 7.43359375 41.1090625 7.43359375 41.7890625 7.43359375 C44.25153742 12.22653716 44.1452055 16.81883749 44.1953125 22.08203125 C44.20671265 23.01278473 44.21811279 23.94353821 44.2298584 24.90249634 C44.24870999 26.86756882 44.26180712 28.83270384 44.26953125 30.79785156 C44.28895579 33.79214387 44.35103831 36.78369464 44.4140625 39.77734375 C44.42712342 41.69139003 44.43762404 43.60545585 44.4453125 45.51953125 C44.4700061 46.40828949 44.49469971 47.29704773 44.5201416 48.21273804 C44.48061643 53.77205972 43.50267638 57.03811121 39.5327301 61.02601624 C34.13312902 65.38484991 28.70164109 65.89245538 22.07421875 65.8671875 C21.25964706 65.87242935 20.44507538 65.8776712 19.6058197 65.8830719 C17.89225396 65.88946201 16.17864418 65.88819435 14.46508789 65.87963867 C11.86198849 65.87112784 9.2610864 65.89993112 6.65820312 65.93164062 C4.98437565 65.93325307 3.31054434 65.93267428 1.63671875 65.9296875 C0.8687648 65.94092148 0.10081085 65.95215546 -0.69041443 65.96372986 C-7.79922764 65.87331732 -12.89196874 63.51605841 -18.16015625 58.78515625 C-20.87734739 54.34448959 -20.99132941 50.92416726 -21.0234375 45.80859375 C-21.04567383 44.89577637 -21.06791016 43.98295898 -21.09082031 43.04248047 C-21.13213065 41.13335261 -21.16175319 39.22393901 -21.18017578 37.31445312 C-21.21030101 34.49320157 -21.28294603 31.67568413 -21.36328125 28.85546875 C-21.39828592 27.08989067 -21.4309294 25.32426382 -21.4609375 23.55859375 C-21.48260986 22.74567871 -21.50428223 21.93276367 -21.52661133 21.09521484 C-21.55484439 15.78629167 -20.61439129 12.17725254 -18.2109375 7.43359375 C-17.5509375 7.43359375 -16.8909375 7.43359375 -16.2109375 7.43359375 C-15.9840625 6.83546875 -15.7571875 6.23734375 -15.5234375 5.62109375 C-11.95189527 -0.33147663 -6.20750779 -0.02146258 0 0 Z M-8.2109375 15.43359375 C-8.79784039 18.624259 -8.79784039 18.624259 -8.671875 22.296875 C-8.67095856 22.96647751 -8.67004211 23.63608002 -8.6690979 24.32597351 C-8.66306081 25.74237149 -8.64731106 27.15875663 -8.62255859 28.57495117 C-8.58623952 30.72818825 -8.58153806 32.87969283 -8.58203125 35.03320312 C-8.53802901 41.20261231 -8.45595505 46.59486857 -6.2109375 52.43359375 C-1.28142469 52.55716426 3.64718782 52.64791552 8.57788086 52.70825195 C10.25512391 52.73340167 11.9322573 52.76752634 13.60913086 52.81079102 C16.01964335 52.87142835 18.42870802 52.89979659 20.83984375 52.921875 C21.58994217 52.94768143 22.34004059 52.97348785 23.11286926 53.00007629 C25.48598984 53.05735022 25.48598984 53.05735022 28.7890625 52.43359375 C33.5232532 47.4550274 32.30992559 39.9968117 32.29003906 33.54931641 C32.28906208 31.30763102 32.33081432 29.06932064 32.375 26.828125 C32.38020421 25.40235087 32.38289524 23.97656488 32.3828125 22.55078125 C32.38990234 21.25769043 32.39699219 19.96459961 32.40429688 18.63232422 C32.09963081 15.33604448 32.09963081 15.33604448 29.69750977 13.51367188 C26.19172367 12.21176659 23.40087802 12.04530615 19.66015625 12.03515625 C18.98864029 12.03228607 18.31712433 12.02941589 17.6252594 12.02645874 C16.21248526 12.02442608 14.79968247 12.02990002 13.38696289 12.04248047 C11.22933956 12.05857304 9.07358186 12.04259404 6.91601562 12.0234375 C5.53905839 12.02541958 4.1621023 12.02926254 2.78515625 12.03515625 C1.53919678 12.03854004 0.2932373 12.04192383 -0.99047852 12.04541016 C-4.49305566 12.46759935 -5.94716395 12.72533023 -8.2109375 15.43359375 Z " fill="#1B253A" transform="translate(182.2109375,290.56640625)"/>
<path d="M0 0 C1.00029488 -0.00503792 1.00029488 -0.00503792 2.02079773 -0.01017761 C4.23084361 -0.01969581 6.44081379 -0.02163124 8.65087891 -0.02270508 C10.1854353 -0.02591736 11.71999138 -0.02928142 13.25454712 -0.03279114 C16.47423004 -0.03878479 19.69388611 -0.04063083 22.91357422 -0.04003906 C27.03848443 -0.0399375 31.16322229 -0.05358284 35.28809166 -0.07081127 C38.45881948 -0.08193303 41.62950568 -0.08395821 44.80025101 -0.08342934 C46.32088438 -0.08460945 47.84151883 -0.089033 49.36213303 -0.0967617 C51.4902424 -0.10656403 53.61797831 -0.10368264 55.74609375 -0.09765625 C56.95695648 -0.09908127 58.16781921 -0.10050629 59.41537476 -0.10197449 C62.39674688 0.13679877 64.10276732 0.3817448 66.50244141 2.14526367 C67.37744141 5.58276367 67.37744141 5.58276367 67.50244141 9.14526367 C65.50244141 12.14526367 65.50244141 12.14526367 62.50244141 13.14526367 C60.3004705 13.24495766 58.095573 13.28356656 55.89135742 13.29052734 C55.22434814 13.29388596 54.55733887 13.29724457 53.87011719 13.30070496 C51.66550839 13.31020274 49.46097563 13.31215742 47.25634766 13.31323242 C45.72322051 13.31644562 44.19009367 13.31980974 42.65696716 13.32331848 C39.44326059 13.32930667 36.2295809 13.33115868 33.01586914 13.33056641 C28.89883468 13.33046476 24.78197258 13.34412123 20.66497898 13.36133862 C17.49854237 13.37245897 14.33214743 13.37448561 11.16569328 13.37395668 C9.64785098 13.37513658 8.1300076 13.37955892 6.61218452 13.38728905 C4.48897357 13.39709053 2.36613695 13.39421056 0.24291992 13.38818359 C-1.56884987 13.39032112 -1.56884987 13.39032112 -3.41722107 13.39250183 C-6.39664752 13.15336313 -8.09732764 12.90391495 -10.49755859 11.14526367 C-11.43505859 7.70776367 -11.43505859 7.70776367 -11.49755859 4.14526367 C-8.47237272 -0.17643043 -4.96324766 0.01564487 0 0 Z " fill="#273043" transform="translate(245.49755859375,237.854736328125)"/>
<path d="M0 0 C2.12046792 3.53411321 2.53199289 6.94393835 3 11 C0.13822943 12.43088528 -1.93375773 11.59991697 -5 11 C-5 11.99 -5 12.98 -5 14 C-4.34 14.33 -3.68 14.66 -3 15 C-4.46484375 15.81380208 -5.9296875 16.62760417 -7.39453125 17.44140625 C-11.82655153 21.74402448 -12.29659579 27.13996494 -12.42382812 32.97851562 C-12.4329209 34.61391531 -12.43814792 36.24934119 -12.43945312 37.88476562 C-12.45814453 38.68462891 -12.47683594 39.48449219 -12.49609375 40.30859375 C-12.49794678 41.01814209 -12.4997998 41.72769043 -12.50170898 42.45874023 C-13 45 -13 45 -17 53 C-5.12 53.33 6.76 53.66 19 54 C19 54.33 19 54.66 19 55 C3.16 55.495 3.16 55.495 -13 56 C-11.515 56.495 -11.515 56.495 -10 57 C-10.875 61.875 -10.875 61.875 -12 63 C-11.01 64.485 -11.01 64.485 -10 66 C-15.50667088 67.83555696 -21.36150575 67.06834628 -27 66 C-30.55542921 63.87091715 -31.64566025 60.95880167 -33.0625 57.125 C-32.96202679 52.10133972 -30.67875114 47.97626139 -27.45019531 44.17553711 C-25.75706719 41.63555989 -25.62006109 40.28360709 -25.59375 37.26171875 C-25.57183594 36.35873047 -25.54992187 35.45574219 -25.52734375 34.52539062 C-25.51832031 33.58888672 -25.50929688 32.65238281 -25.5 31.6875 C-25.43498794 25.02376409 -25.09732604 19.97223772 -22 14 C-20.68 14 -19.36 14 -18 14 C-17.67 13.01 -17.34 12.02 -17 11 C-13.57381015 7.67763409 -10.27458348 6.29964482 -5.87109375 4.79296875 C-3.32456272 3.71374996 -1.74650846 2.11036438 0 0 Z " fill="#17A4DA" transform="translate(331,130)"/>
<path d="M0 0 C0.69612396 -0.00671722 1.39224792 -0.01343445 2.10946655 -0.02035522 C4.41696255 -0.03939502 6.72416856 -0.04326251 9.03173828 -0.04541016 C10.63355632 -0.05183448 12.23537318 -0.05856256 13.83718872 -0.06558228 C17.19812744 -0.07757037 20.55896327 -0.08126159 23.91992188 -0.08007812 C28.2266357 -0.07987497 32.53268937 -0.10716619 36.83924675 -0.14162254 C40.14896676 -0.16386265 43.45852727 -0.16791655 46.76831436 -0.16685867 C48.35595091 -0.16921942 49.94359154 -0.17806961 51.53115463 -0.19352341 C53.75301002 -0.21312406 55.97343399 -0.20737002 58.1953125 -0.1953125 C59.45946991 -0.19816254 60.72362732 -0.20101257 62.02609253 -0.20394897 C65.22705078 0.29052734 65.22705078 0.29052734 67.67825317 2.09042358 C69.22705078 4.29052734 69.22705078 4.29052734 69.03955078 7.97802734 C68.22705078 11.29052734 68.22705078 11.29052734 67.22705078 12.29052734 C54.86543316 13.85253519 42.23057824 13.44397666 29.80029297 13.42089844 C26.33833504 13.41550598 22.87650495 13.4208894 19.41455078 13.42724609 C17.187988 13.42658577 14.96142529 13.42530555 12.73486328 13.42333984 C11.71280792 13.42536407 10.69075256 13.42738831 9.63772583 13.42947388 C3.76212554 13.4104188 -1.97531321 13.29871733 -7.77294922 12.29052734 C-9.77294922 9.29052734 -9.77294922 9.29052734 -9.52294922 5.72802734 C-8.18658712 -0.39696561 -5.72010984 0.03453903 0 0 Z " fill="#1F293D" transform="translate(243.77294921875,316.70947265625)"/>
<path d="M0 0 C2.8125 0.5625 2.8125 0.5625 4.75 2.1875 C6.20963057 5.45020363 5.75126734 7.13303911 4.8125 10.5625 C2.66796875 13.16015625 2.66796875 13.16015625 0 15.625 C-3.37140919 18.77729249 -6.35431278 21.91807479 -9.1875 25.5625 C-11.1875 27.5625 -11.1875 27.5625 -13.55078125 29.359375 C-17.10835807 32.33192808 -19.63465593 35.83292429 -22.41796875 39.515625 C-23.00191406 40.19109375 -23.58585937 40.8665625 -24.1875 41.5625 C-24.8475 41.5625 -25.5075 41.5625 -26.1875 41.5625 C-26.1875 42.2225 -26.1875 42.8825 -26.1875 43.5625 C-26.8475 43.5625 -27.5075 43.5625 -28.1875 43.5625 C-28.1875 44.2225 -28.1875 44.8825 -28.1875 45.5625 C-28.8475 45.5625 -29.5075 45.5625 -30.1875 45.5625 C-30.1875 46.2225 -30.1875 46.8825 -30.1875 47.5625 C-32.8275 47.5625 -35.4675 47.5625 -38.1875 47.5625 C-38.1875 46.9025 -38.1875 46.2425 -38.1875 45.5625 C-38.8475 45.5625 -39.5075 45.5625 -40.1875 45.5625 C-40.1875 44.9025 -40.1875 44.2425 -40.1875 43.5625 C-40.72375 43.35625 -41.26 43.15 -41.8125 42.9375 C-45.60763794 40.74031487 -49.39246108 37.75308597 -50.921875 33.5390625 C-51.29062435 30.79513352 -50.34954112 29.02329296 -49.1875 26.5625 C-46.53465591 25.78875381 -44.89408037 25.33484371 -42.1875 25.5625 C-39.22536367 27.23675097 -36.71670968 29.29606535 -34.1875 31.5625 C-33.218125 30.77875 -32.24875 29.995 -31.25 29.1875 C-30.70472656 28.74664062 -30.15945312 28.30578125 -29.59765625 27.8515625 C-28.05483563 26.5958609 -28.05483563 26.5958609 -27.1875 24.5625 C-26.5275 24.5625 -25.8675 24.5625 -25.1875 24.5625 C-25.1875 23.9025 -25.1875 23.2425 -25.1875 22.5625 C-24.5275 22.5625 -23.8675 22.5625 -23.1875 22.5625 C-22.92582031 21.98371094 -22.66414063 21.40492188 -22.39453125 20.80859375 C-19.27507607 15.00378233 -13.92964893 10.06146181 -9.1875 5.5625 C-8.71570313 5.09585938 -8.24390625 4.62921875 -7.7578125 4.1484375 C-5.1962467 1.77268476 -3.46533145 0.61152908 0 0 Z " fill="#1D273C" transform="translate(228.1875,210.4375)"/>
<path d="M0 0 C0.495 1.485 0.495 1.485 1 3 C2.670625 3.12375 2.670625 3.12375 4.375 3.25 C8 4 8 4 9.20703125 5.53515625 C11.65537104 13.14551295 11.13129565 24.7817356 8.12109375 32.19921875 C5.44252265 36.5017319 1.77154966 39.40948345 -3 41 C-5.97536621 41.10944933 -8.92659619 41.16405872 -11.90234375 41.16796875 C-12.77645401 41.17129715 -13.65056427 41.17462555 -14.55116272 41.17805481 C-16.39958164 41.18311649 -18.2480097 41.18546337 -20.09643555 41.18530273 C-22.9231675 41.18748892 -25.74950898 41.2056517 -28.57617188 41.22460938 C-30.3723945 41.22754351 -32.16861898 41.22952817 -33.96484375 41.23046875 C-35.23218605 41.24124702 -35.23218605 41.24124702 -36.52513123 41.25224304 C-37.3159761 41.24916641 -38.10682098 41.24608978 -38.92163086 41.24291992 C-39.6142955 41.24434494 -40.30696014 41.24576996 -41.02061462 41.24723816 C-43.34409313 40.95702052 -44.97289985 40.14395823 -47 39 C-47 38.34 -47 37.68 -47 37 C-44.69 37.33 -42.38 37.66 -40 38 C-39.67 36.68 -39.34 35.36 -39 34 C-34.25 32.875 -34.25 32.875 -32 34 C-32 33.01 -32 32.02 -32 31 C-34.64 31 -37.28 31 -40 31 C-40.33 30.34 -40.66 29.68 -41 29 C-39.98574951 28.97494385 -38.97149902 28.9498877 -37.92651367 28.92407227 C-34.16368973 28.82990355 -30.40104631 28.72970595 -26.63842773 28.62768555 C-25.00988996 28.58437251 -23.38130784 28.54269482 -21.75268555 28.50268555 C-19.41181065 28.44489497 -17.07115824 28.38122602 -14.73046875 28.31640625 C-14.00224411 28.29969376 -13.27401947 28.28298126 -12.52372742 28.26576233 C-9.43833061 28.17532762 -6.94828022 27.98276007 -4 27 C-3.59995413 18.12387919 -3.59995413 18.12387919 -5.3125 9.5 C-5.539375 8.345 -5.76625 7.19 -6 6 C-3.6875 3.0625 -3.6875 3.0625 -1 1 C-0.67 0.67 -0.34 0.34 0 0 Z M-3 4 C-2.67 4.66 -2.34 5.32 -2 6 C-1.67 5.34 -1.34 4.68 -1 4 C-1.66 4 -2.32 4 -3 4 Z " fill="#25A9A8" transform="translate(217,236)"/>
<path d="M0 0 C10.23 0.33 20.46 0.66 31 1 C31.33 1.99 31.66 2.98 32 4 C31.67 4.66 31.34 5.32 31 6 C31.66 6 32.32 6 33 6 C32.67 6.721875 32.34 7.44375 32 8.1875 C30.98130668 11.05257496 30.84175559 12.99335617 31 16 C31 19 31 19 28.9375 21.125 C24.32635373 24.06828485 20.71160999 24.29510517 15.375 23.375 C11.49463414 21.7941102 9.55829427 20.31073376 7 17 C6.1875 13.6875 6.1875 13.6875 6 11 C6.66 10.67 7.32 10.34 8 10 C7.34 9.67 6.68 9.34 6 9 C6 7 6 7 8 5 C8.33 4.01 8.66 3.02 9 2 C6.03 1.67 3.06 1.34 0 1 C0 0.67 0 0.34 0 0 Z " fill="#18A9AE" transform="translate(312,185)"/>
<path d="M0 0 C0.33 0.99 0.66 1.98 1 3 C2.11375 3.0825 3.2275 3.165 4.375 3.25 C8 4 8 4 9.20703125 5.53515625 C11.62855387 13.06215514 11.22008805 24.90258892 8.0703125 32.1953125 C5.87545512 35.89613042 4.08358844 38.34500531 0 40 C-5.31386733 40.68827496 -10.67103172 40.34545533 -16 40 C-16 39.67 -16 39.34 -16 39 C-11.71 39 -7.42 39 -3 39 C-3.495 37.515 -3.495 37.515 -4 36 C-3.0625 33.8125 -3.0625 33.8125 -2 32 C-3.05270463 30.84188612 -3.05270463 30.84188612 -5 30 C-5 29.34 -5 28.68 -5 28 C-4.34 28 -3.68 28 -3 28 C-3.3359662 18.57737116 -3.3359662 18.57737116 -5.375 9.4375 C-5.58125 8.303125 -5.7875 7.16875 -6 6 C-3.6875 3.0625 -3.6875 3.0625 -1 1 C-0.67 0.67 -0.34 0.34 0 0 Z M-3 4 C-2.67 4.66 -2.34 5.32 -2 6 C-1.67 5.34 -1.34 4.68 -1 4 C-1.66 4 -2.32 4 -3 4 Z " fill="#19AE82" transform="translate(217,236)"/>
<path d="M0 0 C0.99 0.66 1.98 1.32 3 2 C3.1875 5.625 3.1875 5.625 3 9 C3.66 9.061875 4.32 9.12375 5 9.1875 C9.18657836 10.32136497 12.42550992 12.59631064 16 15 C15.6875 16.9375 15.6875 16.9375 15 19 C14.01 19.33 13.02 19.66 12 20 C12.2784375 20.9590625 12.2784375 20.9590625 12.5625 21.9375 C12.706875 22.618125 12.85125 23.29875 13 24 C12.505 24.495 12.505 24.495 12 25 C11.63239269 27.32817964 11.29758419 29.6618385 11 32 C10.608125 31.443125 10.21625 30.88625 9.8125 30.3125 C5.25771035 24.36836102 5.25771035 24.36836102 -1.3828125 21.68359375 C-2.28773438 21.60238281 -3.19265625 21.52117187 -4.125 21.4375 C-5.03507812 21.35371094 -5.94515625 21.26992187 -6.8828125 21.18359375 C-7.58148438 21.12300781 -8.28015625 21.06242187 -9 21 C-9 20.01 -9 19.02 -9 18 C-6.69 18 -4.38 18 -2 18 C-2.45822468 14.53058454 -2.89131683 11.32604951 -4 8 C-5.0209375 9.175625 -5.0209375 9.175625 -6.0625 10.375 C-9.38255454 13.34185724 -11.75825238 13.8638176 -16 15 C-19.60369831 17.47317402 -19.60369831 17.47317402 -22 21 C-22.99 21 -23.98 21 -25 21 C-22.79081882 16.02125998 -19.07167016 12.26200402 -13.984375 10.171875 C-12.34278114 9.7047548 -10.67229095 9.34128387 -9 9 C-9.061875 8.071875 -9.12375 7.14375 -9.1875 6.1875 C-9 3 -9 3 -7.875 1.125 C-5.14747535 -0.51151479 -3.12026907 -0.32502803 0 0 Z " fill="#20AC9A" transform="translate(335,123)"/>
<path d="M0 0 C1.32 0 2.64 0 4 0 C2.86720104 2.88348825 2.02075827 3.98531732 -0.5625 5.8125 C-3.76562662 8.68710082 -3.75813593 10.80768947 -4 15 C-3.01 15 -2.02 15 -1 15 C0.18681726 18.56045177 0.09689832 21.43808337 0.0625 25.1875 C0.05347656 26.45980469 0.04445312 27.73210937 0.03515625 29.04296875 C0.02355469 30.01878906 0.01195312 30.99460938 0 32 C-0.66 32 -1.32 32 -2 32 C-1.97679687 32.96421875 -1.95359375 33.9284375 -1.9296875 34.921875 C-1.91164062 36.18515625 -1.89359375 37.4484375 -1.875 38.75 C-1.85179687 40.00296875 -1.82859375 41.2559375 -1.8046875 42.546875 C-1.98462698 45.72820492 -2.31001418 47.36521896 -4 50 C-4.66 50 -5.32 50 -6 50 C-5.67 50.99 -5.34 51.98 -5 53 C-5.66 53 -6.32 53 -7 53 C-7.84098656 48.98195309 -8.05404945 45.98196457 -7 42 C-7.66 42 -8.32 42 -9 42 C-9.51640156 11.26219014 -9.51640156 11.26219014 -7 5 C-3.9765625 3.265625 -3.9765625 3.265625 -1 2 C-0.67 1.34 -0.34 0.68 0 0 Z " fill="#12A3DC" transform="translate(172,215)"/>
<path d="M0 0 C6.8421319 0.35087856 12.33223722 4.04903523 16.83984375 9.03515625 C19.24972629 12.18744759 21.42707829 15.34239257 23 19 C22.625 21.25 22.625 21.25 22 23 C22 22.34 22 21.68 22 21 C20.35 20.67 18.7 20.34 17 20 C17.66 20.99 18.32 21.98 19 23 C18.67 23.99 18.34 24.98 18 26 C16.35 25.67 14.7 25.34 13 25 C13.32960216 30.01535052 13.32960216 30.01535052 16 34 C14.515 34.495 14.515 34.495 13 35 C11.42367374 33.42367374 11.53832364 31.54551633 11.1875 29.375 C10.24595342 24.69397765 9.39122855 20.51616855 6 17 C2.79018898 15.01153217 -0.51462557 13.44337071 -4 12 C-4 11.67 -4 11.34 -4 11 C-2.72125 10.9175 -1.4425 10.835 -0.125 10.75 C2.05333418 10.54130069 2.05333418 10.54130069 4 10 C5.5899433 8.07935207 5.5899433 8.07935207 6 6 C4.68 5.34 3.36 4.68 2 4 C2.33 3.01 2.66 2.02 3 1 C2.01 0.67 1.02 0.34 0 0 Z " fill="#222D42" transform="translate(247,105)"/>
<path d="M0 0 C1.32 0.66 2.64 1.32 4 2 C2.53515625 2.81380208 1.0703125 3.62760417 -0.39453125 4.44140625 C-4.82655153 8.74402448 -5.29659579 14.13996494 -5.42382812 19.97851562 C-5.4329209 21.61391531 -5.43814792 23.24934119 -5.43945312 24.88476562 C-5.45814453 25.68462891 -5.47683594 26.48449219 -5.49609375 27.30859375 C-5.49794678 28.01814209 -5.4997998 28.72769043 -5.50170898 29.45874023 C-6 32 -6 32 -10 40 C1.88 40.33 13.76 40.66 26 41 C26 41.33 26 41.66 26 42 C10.16 42.495 10.16 42.495 -6 43 C-4.515 43.495 -4.515 43.495 -3 44 C-3.875 48.875 -3.875 48.875 -5 50 C-4.34 50.99 -3.68 51.98 -3 53 C-8.50667088 54.83555696 -14.36150575 54.06834628 -20 53 C-22.91041051 51.25717101 -23.39471238 50.15112013 -25 47 C-25.8125 43.625 -25.8125 43.625 -26 41 C-25.34 41 -24.68 41 -24 41 C-23.731875 41.763125 -23.46375 42.52625 -23.1875 43.3125 C-22.04199033 45.90496926 -21.00288478 47.08815544 -19 49 C-19 49.66 -19 50.32 -19 51 C-16.36 50.67 -13.72 50.34 -11 50 C-11 48.68 -11 47.36 -11 46 C-12.32 45.34 -13.64 44.68 -15 44 C-14.625 41.5625 -14.625 41.5625 -14 39 C-13.01 38.505 -13.01 38.505 -12 38 C-11.5709742 35.90658482 -11.5709742 35.90658482 -11.4375 33.5 C-11.09605489 29.09605489 -11.09605489 29.09605489 -10 28 C-9.70420295 26.51730105 -9.4625458 25.02368615 -9.24609375 23.52734375 C-9.11396484 22.62822266 -8.98183594 21.72910156 -8.84570312 20.80273438 C-8.71099609 19.85720703 -8.57628906 18.91167969 -8.4375 17.9375 C-8.29892578 16.98810547 -8.16035156 16.03871094 -8.01757812 15.06054688 C-7.67467814 12.7075435 -7.33566063 10.35404517 -7 8 C-6.34 8 -5.68 8 -5 8 C-5 6.68 -5 5.36 -5 4 C-4.01 4 -3.02 4 -2 4 C-2 3.34 -2 2.68 -2 2 C-1.34 2 -0.68 2 0 2 C0 1.34 0 0.68 0 0 Z " fill="#34AEC9" transform="translate(324,143)"/>
<path d="M0 0 C0.33 0 0.66 0 1 0 C1.33 2.31 1.66 4.62 2 7 C-1.2830098 8.6415049 -4.42545033 7.51888624 -8 7 C-7.67 9.64 -7.34 12.28 -7 15 C-3.83754459 16.0541518 -1.13051782 16.31275672 2.1875 16.5625 C3.27417969 16.64628906 4.36085937 16.73007813 5.48046875 16.81640625 C6.72763672 16.90728516 6.72763672 16.90728516 8 17 C8 17.33 8 17.66 8 18 C7.16021606 18.00616333 7.16021606 18.00616333 6.3034668 18.01245117 C3.7637413 18.04537305 1.22642019 18.11600694 -1.3125 18.1875 C-2.19357422 18.19330078 -3.07464844 18.19910156 -3.98242188 18.20507812 C-6.42038643 18.28850657 -8.63037825 18.41659421 -11 19 C-13.1536305 21.28044284 -13.1536305 21.28044284 -14 24 C-14.33 24.66 -14.66 25.32 -15 26 C-15.66 25.34 -16.32 24.68 -17 24 C-17.66 24.33 -18.32 24.66 -19 25 C-19 24.34 -19 23.68 -19 23 C-19.66 23 -20.32 23 -21 23 C-21 23.66 -21 24.32 -21 25 C-21.99 24.67 -22.98 24.34 -24 24 C-25.66121828 20.67756345 -25.88194796 17.5469646 -25 14 C-21.1212465 8.93005571 -16.30605052 5.99569219 -10 5 C-6.9906471 4.86978762 -4.00922129 4.87717464 -1 5 C-0.67 3.35 -0.34 1.7 0 0 Z " fill="#202A3F" transform="translate(212,124)"/>
<path d="M0 0 C0.92981567 3.04405482 1.00235046 5.34587876 0.59765625 8.4921875 C-0.0740196 14.36369098 -0.33343301 20.22183099 -0.5625 26.125 C-0.60568359 27.176875 -0.64886719 28.22875 -0.69335938 29.3125 C-0.79818509 31.87490627 -0.90035355 34.43738799 -1 37 C-0.34 37 0.32 37 1 37 C1 40.63 1 44.26 1 48 C1.33 47.01 1.66 46.02 2 45 C2.66 45 3.32 45 4 45 C4.1546875 44.0409375 4.1546875 44.0409375 4.3125 43.0625 C4.539375 42.381875 4.76625 41.70125 5 41 C6.485 40.505 6.485 40.505 8 40 C8.33 40.66 8.66 41.32 9 42 C9.99 41.505 9.99 41.505 11 41 C11 41.66 11 42.32 11 43 C22.55 43.33 34.1 43.66 46 44 C46 44.33 46 44.66 46 45 C29.665 45.495 29.665 45.495 13 46 C15.64 46.33 18.28 46.66 21 47 C21 47.99 21 48.98 21 50 C17.535 50.495 17.535 50.495 14 51 C13.67 51.99 13.34 52.98 13 54 C9.94731593 54.29352731 7.04348739 54.4310293 4 54 C1.5625 51.6875 1.5625 51.6875 0 49 C-0.66 48.01 -1.32 47.02 -2 46 C-3.64539855 39.98261742 -3.22358995 33.6370399 -3.24023438 27.4453125 C-3.24990908 25.27043958 -3.28095475 23.09652541 -3.3125 20.921875 C-3.36802218 13.42121599 -2.98549552 7.0080579 0 0 Z " fill="#47BBDE" transform="translate(164,220)"/>
<path d="M0 0 C4.33492071 -0.0586681 8.66500585 -0.05064246 13 0 C13.7528125 -0.00773438 14.505625 -0.01546875 15.28125 -0.0234375 C17.0625 0.0625 17.0625 0.0625 20 1 C21.80442266 3.24742463 22.79110314 5.34042691 24 8 C22.703125 9.984375 22.703125 9.984375 20 12 C16.24363716 12.51822475 12.5329152 12.374817 8.75 12.25 C7.71875 12.23195312 6.6875 12.21390625 5.625 12.1953125 C3.08238936 12.14822712 0.54166838 12.0824805 -2 12 C-1.34 11.34 -0.68 10.68 0 10 C0.16687448 7.41645782 0.16687448 7.41645782 0 5 C0.66 5 1.32 5 2 5 C2 4.34 2 3.68 2 3 C1.34 3 0.68 3 0 3 C0 2.01 0 1.02 0 0 Z " fill="#0E1B33" transform="translate(263,170)"/>
<path d="M0 0 C2.12046792 3.53411321 2.53199289 6.94393835 3 11 C0.13822943 12.43088528 -1.93375773 11.59991697 -5 11 C-5 11.66 -5 12.32 -5 13 C-5.66 13 -6.32 13 -7 13 C-7 13.66 -7 14.32 -7 15 C-7.66 15 -8.32 15 -9 15 C-9 15.66 -9 16.32 -9 17 C-9.99 17 -10.98 17 -12 17 C-12 18.32 -12 19.64 -12 21 C-12.66 21 -13.32 21 -14 21 C-14.07347656 22.33804688 -14.07347656 22.33804688 -14.1484375 23.703125 C-14.26058594 25.45882812 -14.26058594 25.45882812 -14.375 27.25 C-14.44460938 28.41015625 -14.51421875 29.5703125 -14.5859375 30.765625 C-14.96604766 33.73478735 -15.29633889 35.56619841 -17 38 C-18.485 38.495 -18.485 38.495 -20 39 C-20.125 36.125 -20.125 36.125 -20 33 C-19.34 32.34 -18.68 31.68 -18 31 C-17.16923206 27.84308184 -17 25.30300113 -17 22 C-16.814375 21.319375 -16.62875 20.63875 -16.4375 19.9375 C-15.77922612 17.79995606 -15.77922612 17.79995606 -17 15 C-17.99 15 -18.98 15 -20 15 C-20.33 15.99 -20.66 16.98 -21 18 C-21 16.68 -21 15.36 -21 14 C-20.01 14 -19.02 14 -18 14 C-17.67 13.01 -17.34 12.02 -17 11 C-13.57381015 7.67763409 -10.27458348 6.29964482 -5.87109375 4.79296875 C-3.32456272 3.71374996 -1.74650846 2.11036438 0 0 Z " fill="#0FA6CC" transform="translate(331,130)"/>
<path d="M0 0 C0.66 0.33 1.32 0.66 2 1 C2 2.65 2 4.3 2 6 C2.66 6 3.32 6 4 6 C4 6.99 4 7.98 4 9 C4.66 9 5.32 9 6 9 C6.36116046 10.4774746 6.71375048 11.95704675 7.0625 13.4375 C7.25972656 14.26121094 7.45695312 15.08492187 7.66015625 15.93359375 C7.77230469 16.61550781 7.88445312 17.29742187 8 18 C7.67 18.33 7.34 18.66 7 19 C7.12375 20.216875 7.2475 21.43375 7.375 22.6875 C7.43590325 25.50427546 7.29293084 26.63229471 5.515625 28.86328125 C0.73717184 33 0.73717184 33 -2 33 C-2.19665429 29.06290089 -2.38075477 25.12531328 -2.5625 21.1875 C-2.61857422 20.06794922 -2.67464844 18.94839844 -2.73242188 17.79492188 C-2.80493164 16.18520508 -2.80493164 16.18520508 -2.87890625 14.54296875 C-2.9260376 13.55321045 -2.97316895 12.56345215 -3.02172852 11.54370117 C-3 9 -3 9 -2 6 C-2.66 5.34 -3.32 4.68 -4 4 C-3.67 3.34 -3.34 2.68 -3 2 C-2.01 2 -1.02 2 0 2 C0 1.34 0 0.68 0 0 Z " fill="#13AE88" transform="translate(349,139)"/>
<path d="M0 0 C0.99 0.33 1.98 0.66 3 1 C3.103125 1.639375 3.20625 2.27875 3.3125 2.9375 C3.6528125 3.9584375 3.6528125 3.9584375 4 5 C6.99615946 6.3045656 6.99615946 6.3045656 10 7 C10 8.65 10 10.3 10 12 C9.34 12 8.68 12 8 12 C7.67 13.98 7.34 15.96 7 18 C5.08364783 18.05423638 3.16685075 18.09289963 1.25 18.125 C0.18265625 18.14820313 -0.8846875 18.17140625 -1.984375 18.1953125 C-4.95713085 18.0027765 -6.58620316 17.71521564 -9 16 C-10.40540541 10.81081081 -10.40540541 10.81081081 -9 8 C-6.03 8 -3.06 8 0 8 C0 5.36 0 2.72 0 0 Z " fill="#101930" transform="translate(213,123)"/>
<path d="M0 0 C4.64473982 -0.07416067 9.28913499 -0.12860615 13.93432617 -0.16479492 C15.51446536 -0.17988094 17.09456269 -0.2003525 18.67456055 -0.22631836 C20.94590585 -0.26271126 23.21669759 -0.27972762 25.48828125 -0.29296875 C26.54780754 -0.31619453 26.54780754 -0.31619453 27.6287384 -0.33988953 C32.52450598 -0.34156919 32.52450598 -0.34156919 34.90698242 1.36987305 C36.48136149 3.71790276 37 5.14807016 37 8 C35.35098643 10.68728138 34.68374632 11.56606486 32 13 C26.5910074 14.20102429 21.05629631 14.01652267 15.54296875 13.9765625 C14.78081055 13.97164795 14.01865234 13.9667334 13.23339844 13.96166992 C11.72214605 13.94576031 10.21096486 13.91760036 8.70019531 13.8762207 C4.8884855 13.81051677 3.25797685 13.82801544 0 16 C0 14.02 0 12.04 0 10 C1.0415625 10.01160156 2.083125 10.02320313 3.15625 10.03515625 C13.14904562 10.11028123 23.03615326 9.75097634 33 9 C33.33 7.35 33.66 5.7 34 4 C30.50791819 2.83597273 27.60852228 2.78881492 23.92578125 2.68359375 C23.2419487 2.66281265 22.55811615 2.64203156 21.8535614 2.62062073 C19.6733079 2.55533846 17.49293595 2.49633983 15.3125 2.4375 C13.83267014 2.39429447 12.35285217 2.35067953 10.87304688 2.30664062 C7.24882378 2.19967917 3.62446811 2.09835177 0 2 C0 1.34 0 0.68 0 0 Z " fill="#42ADAF" transform="translate(174,212)"/>
<path d="M0 0 C0.99 0.66 1.98 1.32 3 2 C3.1875 5.625 3.1875 5.625 3 9 C3.99 9.33 4.98 9.66 6 10 C3.36 10.99 0.72 11.98 -2 13 C-2.66 11.35 -3.32 9.7 -4 8 C-5.0209375 9.175625 -5.0209375 9.175625 -6.0625 10.375 C-9.38255454 13.34185724 -11.75825238 13.8638176 -16 15 C-19.60369831 17.47317402 -19.60369831 17.47317402 -22 21 C-22.99 21 -23.98 21 -25 21 C-22.79081882 16.02125998 -19.07167016 12.26200402 -13.984375 10.171875 C-12.34278114 9.7047548 -10.67229095 9.34128387 -9 9 C-9.061875 8.071875 -9.12375 7.14375 -9.1875 6.1875 C-9 3 -9 3 -7.875 1.125 C-5.14747535 -0.51151479 -3.12026907 -0.32502803 0 0 Z " fill="#29A8A6" transform="translate(335,123)"/>
<path d="M0 0 C1.9375 1.625 1.9375 1.625 3 4 C3.24721646 7.62584145 2.49831605 9.42002711 0.140625 12.1640625 C-1.85830802 14.17008393 -3.8926482 16.10866376 -6 18 C-6.66 17.34 -7.32 16.68 -8 16 C-7.34 14.68 -6.68 13.36 -6 12 C-7.65 12 -9.3 12 -11 12 C-10.67 10.68 -10.34 9.36 -10 8 C-10.66 7.67 -11.32 7.34 -12 7 C-9.62485425 1.26006444 -6.2611683 -0.93251443 0 0 Z " fill="#0F1C33" transform="translate(231,211)"/>
<path d="M0 0 C0.66 0.33 1.32 0.66 2 1 C2.32189036 3.46883835 2.51719146 5.83205702 2.625 8.3125 C2.68083252 9.40075073 2.68083252 9.40075073 2.73779297 10.51098633 C3.24371166 21.08981614 2.9529873 31.44906923 2 42 C1.34 41.67 0.68 41.34 0 41 C0 40.34 0 39.68 0 39 C-0.66 39 -1.32 39 -2 39 C-3.01097258 34.70336653 -4.04130598 30.08261196 -2 26 C-1.34 26 -0.68 26 0 26 C-0.33 20.39 -0.66 14.78 -1 9 C-1.99 9 -2.98 9 -4 9 C-4 6.69 -4 4.38 -4 2 C-2.125 0.9375 -2.125 0.9375 0 0 Z " fill="#1E9FC7" transform="translate(172,221)"/>
<path d="M0 0 C2.4375 0.375 2.4375 0.375 5 1 C5.33 1.66 5.66 2.32 6 3 C6.66 2.67 7.32 2.34 8 2 C7.67 2.9075 7.34 3.815 7 4.75 C5.80394277 8.07045807 5.80394277 8.07045807 6 12 C5.125 15.1875 5.125 15.1875 4 18 C3.34 18.33 2.68 18.66 2 19 C2 18.01 2 17.02 2 16 C1.34 16 0.68 16 0 16 C0.03480469 16.98742187 0.06960938 17.97484375 0.10546875 18.9921875 C0.13253906 20.27351563 0.15960938 21.55484375 0.1875 22.875 C0.22230469 24.15117187 0.25710938 25.42734375 0.29296875 26.7421875 C0.19628906 27.81726563 0.09960938 28.89234375 0 30 C-0.99 30.66 -1.98 31.32 -3 32 C-3.66 31.67 -4.32 31.34 -5 31 C-4.505 29.515 -4.505 29.515 -4 28 C-3.88709254 26.45564965 -3.82224078 24.9074917 -3.7890625 23.359375 C-3.76070313 22.45316406 -3.73234375 21.54695313 -3.703125 20.61328125 C-3.6514731 18.72023908 -3.60707735 16.82698355 -3.5703125 14.93359375 C-3.37656569 9.22613552 -2.62834739 5.08803078 0 0 Z M0 12 C1 14 1 14 1 14 Z " fill="#1DA8D3" transform="translate(309,144)"/>
<path d="M0 0 C0.99 0.66 1.98 1.32 3 2 C3.99 1.34 4.98 0.68 6 0 C6 0.66 6 1.32 6 2 C6.66 2.33 7.32 2.66 8 3 C7.690625 3.556875 7.38125 4.11375 7.0625 4.6875 C5.89342359 6.98803319 5.89342359 6.98803319 5.5 9.625 C5 12 5 12 3 14 C2.01 14 1.02 14 0 14 C0 13.34 0 12.68 0 12 C-0.9075 12.185625 -1.815 12.37125 -2.75 12.5625 C-5.68314324 12.95734621 -7.2644657 12.94691572 -10 12 C-10 11.34 -10 10.68 -10 10 C-9.34 10 -8.68 10 -8 10 C-7.87625 9.38125 -7.7525 8.7625 -7.625 8.125 C-7 6 -7 6 -5 4 C-4.01 4 -3.02 4 -2 4 C-1.34 2.68 -0.68 1.36 0 0 Z M1 3 C2 5 2 5 2 5 Z " fill="#131F34" transform="translate(204,234)"/>
<path d="M0 0 C2.12046792 3.53411321 2.53199289 6.94393835 3 11 C0.13822943 12.43088528 -1.93375773 11.59991697 -5 11 C-5.33 11.66 -5.66 12.32 -6 13 C-6.99 13 -7.98 13 -9 13 C-9.99 13.33 -10.98 13.66 -12 14 C-12.33 12.02 -12.66 10.04 -13 8 C-7 5 -7 5 -4.8125 4 C-2.84056701 2.91203697 -1.50889625 1.65978587 0 0 Z " fill="#10A8B7" transform="translate(331,130)"/>
<path d="M0 0 C0.33 0 0.66 0 1 0 C1.06058594 0.83144531 1.12117187 1.66289062 1.18359375 2.51953125 C1.26738281 3.60621094 1.35117188 4.69289062 1.4375 5.8125 C1.51871094 6.89144531 1.59992188 7.97039062 1.68359375 9.08203125 C1.90212461 12.05989905 1.90212461 12.05989905 3 15 C3.17812624 17.6928496 3.08727698 20.29441368 3 23 C2.67 23.33 2.34 23.66 2 24 C1.89883665 26.74152672 1.86031169 29.45729414 1.8671875 32.19921875 C1.86623077 33.02702347 1.86527405 33.85482819 1.86428833 34.7077179 C1.86360615 36.46554642 1.86546307 38.22337745 1.86962891 39.98120117 C1.87494294 42.65875002 1.86970281 45.33612852 1.86328125 48.01367188 C1.86394269 49.72135453 1.86522521 51.42903709 1.8671875 53.13671875 C1.86516327 53.9338176 1.86313904 54.73091644 1.86105347 55.5521698 C1.87508407 58.92213797 2.00152454 62.00899031 2.56689453 65.34301758 C3.11674949 68.71622585 2.26567645 70.87303466 1 74 C0.67 74 0.34 74 0 74 C0 49.58 0 25.16 0 0 Z " fill="#0D1422" transform="translate(135,250)"/>
<path d="M0 0 C6.16529701 0.31616908 10.17268433 3.49215061 15 7 C14.360625 7.12375 13.72125 7.2475 13.0625 7.375 C12.381875 7.58125 11.70125 7.7875 11 8 C9.92372421 9.9282978 9.92372421 9.9282978 9.625 11.9375 C9 14 9 14 6 17 C2.7 15.35 -0.6 13.7 -4 12 C-4 11.67 -4 11.34 -4 11 C-2.72125 10.9175 -1.4425 10.835 -0.125 10.75 C2.05333418 10.54130069 2.05333418 10.54130069 4 10 C5.5899433 8.07935207 5.5899433 8.07935207 6 6 C4.68 5.34 3.36 4.68 2 4 C2.33 3.01 2.66 2.02 3 1 C2.01 0.67 1.02 0.34 0 0 Z " fill="#212E40" transform="translate(247,105)"/>
<path d="M0 0 C0.33 0.99 0.66 1.98 1 3 C2.11375 3.0825 3.2275 3.165 4.375 3.25 C8 4 8 4 9.4375 5.625 C10.18743116 8.79137601 10.12461626 11.75997731 10 15 C9.34 15 8.68 15 8 15 C7.67 11.7 7.34 8.4 7 5 C4.69 5 2.38 5 0 5 C-0.04898438 6.19238281 -0.09796875 7.38476562 -0.1484375 8.61328125 C-0.22347604 10.17971068 -0.2990234 11.74611579 -0.375 13.3125 C-0.4059375 14.09818359 -0.436875 14.88386719 -0.46875 15.69335938 C-0.50742188 16.45068359 -0.54609375 17.20800781 -0.5859375 17.98828125 C-0.6173584 18.68477783 -0.6487793 19.38127441 -0.68115234 20.09887695 C-1 22 -1 22 -3 25 C-3.07347656 23.948125 -3.07347656 23.948125 -3.1484375 22.875 C-3.51248049 18.25542002 -3.88996586 14.02947627 -5.375 9.625 C-5.58125 8.42875 -5.7875 7.2325 -6 6 C-3.6875 3.0625 -3.6875 3.0625 -1 1 C-0.67 0.67 -0.34 0.34 0 0 Z M-3 4 C-2.67 4.66 -2.34 5.32 -2 6 C-1.67 5.34 -1.34 4.68 -1 4 C-1.66 4 -2.32 4 -3 4 Z " fill="#429F86" transform="translate(217,236)"/>
<path d="M0 0 C0.33 0 0.66 0 1 0 C1.16843931 2.24986799 1.33468654 4.49990017 1.5 6.75 C1.5928125 8.00296875 1.685625 9.2559375 1.78125 10.546875 C2.05501092 14.86838659 1.99356383 19.17235592 1.96484375 23.5 C1.95555045 25.66666591 1.94644261 27.83333262 1.9375 30 C1.92912109 31.093125 1.92074219 32.18625 1.91210938 33.3125 C1.90888672 34.364375 1.90566406 35.41625 1.90234375 36.5 C1.89710693 37.4590625 1.89187012 38.418125 1.88647461 39.40625 C1.90927339 41.96221639 1.90927339 41.96221639 2.56860352 44.21875 C3 46 3 46 2 48 C1.9405106 51.69949698 1.97877226 55.38517799 2.0390625 59.08398438 C2.08625019 63.84600886 1.8046813 68.30393021 1 73 C0.67 73 0.34 73 0 73 C0 48.91 0 24.82 0 0 Z " fill="#0B121F" transform="translate(135,176)"/>
<path d="M0 0 C0.66 0.99 1.32 1.98 2 3 C3.32381517 4.67423683 4.65576661 6.34211215 6 8 C4.02 8.33 2.04 8.66 0 9 C-0.66 11.64 -1.32 14.28 -2 17 C-5.35620271 15.61122646 -7.07298728 14.08322035 -9 11 C-9 10.34 -9 9.68 -9 9 C-9.66 8.67 -10.32 8.34 -11 8 C-10.195625 7.87625 -9.39125 7.7525 -8.5625 7.625 C-7.716875 7.41875 -6.87125 7.2125 -6 7 C-5.67 6.34 -5.34 5.68 -5 5 C-4.01 5.33 -3.02 5.66 -2 6 C-1.34 4.02 -0.68 2.04 0 0 Z " fill="#283346" transform="translate(147,373)"/>
<path d="M0 0 C1.32 0 2.64 0 4 0 C4 0.66 4 1.32 4 2 C5.32 1.67 6.64 1.34 8 1 C11 6.75 11 6.75 11 9 C11.66 9.33 12.32 9.66 13 10 C13 10.99 13 11.98 13 13 C11.02 13.99 11.02 13.99 9 15 C7 13 7 13 6 10 C5.175 9.21625 4.35 8.4325 3.5 7.625 C0.90750895 4.9028844 0.31377499 3.66070817 0 0 Z " fill="#101C34" transform="translate(179,237)"/>
<path d="M0 0 C0.86625 0.3403125 0.86625 0.3403125 1.75 0.6875 C1.42 1.6775 1.09 2.6675 0.75 3.6875 C2.07 4.0175 3.39 4.3475 4.75 4.6875 C4.42 6.9975 4.09 9.3075 3.75 11.6875 C1.375 12.3125 1.375 12.3125 -1.25 12.6875 C-1.91 12.0275 -2.57 11.3675 -3.25 10.6875 C-2.26 10.0275 -1.27 9.3675 -0.25 8.6875 C-0.91 8.3575 -1.57 8.0275 -2.25 7.6875 C-2.58 8.3475 -2.91 9.0075 -3.25 9.6875 C-3.58 9.0275 -3.91 8.3675 -4.25 7.6875 C-5.24 8.1825 -5.24 8.1825 -6.25 8.6875 C-7.25 5.6875 -7.25 5.6875 -6.25 2.6875 C-3.03057242 -0.42091284 -3.03057242 -0.42091284 0 0 Z " fill="#101B2F" transform="translate(220.25,218.3125)"/>
<path d="M0 0 C0.99 0 1.98 0 3 0 C3 0.99 3 1.98 3 3 C3.99 3.33 4.98 3.66 6 4 C6.33 4.33 6.66 4.66 7 5 C7.598125 5.144375 8.19625 5.28875 8.8125 5.4375 C11 6 11 6 15 8 C10.38 8.66 5.76 9.32 1 10 C0.67 11.65 0.34 13.3 0 15 C-0.66 14.67 -1.32 14.34 -2 14 C-2.36629408 9.72656908 -1.40814077 7.51187196 1 4 C0.34 4 -0.32 4 -1 4 C-0.67 2.68 -0.34 1.36 0 0 Z " fill="#19AC8C" transform="translate(344,187)"/>
<path d="M0 0 C1.32 0.66 2.64 1.32 4 2 C2.53515625 2.81380208 1.0703125 3.62760417 -0.39453125 4.44140625 C-5.510213 9.40772503 -5.5100401 16.27007805 -5.6875 22.9375 C-5.72166016 23.81212891 -5.75582031 24.68675781 -5.79101562 25.58789062 C-5.87275657 27.72483254 -5.9380713 29.86239218 -6 32 C-6.99 32.495 -6.99 32.495 -8 33 C-8.02917228 29.77085248 -8.04685663 26.54173917 -8.0625 23.3125 C-8.07087891 22.40048828 -8.07925781 21.48847656 -8.08789062 20.54882812 C-8.09111328 19.66259766 -8.09433594 18.77636719 -8.09765625 17.86328125 C-8.10289307 17.05157471 -8.10812988 16.23986816 -8.11352539 15.40356445 C-7.9929791 12.85135327 -7.559949 10.48973863 -7 8 C-6.34 8 -5.68 8 -5 8 C-5 6.68 -5 5.36 -5 4 C-4.01 4 -3.02 4 -2 4 C-2 3.34 -2 2.68 -2 2 C-1.34 2 -0.68 2 0 2 C0 1.34 0 0.68 0 0 Z " fill="#36A2BE" transform="translate(324,143)"/>
<path d="M0 0 C0.66 0.33 1.32 0.66 2 1 C2 2.65 2 4.3 2 6 C2.66 6.33 3.32 6.66 4 7 C3.01 7.495 3.01 7.495 2 8 C-0.30114592 13.18171708 -0.42360309 18.30301883 -0.625 23.875 C-0.66367187 24.75414062 -0.70234375 25.63328125 -0.7421875 26.5390625 C-0.83581034 28.69238793 -0.91896459 30.84616414 -1 33 C-1.33 33 -1.66 33 -2 33 C-2.19665429 29.06290089 -2.38075477 25.12531328 -2.5625 21.1875 C-2.61857422 20.06794922 -2.67464844 18.94839844 -2.73242188 17.79492188 C-2.80493164 16.18520508 -2.80493164 16.18520508 -2.87890625 14.54296875 C-2.9260376 13.55321045 -2.97316895 12.56345215 -3.02172852 11.54370117 C-3 9 -3 9 -2 6 C-2.66 5.34 -3.32 4.68 -4 4 C-3.67 3.34 -3.34 2.68 -3 2 C-2.01 2 -1.02 2 0 2 C0 1.34 0 0.68 0 0 Z " fill="#1AA688" transform="translate(349,139)"/>
<path d="M0 0 C0.33 0.66 0.66 1.32 1 2 C0.67 2.66 0.34 3.32 0 4 C0.99 4.33 1.98 4.66 3 5 C4.35432675 6.31200404 5.68733482 7.64631404 7 9 C7.99 9.66 8.98 10.32 10 11 C9.2575 11.268125 8.515 11.53625 7.75 11.8125 C5.13363446 12.94229421 3.19812889 14.20893202 1 16 C0.67 14.02 0.34 12.04 0 10 C0.66 10 1.32 10 2 10 C2 9.34 2 8.68 2 8 C1.01 7.67 0.02 7.34 -1 7 C-1.33 6.67 -1.66 6.34 -2 6 C-3.66617115 5.95936168 -5.33388095 5.957279 -7 6 C-2.25 1.125 -2.25 1.125 0 0 Z " fill="#2D3B4C" transform="translate(227,107)"/>
<path d="M0 0 C0.66 0.33 1.32 0.66 2 1 C0.75023244 4.65316671 0.32901247 5.78065836 -3 8 C-10.63605805 9.36266356 -18.56978799 9.08977558 -26.29931641 8.87548828 C-30.11106164 8.81112154 -31.74187387 8.82791591 -35 11 C-35 9.02 -35 7.04 -35 5 C-34.01 5.495 -34.01 5.495 -33 6 C-31.6197703 6.09537441 -30.23508193 6.1307347 -28.8515625 6.1328125 C-27.59811035 6.13571289 -27.59811035 6.13571289 -26.31933594 6.13867188 C-25.43020508 6.13416016 -24.54107422 6.12964844 -23.625 6.125 C-22.27583496 6.12209961 -22.27583496 6.12209961 -20.89941406 6.11914062 C-14.23020992 6.07603625 -7.63011964 5.75464776 -1 5 C-0.67 3.35 -0.34 1.7 0 0 Z " fill="#5BAFA7" transform="translate(209,217)"/>
<path d="M0 0 C1.22894987 4.23851873 0.83118364 8.14133923 0.44140625 12.484375 C0.37340317 13.29996887 0.30540009 14.11556274 0.2353363 14.95587158 C0.0172397 17.5544813 -0.21000613 20.15219777 -0.4375 22.75 C-0.58719284 24.51427175 -0.73628839 26.27859428 -0.88476562 28.04296875 C-1.24958837 32.36259854 -1.6226172 36.68145013 -2 41 C-2.33 41 -2.66 41 -3 41 C-3.07482575 36.6075369 -3.12891683 32.21542328 -3.16479492 27.82250977 C-3.17977042 26.33188402 -3.20015819 24.84130149 -3.22631836 23.35083008 C-3.36806712 15.05991747 -3.33501523 7.76419556 0 0 Z " fill="#51A3CC" transform="translate(164,220)"/>
<path d="M0 0 C0.33 0 0.66 0 1 0 C1.33 2.31 1.66 4.62 2 7 C-1.2830098 8.6415049 -4.42545033 7.51888624 -8 7 C-7.690625 8.1446875 -7.690625 8.1446875 -7.375 9.3125 C-7 12 -7 12 -9 15 C-9.99 14.67 -10.98 14.34 -12 14 C-12 13.34 -12 12.68 -12 12 C-12.66 11.67 -13.32 11.34 -14 11 C-14 10.01 -14 9.02 -14 8 C-14.33 7.34 -14.66 6.68 -15 6 C-10.32798795 4.79431947 -5.78503708 4.90617574 -1 5 C-0.67 3.35 -0.34 1.7 0 0 Z " fill="#333C4C" transform="translate(212,124)"/>
<path d="M0 0 C1.5625 1.125 1.5625 1.125 3 3 C3.25136034 6.60283157 2.47963391 8.44076298 0.140625 11.16796875 C-1.85922798 13.17136757 -3.89352938 15.10945461 -6 17 C-6.66 16.34 -7.32 15.68 -8 15 C-7.38125 14.46375 -6.7625 13.9275 -6.125 13.375 C-3.38778102 10.31575526 -2 7.15012391 -2 3 C-1.34 3 -0.68 3 0 3 C0 2.01 0 1.02 0 0 Z " fill="#424856" transform="translate(231,212)"/>
<path d="M0 0 C0.77772405 2.33317216 1.42415568 4.61435923 2 7 C-1.60957611 10.2910841 -4.12637153 11.54663921 -9 12 C-9.33 12.99 -9.66 13.98 -10 15 C-10.99 15 -11.98 15 -13 15 C-12.67 14.34 -12.34 13.68 -12 13 C-11.34 13 -10.68 13 -10 13 C-10 12.34 -10 11.68 -10 11 C-9.34 11 -8.68 11 -8 11 C-7.73445312 10.41734375 -7.46890625 9.8346875 -7.1953125 9.234375 C-5.96697004 6.93825772 -4.59685061 5.19643982 -2.875 3.25 C-2.33617187 2.63640625 -1.79734375 2.0228125 -1.2421875 1.390625 C-0.62730469 0.70226562 -0.62730469 0.70226562 0 0 Z " fill="#353C4E" transform="translate(213,222)"/>
<path d="M0 0 C0.66 0 1.32 0 2 0 C2.268125 0.763125 2.53625 1.52625 2.8125 2.3125 C3.95800967 4.90496926 4.99711522 6.08815544 7 8 C7 8.66 7 9.32 7 10 C9.64 10 12.28 10 15 10 C15 10.33 15 10.66 15 11 C17.475 11.495 17.475 11.495 20 12 C20 12.33 20 12.66 20 13 C7.62882242 12.96651914 7.62882242 12.96651914 3.9921875 10.80859375 C1.18744833 7.59238087 0.29808788 4.17323033 0 0 Z " fill="#4EB0CE" transform="translate(298,184)"/>
<path d="M0 0 C0.66 0.99 1.32 1.98 2 3 C0.703125 4.984375 0.703125 4.984375 -2 7 C-5.75636284 7.51822475 -9.4670848 7.374817 -13.25 7.25 C-14.28125 7.23195312 -15.3125 7.21390625 -16.375 7.1953125 C-18.91761064 7.14822712 -21.45833162 7.0824805 -24 7 C-20.34929302 4.56619535 -17.70201644 4.80543663 -13.5 4.9375 C-8.18198498 5.11307896 -8.18198498 5.11307896 -3 4 C-1.31461399 2.00334686 -1.31461399 2.00334686 0 0 Z " fill="#0E1629" transform="translate(285,175)"/>
<path d="M0 0 C0.6875 2.0625 0.6875 2.0625 1 4 C0.34 4 -0.32 4 -1 4 C-0.67 5.98 -0.34 7.96 0 10 C-1.32 9.34 -2.64 8.68 -4 8 C-3.67 6.68 -3.34 5.36 -3 4 C-4.65 4.66 -6.3 5.32 -8 6 C-8 4.02 -8 2.04 -8 0 C-4.71303767 -0.79953138 -3.28976808 -1.09658936 0 0 Z " fill="#0D192E" transform="translate(228,113)"/>
<path d="M0 0 C6.625 -0.25 6.625 -0.25 10 2 C9.67 3.65 9.34 5.3 9 7 C7.02 7.33 5.04 7.66 3 8 C2.814375 6.576875 2.814375 6.576875 2.625 5.125 C2.28312823 1.91332809 2.28312823 1.91332809 0 0 Z " fill="#18ACA0" transform="translate(198,214)"/>
<path d="M0 0 C1.32 1.65 2.64 3.3 4 5 C-2.89803745 9.03509258 -9.6678722 8.13069432 -17.4375 7.6875 C-18.74138672 7.62626953 -20.04527344 7.56503906 -21.38867188 7.50195312 C-24.59347441 7.34934348 -27.79673012 7.18158117 -31 7 C-31 6.67 -31 6.34 -31 6 C-20.77 6 -10.54 6 0 6 C0 4.02 0 2.04 0 0 Z " fill="#2CA092" transform="translate(350,179)"/>
<path d="M0 0 C1.65 0.33 3.3 0.66 5 1 C5 2.32 5 3.64 5 5 C4.34 5 3.68 5 3 5 C3 5.99 3 6.98 3 8 C2.34 8 1.68 8 1 8 C0.67 8.66 0.34 9.32 0 10 C-0.99 10 -1.98 10 -3 10 C-3.33 10.99 -3.66 11.98 -4 13 C-4 10.36 -4 7.72 -4 5 C-2.35 5 -0.7 5 1 5 C0.67 3.35 0.34 1.7 0 0 Z " fill="#0F1B30" transform="translate(264,125)"/>
<path d="M0 0 C0.66 0.66 1.32 1.32 2 2 C5.08347826 2.16681109 5.08347826 2.16681109 8 2 C8 2.66 8 3.32 8 4 C8.33 4.99 8.66 5.98 9 7 C9 7.99 9 8.98 9 10 C5.31137465 9.50153711 3.31453856 8.9758353 1 6 C-0.25 3.9375 -0.25 3.9375 -1 2 C-0.67 1.34 -0.34 0.68 0 0 Z " fill="#0C182E" transform="translate(228,107)"/>
<path d="M0 0 C0.66 0 1.32 0 2 0 C4.42130331 3.63195496 4.21022785 5.38349348 4.125 9.6875 C4.10695312 10.86699219 4.08890625 12.04648437 4.0703125 13.26171875 C4.03550781 14.61716797 4.03550781 14.61716797 4 16 C3.34 15.67 2.68 15.34 2 15 C2 14.34 2 13.68 2 13 C1.34 13 0.68 13 0 13 C-1.01097258 8.70336653 -2.04130598 4.08261196 0 0 Z " fill="#1E9EC8" transform="translate(170,247)"/>
<path d="M0 0 C-0.1875 1.875 -0.1875 1.875 -1 4 C-2.65697379 4.69040574 -4.3255761 5.3530635 -6 6 C-6.86625 6.86625 -7.7325 7.7325 -8.625 8.625 C-9.40875 9.40875 -10.1925 10.1925 -11 11 C-11.99 11 -12.98 11 -14 11 C-12.63310446 7.84930578 -11.14342115 5.99108226 -8.5 3.8125 C-7.8915625 3.30332031 -7.283125 2.79414063 -6.65625 2.26953125 C-4.17678905 0.36900104 -3.21005877 0 0 0 Z " fill="#4AAEC1" transform="translate(324,133)"/>
<path d="M0 0 C0.99 0.33 1.98 0.66 3 1 C5.39254576 1.22560676 7.78928123 1.40848595 10.1875 1.5625 C12.09595703 1.68818359 12.09595703 1.68818359 14.04296875 1.81640625 C15.01878906 1.87699219 15.99460937 1.93757813 17 2 C16.67 2.66 16.34 3.32 16 4 C9.73 4 3.46 4 -3 4 C-3 3.34 -3 2.68 -3 2 C-2.01 1.34 -1.02 0.68 0 0 Z " fill="#535967" transform="translate(303,392)"/>
<path d="M0 0 C0.99 0.33 1.98 0.66 3 1 C3 1.66 3 2.32 3 3 C3.66 3 4.32 3 5 3 C4.34 4.32 3.68 5.64 3 7 C2.34 7 1.68 7 1 7 C1 7.66 1 8.32 1 9 C0.34 9 -0.32 9 -1 9 C-1.33 9.66 -1.66 10.32 -2 11 C-2 10.01 -2 9.02 -2 8 C-1.34 8 -0.68 8 0 8 C-0.45375 7.54625 -0.9075 7.0925 -1.375 6.625 C-2.58333333 5.41666667 -3.79166667 4.20833333 -5 3 C-2.6875 1.4375 -2.6875 1.4375 0 0 Z " fill="#2F3747" transform="translate(201,245)"/>
<path d="M0 0 C0.33 0.99 0.66 1.98 1 3 C2.11375 3.0825 3.2275 3.165 4.375 3.25 C8 4 8 4 9.4375 5.625 C10.18743116 8.79137601 10.12461626 11.75997731 10 15 C9.34 15 8.68 15 8 15 C7.67 11.7 7.34 8.4 7 5 C2.545 5.495 2.545 5.495 -2 6 C-2.33 5.01 -2.66 4.02 -3 3 C-2.01 2.01 -1.02 1.02 0 0 Z " fill="#62A490" transform="translate(217,236)"/>
<path d="M0 0 C1.68029994 0.97691857 3.34928604 1.97388051 5 3 C4.67 3.66 4.34 4.32 4 5 C3.34 5 2.68 5 2 5 C2 7.64 2 10.28 2 13 C1.67 13 1.34 13 1 13 C0.67 10.03 0.34 7.06 0 4 C-2.97 3.67 -5.94 3.34 -9 3 C-4.5 -1.5 -4.5 -1.5 0 0 Z " fill="#52576A" transform="translate(282,139)"/>
<path d="M0 0 C0.33 0 0.66 0 1 0 C1.27711526 2.22595848 1.52066929 4.45611221 1.75 6.6875 C1.88921875 7.92886719 2.0284375 9.17023438 2.171875 10.44921875 C1.96890005 14.64249675 0.8982633 16.06241918 -2 19 C-3.13835673 14.21890172 -2.67624234 11.56310414 -1 7 C-0.62468554 4.67305036 -0.28082798 2.34023315 0 0 Z " fill="#29A9CC" transform="translate(315,164)"/>
<path d="M0 0 C3.45390549 2.66892697 4.12452998 5.84151743 5 10 C4.625 12.4375 4.625 12.4375 4 14 C4 13.34 4 12.68 4 12 C3.34 12 2.68 12 2 12 C1.67 12.66 1.34 13.32 1 14 C1.33 12.35 1.66 10.7 2 9 C1.34 9 0.68 9 0 9 C-1.125 3.375 -1.125 3.375 0 0 Z " fill="#343E4A" transform="translate(292,136)"/>
<path d="M0 0 C0.33 0 0.66 0 1 0 C1.1953125 2.05078125 1.390625 4.1015625 1.5859375 6.15234375 C1.72257813 6.76207031 1.85921875 7.37179687 2 8 C2.66 8.33 3.32 8.66 4 9 C4.625 11.5625 4.625 11.5625 5 14 C4.01 13.67 3.02 13.34 2 13 C1.67 13.99 1.34 14.98 1 16 C1.66 16.33 2.32 16.66 3 17 C2.34 17.99 1.68 18.98 1 20 C0 19 0 19 -0.11352539 17.14233398 C-0.10828857 16.35157471 -0.10305176 15.56081543 -0.09765625 14.74609375 C-0.09443359 13.89208984 -0.09121094 13.03808594 -0.08789062 12.15820312 C-0.07951172 11.26037109 -0.07113281 10.36253906 -0.0625 9.4375 C-0.05798828 8.53580078 -0.05347656 7.63410156 -0.04882812 6.70507812 C-0.03700225 4.46998686 -0.0205222 2.23502563 0 0 Z " fill="#2B3240" transform="translate(162,327)"/>
<path d="M0 0 C0.33 0 0.66 0 1 0 C1 5.61 1 11.22 1 17 C1.66 17 2.32 17 3 17 C4.125 20.3125 4.125 20.3125 5 24 C4.34 24.99 3.68 25.98 3 27 C0.24413336 20.75047564 -0.39080223 15.78716692 -0.1875 9 C-0.17396484 8.12988281 -0.16042969 7.25976562 -0.14648438 6.36328125 C-0.11151678 4.24191373 -0.0577253 2.12087026 0 0 Z " fill="#5CB7A7" transform="translate(346,155)"/>
<path d="M0 0 C0.33 0.66 0.66 1.32 1 2 C1.66 2 2.32 2 3 2 C4.59789351 6.95346987 3.28306814 11.13282415 2 16 C0 14 0 14 -0.1953125 10.7421875 C-0.17210937 9.46601563 -0.14890625 8.18984375 -0.125 6.875 C-0.10695313 5.59367188 -0.08890625 4.31234375 -0.0703125 2.9921875 C-0.04710937 2.00476563 -0.02390625 1.01734375 0 0 Z " fill="#0DA6E1" transform="translate(308,158)"/>
<path d="M0 0 C1.43739513 -0.02712066 2.87493863 -0.04645067 4.3125 -0.0625 C5.51326172 -0.07990234 5.51326172 -0.07990234 6.73828125 -0.09765625 C9 0 9 0 12 1 C11.67 2.32 11.34 3.64 11 5 C7.7 4.34 4.4 3.68 1 3 C0.67 2.01 0.34 1.02 0 0 Z " fill="#101729" transform="translate(238,105)"/>
<path d="M0 0 C6.14689273 0.36881356 8.69027374 1.90050429 13 6 C13.66 5.67 14.32 5.34 15 5 C15 5.99 15 6.98 15 8 C9.5388601 7.64766839 9.5388601 7.64766839 7 7 C5.5 4.9375 5.5 4.9375 5 3 C4.01 3 3.02 3 2 3 C2 2.34 2 1.68 2 1 C1.34 0.67 0.68 0.34 0 0 Z " fill="#393E4D" transform="translate(181,236)"/>
<path d="M0 0 C0.99 0.33 1.98 0.66 3 1 C1.11129009 3.48904984 0.09751141 3.98102549 -3.03125 4.58984375 C-5.34349303 4.82158883 -7.65599585 5.05075635 -9.96875 5.27734375 C-13.10363254 5.72691781 -13.10363254 5.72691781 -14.90625 8.06640625 C-15.2671875 8.70449219 -15.628125 9.34257812 -16 10 C-16 8.02 -16 6.04 -16 4 C-11.05 3.67 -6.1 3.34 -1 3 C-0.67 2.01 -0.34 1.02 0 0 Z " fill="#5DB8A0" transform="translate(360,192)"/>
<path d="M0 0 C0.33 0 0.66 0 1 0 C1.66 6.6 2.32 13.2 3 20 C2.01 20.66 1.02 21.32 0 22 C-0.66 21.67 -1.32 21.34 -2 21 C-1.505 19.515 -1.505 19.515 -1 18 C-0.85507877 16.59335074 -0.75371069 15.1818867 -0.68359375 13.76953125 C-0.64169922 12.96708984 -0.59980469 12.16464844 -0.55664062 11.33789062 C-0.51732422 10.50451172 -0.47800781 9.67113281 -0.4375 8.8125 C-0.39431641 7.96751953 -0.35113281 7.12253906 -0.30664062 6.25195312 C-0.20068482 4.16815567 -0.0998498 2.08409897 0 0 Z " fill="#2698C0" transform="translate(306,154)"/>
<path d="M0 0 C0 3.3 0 6.6 0 10 C-0.66 10 -1.32 10 -2 10 C-2 12.64 -2 15.28 -2 18 C-2.33 18 -2.66 18 -3 18 C-3 12.39 -3 6.78 -3 1 C-1 0 -1 0 0 0 Z " fill="#2182A3" transform="translate(175,240)"/>
<path d="M0 0 C-0.99 0.33 -1.98 0.66 -3 1 C-3 1.66 -3 2.32 -3 3 C-4.88069983 5.6120831 -5.97535795 5.99468505 -9.1875 6.6875 C-10.5796875 6.8421875 -10.5796875 6.8421875 -12 7 C-9.52030127 1.00739475 -6.36870588 -0.43422995 0 0 Z " fill="#35424A" transform="translate(231,211)"/>
<path d="M0 0 C0 0.33 0 0.66 0 1 C-1.15628906 1.16435547 -1.15628906 1.16435547 -2.3359375 1.33203125 C-3.33882812 1.49058594 -4.34171875 1.64914063 -5.375 1.8125 C-6.87160156 2.03873047 -6.87160156 2.03873047 -8.3984375 2.26953125 C-11.3287364 2.78772298 -11.3287364 2.78772298 -13 6 C-14.9375 5.6875 -14.9375 5.6875 -17 5 C-17.33 4.01 -17.66 3.02 -18 2 C-11.84629161 0.176679 -6.40353322 -0.2361959 0 0 Z " fill="#4F5568" transform="translate(246,104)"/>
<path d="M0 0 C0.99 0.33 1.98 0.66 3 1 C3.625 4.375 3.625 4.375 4 8 C3.34 8.66 2.68 9.32 2 10 C1.67 9.34 1.34 8.68 1 8 C0.01 7.67 -0.98 7.34 -2 7 C-1.34 4.69 -0.68 2.38 0 0 Z " fill="#2E3544" transform="translate(309,318)"/>
<path d="M0 0 C3.71134205 3.1994328 5.42930118 6.3705719 7 11 C6.6875 13.4375 6.6875 13.4375 6 15 C4 12 4 12 4 8 C3.34 8 2.68 8 2 8 C2 7.01 2 6.02 2 5 C1.34 5 0.68 5 0 5 C0 3.35 0 1.7 0 0 Z " fill="#52B196" transform="translate(351,140)"/>
<path d="M0 0 C1.32 0.66 2.64 1.32 4 2 C3.071875 2.515625 2.14375 3.03125 1.1875 3.5625 C-2.59173021 6.03731505 -3.54881819 8.807697 -5 13 C-5.66 12.67 -6.32 12.34 -7 12 C-7 10.68 -7 9.36 -7 8 C-6.34 8 -5.68 8 -5 8 C-5 6.68 -5 5.36 -5 4 C-4.01 4 -3.02 4 -2 4 C-2 3.34 -2 2.68 -2 2 C-1.34 2 -0.68 2 0 2 C0 1.34 0 0.68 0 0 Z " fill="#4AAABE" transform="translate(324,143)"/>
<path d="M0 0 C0.99 0.495 0.99 0.495 2 1 C3.5195764 1.15123831 5.04472502 1.24881693 6.5703125 1.31640625 C7.91416016 1.37924805 7.91416016 1.37924805 9.28515625 1.44335938 C10.22230469 1.48267578 11.15945312 1.52199219 12.125 1.5625 C13.54232422 1.62727539 13.54232422 1.62727539 14.98828125 1.69335938 C17.32537092 1.79959072 19.6625683 1.90163176 22 2 C20 4 20 4 16.19140625 4.125 C13.86302451 4.07678502 11.53656385 3.99913905 9.20898438 3.921875 C4.31355301 3.79522055 4.31355301 3.79522055 0 6 C0 4.02 0 2.04 0 0 Z " fill="#67B8C3" transform="translate(174,222)"/>
<path d="M0 0 C6.625 -0.25 6.625 -0.25 10 2 C5.8794254 3.99785435 2.54805635 4.17835515 -2 4 C-2 3.34 -2 2.68 -2 2 C-1.34 2 -0.68 2 0 2 C0 1.34 0 0.68 0 0 Z " fill="#212B39" transform="translate(269,170)"/>
<path d="M0 0 C4.95 0 9.9 0 15 0 C14.67 0.66 14.34 1.32 14 2 C11.36 2 8.72 2 6 2 C6 2.66 6 3.32 6 4 C4.68 4.33 3.36 4.66 2 5 C1.34 3.35 0.68 1.7 0 0 Z " fill="#374250" transform="translate(224,170)"/>
<path d="M0 0 C0.66 0.99 1.32 1.98 2 3 C3.32381517 4.67423683 4.65576661 6.34211215 6 8 C3.36 8.66 0.72 9.32 -2 10 C-2 6.09567131 -1.31626692 3.61973402 0 0 Z " fill="#363E4F" transform="translate(147,373)"/>
<path d="M0 0 C3.12270126 2.51830747 3.94523098 3.7261549 4.75 7.75 C4.8325 8.8225 4.915 9.895 5 11 C0.25027933 7.58994413 0.25027933 7.58994413 -0.875 4.9375 C-1 3 -1 3 0 0 Z " fill="#3F4457" transform="translate(178,239)"/>
<path d="M0 0 C2.60578866 0.08695958 5.2081279 0.19381408 7.8125 0.3125 C8.55048828 0.33505859 9.28847656 0.35761719 10.04882812 0.38085938 C15.54974762 0.6546608 15.54974762 0.6546608 18.01171875 2.54296875 C18.50091797 3.26419922 18.50091797 3.26419922 19 4 C16.69 4.33 14.38 4.66 12 5 C12 4.34 12 3.68 12 3 C8.04 2.67 4.08 2.34 0 2 C0 1.34 0 0.68 0 0 Z " fill="#3E4353" transform="translate(270,129)"/>
<path d="M0 0 C0.99 0.33 1.98 0.66 3 1 C0.11401165 3.89168064 -1.93926601 5.27251682 -5.98828125 5.390625 C-7.430209 5.36428842 -8.8718864 5.3169454 -10.3125 5.25 C-11.42334961 5.22292969 -11.42334961 5.22292969 -12.55664062 5.1953125 C-14.3716571 5.14847337 -16.18600166 5.07673789 -18 5 C-18 4.67 -18 4.34 -18 4 C-16.67935547 3.90912109 -16.67935547 3.90912109 -15.33203125 3.81640625 C-14.17058594 3.73261719 -13.00914062 3.64882813 -11.8125 3.5625 C-10.08966797 3.44068359 -10.08966797 3.44068359 -8.33203125 3.31640625 C-5.48401829 3.04596188 -2.78789518 2.62478253 0 2 C0 1.34 0 0.68 0 0 Z " fill="#47B197" transform="translate(219,271)"/>
<path d="M0 0 C0.33 0 0.66 0 1 0 C1.33 4.95 1.66 9.9 2 15 C1.67 14.34 1.34 13.68 1 13 C-1.02463255 12.34786708 -1.02463255 12.34786708 -3 12 C-2.67 11.67 -2.34 11.34 -2 11 C-1.60545777 9.15400312 -1.25823134 7.29774178 -0.9375 5.4375 C-0.76089844 4.42558594 -0.58429688 3.41367187 -0.40234375 2.37109375 C-0.20318359 1.19740234 -0.20318359 1.19740234 0 0 Z " fill="#2B3341" transform="translate(173,325)"/>
<path d="M0 0 C0.77772405 2.33317216 1.42415568 4.61435923 2 7 C-1.28696233 7.79953138 -2.71023192 8.09658936 -6 7 C-4.02 4.69 -2.04 2.38 0 0 Z " fill="#2E3A45" transform="translate(213,222)"/>
<path d="M0 0 C0.33 0.99 0.66 1.98 1 3 C1.66 3 2.32 3 3 3 C3 7.29 3 11.58 3 16 C2.67 16 2.34 16 2 16 C2 13.03 2 10.06 2 7 C1.01 6.67 0.02 6.34 -1 6 C-0.67 4.02 -0.34 2.04 0 0 Z " fill="#4C4F64" transform="translate(172,309)"/>
<path d="M0 0 C0 0.66 0 1.32 0 2 C-0.66 2 -1.32 2 -2 2 C-2.226875 2.639375 -2.45375 3.27875 -2.6875 3.9375 C-4 6 -4 6 -6.625 6.75 C-7.800625 6.87375 -7.800625 6.87375 -9 7 C-7.4576387 2.93377477 -4.5679954 0 0 0 Z " fill="#57AEC8" transform="translate(174,213)"/>
<path d="M0 0 C1.65 0 3.3 0 5 0 C5 0.99 5 1.98 5 3 C1.62902617 4.49821059 -0.20442119 5 -4 5 C-4 4.34 -4 3.68 -4 3 C-2.68 3 -1.36 3 0 3 C0 2.01 0 1.02 0 0 Z " fill="#52B9B2" transform="translate(335,204)"/>
<path d="M0 0 C0.33 0 0.66 0 1 0 C1 6.27 1 12.54 1 19 C0.01 18.34 -0.98 17.68 -2 17 C-1.34 11.39 -0.68 5.78 0 0 Z " fill="#323947" transform="translate(339,300)"/>
<path d="M0 0 C1.32 0.33 2.64 0.66 4 1 C4 2.65 4 4.3 4 6 C3.34 6 2.68 6 2 6 C1.67 7.32 1.34 8.64 1 10 C0.67 6.7 0.34 3.4 0 0 Z " fill="#353D4A" transform="translate(186,163)"/>
<path d="M0 0 C0 1.65 0 3.3 0 5 C-0.99 4.67 -1.98 4.34 -3 4 C-3.33 4.66 -3.66 5.32 -4 6 C-4.99 4.35 -5.98 2.7 -7 1 C-4 0 -4 0 0 0 Z " fill="#0F1B30" transform="translate(262,113)"/>
<path d="M0 0 C0.99 0 1.98 0 3 0 C2.67 0.99 2.34 1.98 2 3 C-3.28 3 -8.56 3 -14 3 C-14 2.34 -14 1.68 -14 1 C-13.07316406 1.01160156 -12.14632813 1.02320313 -11.19140625 1.03515625 C-9.39509766 1.04869141 -9.39509766 1.04869141 -7.5625 1.0625 C-5.77005859 1.07990234 -5.77005859 1.07990234 -3.94140625 1.09765625 C-1.11126659 1.33901792 -1.11126659 1.33901792 0 0 Z " fill="#0E1625" transform="translate(298,392)"/>
<path d="M0 0 C0.66 0.99 1.32 1.98 2 3 C0.90241493 3.84198307 -0.20335317 4.67330671 -1.3125 5.5 C-1.92738281 5.9640625 -2.54226563 6.428125 -3.17578125 6.90625 C-5 8 -5 8 -8 8 C-8 7.34 -8 6.68 -8 6 C-6.34928604 4.97388051 -4.68029994 3.97691857 -3 3 C-1.24850835 1.41754725 -1.24850835 1.41754725 0 0 Z " fill="#333950" transform="translate(331,386)"/>
<path d="M0 0 C0.99 0.33 1.98 0.66 3 1 C3 3.97 3 6.94 3 10 C2.01 10 1.02 10 0 10 C0 6.7 0 3.4 0 0 Z " fill="#0D1528" transform="translate(171,315)"/>
<path d="M0 0 C2.97 0 5.94 0 9 0 C9 0.99 9 1.98 9 3 C6.36 3.33 3.72 3.66 1 4 C0.67 2.68 0.34 1.36 0 0 Z " fill="#10A3C7" transform="translate(176,267)"/>
<path d="M0 0 C0.33 0 0.66 0 1 0 C1 1.65 1 3.3 1 5 C1.66 5 2.32 5 3 5 C2.67 7.64 2.34 10.28 2 13 C1.34 12.67 0.68 12.34 0 12 C0 8.04 0 4.08 0 0 Z " fill="#2298CB" transform="translate(162,252)"/>
<path d="M0 0 C2.97 0 5.94 0 9 0 C9 0.99 9 1.98 9 3 C7.35 3.66 5.7 4.32 4 5 C3.67 4.01 3.34 3.02 3 2 C2.01 1.34 1.02 0.68 0 0 Z " fill="#17AD9C" transform="translate(334,186)"/>
<path d="M0 0 C0.66 0 1.32 0 2 0 C2 0.99 2 1.98 2 3 C2.66 3.33 3.32 3.66 4 4 C3.34 4 2.68 4 2 4 C2.32960216 9.01535052 2.32960216 9.01535052 5 13 C4.01 13.33 3.02 13.66 2 14 C0.12175109 12.12175109 0.60897603 8.96064724 0.4375 6.4375 C0.35371094 5.23996094 0.26992188 4.04242188 0.18359375 2.80859375 C0.12300781 1.88175781 0.06242187 0.95492187 0 0 Z " fill="#343948" transform="translate(258,126)"/>
<path d="M0 0 C0.66 0 1.32 0 2 0 C2.66 1.98 3.32 3.96 4 6 C5.98 6 7.96 6 10 6 C10 6.33 10 6.66 10 7 C8.72125 7.061875 7.4425 7.12375 6.125 7.1875 C5.40570313 7.22230469 4.68640625 7.25710938 3.9453125 7.29296875 C3.30335938 7.19628906 2.66140625 7.09960938 2 7 C0 4 0 4 0 0 Z " fill="#41464E" transform="translate(234,322)"/>
<path d="M0 0 C2.62655933 0.35494045 4.57968261 0.72461964 6.8125 2.1875 C8.51995571 4.79361661 8.20267097 6.9599355 8 10 C7.608125 9.46375 7.21625 8.9275 6.8125 8.375 C4.6244612 5.50791468 2.32120704 2.76035432 0 0 Z " fill="#63B9AB" transform="translate(338,145)"/>
<path d="M0 0 C0.99 0 1.98 0 3 0 C3.33 1.65 3.66 3.3 4 5 C3.01 5.33 2.02 5.66 1 6 C0.01 4.68 -0.98 3.36 -2 2 C-1.34 1.34 -0.68 0.68 0 0 Z " fill="#0E182B" transform="translate(171,338)"/>
<path d="M0 0 C0.33 0.99 0.66 1.98 1 3 C-2.63 3 -6.26 3 -10 3 C-9.67 2.34 -9.34 1.68 -9 1 C-5.93090555 0.33280556 -3.14213983 0 0 0 Z " fill="#0F1625" transform="translate(211,300)"/>
<path d="M0 0 C1.32 0.33 2.64 0.66 4 1 C4 2.65 4 4.3 4 6 C2.68 6 1.36 6 0 6 C0 4.02 0 2.04 0 0 Z " fill="#0EB1A3" transform="translate(201,216)"/>
<path d="M0 0 C0.99 0.99 1.98 1.98 3 3 C2.67 3.66 2.34 4.32 2 5 C-0.5625 5.625 -0.5625 5.625 -3 6 C-3 3 -3 3 -1.5 1.3125 C-0.7575 0.6628125 -0.7575 0.6628125 0 0 Z " fill="#2C303F" transform="translate(144,155)"/>
<path d="M0 0 C2.64 0 5.28 0 8 0 C8 0.99 8 1.98 8 3 C5.125 3.1875 5.125 3.1875 2 3 C1.34 2.01 0.68 1.02 0 0 Z " fill="#4F545F" transform="translate(288,327)"/>
<path d="M0 0 C0.66 0.33 1.32 0.66 2 1 C0.60667426 4.36720387 -0.9789286 5.9859524 -4 8 C-4.33 7.34 -4.66 6.68 -5 6 C-3.35 4.02 -1.7 2.04 0 0 Z " fill="#333B48" transform="translate(228,221)"/>
<path d="M0 0 C0.33 0.66 0.66 1.32 1 2 C3.01669827 3.13350534 3.01669827 3.13350534 5 4 C4.01 5.485 4.01 5.485 3 7 C2.34 7 1.68 7 1 7 C0.34 6.34 -0.32 5.68 -1 5 C-0.625 2.375 -0.625 2.375 0 0 Z " fill="#2CAEA0" transform="translate(339,198)"/>
<path d="M0 0 C1.14271055 3.42813165 0.82699932 4.30911099 -0.3125 7.625 C-0.57675781 8.42164063 -0.84101563 9.21828125 -1.11328125 10.0390625 C-2 12 -2 12 -4 13 C-2.77443263 8.62297367 -1.46939453 4.30322683 0 0 Z " fill="#60C4B1" transform="translate(226,258)"/>
<path d="M0 0 C0.66 0.66 1.32 1.32 2 2 C1.625 4.625 1.625 4.625 1 7 C0.67 6.01 0.34 5.02 0 4 C-0.99 4 -1.98 4 -3 4 C-3.33 4.99 -3.66 5.98 -4 7 C-4 5.68 -4 4.36 -4 3 C-3.01 3 -2.02 3 -1 3 C-0.67 2.01 -0.34 1.02 0 0 Z " fill="#11A1CB" transform="translate(314,141)"/>
<path d="M0 0 C2.475 0.495 2.475 0.495 5 1 C4.67 1.66 4.34 2.32 4 3 C3.34 3 2.68 3 2 3 C2 5.64 2 8.28 2 11 C1.67 11 1.34 11 1 11 C0.67 7.37 0.34 3.74 0 0 Z " fill="#626872" transform="translate(282,141)"/>
<path d="M0 0 C0.66 0.33 1.32 0.66 2 1 C2.33 1.99 2.66 2.98 3 4 C2.34 4.66 1.68 5.32 1 6 C1 5.34 1 4.68 1 4 C0.01 4.33 -0.98 4.66 -2 5 C-2.66 4.34 -3.32 3.68 -4 3 C-2.68 2.01 -1.36 1.02 0 0 Z " fill="#344353" transform="translate(195,131)"/>
<path d="M0 0 C2.875 0.3125 2.875 0.3125 6 1 C6.66 1.99 7.32 2.98 8 4 C6.35 4.33 4.7 4.66 3 5 C2.67 4.34 2.34 3.68 2 3 C2.33 2.34 2.66 1.68 3 1 C2.01 0.67 1.02 0.34 0 0 Z " fill="#38464F" transform="translate(247,105)"/>
<path d="M0 0 C1.75 1.3125 1.75 1.3125 3 3 C3 3.66 3 4.32 3 5 C0.625 4.6875 0.625 4.6875 -2 4 C-2.66 3.01 -3.32 2.02 -4 1 C-2.1875 0.3125 -2.1875 0.3125 0 0 Z " fill="#323A45" transform="translate(149,389)"/>
<path d="M0 0 C2 2 2 2 2.125 4.625 C2.08375 5.40875 2.0425 6.1925 2 7 C1.01 7.33 0.02 7.66 -1 8 C-0.67 5.36 -0.34 2.72 0 0 Z " fill="#101B32" transform="translate(146,382)"/>
<path d="M0 0 C1.32 0.66 2.64 1.32 4 2 C3.67 2.99 3.34 3.98 3 5 C0.4375 6.1875 0.4375 6.1875 -2 7 C-1.34 4.69 -0.68 2.38 0 0 Z " fill="#464E5C" transform="translate(164,298)"/>
<path d="M0 0 C1 3 1 3 0.1875 5.625 C-1 8 -1 8 -3 9 C-2.4140625 2.84765625 -2.4140625 2.84765625 -2 1 C-1.34 0.67 -0.68 0.34 0 0 Z " fill="#1897D6" transform="translate(167,219)"/>
<path d="M0 0 C3.07536854 0.65900754 5.07735566 1.53867783 8 3 C4.7 3.33 1.4 3.66 -2 4 C-1.34 2.68 -0.68 1.36 0 0 Z " fill="#1DA47E" transform="translate(351,192)"/>
<path d="M0 0 C0.33 0 0.66 0 1 0 C0.67 2.31 0.34 4.62 0 7 C-0.99 7.33 -1.98 7.66 -3 8 C-2.67 6.02 -2.34 4.04 -2 2 C-1.34 2 -0.68 2 0 2 C0 1.34 0 0.68 0 0 Z " fill="#444C65" transform="translate(223,133)"/>
<path d="M0 0 C2.64 0 5.28 0 8 0 C8.33 1.32 8.66 2.64 9 4 C6.03 3.01 3.06 2.02 0 1 C0 0.67 0 0.34 0 0 Z " fill="#3C515E" transform="translate(243,116)"/>
<path d="M0 0 C0 1.98 0 3.96 0 6 C-1.32 6 -2.64 6 -4 6 C-4.33 5.01 -4.66 4.02 -5 3 C-1.125 0 -1.125 0 0 0 Z " fill="#20283F" transform="translate(174,306)"/>
<path d="M0 0 C0.66 0.33 1.32 0.66 2 1 C1.67 1.99 1.34 2.98 1 4 C-2.0625 5.1875 -2.0625 5.1875 -5 6 C-3.63016497 2.83884224 -3.0109362 2.0072908 0 0 Z " fill="#41454D" transform="translate(171,292)"/>
<path d="M0 0 C1.65 0 3.3 0 5 0 C4.01 0.495 4.01 0.495 3 1 C3.33 1.99 3.66 2.98 4 4 C3.01 4.66 2.02 5.32 1 6 C0 5 0 5 -0.0625 2.4375 C-0.041875 1.633125 -0.02125 0.82875 0 0 Z " fill="#24303F" transform="translate(183,246)"/>
<path d="M0 0 C0.66 0 1.32 0 2 0 C2.66 1.98 3.32 3.96 4 6 C3.34 6.66 2.68 7.32 2 8 C0.23537317 4.91190305 0 3.76687864 0 0 Z " fill="#53BA99" transform="translate(360,175)"/>
<path d="M0 0 C1.98 0 3.96 0 6 0 C6 0.99 6 1.98 6 3 C3.69 2.67 1.38 2.34 -1 2 C-0.67 1.34 -0.34 0.68 0 0 Z " fill="#646974" transform="translate(252,170)"/>
<path d="M0 0 C2.64 0.33 5.28 0.66 8 1 C6.3125 2.5625 6.3125 2.5625 4 4 C1.25 3.6875 1.25 3.6875 -1 3 C-0.67 2.01 -0.34 1.02 0 0 Z " fill="#0F172B" transform="translate(204,171)"/>
<path d="M0 0 C0 0.66 0 1.32 0 2 C0.66 2.33 1.32 2.66 2 3 C1.67 3.66 1.34 4.32 1 5 C0.01 4.67 -0.98 4.34 -2 4 C-2 3.34 -2 2.68 -2 2 C-3.32 1.67 -4.64 1.34 -6 1 C-3 0 -3 0 0 0 Z " fill="#2A3345" transform="translate(285,169)"/>
<path d="M0 0 C2.64 0 5.28 0 8 0 C8.33 0.66 8.66 1.32 9 2 C4.545 2.495 4.545 2.495 0 3 C0 2.01 0 1.02 0 0 Z " fill="#189FA5" transform="translate(326,141)"/>
<path d="M0 0 C1 3 1 3 0 6 C-0.66 6 -1.32 6 -2 6 C-2.33 6.66 -2.66 7.32 -3 8 C-3.36923077 3.44615385 -3.36923077 3.44615385 -1.5 1.1875 C-1.005 0.795625 -0.51 0.40375 0 0 Z " fill="#4F535F" transform="translate(190,135)"/>
</svg>
