<?xml version="1.0" encoding="UTF-8"?>
<svg version="1.1" xmlns="http://www.w3.org/2000/svg" width="500" height="500">
<path d="M0 0 C1.04534912 0.36351563 2.09069824 0.72703125 3.16772461 1.1015625 C5.291183 1.84562362 7.41208223 2.59703116 9.53027344 3.35595703 C12.30614922 4.3460641 15.09193259 5.29935855 17.8828125 6.24609375 C33.52247817 11.71817258 33.52247817 11.71817258 37.5625 19.4375 C39.69004581 24.61210316 39.86924547 29.18224059 39.86328125 34.68359375 C39.86756638 35.57176285 39.8718515 36.45993195 39.87626648 37.37501526 C39.88199486 39.25350089 39.88252106 41.13200871 39.87817383 43.01049805 C39.87504446 45.8348767 39.89838446 48.65817485 39.92382812 51.48242188 C39.97263085 64.88611717 39.54144737 78.43421513 33.125 90.5625 C32.78500977 91.21935791 32.44501953 91.87621582 32.09472656 92.55297852 C24.70037732 106.06088173 12.2603712 116.71283228 -1.4375 123.4375 C-1.44081015 124.48902913 -1.44412029 125.54055826 -1.44753075 126.62395191 C-1.52858871 152.23093556 -1.62092375 177.83785972 -1.72502708 203.44476032 C-1.77511099 215.82815127 -1.8215544 228.21153573 -1.859375 240.5949707 C-1.89235551 251.39059546 -1.93222019 262.1861693 -1.98029006 272.98173779 C-2.00549478 278.69585929 -2.02729382 284.40994727 -2.04084396 290.12410927 C-2.05371904 295.50767191 -2.07583189 300.89111926 -2.10488319 306.27461815 C-2.11391649 308.24536768 -2.11963922 310.21613576 -2.12171364 312.18690491 C-2.15291157 337.33472711 -2.15291157 337.33472711 -8.4375 348.4375 C-9.0975 348.4375 -9.7575 348.4375 -10.4375 348.4375 C-10.82228516 349.31921875 -10.82228516 349.31921875 -11.21484375 350.21875 C-14.98827223 357.06637739 -22.28159211 360.98312438 -29.4375 363.4375 C-35.96252898 365.11688768 -42.23829724 365.72903513 -48.95603943 365.69819641 C-50.31091157 365.70393473 -50.31091157 365.70393473 -51.69315487 365.70978898 C-54.69059836 365.7200281 -57.68784704 365.71614426 -60.68530273 365.7121582 C-62.84624405 365.71650967 -65.00718383 365.72169427 -67.16812134 365.72764587 C-73.01727225 365.74099929 -78.8663584 365.74161868 -84.71552157 365.73908257 C-89.60611776 365.73801052 -94.49670096 365.74290214 -99.38729435 365.747688 C-110.92788391 365.75877022 -122.46844091 365.75922761 -134.0090332 365.75317383 C-145.89922448 365.74713243 -157.78929747 365.75945228 -169.67946857 365.7807439 C-179.90396897 365.79837696 -190.12843178 365.80435862 -200.35294682 365.80110615 C-206.45260497 365.79929611 -212.55217871 365.80190183 -218.65182304 365.81582069 C-224.38845441 365.82842235 -230.12490167 365.8264327 -235.8615303 365.81340981 C-237.96130626 365.8110497 -240.06109527 365.81375832 -242.16085625 365.82203293 C-256.64477 365.87497511 -272.3992418 365.88257373 -283.69921875 355.32421875 C-295.30219098 342.56309403 -296.59972957 331.31816341 -296.56448364 314.67236328 C-296.56604363 313.52748003 -296.56760362 312.38259678 -296.56921089 311.2030201 C-296.57318186 307.38793759 -296.5700464 303.57289527 -296.56689453 299.7578125 C-296.56770047 297.01397622 -296.56999523 294.27014161 -296.57220459 291.52630615 C-296.57663983 284.86007376 -296.57569582 278.19385266 -296.57279195 271.52761984 C-296.57052908 266.10746258 -296.57022922 260.68730847 -296.57131577 255.26715088 C-296.571469 254.49429186 -296.57162223 253.72143284 -296.57178011 252.92515385 C-296.57209985 251.3548665 -296.57242406 249.78457916 -296.5727527 248.21429181 C-296.57560091 233.50656196 -296.5723308 218.79883834 -296.56695233 204.09110951 C-296.56248489 191.48456468 -296.56326101 178.87802905 -296.56787109 166.27148438 C-296.57322848 151.61462439 -296.57532628 136.95776987 -296.57225883 122.30090904 C-296.5719403 120.73655574 -296.57162593 119.17220243 -296.57131577 117.60784912 C-296.57116149 116.83825524 -296.57100721 116.06866137 -296.57084826 115.27574646 C-296.56998661 109.86516509 -296.57143842 104.45458719 -296.57379532 99.04400635 C-296.57660645 92.44594657 -296.57582739 85.84789868 -296.57051457 79.24984026 C-296.56789527 75.88657812 -296.56738513 72.52335208 -296.57016373 69.16008759 C-296.57290273 65.50758433 -296.56946045 61.85513646 -296.56448364 58.20263672 C-296.56671436 57.14912081 -296.56894509 56.0956049 -296.57124341 55.01016426 C-296.52487013 37.42121272 -296.52487013 37.42121272 -292.625 30.125 C-292.12355469 29.15949219 -291.62210937 28.19398437 -291.10546875 27.19921875 C-289.40474303 24.38326306 -287.63584131 21.88555148 -285.4375 19.4375 C-284.7775 19.4375 -284.1175 19.4375 -283.4375 19.4375 C-283.4375 18.7775 -283.4375 18.1175 -283.4375 17.4375 C-281.390625 16 -281.390625 16 -278.6875 14.4375 C-277.36492187 13.6640625 -277.36492187 13.6640625 -276.015625 12.875 C-275.16484375 12.400625 -274.3140625 11.92625 -273.4375 11.4375 C-272.81359375 11.06625 -272.1896875 10.695 -271.546875 10.3125 C-264.46076231 7.37307548 -255.96017093 8.26194179 -248.45922852 8.22875977 C-247.04262061 8.21920837 -245.62601497 8.20931667 -244.20941162 8.19911194 C-239.57843745 8.16789466 -234.94744617 8.14748867 -230.31640625 8.12890625 C-229.52671283 8.12560893 -228.7370194 8.12231161 -227.92339587 8.11891437 C-220.46898722 8.08815733 -213.01457421 8.06146969 -205.56012058 8.04449558 C-196.0474619 8.02257356 -186.53536624 7.98053059 -177.02293259 7.91105801 C-170.32038967 7.86377638 -163.61799855 7.83955716 -156.91529411 7.8322987 C-152.91752049 7.82735179 -148.92038373 7.81236173 -144.92279243 7.7725544 C-141.16241712 7.73559634 -137.4030402 7.72730741 -133.64251709 7.74056053 C-131.61390771 7.7404812 -129.58536674 7.71069563 -127.55699158 7.67987061 C-119.66512248 7.74252515 -115.06195037 8.78253774 -109.4375 14.4375 C-108.674375 15.11296875 -107.91125 15.7884375 -107.125 16.484375 C-106.568125 17.04640625 -106.01125 17.6084375 -105.4375 18.1875 C-104.86 18.75984375 -104.2825 19.3321875 -103.6875 19.921875 C-102.4375 21.4375 -102.4375 21.4375 -102.4375 23.4375 C-101.7775 23.4375 -101.1175 23.4375 -100.4375 23.4375 C-100.4375 24.0975 -100.4375 24.7575 -100.4375 25.4375 C-99.7775 25.4375 -99.1175 25.4375 -98.4375 25.4375 C-98.4375 26.0975 -98.4375 26.7575 -98.4375 27.4375 C-97.85484375 27.6953125 -97.2721875 27.953125 -96.671875 28.21875 C-94.2572097 29.53584017 -92.62009823 30.98838384 -90.6875 32.9375 C-90.07390625 33.5459375 -89.4603125 34.154375 -88.828125 34.78125 C-87.4375 36.4375 -87.4375 36.4375 -87.4375 38.4375 C-86.85484375 38.6953125 -86.2721875 38.953125 -85.671875 39.21875 C-83.2572097 40.53584017 -81.62009823 41.98838384 -79.6875 43.9375 C-79.07390625 44.5459375 -78.4603125 45.154375 -77.828125 45.78125 C-76.4375 47.4375 -76.4375 47.4375 -76.4375 49.4375 C-75.7775 49.4375 -75.1175 49.4375 -74.4375 49.4375 C-74.4375 50.0975 -74.4375 50.7575 -74.4375 51.4375 C-73.7775 51.4375 -73.1175 51.4375 -72.4375 51.4375 C-72.42348145 50.27347656 -72.42348145 50.27347656 -72.40917969 49.0859375 C-72.35516563 45.53583713 -72.27157697 41.98701052 -72.1875 38.4375 C-72.17332031 37.21675781 -72.15914062 35.99601562 -72.14453125 34.73828125 C-71.93461671 26.97144327 -71.51438916 20.69812172 -65.96873474 14.90254211 C-61.62010459 11.03461103 -57.5045283 8.90095977 -52.01953125 7.04296875 C-51.23986496 6.76528152 -50.46019867 6.4875943 -49.65690613 6.20149231 C-47.1928146 5.32800451 -44.72177676 4.47646224 -42.25 3.625 C-40.58088983 3.03589276 -38.91226464 2.44540951 -37.24414062 1.85351562 C-23.15712402 -3.11719297 -14.42854336 -5.1235244 0 0 Z M-20.92578125 16.046875 C-21.85487305 16.38775146 -22.78396484 16.72862793 -23.74121094 17.07983398 C-24.73411133 17.44536377 -25.72701172 17.81089355 -26.75 18.1875 C-33.93092787 20.81869293 -41.11090706 23.40017308 -48.390625 25.74609375 C-50.46851127 26.39573139 -50.46851127 26.39573139 -52.4375 27.4375 C-52.4872499 32.96930661 -52.52338418 38.50098052 -52.54736328 44.03295898 C-52.55736873 45.91156282 -52.57097733 47.79015129 -52.58837891 49.66870117 C-52.6128688 52.38203748 -52.6240379 55.09516638 -52.6328125 57.80859375 C-52.64313507 58.63709335 -52.65345764 59.46559296 -52.66409302 60.31919861 C-52.66641965 72.64299285 -48.74701929 84.64999243 -40.1875 93.7890625 C-33.26731778 100.307627 -24.92106689 108.0838509 -15 108.625 C-7.36139466 106.07879822 -0.22273853 102.06638073 5.5625 96.4375 C5.5625 95.7775 5.5625 95.1175 5.5625 94.4375 C6.2225 94.4375 6.8825 94.4375 7.5625 94.4375 C9.45462052 92.4549691 9.45462052 92.4549691 11.375 89.8125 C12.04144531 88.95398438 12.70789063 88.09546875 13.39453125 87.2109375 C21.30543217 74.47540958 21.20051719 62.02529011 20.875 47.5625 C20.8498602 45.60289336 20.82705717 43.64325529 20.80664062 41.68359375 C20.75215459 36.9341042 20.66620342 32.18615934 20.5625 27.4375 C15.45458871 25.58407632 10.34593585 23.73271717 5.23657227 21.88330078 C3.49710677 21.25334011 1.75784839 20.62280723 0.01879883 19.99169922 C-2.47521104 19.08672384 -4.96994895 18.18378241 -7.46484375 17.28125 C-8.24713852 16.99689087 -9.02943329 16.71253174 -9.83543396 16.41955566 C-14.82069744 14.61913295 -16.08225439 14.26126867 -20.92578125 16.046875 Z M-273.83314514 35.3088007 C-275.08761581 37.37202262 -275.08761581 37.37202262 -276.4375 40.4375 C-276.7675 41.0975 -277.0975 41.7575 -277.4375 42.4375 C-277.53370529 44.01609669 -277.56667194 45.59873198 -277.56892776 47.18025589 C-277.57276891 48.18723912 -277.57661005 49.19422234 -277.5805676 50.23172021 C-277.57970112 51.34628587 -277.57883463 52.46085152 -277.57794189 53.60919189 C-277.58091302 54.78681398 -277.58388414 55.96443607 -277.5869453 57.17774367 C-277.59414088 60.45670449 -277.5968058 63.73563346 -277.59754276 67.01460099 C-277.59939043 70.5470986 -277.60693636 74.07958478 -277.61367798 77.61207581 C-277.62727428 85.341451 -277.63328818 93.07082102 -277.63768864 100.80020618 C-277.64044916 105.62487969 -277.64468619 110.44955118 -277.64919281 115.27422333 C-277.66138772 128.62736511 -277.67168624 141.98050527 -277.6750679 155.3336525 C-277.67528747 156.18871253 -277.67550703 157.04377257 -277.67573325 157.92474352 C-277.67595153 158.78187453 -277.67616981 159.63900554 -277.6763947 160.52211022 C-277.67683817 162.25904354 -277.67728473 163.99597685 -277.67773438 165.73291016 C-277.6779558 166.59449296 -277.67817723 167.45607576 -277.67840537 168.34376714 C-277.68235325 182.3040746 -277.69980596 196.26432986 -277.7230939 210.22461715 C-277.74679997 224.55100874 -277.75926943 238.87737413 -277.76043582 253.20378566 C-277.76135306 261.2500955 -277.76711755 269.29633735 -277.78525543 277.34262848 C-277.80064647 284.19463992 -277.80578285 291.04656236 -277.79751733 297.89858779 C-277.79360711 301.39502214 -277.79455832 304.89127723 -277.80857468 308.38768959 C-277.82121849 312.17790648 -277.81545809 315.96766034 -277.80499268 319.75787354 C-277.81304908 320.8635163 -277.82110548 321.96915907 -277.82940602 323.10830617 C-277.78335643 330.21795986 -276.89791145 334.6533502 -272.0625 340.125 C-265.21432695 346.15791435 -259.28400768 346.5874133 -250.53128052 346.57121277 C-249.63356583 346.57347833 -248.73585115 346.57574388 -247.81093299 346.57807809 C-244.80249043 346.5844088 -241.79409302 346.58358932 -238.78564453 346.58276367 C-236.62880393 346.58575573 -234.47196387 346.58915836 -232.31512451 346.59294128 C-226.45563046 346.60178042 -220.59615101 346.60411935 -214.73665094 346.60475707 C-209.8459323 346.60570642 -204.95521707 346.60938499 -200.06449974 346.61292917 C-188.52655927 346.62107329 -176.9886266 346.62351343 -165.45068359 346.62280273 C-153.54634336 346.62220184 -141.64204842 346.63275619 -129.73771966 346.6485464 C-119.51848357 346.66161872 -109.2992623 346.66698676 -99.08001792 346.66634732 C-92.97595813 346.66609226 -86.87193859 346.66894814 -80.76788712 346.67952538 C-75.02726754 346.68920121 -69.28672677 346.68928902 -63.54610443 346.68200874 C-61.43981435 346.68096229 -59.33351938 346.68332939 -57.2272377 346.6893692 C-54.35062793 346.69708337 -51.47429065 346.69244803 -48.59768677 346.68473816 C-47.76547863 346.68988172 -46.93327049 346.69502529 -46.07584393 346.70032471 C-38.55468233 346.65582105 -32.43299577 345.23389661 -26.4375 340.4375 C-21.50670284 334.13703696 -20.13376239 328.34113652 -20.19699097 320.46487427 C-20.19528212 319.67978922 -20.19357327 318.89470417 -20.19181263 318.08582866 C-20.18852805 315.46484001 -20.19950436 312.84410946 -20.21044922 310.22314453 C-20.21101356 308.34051011 -20.21069633 306.45787525 -20.20956421 304.57524109 C-20.20899057 299.47034866 -20.2207467 294.3655503 -20.23471212 289.26067972 C-20.24721763 283.92353702 -20.24838984 278.58639215 -20.25076294 273.24923706 C-20.25697823 263.14524062 -20.27338974 253.04128748 -20.29346192 242.9373101 C-20.31581937 231.43316373 -20.32681397 219.92901529 -20.33685279 208.42485261 C-20.3577559 184.76237774 -20.39293286 161.0999413 -20.4375 137.4375 C-21.39248383 137.44638245 -22.34746765 137.45526489 -23.33139038 137.4644165 C-32.36392042 137.54576511 -41.39637541 137.60559091 -50.42918968 137.64474869 C-55.07225273 137.66555746 -59.71501828 137.69375132 -64.35791016 137.73925781 C-68.84481322 137.78295647 -73.33143147 137.80668749 -77.81853104 137.81700897 C-79.52403873 137.82435748 -81.22953215 137.83870675 -82.93491745 137.86042023 C-94.66579438 138.00374031 -103.33182852 136.75354467 -113.4375 130.4375 C-114.0975 130.4375 -114.7575 130.4375 -115.4375 130.4375 C-115.4375 129.7775 -115.4375 129.1175 -115.4375 128.4375 C-116.0975 128.4375 -116.7575 128.4375 -117.4375 128.4375 C-117.4375 127.7775 -117.4375 127.1175 -117.4375 126.4375 C-118.0975 126.4375 -118.7575 126.4375 -119.4375 126.4375 C-119.4375 125.7775 -119.4375 125.1175 -119.4375 124.4375 C-120.0975 124.4375 -120.7575 124.4375 -121.4375 124.4375 C-121.685 123.7775 -121.9325 123.1175 -122.1875 122.4375 C-123.30197549 119.59914338 -123.30197549 119.59914338 -124.42578125 117.67578125 C-129.66530487 108.28274437 -128.60597565 97.36816915 -128.69786072 86.89146233 C-128.71913857 84.48336771 -128.74612784 82.0753941 -128.77453613 79.66737366 C-128.84384893 73.69941384 -128.9040069 67.73136969 -128.96356201 61.76330566 C-129.01441538 56.69290482 -129.06914378 51.6225769 -129.12937927 46.55227852 C-129.15598169 44.17630782 -129.1767621 41.80033015 -129.1973877 39.42430115 C-129.21397717 37.98069928 -129.2308478 36.5371006 -129.24804688 35.09350586 C-129.26057495 33.82905136 -129.27310303 32.56459686 -129.28601074 31.26182556 C-129.11679588 28.53546448 -129.11679588 28.53546448 -130.4375 27.4375 C-132.13779477 27.32820699 -133.84262587 27.28896226 -135.54638672 27.27687073 C-136.65383743 27.2668251 -137.76128815 27.25677948 -138.90229797 27.24642944 C-140.12821152 27.24059845 -141.35412506 27.23476746 -142.6171875 27.22875977 C-143.90010178 27.21897598 -145.18301605 27.2091922 -146.50480652 27.19911194 C-150.77400672 27.1676596 -155.04322674 27.14744294 -159.3125 27.12890625 C-160.03898113 27.12560893 -160.76546227 27.12231161 -161.51395798 27.11891437 C-168.36810804 27.08811435 -175.22226244 27.06140818 -182.07646179 27.04449558 C-190.83894071 27.02262151 -199.6008042 26.9807398 -208.36303711 26.91105801 C-214.52535146 26.86372273 -220.68750044 26.83954882 -226.84999084 26.8322987 C-230.52876991 26.82735375 -234.20685636 26.81238734 -237.88543701 26.7725544 C-241.99821741 26.72861155 -246.10964841 26.73260583 -250.22265625 26.74047852 C-252.03723579 26.7104776 -252.03723579 26.7104776 -253.88847351 26.67987061 C-262.1140214 26.75042882 -268.70497332 28.43287557 -273.83314514 35.3088007 Z M-111.4375 40.4375 C-111.53055875 48.36579932 -111.60144514 56.29386693 -111.64474869 64.222579 C-111.665542 67.90501258 -111.69370588 71.58706997 -111.73925781 75.26928711 C-111.78301408 78.82900198 -111.80669905 82.38835714 -111.81700897 85.94832039 C-111.82789642 87.95398459 -111.85907424 89.95950594 -111.89068604 91.96495056 C-111.89265718 100.05900986 -111.37014942 107.08762994 -105.7456665 113.30882263 C-98.53337482 120.27862671 -89.97571934 119.71505783 -80.50390625 119.6328125 C-78.65429543 119.62856766 -78.65429543 119.62856766 -76.76731873 119.62423706 C-72.84477875 119.6130786 -68.9224705 119.58798151 -65 119.5625 C-62.33398772 119.55133396 -59.66797761 119.54333976 -57.00195312 119.53515625 C-50.48039023 119.51315341 -43.95896168 119.47971878 -37.4375 119.4375 C-38.20408936 118.82720947 -38.97067871 118.21691895 -39.76049805 117.58813477 C-49.1204359 110.06860056 -58.20082815 102.03348141 -63.59455872 91.08988953 C-67.38371837 83.521264 -72.14363062 78.05334676 -78.17578125 72.17578125 C-79.09715378 71.25911179 -80.01852631 70.34244232 -80.96781921 69.397995 C-83.38768333 66.99138606 -85.82258187 64.60057356 -88.26080322 62.21258545 C-90.2609535 60.24817703 -92.24959637 58.27233235 -94.23788166 56.29592609 C-98.33454712 52.22470423 -102.43963507 48.16184801 -106.5637207 44.1184082 C-107.28952835 43.40546097 -108.015336 42.69251373 -108.76313782 41.95796204 C-110.1839349 40.32545588 -110.1839349 40.32545588 -111.4375 40.4375 Z " fill="#1C263D" transform="translate(378.4375,73.5625)"/>
<path d="M0 0 C1.04534912 0.36351563 2.09069824 0.72703125 3.16772461 1.1015625 C5.291183 1.84562362 7.41208223 2.59703116 9.53027344 3.35595703 C12.30614922 4.3460641 15.09193259 5.29935855 17.8828125 6.24609375 C33.52247817 11.71817258 33.52247817 11.71817258 37.5625 19.4375 C39.69004581 24.61210316 39.86924547 29.18224059 39.86328125 34.68359375 C39.86756638 35.57176285 39.8718515 36.45993195 39.87626648 37.37501526 C39.88199486 39.25350089 39.88252106 41.13200871 39.87817383 43.01049805 C39.87504446 45.8348767 39.89838446 48.65817485 39.92382812 51.48242188 C39.97263085 64.88611717 39.54144737 78.43421513 33.125 90.5625 C32.78500977 91.21935791 32.44501953 91.87621582 32.09472656 92.55297852 C24.66573754 106.12416123 12.25358123 116.59195938 -1.4375 123.4375 C-1.7675 191.4175 -2.0975 259.3975 -2.4375 329.4375 C-2.7675 329.4375 -3.0975 329.4375 -3.4375 329.4375 C-3.7675 262.1175 -4.0975 194.7975 -4.4375 125.4375 C-5.0975 125.1075 -5.7575 124.7775 -6.4375 124.4375 C-7.30375 124.746875 -8.17 125.05625 -9.0625 125.375 C-17.03011478 127.88332317 -22.29060324 126.12956907 -29.4375 122.4375 C-32.16334343 121.07457828 -34.34518095 121.29017512 -37.39672852 121.26391602 C-38.64885635 121.25042618 -39.90098419 121.23693634 -41.1910553 121.22303772 C-41.86272295 121.21797777 -42.5343906 121.21291782 -43.22641182 121.20770454 C-45.33364155 121.19127184 -47.44069453 121.16802768 -49.5478363 121.14280701 C-55.54002004 121.0721336 -61.53228014 121.01223582 -67.5246582 120.96069336 C-71.19050258 120.92868274 -74.85615009 120.88734207 -78.52183342 120.84049797 C-79.91269276 120.82459525 -81.30359747 120.81222033 -82.69452095 120.80359077 C-91.43007171 120.74866018 -99.11161411 120.2127953 -107.4375 117.4375 C-107.4375 115.4575 -107.4375 113.4775 -107.4375 111.4375 C-106.84582031 111.85902344 -106.25414062 112.28054687 -105.64453125 112.71484375 C-104.85433594 113.26269531 -104.06414062 113.81054688 -103.25 114.375 C-102.47269531 114.92027344 -101.69539063 115.46554688 -100.89453125 116.02734375 C-96.72949627 118.41776923 -92.64205072 118.56210082 -87.9128418 118.55102539 C-86.83209885 118.55094986 -85.7513559 118.55087433 -84.63786316 118.55079651 C-83.4824855 118.54563522 -82.32710785 118.54047394 -81.13671875 118.53515625 C-79.94520706 118.5337413 -78.75369537 118.53232635 -77.52607727 118.53086853 C-73.72569249 118.52527728 -69.92536693 118.51272632 -66.125 118.5 C-63.54622481 118.49498387 -60.9674487 118.49042116 -58.38867188 118.48632812 C-52.07159443 118.47531071 -45.75455145 118.45858122 -39.4375 118.4375 C-40.44852783 117.63542114 -40.44852783 117.63542114 -41.47998047 116.81713867 C-42.37088379 116.1079126 -43.26178711 115.39868652 -44.1796875 114.66796875 C-45.05995605 113.96824951 -45.94022461 113.26853027 -46.84716797 112.54760742 C-55.51753801 105.48464717 -61.006282 97.47510408 -66.39758301 87.69604492 C-69.95890238 81.55119613 -74.6318643 76.8581929 -79.67578125 71.90625 C-80.55654831 71.02972778 -81.43731537 70.15320557 -82.34477234 69.25012207 C-85.13950864 66.47208117 -87.9445303 63.70469688 -90.75 60.9375 C-92.65583766 59.04842496 -94.55939306 57.15705761 -96.46289062 55.265625 C-101.11321627 50.6482474 -105.77201525 46.03955736 -110.4375 41.4375 C-110.46071424 49.28728215 -110.4784613 57.13705619 -110.48931217 64.98686409 C-110.49452116 68.63220562 -110.50158265 72.27752359 -110.51293945 75.92285156 C-110.523839 79.44361476 -110.52979178 82.96435535 -110.53237724 86.48513412 C-110.53511236 88.47586564 -110.54291313 90.46658812 -110.55079651 92.45730591 C-110.55087204 93.67811859 -110.55094757 94.89893127 -110.55102539 96.15673828 C-110.553246 97.22707306 -110.55546661 98.29740784 -110.55775452 99.400177 C-110.43548739 102.48833351 -110.01105526 105.40340813 -109.4375 108.4375 C-110.7575 108.1075 -112.0775 107.7775 -113.4375 107.4375 C-113.19351219 106.64614655 -113.19351219 106.64614655 -112.94459534 105.83880615 C-112.313327 102.84948947 -112.3180507 100.07334118 -112.32397461 97.01660156 C-112.32405014 95.71555481 -112.32412567 94.41450806 -112.32420349 93.07403564 C-112.32930976 91.65873171 -112.33452575 90.24342816 -112.33984375 88.828125 C-112.34170965 87.37652637 -112.34313274 85.92492712 -112.34413147 84.47332764 C-112.34794312 80.65930431 -112.35776185 76.84531927 -112.36883545 73.03131104 C-112.37907865 69.13676471 -112.38363532 65.24221217 -112.38867188 61.34765625 C-112.39938535 53.71092007 -112.41644551 46.07421541 -112.4375 38.4375 C-109.07750982 39.89618754 -106.88546894 41.74618948 -104.31152344 44.33642578 C-103.51099548 45.1371048 -102.71046753 45.93778381 -101.88568115 46.76272583 C-101.03137512 47.62735443 -100.17706909 48.49198303 -99.296875 49.3828125 C-98.41469299 50.2678244 -97.53251099 51.1528363 -96.62359619 52.06466675 C-94.28555457 54.41200131 -91.95194126 56.76356785 -89.62036133 59.11730957 C-87.23753474 61.52063927 -84.84899652 63.91827767 -82.4609375 66.31640625 C-77.78118138 71.01821467 -73.10718133 75.72568664 -68.4375 80.4375 C-68.64869225 79.09517052 -68.64869225 79.09517052 -68.864151 77.72572327 C-69.13841164 75.96668922 -69.13841164 75.96668922 -69.41821289 74.17211914 C-69.60025772 73.00910782 -69.78230255 71.8460965 -69.96986389 70.64784241 C-70.58396684 66.43199869 -70.81725959 62.24773164 -70.99609375 57.99609375 C-71.50098399 55.06951761 -72.49303439 53.64122769 -74.4375 51.4375 C-73.7775 51.4375 -73.1175 51.4375 -72.4375 51.4375 C-72.4281543 50.66148438 -72.41880859 49.88546875 -72.40917969 49.0859375 C-72.35516563 45.53583713 -72.27157697 41.98701052 -72.1875 38.4375 C-72.17332031 37.21675781 -72.15914063 35.99601562 -72.14453125 34.73828125 C-71.93461671 26.97144327 -71.51438916 20.69812172 -65.96873474 14.90254211 C-61.62010459 11.03461103 -57.5045283 8.90095977 -52.01953125 7.04296875 C-51.23986496 6.76528152 -50.46019867 6.4875943 -49.65690613 6.20149231 C-47.1928146 5.32800451 -44.72177676 4.47646224 -42.25 3.625 C-40.58088983 3.03589276 -38.91226464 2.44540951 -37.24414062 1.85351562 C-23.15712402 -3.11719297 -14.42854336 -5.1235244 0 0 Z M-20.92578125 16.046875 C-21.85487305 16.38775146 -22.78396484 16.72862793 -23.74121094 17.07983398 C-24.73411133 17.44536377 -25.72701172 17.81089355 -26.75 18.1875 C-33.93092787 20.81869293 -41.11090706 23.40017308 -48.390625 25.74609375 C-50.46851127 26.39573139 -50.46851127 26.39573139 -52.4375 27.4375 C-52.4872499 32.96930661 -52.52338418 38.50098052 -52.54736328 44.03295898 C-52.55736873 45.91156282 -52.57097733 47.79015129 -52.58837891 49.66870117 C-52.6128688 52.38203748 -52.6240379 55.09516638 -52.6328125 57.80859375 C-52.64313507 58.63709335 -52.65345764 59.46559296 -52.66409302 60.31919861 C-52.66641965 72.64299285 -48.74701929 84.64999243 -40.1875 93.7890625 C-33.26731778 100.307627 -24.92106689 108.0838509 -15 108.625 C-7.36139466 106.07879822 -0.22273853 102.06638073 5.5625 96.4375 C5.5625 95.7775 5.5625 95.1175 5.5625 94.4375 C6.2225 94.4375 6.8825 94.4375 7.5625 94.4375 C9.45462052 92.4549691 9.45462052 92.4549691 11.375 89.8125 C12.04144531 88.95398438 12.70789063 88.09546875 13.39453125 87.2109375 C21.30543217 74.47540958 21.20051719 62.02529011 20.875 47.5625 C20.8498602 45.60289336 20.82705717 43.64325529 20.80664062 41.68359375 C20.75215459 36.9341042 20.66620342 32.18615934 20.5625 27.4375 C15.45458871 25.58407632 10.34593585 23.73271717 5.23657227 21.88330078 C3.49710677 21.25334011 1.75784839 20.62280723 0.01879883 19.99169922 C-2.47521104 19.08672384 -4.96994895 18.18378241 -7.46484375 17.28125 C-8.24713852 16.99689087 -9.02943329 16.71253174 -9.83543396 16.41955566 C-14.82069744 14.61913295 -16.08225439 14.26126867 -20.92578125 16.046875 Z " fill="#21AEAC" transform="translate(378.4375,73.5625)"/>
<path d="M0 0 C2.875 2.4375 2.875 2.4375 5 5 C5.33 5.33 5.66 5.66 6 6 C6.13813757 8.46246899 6.2130969 10.89491398 6.23828125 13.359375 C6.246353 14.10076721 6.25442474 14.84215942 6.26274109 15.60601807 C6.27659884 17.17970429 6.2873134 18.75342079 6.29516602 20.32714844 C6.31233186 22.72649892 6.35619364 25.12445454 6.40039062 27.5234375 C6.41052154 29.05207319 6.4190364 30.58072062 6.42578125 32.109375 C6.44328934 32.82414001 6.46079742 33.53890503 6.47883606 34.27532959 C6.4631325 37.90979723 6.08990482 39.86104989 4.09619141 42.94238281 C1.33310824 45.65461959 -0.30337117 45.89349253 -4.03515625 46.13671875 C-7.04261638 45.92745214 -8.72971781 44.93641716 -11 43 C-14.4225553 37.89279443 -13.33325309 31.2122163 -13.31567383 25.30102539 C-13.31251522 23.07323215 -13.3359834 20.84676972 -13.36132812 18.61914062 C-13.36360154 17.19531417 -13.36430442 15.77148416 -13.36328125 14.34765625 C-13.36626221 13.05867432 -13.36924316 11.76969238 -13.37231445 10.44165039 C-12.97388031 6.75855126 -12.24064763 4.91491203 -10 2 C-6.24952518 -0.50031654 -4.44143734 -0.53603554 0 0 Z " fill="#1DAEB1" transform="translate(366,99)"/>
<path d="M0 0 C-0.598125 0.226875 -1.19625 0.45375 -1.8125 0.6875 C-4.20020551 1.8786997 -4.20020551 1.8786997 -5.4375 4.5 C-7.35353492 7.56565587 -8.6640661 7.80859504 -12 9 C-14.83333333 10.58333333 -14.83333333 10.58333333 -17 13 C-17.41434251 15.32031805 -17.74889902 17.65639085 -18 20 C-19.4375 22.4375 -19.4375 22.4375 -21 24 C-21.66 24 -22.32 24 -23 24 C-23.02287589 61.00359159 -23.04050308 98.00718211 -23.05106533 135.01077934 C-23.05231608 139.37681514 -23.05361039 143.74285093 -23.05493164 148.10888672 C-23.05519395 148.97810638 -23.05545626 149.84732603 -23.05572652 150.74288568 C-23.06008091 164.82751346 -23.0679672 178.91213718 -23.0771528 192.99676254 C-23.08649574 207.44286013 -23.09205697 221.88895558 -23.09408849 236.33505607 C-23.09546238 245.2530782 -23.09980577 254.17108883 -23.10791647 263.08910742 C-23.11319182 269.19987415 -23.11480249 275.3106349 -23.11350138 281.42140374 C-23.11285924 284.94992146 -23.11386157 288.47841904 -23.11920547 292.00693321 C-23.12495104 295.82846187 -23.12299441 299.64996407 -23.12025452 303.47149658 C-23.12316736 304.59211117 -23.1260802 305.71272576 -23.12908131 306.86729836 C-23.12709026 307.88893067 -23.12509921 308.91056298 -23.12304783 309.96315384 C-23.12342755 310.84562389 -23.12380727 311.72809393 -23.1241985 312.6373055 C-23.07942099 314.97562817 -23.07942099 314.97562817 -22.46496576 317.08042789 C-21.72543202 320.13353085 -22.47130374 322.94531049 -23 326 C-27.59468185 321.40531815 -26.11746727 311.60072167 -26.13374341 305.42733574 C-26.13151268 304.37381983 -26.12928196 303.32030392 -26.12698364 302.23486328 C-26.12854363 301.08998003 -26.13010362 299.94509678 -26.13171089 298.7655201 C-26.13568186 294.95043759 -26.1325464 291.13539527 -26.12939453 287.3203125 C-26.13020047 284.57647622 -26.13249523 281.83264161 -26.13470459 279.08880615 C-26.13913983 272.42257376 -26.13819582 265.75635266 -26.13529195 259.09011984 C-26.13302908 253.66996258 -26.13272922 248.24980847 -26.13381577 242.82965088 C-26.133969 242.05679186 -26.13412223 241.28393284 -26.13428011 240.48765385 C-26.13459985 238.9173665 -26.13492406 237.34707916 -26.1352527 235.77679181 C-26.13810091 221.06906196 -26.1348308 206.36133834 -26.12945233 191.65360951 C-26.12498489 179.04706468 -26.12576101 166.44052905 -26.13037109 153.83398438 C-26.13572848 139.17712439 -26.13782628 124.52026987 -26.13475883 109.86340904 C-26.1344403 108.29905574 -26.13412593 106.73470243 -26.13381577 105.17034912 C-26.13366149 104.40075524 -26.13350721 103.63116137 -26.13334826 102.83824646 C-26.13248661 97.42766509 -26.13393842 92.01708719 -26.13629532 86.60650635 C-26.13910645 80.00844657 -26.13832739 73.41039868 -26.13301457 66.81234026 C-26.13039527 63.44907812 -26.12988513 60.08585208 -26.13266373 56.72258759 C-26.13540273 53.07008433 -26.13196045 49.41763646 -26.12698364 45.76513672 C-26.12921436 44.71162081 -26.13144509 43.6581049 -26.13374341 42.57266426 C-26.08737013 24.98371272 -26.08737013 24.98371272 -22.1875 17.6875 C-21.68605469 16.72199219 -21.18460937 15.75648437 -20.66796875 14.76171875 C-18.96724303 11.94576306 -17.19834131 9.44805148 -15 7 C-14.34 7 -13.68 7 -13 7 C-13 6.34 -13 5.68 -13 5 C-10.91796875 3.45703125 -10.91796875 3.45703125 -8.1875 1.8125 C-7.29417969 1.26207031 -6.40085937 0.71164063 -5.48046875 0.14453125 C-3 -1 -3 -1 0 0 Z " fill="#BABDC2" transform="translate(108,86)"/>
<path d="M0 0 C0.88751953 0.63228516 0.88751953 0.63228516 1.79296875 1.27734375 C2.58316406 1.82519531 3.37335938 2.37304688 4.1875 2.9375 C4.96480469 3.48277344 5.74210937 4.02804688 6.54296875 4.58984375 C10.74149113 6.99948855 14.94089795 7.12999162 19.70825195 7.20532227 C20.82903641 7.22526749 21.94982086 7.24521271 23.10456848 7.26576233 C24.3036937 7.28247482 25.50281891 7.29918732 26.73828125 7.31640625 C27.97418503 7.33718735 29.21008881 7.35796844 30.48344421 7.37937927 C33.75652126 7.43359931 37.0296274 7.48387578 40.30279541 7.53222656 C43.6478826 7.5826157 46.99287724 7.63828816 50.33789062 7.69335938 C56.89185771 7.80035943 63.44589013 7.90215892 70 8 C69.01 6.02 69.01 6.02 68 4 C72.13275743 5.05517211 75.78165317 6.32698537 79.625 8.1875 C82.58564552 9.55901271 83.73628897 10.02152743 87.0625 9.75 C87.701875 9.5025 88.34125 9.255 89 9 C89.99 10.98 89.99 10.98 91 13 C91.99 12.67 92.98 12.34 94 12 C94.391875 11.154375 94.78375 10.30875 95.1875 9.4375 C95.785625 8.633125 96.38375 7.82875 97 7 C99.09692999 6.70985874 100.95867542 6.80835189 103.0625 7.01953125 C105.33219812 7.17307363 105.33219812 7.17307363 108 5 C108.680625 4.87625 109.36125 4.7525 110.0625 4.625 C112.20668205 4.16676943 112.20668205 4.16676943 113.25 1.9375 C113.62125 0.9784375 113.62125 0.9784375 114 0 C114.66 0 115.32 0 116 0 C116 0.66 116 1.32 116 2 C115.34 2 114.68 2 114 2 C113.979375 2.9075 113.95875 3.815 113.9375 4.75 C113.4734375 6.35875 113.4734375 6.35875 113 8 C111.26571322 8.83371691 111.26571322 8.83371691 109.49639034 9.68427658 C107.56613872 10.6488288 107.56613872 10.6488288 106 12 C105.26642619 15.10290174 105.05527546 17.19071355 105.12025452 20.30157471 C105.10515773 21.56851894 105.10515773 21.56851894 105.08975595 22.861058 C105.06447743 25.69634263 105.08915614 28.52899722 105.11352539 31.36425781 C105.10563905 33.39439252 105.09467988 35.42451729 105.08087158 37.45462036 C105.05208669 42.97101843 105.06640713 48.48657036 105.08831334 54.00296879 C105.10391928 59.76594162 105.08009686 65.52874615 105.06040955 71.29168701 C105.02913633 82.20685302 105.03345824 93.12170488 105.05048412 104.03689075 C105.06813914 116.46244655 105.04624133 128.88783337 105.02097714 141.31336451 C104.96989111 166.87563246 104.96861876 192.43770971 105 218 C104.67 218 104.34 218 104 218 C103.67 150.68 103.34 83.36 103 14 C102.01 13.505 102.01 13.505 101 13 C100.13375 13.309375 99.2675 13.61875 98.375 13.9375 C90.40738522 16.44582317 85.14689676 14.69206907 78 11 C75.27415657 9.63707828 73.09231905 9.85267512 70.04077148 9.82641602 C68.78864365 9.81292618 67.53651581 9.79943634 66.2464447 9.78553772 C65.57477705 9.78047777 64.9031094 9.77541782 64.21108818 9.77020454 C62.10385845 9.75377184 59.99680547 9.73052768 57.8896637 9.70530701 C51.89747996 9.6346336 45.90521986 9.57473582 39.9128418 9.52319336 C36.24699742 9.49118274 32.58134991 9.44984207 28.91566658 9.40299797 C27.52480724 9.38709525 26.13390253 9.37472033 24.74297905 9.36609077 C16.00742829 9.31116018 8.32588589 8.7752953 0 6 C0 4.02 0 2.04 0 0 Z " fill="#CDE0EE" transform="translate(271,185)"/>
<path d="M0 0 C3.125 0.375 3.125 0.375 6 1 C-0.55569438 5.37046292 -8.8876342 5.29492923 -16.55891418 5.24723816 C-17.46639568 5.24965257 -18.37387717 5.25206699 -19.3088581 5.25455457 C-22.32032 5.2601469 -25.33156553 5.25156259 -28.34301758 5.24291992 C-30.5136928 5.24399388 -32.68436774 5.24593425 -34.8550415 5.24867249 C-40.72859321 5.25350434 -46.6020685 5.24588684 -52.47561097 5.23571944 C-58.62718759 5.22691575 -64.77876199 5.22869681 -70.93034363 5.2290802 C-81.25394973 5.22814487 -91.57752636 5.21947682 -101.90112305 5.20581055 C-113.83911021 5.19006564 -125.77706517 5.18481324 -137.71506196 5.1855461 C-150.42929342 5.18622121 -163.14351245 5.17928424 -175.85774016 5.1700995 C-179.52139505 5.16796767 -183.18504793 5.16725826 -186.84870338 5.16686058 C-192.60003973 5.16585692 -198.35134898 5.15975839 -204.10267639 5.14969444 C-206.21464561 5.14677134 -208.32661794 5.14554369 -210.4385891 5.14612198 C-213.3177563 5.14661206 -216.19684742 5.14096299 -219.07600403 5.13371277 C-220.33377528 5.13603567 -220.33377528 5.13603567 -221.61695606 5.1384055 C-225.54584103 5.12202989 -229.1636972 4.97108559 -233 4 C-233 3.67 -233 3.34 -233 3 C-231.81133142 2.99668985 -230.62266285 2.99337971 -229.39797401 2.98996925 C-201.20461831 2.91101413 -173.01130857 2.82181814 -144.81802622 2.71994839 C-141.35068963 2.70742897 -137.88335272 2.69499628 -134.41601562 2.68261719 C-133.72570823 2.68015119 -133.03540084 2.6776852 -132.32417504 2.67514448 C-121.13521538 2.63538103 -109.94624557 2.6026496 -98.75725634 2.57250018 C-87.28306859 2.54142639 -75.80893054 2.50268547 -64.33478963 2.45720994 C-57.8871011 2.4319006 -51.43944332 2.41013253 -44.99171829 2.39665604 C-38.92940745 2.3838758 -32.86720188 2.36186549 -26.80494881 2.33261681 C-24.57402111 2.3235093 -22.34307645 2.31784347 -20.11213112 2.31578636 C-17.07802033 2.31248613 -14.04421211 2.29707 -11.01016235 2.2784729 C-9.67068729 2.281375 -9.67068729 2.281375 -8.30415213 2.28433573 C-3.6717483 2.45901946 -3.6717483 2.45901946 0 0 Z " fill="#BFC1C8" transform="translate(346,434)"/>
<path d="M0 0 C-0.33 0.99 -0.66 1.98 -1 3 C-3.0625 3.6875 -3.0625 3.6875 -5 4 C-5.33 5.32 -5.66 6.64 -6 8 C-8.97 7.505 -8.97 7.505 -12 7 C-12.33 7.66 -12.66 8.32 -13 9 C-13.99 9.66 -14.98 10.32 -16 11 C-16.25030977 13.58380177 -16.25030977 13.58380177 -16 16 C-16.7425 16.12375 -17.485 16.2475 -18.25 16.375 C-20.81448542 16.9578376 -22.69166512 17.78664449 -25 19 C-24.98839844 20.03640625 -24.97679687 21.0728125 -24.96484375 22.140625 C-24.95546163 23.51041486 -24.94636188 24.88020668 -24.9375 26.25 C-24.92912109 26.93191406 -24.92074219 27.61382812 -24.91210938 28.31640625 C-24.89551686 31.73446365 -25.13384269 34.70860222 -26 38 C-25.91183636 40.1421654 -25.91183636 40.1421654 -25.5625 42.25 C-25.376875 43.4875 -25.19125 44.725 -25 46 C-25.99 46.495 -25.99 46.495 -27 47 C-28.13350534 49.01669827 -28.13350534 49.01669827 -29 51 C-30.32 49.35 -31.64 47.7 -33 46 C-32.34 46 -31.68 46 -31 46 C-30.98598145 44.83597656 -30.98598145 44.83597656 -30.97167969 43.6484375 C-30.91766563 40.09833713 -30.83407697 36.54951052 -30.75 33 C-30.73582031 31.77925781 -30.72164063 30.55851562 -30.70703125 29.30078125 C-30.47084397 20.56185181 -29.394746 14.42873071 -23.25 7.875 C-17.94429688 3.65138107 -6.55238816 -2.18412939 0 0 Z " fill="#1EA4D4" transform="translate(337,79)"/>
<path d="M0 0 C41.085 0.495 41.085 0.495 83 1 C83.0676472 26.52068702 83.12294104 52.04130177 83.15543652 77.56205559 C83.17092387 89.41103188 83.19204899 101.25994863 83.22631836 113.10888672 C83.25616362 123.43304613 83.2755614 133.75716244 83.28226548 144.0813638 C83.28618602 149.55100979 83.29543842 155.02053244 83.31719017 160.49013901 C83.33747842 165.63317275 83.3438494 170.77603176 83.33932304 175.91910172 C83.34015169 177.81141355 83.34616276 179.70373094 83.35761642 181.5960083 C83.37244091 184.17041469 83.36899079 186.74415263 83.36076355 189.318573 C83.36950207 190.07537318 83.3782406 190.83217336 83.38724393 191.61190689 C83.36914349 193.6928997 83.36914349 193.6928997 83 197 C82.01 197.66 81.02 198.32 80 199 C80.16173675 198.17443541 80.32347349 197.34887081 80.49011135 196.49828911 C81.05036862 192.65442651 81.15299699 188.9013204 81.15821838 185.02737427 C81.16315636 184.24228922 81.16809434 183.45720417 81.17318195 182.64832866 C81.18849455 180.027436 81.19690059 177.40656771 81.20532227 174.78564453 C81.2149057 172.90300789 81.22491605 171.02037337 81.23532104 169.13774109 C81.26232576 164.03290095 81.28335931 158.9280516 81.30332303 153.82317972 C81.32520995 148.48601516 81.35258539 143.14887883 81.37937927 137.81173706 C81.42926958 127.70777686 81.47422199 117.60380096 81.51740164 107.4998101 C81.56680531 95.99563903 81.62171183 84.49149628 81.67708123 72.98735261 C81.79084505 49.32492817 81.89769628 25.66247656 82 2 C80.54753876 2.02878487 80.54753876 2.02878487 79.06573486 2.05815125 C69.9432137 2.2369439 60.8205288 2.39965125 51.69743729 2.54658794 C47.00708325 2.62264864 42.31697107 2.70438627 37.62695312 2.79907227 C33.10135835 2.8902303 28.57573551 2.96650925 24.04970551 3.03244972 C22.3224425 3.06023476 20.59525734 3.09339291 18.86820221 3.13199425 C16.45020661 3.18512349 14.03264004 3.21918969 11.61425781 3.2487793 C10.89928131 3.26891586 10.18430481 3.28905243 9.44766235 3.30979919 C4.84245571 3.33965262 3.92107059 2.94080295 0 0 Z " fill="#808792" transform="translate(276,209)"/>
<path d="M0 0 C2.75329021 1.79562405 4.52627461 3.05254922 6 6 C6.375 9.3125 6.375 9.3125 6 13 C3.5625 15.875 3.5625 15.875 1 18 C0.67 18.33 0.34 18.66 0 19 C-3.75484966 19.43661043 -5.84389767 19.07068785 -9.3125 17.5 C-12.43948641 14.59117543 -12.95199504 13.10874693 -13.17578125 8.96484375 C-12.91153741 6.01118481 -11.86508547 4.26474665 -10 2 C-6.2626144 -0.4915904 -4.42668417 -0.45793285 0 0 Z " fill="#24B095" transform="translate(366,149)"/>
<path d="M0 0 C2.875 2.4375 2.875 2.4375 5 5 C5.33 5.33 5.66 5.66 6 6 C6.13813757 8.46246899 6.2130969 10.89491398 6.23828125 13.359375 C6.246353 14.10076721 6.25442474 14.84215942 6.26274109 15.60601807 C6.27659884 17.17970429 6.2873134 18.75342079 6.29516602 20.32714844 C6.31233186 22.72649892 6.35619364 25.12445454 6.40039062 27.5234375 C6.41052154 29.05207319 6.4190364 30.58072062 6.42578125 32.109375 C6.44328934 32.82414001 6.46079742 33.53890503 6.47883606 34.27532959 C6.4631325 37.90979723 6.08990482 39.86104989 4.09619141 42.94238281 C1.33310824 45.65461959 -0.30337117 45.89349253 -4.03515625 46.13671875 C-7.04261638 45.92745214 -8.72971781 44.93641716 -11 43 C-14.4225553 37.89279443 -13.33325309 31.2122163 -13.31567383 25.30102539 C-13.31251522 23.07323215 -13.3359834 20.84676972 -13.36132812 18.61914062 C-13.36360154 17.19531417 -13.36430442 15.77148416 -13.36328125 14.34765625 C-13.36626221 13.05867432 -13.36924316 11.76969238 -13.37231445 10.44165039 C-12.97388031 6.75855126 -12.24064763 4.91491203 -10 2 C-6.24952518 -0.50031654 -4.44143734 -0.53603554 0 0 Z M-11 5 C-11.74156268 8.29717656 -11.74156268 8.29717656 -11.59375 12.1171875 C-11.59379028 12.81135773 -11.59383057 13.50552795 -11.59387207 14.22073364 C-11.58851485 15.68842625 -11.57092265 17.15611793 -11.54199219 18.62353516 C-11.50026855 20.86060152 -11.50091154 23.09464282 -11.5078125 25.33203125 C-11.69823635 34.18620982 -11.69823635 34.18620982 -8 42 C-4.8412545 43.47408123 -2.30552752 42.82638188 1 42 C1.33 41.01 1.66 40.02 2 39 C2.33 39 2.66 39 3 39 C3 28.44 3 17.88 3 7 C2.34 7 1.68 7 1 7 C0.67 5.35 0.34 3.7 0 2 C-4.64693697 1.67579509 -7.36759864 1.98644656 -11 5 Z " fill="#6AC2C0" transform="translate(366,99)"/>
<path d="M0 0 C0.33 0 0.66 0 1 0 C1.00634791 1.03036943 1.00634791 1.03036943 1.01282406 2.08155441 C1.11609624 18.79008999 1.22472888 35.49858121 1.33933926 52.20704269 C1.39463431 60.28710234 1.4481102 68.3671664 1.49731445 76.44726562 C1.54020183 83.48928094 1.58649132 90.53126423 1.63687855 97.57323003 C1.66344279 101.30241842 1.68829493 105.03160062 1.70907402 108.76082611 C1.73232531 112.92230449 1.76317146 117.08369312 1.79467773 121.24511719 C1.8004332 122.48373505 1.80618866 123.72235291 1.81211853 124.99850464 C1.82190735 126.13149994 1.83169617 127.26449524 1.84178162 128.43182373 C1.84823417 129.41629864 1.85468672 130.40077354 1.8613348 131.41508102 C1.91318872 133.94480834 1.91318872 133.94480834 2.5372324 136.11363602 C3.28198267 139.14943646 2.52583662 141.96183287 2 145 C-2.32938419 140.67061581 -1.06030337 132.19682304 -1.11523438 126.40087891 C-1.11396177 123.80091843 -1.10679725 121.20144653 -1.09375 118.6015625 C-1.0899227 117.13375907 -1.08630905 115.66595507 -1.08288574 114.19815063 C-1.01823289 93.05578575 -0.76460254 71.91384143 -0.53643799 50.77276611 C-0.47480488 45.02560776 -0.41523765 39.27842799 -0.35546875 33.53125 C-0.23893973 22.35414544 -0.12021779 11.17706545 0 0 Z " fill="#505763" transform="translate(83,267)"/>
<path d="M0 0 C3.35999018 1.45868754 5.55203106 3.30868948 8.12597656 5.89892578 C8.92650452 6.6996048 9.72703247 7.50028381 10.55181885 8.32522583 C11.40612488 9.18985443 12.26043091 10.05448303 13.140625 10.9453125 C14.02280701 11.8303244 14.90498901 12.7153363 15.81390381 13.62716675 C18.15194543 15.97450131 20.48555874 18.32606785 22.81713867 20.67980957 C25.19996526 23.08313927 27.58850348 25.48077767 29.9765625 27.87890625 C34.65631862 32.58071467 39.33031867 37.28818664 44 42 C43.505 42.99 43.505 42.99 43 44 C29.47 30.47 15.94 16.94 2 3 C1.97900539 10.84265372 1.9589724 18.68520511 1.94824982 26.52786255 C1.94297879 30.18037117 1.93593968 33.83285643 1.92456055 37.48535156 C1.913661 41.00611476 1.90770822 44.52685535 1.90512276 48.04763412 C1.90238764 50.03836564 1.89458687 52.02908812 1.88670349 54.01980591 C1.88662796 55.24061859 1.88655243 56.46143127 1.88647461 57.71923828 C1.884254 58.78957306 1.88203339 59.85990784 1.87974548 60.962677 C2.00201261 64.05083351 2.42644474 66.96590813 3 70 C1.68 69.67 0.36 69.34 -1 69 C-0.75601219 68.20864655 -0.75601219 68.20864655 -0.50709534 67.40130615 C0.124173 64.41198947 0.1194493 61.63584118 0.11352539 58.57910156 C0.11344986 57.27805481 0.11337433 55.97700806 0.11329651 54.63653564 C0.10819024 53.22123171 0.10297425 51.80592816 0.09765625 50.390625 C0.09579035 48.93902637 0.09436726 47.48742712 0.09336853 46.03582764 C0.08955688 42.22180431 0.07973815 38.40781927 0.06866455 34.59381104 C0.05842135 30.69926471 0.05386468 26.80471217 0.04882812 22.91015625 C0.03811465 15.27342007 0.02105449 7.63671541 0 0 Z " fill="#C4C8D0" transform="translate(266,112)"/>
<path d="M0 0 C1.04542969 0.35642578 2.09085937 0.71285156 3.16796875 1.08007812 C8.50278146 2.91792448 13.72750587 4.87623139 18.875 7.1875 C15.875 9.1875 15.875 9.1875 13.74609375 8.8671875 C12.94300781 8.60164063 12.13992188 8.33609375 11.3125 8.0625 C10.43722656 7.77503906 9.56195313 7.48757812 8.66015625 7.19140625 C4.35024912 5.63790536 0.09991772 3.95836977 -4.125 2.1875 C-4.125 1.5275 -4.125 0.8675 -4.125 0.1875 C-12.375 0.1875 -20.625 0.1875 -29.125 0.1875 C-29.455 1.1775 -29.785 2.1675 -30.125 3.1875 C-33.755 3.5175 -37.385 3.8475 -41.125 4.1875 C-38.13068708 1.19318708 -34.52465858 0.39490731 -30.5625 -0.9375 C-29.78841797 -1.21464844 -29.01433594 -1.49179688 -28.21679688 -1.77734375 C-17.77113784 -5.30851575 -10.24448341 -3.63329194 0 0 Z " fill="#7BCADE" transform="translate(379.125,73.8125)"/>
<path d="M0 0 C0.33 0 0.66 0 1 0 C1.01981934 1.1645874 1.03963867 2.3291748 1.06005859 3.52905273 C1.13661702 7.88472689 1.22525361 12.24008866 1.31738281 16.59545898 C1.35546632 18.47397659 1.39035366 20.352562 1.421875 22.23120117 C1.46797713 24.94474386 1.52589285 27.65782792 1.5859375 30.37109375 C1.59748871 31.19959335 1.60903992 32.02809296 1.62094116 32.88169861 C1.93753879 45.63105149 5.94862438 57.72233999 15 67 C16.9546361 68.74106541 18.94480731 70.37496392 21 72 C15.42001373 72 11.08126809 68.5863925 7 65 C2.78138573 58.27632851 -0.13450895 51.11340186 -0.11352539 43.13964844 C-0.11344986 42.17895447 -0.11337433 41.2182605 -0.11329651 40.22845459 C-0.10813522 39.19915833 -0.10297394 38.16986206 -0.09765625 37.109375 C-0.0962413 36.04962463 -0.09482635 34.98987427 -0.09336853 33.89801025 C-0.08777382 30.51531138 -0.07522225 27.13267885 -0.0625 23.75 C-0.05748432 21.45573012 -0.05292153 19.16145921 -0.04882812 16.8671875 C-0.03780611 11.24476906 -0.02107321 5.62238927 0 0 Z " fill="#91D9D9" transform="translate(325,101)"/>
<path d="M0 0 C2.4375 1.5 2.4375 1.5 4 3 C3.67 3.66 3.34 4.32 3 5 C2.01 4.67 1.02 4.34 0 4 C0 3.34 0 2.68 0 2 C-3.35433109 2.94933899 -6.69246505 3.89748835 -10 5 C-10.04936158 10.09031755 -10.08570105 15.18049643 -10.10986328 20.27099609 C-10.11993376 22.00344265 -10.13359089 23.73587216 -10.15087891 25.46826172 C-10.17508162 27.95544639 -10.18647239 30.44240675 -10.1953125 32.9296875 C-10.20563507 33.70682098 -10.21595764 34.48395447 -10.22659302 35.28463745 C-10.22699271 37.19125493 -10.1223214 39.09731036 -10 41 C-8.22290968 43.18429262 -8.22290968 43.18429262 -5.94140625 43.265625 C-4.76384766 43.25789063 -4.76384766 43.25789063 -3.5625 43.25 C-2.78003906 43.25515625 -1.99757813 43.2603125 -1.19140625 43.265625 C1.29044107 43.13176831 1.29044107 43.13176831 4 41 C3.5 42.9375 3.5 42.9375 2 45 C-2.375858 46.07603066 -4.71073117 46.53252408 -8.875 44.8125 C-12.14893792 42.02002354 -12.917056 40.00026773 -13.2746582 35.68774414 C-13.32444409 28.25010557 -13.32444409 28.25010557 -13.31567383 25.30102539 C-13.31251522 23.07323215 -13.3359834 20.84676972 -13.36132812 18.61914062 C-13.36360154 17.19531417 -13.36430442 15.77148416 -13.36328125 14.34765625 C-13.36626221 13.05867432 -13.36924316 11.76969238 -13.37231445 10.44165039 C-12.97388031 6.75855126 -12.24064763 4.91491203 -10 2 C-6.28986601 -0.47342266 -4.38939738 -0.38503486 0 0 Z " fill="#97D6D7" transform="translate(366,99)"/>
<path d="M0 0 C2.75329021 1.79562405 4.52627461 3.05254922 6 6 C6.375 9.3125 6.375 9.3125 6 13 C3.5625 15.875 3.5625 15.875 1 18 C0.67 18.33 0.34 18.66 0 19 C-3.75484966 19.43661043 -5.84389767 19.07068785 -9.3125 17.5 C-12.43948641 14.59117543 -12.95199504 13.10874693 -13.17578125 8.96484375 C-12.91153741 6.01118481 -11.86508547 4.26474665 -10 2 C-6.2626144 -0.4915904 -4.42668417 -0.45793285 0 0 Z M-9.375 5.1875 C-11.0939434 8.16259435 -11.38434723 9.63696176 -11 13 C-10.01 13 -9.02 13 -8 13 C-8 13.66 -8 14.32 -8 15 C-5.69 15.33 -3.38 15.66 -1 16 C-1 15.34 -1 14.68 -1 14 C0.32 14.33 1.64 14.66 3 15 C5.56687367 11.1496895 4.83288724 9.41430237 4 5 C-0.92064638 2.6844017 -5.07347661 1.22557056 -9.375 5.1875 Z " fill="#9ADACE" transform="translate(366,149)"/>
<path d="M0 0 C0.33 0 0.66 0 1 0 C1.06939283 13.26457332 1.12275667 26.52910373 1.15543652 39.79382133 C1.17111815 45.9526191 1.19240198 52.11129304 1.22631836 58.27001953 C1.25882272 64.2092524 1.27683418 70.14836589 1.28463173 76.08768082 C1.29019131 78.3579916 1.30104719 80.62829556 1.31719017 82.89855576 C1.33884571 86.06907216 1.3419719 89.23908997 1.34057617 92.40966797 C1.351362 93.35625275 1.36214783 94.30283752 1.3732605 95.27810669 C1.36913651 96.13909973 1.36501251 97.00009277 1.36076355 97.88717651 C1.36352893 98.637516 1.36629431 99.38785549 1.36914349 100.16093254 C1 102 1 102 -2 104 C-1.83923477 103.2095932 -1.67846954 102.4191864 -1.51283264 101.60482788 C-0.87978067 97.1549485 -0.82355079 92.81164184 -0.79467773 88.32275391 C-0.78477814 87.36602783 -0.77487854 86.40930176 -0.76467896 85.42358398 C-0.73319828 82.27460163 -0.70835979 79.12560422 -0.68359375 75.9765625 C-0.66301262 73.7879498 -0.64201584 71.59934098 -0.62062073 69.41073608 C-0.5655198 63.66016787 -0.51605781 57.9095645 -0.46777344 52.15893555 C-0.41747081 46.28691492 -0.36183053 40.41494512 -0.30664062 34.54296875 C-0.19920562 23.0286893 -0.09772826 11.51436564 0 0 Z " fill="#717987" transform="translate(358,304)"/>
<path d="M0 0 C2.41854446 -0.13536629 4.82949783 -0.23420279 7.25 -0.3125 C8.27287109 -0.3753418 8.27287109 -0.3753418 9.31640625 -0.43945312 C11.328125 -0.48828125 11.328125 -0.48828125 15 0 C17.484375 2.51953125 17.484375 2.51953125 19 5 C16.12733999 4.47769818 13.71067239 3.87686579 11.0078125 2.7265625 C5.62569136 1.17711049 0.90504977 3.74304344 -4.0625 5.75 C-5.99076645 6.49509963 -7.91914864 7.23989978 -9.84765625 7.984375 C-11.1924707 8.51248779 -11.1924707 8.51248779 -12.56445312 9.05126953 C-21.25996534 12.43847487 -21.25996534 12.43847487 -25 11 C-24.01 11 -23.02 11 -22 11 C-22 10.34 -22 9.68 -22 9 C-17.545 8.505 -17.545 8.505 -13 8 C-12.67 6.68 -12.34 5.36 -12 4 C-11.01 4 -10.02 4 -9 4 C-9 3.34 -9 2.68 -9 2 C-6.03 2 -3.06 2 0 2 C0 1.34 0 0.68 0 0 Z " fill="#75C7E1" transform="translate(355,87)"/>
<path d="M0 0 C-0.598125 0.226875 -1.19625 0.45375 -1.8125 0.6875 C-4.20020551 1.8786997 -4.20020551 1.8786997 -5.4375 4.5 C-7.35353492 7.56565587 -8.6640661 7.80859504 -12 9 C-14.83333333 10.58333333 -14.83333333 10.58333333 -17 13 C-17.41434251 15.32031805 -17.74889902 17.65639085 -18 20 C-19.4375 22.4375 -19.4375 22.4375 -21 24 C-21.66 24 -22.32 24 -23 24 C-23.33 28.95 -23.66 33.9 -24 39 C-24.33 39 -24.66 39 -25 39 C-25.88865743 26.95375488 -24.22211346 19.12641799 -16.921875 9.1640625 C-16.28765625 8.44992188 -15.6534375 7.73578125 -15 7 C-14.34 7 -13.68 7 -13 7 C-13 6.34 -13 5.68 -13 5 C-10.91796875 3.45703125 -10.91796875 3.45703125 -8.1875 1.8125 C-7.29417969 1.26207031 -6.40085937 0.71164063 -5.48046875 0.14453125 C-3 -1 -3 -1 0 0 Z " fill="#7F838E" transform="translate(108,86)"/>
<path d="M0 0 C1.32 0 2.64 0 4 0 C4 15.18 4 30.36 4 46 C2.515 46.495 2.515 46.495 1 47 C1.33 31.82 1.66 16.64 2 1 C1.34 0.67 0.68 0.34 0 0 Z " fill="#91D5CA" transform="translate(397,100)"/>
<path d="M0 0 C-0.33 0.99 -0.66 1.98 -1 3 C-3.0625 3.6875 -3.0625 3.6875 -5 4 C-5.33 5.32 -5.66 6.64 -6 8 C-6.58007812 7.88140625 -7.16015625 7.7628125 -7.7578125 7.640625 C-12.10061086 6.92399161 -14.26659076 6.60508733 -18.25 8.75 C-19.1575 9.4925 -20.065 10.235 -21 11 C-22.66026356 12.01059521 -24.32470102 13.01453001 -26 14 C-26 11 -26 11 -23.5 8.1875 C-19.64076098 5.01399353 -15.37399715 3.3161623 -10.75 1.5625 C-10.04037109 1.29139404 -9.33074219 1.02028809 -8.59960938 0.7409668 C-3.38943691 -1.1298123 -3.38943691 -1.1298123 0 0 Z " fill="#29A1DA" transform="translate(337,79)"/>
<path d="M0 0 C0.88751953 0.63228516 0.88751953 0.63228516 1.79296875 1.27734375 C2.58316406 1.82519531 3.37335938 2.37304688 4.1875 2.9375 C4.96480469 3.48277344 5.74210937 4.02804688 6.54296875 4.58984375 C10.82291074 7.04621745 15.03499601 7.12410676 19.8918457 7.11352539 C21.63308464 7.11341209 21.63308464 7.11341209 23.40950012 7.11329651 C24.65237289 7.10813522 25.89524567 7.10297394 27.17578125 7.09765625 C28.45607712 7.0962413 29.73637299 7.09482635 31.0554657 7.09336853 C34.4469704 7.08956397 37.83843177 7.07975143 41.22991943 7.06866455 C44.69559137 7.05840597 48.16127036 7.05386141 51.62695312 7.04882812 C58.41798748 7.03780755 65.20898981 7.0210757 72 7 C72 7.66 72 8.32 72 9 C64.33243951 9.0465401 56.66489385 9.08197859 48.99722385 9.10362434 C45.43600503 9.11401832 41.87488353 9.12809633 38.3137207 9.15087891 C34.21044023 9.17696249 30.10726046 9.186509 26.00390625 9.1953125 C24.73793106 9.20563507 23.47195587 9.21595764 22.1676178 9.22659302 C14.27362335 9.22758629 7.51993149 8.50664383 0 6 C0 4.02 0 2.04 0 0 Z " fill="#9CA4AC" transform="translate(271,185)"/>
<path d="M0 0 C1.1445351 3.76976245 0.5716871 5.3943649 -1 9 C-1 9.99 -1 10.98 -1 12 C-0.01 11.67 0.98 11.34 2 11 C2.33 11.99 2.66 12.98 3 14 C2.2575 14.391875 1.515 14.78375 0.75 15.1875 C-2.12985249 16.84919096 -2.12985249 16.84919096 -3.875 19.625 C-6.70322982 22.78596274 -8.87139693 22.76181136 -13 23 C-13 22.34 -13 21.68 -13 21 C-12.34 21 -11.68 21 -11 21 C-10.73058594 20.42765625 -10.46117187 19.8553125 -10.18359375 19.265625 C-8.96865312 16.93999607 -7.57615924 14.89146193 -6.0625 12.75 C-3.26743287 8.62915531 -1.5454534 4.72221873 0 0 Z " fill="#47BC97" transform="translate(397,147)"/>
<path d="M0 0 C0.66 0.33 1.32 0.66 2 1 C1.99777939 1.77594513 1.99555878 2.55189026 1.99327087 3.35134888 C1.97320074 10.67811925 1.95799162 18.00487622 1.94818783 25.33166695 C1.94297811 29.09807639 1.93591528 32.86446304 1.92456055 36.63085938 C1.91366361 40.26833189 1.90770877 43.90578253 1.90512276 47.54327011 C1.90328076 48.92827575 1.89968383 50.31328024 1.89426994 51.69827652 C1.88696922 53.6440539 1.88659117 55.58985346 1.88647461 57.53564453 C1.884254 58.64150909 1.88203339 59.74737366 1.87974548 60.88674927 C2.00012547 64.00324815 2.41875727 66.93877267 3 70 C1.68 69.67 0.36 69.34 -1 69 C-0.75601219 68.20864655 -0.75601219 68.20864655 -0.50709534 67.40130615 C0.124173 64.41198947 0.1194493 61.63584118 0.11352539 58.57910156 C0.11344986 57.27805481 0.11337433 55.97700806 0.11329651 54.63653564 C0.10819024 53.22123171 0.10297425 51.80592816 0.09765625 50.390625 C0.09579035 48.93902637 0.09436726 47.48742712 0.09336853 46.03582764 C0.08955688 42.22180431 0.07973815 38.40781927 0.06866455 34.59381104 C0.05842135 30.69926471 0.05386468 26.80471217 0.04882812 22.91015625 C0.03811465 15.27342007 0.02105449 7.63671541 0 0 Z " fill="#7B828D" transform="translate(266,112)"/>
<path d="M0 0 C0.66 0.33 1.32 0.66 2 1 C-3.34539068 9.35324717 -3.34539068 9.35324717 -7.3984375 10.9375 C-9.8125 11.375 -9.8125 11.375 -12.08203125 11.5859375 C-14.40599157 11.85470794 -14.40599157 11.85470794 -16 15 C-19.625 15.1875 -19.625 15.1875 -23 15 C-23 14.01 -23 13.02 -23 12 C-24.98 11.34 -26.96 10.68 -29 10 C-28.01 9.67 -27.02 9.34 -26 9 C-25.13375 9.495 -25.13375 9.495 -24.25 10 C-20.92664285 11.47704762 -18.35970675 11.06452247 -15 10 C-9.2811555 7.36738745 -4.30667347 4.64959361 0 0 Z " fill="#7FD0B8" transform="translate(382,170)"/>
<path d="M0 0 C0 0.99 0 1.98 0 3 C0.66 3.33 1.32 3.66 2 4 C1 5 1 5 -1.28515625 5.09765625 C-2.65994141 5.08025391 -2.65994141 5.08025391 -4.0625 5.0625 C-4.98160156 5.05347656 -5.90070313 5.04445313 -6.84765625 5.03515625 C-7.55792969 5.02355469 -8.26820313 5.01195313 -9 5 C-9 5.66 -9 6.32 -9 7 C-10.65 7.33 -12.3 7.66 -14 8 C-14.33 6.35 -14.66 4.7 -15 3 C-10.27805833 -0.77755334 -5.74071928 -0.30096975 0 0 Z " fill="#19A9D5" transform="translate(364,82)"/>
<path d="M0 0 C1.27953905 3.84292536 1.03266268 7.62150199 0.87890625 11.609375 C0.85529526 12.33618469 0.83168427 13.06299438 0.80735779 13.81182861 C0.73101128 16.12476558 0.64686319 18.43734293 0.5625 20.75 C0.50925021 22.3215972 0.45651002 23.89321176 0.40429688 25.46484375 C0.27543568 29.31012196 0.13957873 33.15509651 0 37 C-1.65 35.35 -3.3 33.7 -5 32 C-4.34 32 -3.68 32 -3 32 C-2.98018066 31.20827393 -2.96036133 30.41654785 -2.93994141 29.60083008 C-2.8445284 26.0043924 -2.73491409 22.40852249 -2.625 18.8125 C-2.5940625 17.56662109 -2.563125 16.32074219 -2.53125 15.03710938 C-2.49257813 13.83505859 -2.45390625 12.63300781 -2.4140625 11.39453125 C-2.3826416 10.28956299 -2.3512207 9.18459473 -2.31884766 8.04614258 C-2.00122818 5.01173354 -1.27753965 2.75455478 0 0 Z " fill="#97D5E5" transform="translate(309,93)"/>
<path d="M0 0 C2.2109885 0.42793326 3.98119242 0.99059621 6 2 C5.67 3.32 5.34 4.64 5 6 C5 5.34 5 4.68 5 4 C3.68 4 2.36 4 1 4 C-1.19867777 6.79787307 -1.19867777 6.79787307 -3 10 C-3.99 11.485 -3.99 11.485 -5 13 C-5.70125 12.79375 -6.4025 12.5875 -7.125 12.375 C-10.60186072 11.92149643 -12.77398123 12.72459723 -16 14 C-16 13.01 -16 12.02 -16 11 C-15.41992188 10.9484375 -14.83984375 10.896875 -14.2421875 10.84375 C-10.48728766 10.29848402 -7.86003125 9.85118319 -5.1015625 7.12109375 C-3.63883071 5.12678382 -2.29569739 3.10550826 -1 1 C-0.67 0.67 -0.34 0.34 0 0 Z " fill="#21AE7F" transform="translate(384,170)"/>
<path d="M0 0 C0.33 0 0.66 0 1 0 C1.05534912 1.03930664 1.11069824 2.07861328 1.16772461 3.14941406 C1.37441412 7.01112388 1.58622014 10.87253909 1.79956055 14.73388672 C1.89112342 16.4040583 1.98130488 18.07430621 2.07006836 19.74462891 C2.19801167 22.14767596 2.33094609 24.55040327 2.46484375 26.953125 C2.50343002 27.69806213 2.5420163 28.44299927 2.58177185 29.21051025 C2.7753171 32.60249009 3.16701954 35.71623269 4 39 C3.72686657 41.34114367 3.40197001 43.67750658 3 46 C-1.64584528 41.35415472 -0.08027972 31.86528482 -0.09765625 25.5859375 C-0.09512683 22.51555321 -0.07944727 19.44533326 -0.0625 16.375 C-0.05747395 14.78255349 -0.052913 13.19010545 -0.04882812 11.59765625 C-0.03791237 7.73173221 -0.02070895 3.86588347 0 0 Z " fill="#AAADB4" transform="translate(82,366)"/>
<path d="M0 0 C2.125 0.375 2.125 0.375 4 1 C3.67 1.66 3.34 2.32 3 3 C0.93359375 3.4140625 0.93359375 3.4140625 -1.5625 3.625 C-2.38878906 3.69976562 -3.21507812 3.77453125 -4.06640625 3.8515625 C-5.02353516 3.92503906 -5.02353516 3.92503906 -6 4 C-6 4.66 -6 5.32 -6 6 C-6.99 6 -7.98 6 -9 6 C-9 6.66 -9 7.32 -9 8 C-13.75 9.125 -13.75 9.125 -16 8 C-16 8.66 -16 9.32 -16 10 C-16.66 10 -17.32 10 -18 10 C-18.33 8.68 -18.66 7.36 -19 6 C-15.36576791 3.67409146 -12.22911669 3.83734167 -8 4 C-8 3.34 -8 2.68 -8 2 C-7.05125 2.04125 -6.1025 2.0825 -5.125 2.125 C-1.89755144 2.34973818 -1.89755144 2.34973818 0 0 Z " fill="#34B2E4" transform="translate(339,92)"/>
<path d="M0 0 C0.33 0 0.66 0 1 0 C2.20994413 10.48618244 -0.89370941 17.19425398 -6 26 C-7.43088528 23.13822943 -6.59991697 21.06624227 -6 18 C-5.34 18 -4.68 18 -4 18 C-4 17.34 -4 16.68 -4 16 C-3.34 16 -2.68 16 -2 16 C-2.33 13.36 -2.66 10.72 -3 8 C-2.34 8 -1.68 8 -1 8 C-1.20625 7.05125 -1.4125 6.1025 -1.625 5.125 C-1.74875 4.09375 -1.8725 3.0625 -2 2 C-1.34 1.34 -0.68 0.68 0 0 Z " fill="#4EBB99" transform="translate(414,144)"/>
<path d="M0 0 C0.99 0 1.98 0 3 0 C3 0.66 3 1.32 3 2 C2.34 2 1.68 2 1 2 C0.67 3.65 0.34 5.3 0 7 C-1.41396902 7.50757862 -2.83131729 8.00574925 -4.25 8.5 C-5.03890625 8.7784375 -5.8278125 9.056875 -6.640625 9.34375 C-9 10 -9 10 -13 10 C-13 10.66 -13 11.32 -13 12 C-14.65 12 -16.3 12 -18 12 C-17.34 10.35 -16.68 8.7 -16 7 C-14.01432292 7.06510417 -12.02864583 7.13020833 -10.04296875 7.1953125 C-7.68640281 7.13254462 -7.68640281 7.13254462 -5 5 C-2.8125 4.375 -2.8125 4.375 -1 4 C-0.67 2.68 -0.34 1.36 0 0 Z " fill="#1AB17E" transform="translate(384,185)"/>
<path d="M0 0 C0.99 0.33 1.98 0.66 3 1 C2 3 2 3 -1 5 C-1.25030977 7.58380177 -1.25030977 7.58380177 -1 10 C-1.99 10.33 -2.98 10.66 -4 11 C-4.33 9.68 -4.66 8.36 -5 7 C-6.32 7.99 -7.64 8.98 -9 10 C-9.33 9.01 -9.66 8.02 -10 7 C-8.70982586 6.01886757 -7.41780894 5.04015801 -6.125 4.0625 C-5.04605469 3.24458984 -5.04605469 3.24458984 -3.9453125 2.41015625 C-2 1 -2 1 0 0 Z " fill="#1BA3E6" transform="translate(322,85)"/>
<path d="M0 0 C-1.0799689 3.13190982 -2.00950474 4.00599212 -4.875 5.8125 C-7.97683969 6.99119908 -9.0201445 7.26070809 -12 6 C-11.375 3.5625 -11.375 3.5625 -10 1 C-6.53742862 0.02144722 -3.60789603 0 0 0 Z " fill="#1FA7DF" transform="translate(360,73)"/>
<path d="M0 0 C0.33 0 0.66 0 1 0 C1.0740324 5.37513189 1.12854569 10.74996854 1.16479492 16.12548828 C1.17990251 17.95496793 1.20038968 19.78441125 1.22631836 21.61376953 C1.26261585 24.23999992 1.27970615 26.86575249 1.29296875 29.4921875 C1.30845261 30.31306854 1.32393646 31.13394958 1.33988953 31.97970581 C1.34057617 34.28466797 1.34057617 34.28466797 1 38 C0.01 38.66 -0.98 39.32 -2 40 C-1.84152588 39.1754834 -1.68305176 38.3509668 -1.51977539 37.50146484 C-0.94834871 33.65205131 -0.77463674 29.85928962 -0.68359375 25.9765625 C-0.66281265 25.23038666 -0.64203156 24.48421082 -0.62062073 23.71542358 C-0.5556877 21.35203492 -0.49650429 18.98854336 -0.4375 16.625 C-0.39426116 15.01431265 -0.35064523 13.40363537 -0.30664062 11.79296875 C-0.20006474 7.86208229 -0.09864208 3.93109323 0 0 Z " fill="#7C828F" transform="translate(358,368)"/>
<path d="M0 0 C5.0816782 -0.20741544 9.19433294 0.30388221 14 2 C14.66 2.66 15.32 3.32 16 4 C17.98821313 4.39764263 19.98944339 4.73775349 22 5 C22.33 5.99 22.66 6.98 23 8 C15.01323028 6.48526781 7.59877122 3.83197448 0 1 C0 0.67 0 0.34 0 0 Z " fill="#82CDCF" transform="translate(374,92)"/>
<path d="M0 0 C1.65 0 3.3 0 5 0 C2.31166973 3.47901564 -0.80828675 4.10668406 -5 5 C-10.03047613 5.47585585 -14.28860156 4.88455938 -19 3 C-19 2.67 -19 2.34 -19 2 C-18.38253906 2.08378906 -17.76507813 2.16757813 -17.12890625 2.25390625 C-11.17546317 2.96976927 -5.93346811 2.86130989 0 2 C0 1.34 0 0.68 0 0 Z " fill="#2C997D" transform="translate(371,195)"/>
<path d="M0 0 C3.73770492 1.47540984 3.73770492 1.47540984 5 4 C5.04022391 6.3329866 5.04320247 8.66706666 5 11 C4.01 11.495 4.01 11.495 3 12 C3 9.03 3 6.06 3 3 C-4.21087461 1.52401065 -4.21087461 1.52401065 -10.6875 3.9375 C-11.120625 4.618125 -11.55375 5.29875 -12 6 C-11.64267506 3.40939422 -11.1383604 2.15432506 -9.375 0.1875 C-5.94224296 -1.52887852 -3.67446735 -0.85300135 0 0 Z " fill="#75C5B7" transform="translate(367,151)"/>
<path d="M0 0 C2.475 0.495 2.475 0.495 5 1 C4.67 1.99 4.34 2.98 4 4 C5.32 3.34 6.64 2.68 8 2 C8 3.65 8 5.3 8 7 C8.99 7.33 9.98 7.66 11 8 C11 8.66 11 9.32 11 10 C7.10351684 9.42274324 4.8302055 7.68124732 2 5 C0.6875 2.25 0.6875 2.25 0 0 Z " fill="#28A896" transform="translate(325,176)"/>
<path d="M0 0 C4.45165834 1.39909262 6.85625212 3.60135365 10 7 C10.66 7.66 11.32 8.32 12 9 C13.34294481 10.65893182 14.67744688 12.32476605 16 14 C13 14 13 14 11.46606445 12.82250977 C10.937146 12.28424561 10.40822754 11.74598145 9.86328125 11.19140625 C9.28642578 10.60939453 8.70957031 10.02738281 8.11523438 9.42773438 C7.52033203 8.81220703 6.92542969 8.19667969 6.3125 7.5625 C5.70599609 6.95083984 5.09949219 6.33917969 4.47460938 5.70898438 C0 1.1538421 0 1.1538421 0 0 Z " fill="#0D1525" transform="translate(284,128)"/>
<path d="M0 0 C-8.261959 7.66742597 -8.261959 7.66742597 -13 9 C-12.8125 6.6875 -12.8125 6.6875 -12 4 C-8.76323828 1.57242871 -3.91337413 -1.95668706 0 0 Z " fill="#7ECFB4" transform="translate(397,183)"/>
<path d="M0 0 C0.33 0 0.66 0 1 0 C1.13277344 0.77085937 1.26554687 1.54171875 1.40234375 2.3359375 C1.57894531 3.33882812 1.75554687 4.34171875 1.9375 5.375 C2.11152344 6.37273437 2.28554688 7.37046875 2.46484375 8.3984375 C2.87712062 10.96909656 2.87712062 10.96909656 4 13 C4.07092842 15.2072923 4.08415025 17.41667452 4.0625 19.625 C4.05347656 20.81351563 4.04445313 22.00203125 4.03515625 23.2265625 C4.02355469 24.14179688 4.01195312 25.05703125 4 26 C3.34 25.67 2.68 25.34 2 25 C0.12469708 16.78107978 -0.30858257 8.40030335 0 0 Z " fill="#2C94AF" transform="translate(308,130)"/>
<path d="M0 0 C0.66 0 1.32 0 2 0 C3.72264494 3.29549466 5.29445932 6.33118845 6 10 C3 10 3 10 0 8 C-1.33333333 2.66666667 -1.33333333 2.66666667 0 0 Z " fill="#555B6B" transform="translate(100,405)"/>
<path d="M0 0 C2.475 0.495 2.475 0.495 5 1 C5 1.66 5 2.32 5 3 C6.65 2.34 8.3 1.68 10 1 C11.32 3.31 12.64 5.62 14 8 C9.24518354 7.42365861 6.02951788 5.44931479 2 3 C2 2.34 2 1.68 2 1 C1.34 0.67 0.68 0.34 0 0 Z " fill="#454C5D" transform="translate(261,201)"/>
<path d="M0 0 C0 3.96130371 -1.34877125 4.82914401 -4 7.6875 C-4.7425 8.49574219 -5.485 9.30398437 -6.25 10.13671875 C-6.8275 10.75160156 -7.405 11.36648437 -8 12 C-10 9 -10 9 -10 7 C-9.01 7 -8.02 7 -7 7 C-7 6.34 -7 5.68 -7 5 C-6.34 5 -5.68 5 -5 5 C-4.67 4.01 -4.34 3.02 -4 2 C-1.9375 0.8125 -1.9375 0.8125 0 0 Z " fill="#4AB68E" transform="translate(406,170)"/>
<path d="M0 0 C2.46800047 1.15173355 4.04783565 2.04783565 6 4 C8.60280568 3.67958603 8.60280568 3.67958603 11 3 C11.99 5.64 12.98 8.28 14 11 C9.96407129 9.63079505 7.32473622 7.80419512 4.1875 4.9375 C3.39730469 4.22464844 2.60710937 3.51179687 1.79296875 2.77734375 C1.20128906 2.19082031 0.60960937 1.60429687 0 1 C0 0.67 0 0.34 0 0 Z " fill="#8AD5C9" transform="translate(327,181)"/>
<path d="M0 0 C2.4375 1.5 2.4375 1.5 4 3 C3.67 3.66 3.34 4.32 3 5 C2.01 4.67 1.02 4.34 0 4 C0 3.34 0 2.68 0 2 C-4.10899581 3.12795963 -8.07561214 4.33510818 -12 6 C-9.45214187 0.1203274 -6.16831446 -0.54108022 0 0 Z " fill="#90D2DB" transform="translate(366,99)"/>
<path d="M0 0 C1 3 1 3 0.4375 5.4375 C-1.42982842 8.76621588 -3.74901525 10.0918133 -7 12 C-7.99 11.34 -8.98 10.68 -10 10 C-9.0925 9.46375 -8.185 8.9275 -7.25 8.375 C-3.79561944 6.09936542 -2.08948315 3.53604841 0 0 Z " fill="#79808B" transform="translate(355,408)"/>
<path d="M0 0 C4.70491803 2.40983607 4.70491803 2.40983607 6 5 C5.01 5 4.02 5 3 5 C3.66 7.64 4.32 10.28 5 13 C2.39954125 10.6975881 1.15260817 8.50103323 -0.1875 5.3125 C-0.53167969 4.50425781 -0.87585938 3.69601563 -1.23046875 2.86328125 C-1.48441406 2.24839844 -1.73835938 1.63351563 -2 1 C-1.34 0.67 -0.68 0.34 0 0 Z " fill="#7BCED1" transform="translate(312,155)"/>
<path d="M0 0 C0.33 1.32 0.66 2.64 1 4 C0.05125 4.20625 -0.8975 4.4125 -1.875 4.625 C-5.29166667 5.70833333 -5.29166667 5.70833333 -6.375 9.125 C-6.58125 10.07375 -6.7875 11.0225 -7 12 C-7.33 12 -7.66 12 -8 12 C-7.8864371 10.35333797 -7.75882619 8.70763918 -7.625 7.0625 C-7.55539062 6.14597656 -7.48578125 5.22945313 -7.4140625 4.28515625 C-7.27742188 3.53105469 -7.14078125 2.77695313 -7 2 C-6.34 1.67 -5.68 1.34 -5 1 C-4.34 1.66 -3.68 2.32 -3 3 C-2.01 2.01 -1.02 1.02 0 0 Z " fill="#27A0D8" transform="translate(317,91)"/>
<path d="M0 0 C0.99 0.33 1.98 0.66 3 1 C2.443125 1.20625 1.88625 1.4125 1.3125 1.625 C-1.28278158 2.98938378 -1.28278158 2.98938378 -3.5 6.0625 C-6 9 -6 9 -8.3125 9.875 C-8.869375 9.91625 -9.42625 9.9575 -10 10 C-8.26548969 5.31682216 -4.40759243 2.20379621 0 0 Z " fill="#8CD0EA" transform="translate(320,83)"/>
<path d="M0 0 C0.66 0 1.32 0 2 0 C1.34 3.3 0.68 6.6 0 10 C-0.66 10 -1.32 10 -2 10 C-2.33 11.32 -2.66 12.64 -3 14 C-4.37095624 10.30962722 -3.60010967 8.29116165 -2.0625 4.75 C-1.68222656 3.85796875 -1.30195313 2.9659375 -0.91015625 2.046875 C-0.60980469 1.37140625 -0.30945313 0.6959375 0 0 Z " fill="#30AD85" transform="translate(399,146)"/>
<path d="M0 0 C2.31 0.33 4.62 0.66 7 1 C7 1.66 7 2.32 7 3 C7.99 3.33 8.98 3.66 10 4 C10 4.33 10 4.66 10 5 C7.03 5 4.06 5 1 5 C0.67 3.35 0.34 1.7 0 0 Z " fill="#1AAACC" transform="translate(368,73)"/>
<path d="M0 0 C2.0625 0.4375 2.0625 0.4375 4 1 C3.67 1.66 3.34 2.32 3 3 C0.93359375 3.4140625 0.93359375 3.4140625 -1.5625 3.625 C-2.38878906 3.69976562 -3.21507812 3.77453125 -4.06640625 3.8515625 C-5.02353516 3.92503906 -5.02353516 3.92503906 -6 4 C-6 4.66 -6 5.32 -6 6 C-7.65 6.33 -9.3 6.66 -11 7 C-11 6.34 -11 5.68 -11 5 C-8.22833672 3.15222448 -6.08394385 2.25504561 -2.875 1.5 C-1.00094893 1.16796102 -1.00094893 1.16796102 0 0 Z " fill="#29A2CF" transform="translate(339,92)"/>
<path d="M0 0 C5.65394631 -0.34615998 9.03006806 0.56574762 14 3 C11 5 11 5 8.5546875 4.609375 C7.67039062 4.32578125 6.78609375 4.0421875 5.875 3.75 C4.98554688 3.47671875 4.09609375 3.2034375 3.1796875 2.921875 C1 2 1 2 0 0 Z " fill="#67C1C8" transform="translate(384,78)"/>
<path d="M0 0 C0.474375 0.495 0.94875 0.99 1.4375 1.5 C5.14215294 3.66857733 8.79115555 3.5968343 13 3 C13.99 2.34 14.98 1.68 16 1 C15.5 2.9375 15.5 2.9375 14 5 C9.56019253 6.09175593 7.27185054 6.541213 3.0625 4.75 C1 3 1 3 0 0 Z " fill="#B9E9E7" transform="translate(354,139)"/>
<path d="M0 0 C0 3 0 3 -1.3125 4.60546875 C-1.869375 5.12753906 -2.42625 5.64960938 -3 6.1875 C-3.556875 6.71730469 -4.11375 7.24710937 -4.6875 7.79296875 C-5.120625 8.19128906 -5.55375 8.58960938 -6 9 C-6.66 8.67 -7.32 8.34 -8 8 C-7.34 6.35 -6.68 4.7 -6 3 C-5.34 3 -4.68 3 -4 3 C-4 2.34 -4 1.68 -4 1 C-2.68 0.67 -1.36 0.34 0 0 Z " fill="#797E8A" transform="translate(367,422)"/>
<path d="M0 0 C3.34373475 0.55728913 6.03312999 1.35173889 9 3 C8.67 3.66 8.34 4.32 8 5 C5.69 5 3.38 5 1 5 C0.67 3.35 0.34 1.7 0 0 Z " fill="#2BA988" transform="translate(350,179)"/>
<path d="M0 0 C0 0.66 0 1.32 0 2 C-4.92984325 4.03993514 -8.57960425 5.40652968 -14 5 C-9.94538749 1.43194099 -5.37691523 0 0 0 Z " fill="#2DA1D1" transform="translate(347,76)"/>
<path d="M0 0 C0.66 0 1.32 0 2 0 C2.33 0.66 2.66 1.32 3 2 C3.9590625 2.3403125 3.9590625 2.3403125 4.9375 2.6875 C7 4 7 4 8.25 7.625 C8.4975 8.73875 8.745 9.8525 9 11 C4.60708214 7.68090651 2.1772135 5.20112114 0 0 Z " fill="#8DD6D0" transform="translate(318,170)"/>
<path d="M0 0 C-0.639375 0.103125 -1.27875 0.20625 -1.9375 0.3125 C-2.618125 0.539375 -3.29875 0.76625 -4 1 C-4.33 1.99 -4.66 2.98 -5 4 C-8.63 4.33 -12.26 4.66 -16 5 C-13.63746991 2.63746991 -11.68772729 1.962152 -8.5625 0.8125 C-7.59441406 0.44769531 -6.62632812 0.08289063 -5.62890625 -0.29296875 C-3 -1 -3 -1 0 0 Z " fill="#9EDFF1" transform="translate(354,73)"/>
<path d="M0 0 C3.125 0.375 3.125 0.375 6 1 C1.63228707 3.91180862 -1.55153591 4.12438648 -6.75 4.0625 C-7.73484375 4.05347656 -8.7196875 4.04445313 -9.734375 4.03515625 C-10.48203125 4.02355469 -11.2296875 4.01195312 -12 4 C-12 3.67 -12 3.34 -12 3 C-10.95199219 2.92652344 -10.95199219 2.92652344 -9.8828125 2.8515625 C-8.97273438 2.77679688 -8.06265625 2.70203125 -7.125 2.625 C-6.22007812 2.55539062 -5.31515625 2.48578125 -4.3828125 2.4140625 C-1.82058097 2.20431868 -1.82058097 2.20431868 0 0 Z " fill="#9297A1" transform="translate(346,434)"/>
<path d="M0 0 C1 3 1 3 0.00390625 5.26171875 C-0.47175781 6.06222656 -0.94742187 6.86273438 -1.4375 7.6875 C-1.91058594 8.49574219 -2.38367188 9.30398437 -2.87109375 10.13671875 C-3.24363281 10.75160156 -3.61617188 11.36648437 -4 12 C-5.43088528 9.13822943 -4.59991697 7.06624227 -4 4 C-3.34 4 -2.68 4 -2 4 C-2 3.34 -2 2.68 -2 2 C-1.34 2 -0.68 2 0 2 C0 1.34 0 0.68 0 0 Z " fill="#91D2BC" transform="translate(412,158)"/>
<path d="M0 0 C1.1847858 3.45764019 0.82534782 5.70679961 -0.1875 9.1875 C-0.42855469 10.06792969 -0.66960937 10.94835937 -0.91796875 11.85546875 C-2 14 -2 14 -4.11328125 14.80078125 C-4.73589844 14.86652344 -5.35851562 14.93226563 -6 15 C-4 10 -2 5 0 0 Z " fill="#AEE7D9" transform="translate(397,147)"/>
<path d="M0 0 C1.98567708 0.55338542 3.97135417 1.10677083 5.95703125 1.66015625 C8.19244159 2.19563817 8.19244159 2.19563817 11 1 C11 2.32 11 3.64 11 5 C9.54052295 4.93993922 8.08220728 4.8511311 6.625 4.75 C5.81289063 4.70359375 5.00078125 4.6571875 4.1640625 4.609375 C2 4 2 4 0.7109375 1.953125 C0.47632813 1.30859375 0.24171875 0.6640625 0 0 Z " fill="#1FB086" transform="translate(349,193)"/>
<path d="M0 0 C0.33 0.66 0.66 1.32 1 2 C1.99 2.33 2.98 2.66 4 3 C4 3.99 4 4.98 4 6 C3.01 6.66 2.02 7.32 1 8 C0.01 7.67 -0.98 7.34 -2 7 C-1.34 7 -0.68 7 0 7 C-0.185625 6.401875 -0.37125 5.80375 -0.5625 5.1875 C-1 3 -1 3 0 0 Z " fill="#25A979" transform="translate(393,176)"/>
<path d="M0 0 C0.33 0 0.66 0 1 0 C1.66 4.95 2.32 9.9 3 15 C1.68 14.67 0.36 14.34 -1 14 C-0.83628906 13.44828125 -0.67257812 12.8965625 -0.50390625 12.328125 C0.05760414 9.73385993 0.09739008 7.40164589 0.0625 4.75 C0.05347656 3.85796875 0.04445313 2.9659375 0.03515625 2.046875 C0.02355469 1.37140625 0.01195312 0.6959375 0 0 Z " fill="#747A87" transform="translate(266,167)"/>
<path d="M0 0 C1.98 0.495 1.98 0.495 4 1 C3.67 1.763125 3.34 2.52625 3 3.3125 C1.82563314 5.99069135 1.82563314 5.99069135 2 9 C1.01 9 0.02 9 -1 9 C-0.67 6.03 -0.34 3.06 0 0 Z " fill="#1CAAC0" transform="translate(357,103)"/>
<path d="M0 0 C2.75 -0.3125 2.75 -0.3125 6 0 C8.375 2.5 8.375 2.5 10 5 C6.1936543 4.32829194 2.64793184 3.27253436 -1 2 C-0.67 1.34 -0.34 0.68 0 0 Z " fill="#80D1DC" transform="translate(364,87)"/>
<path d="M0 0 C0.75 1.6875 0.75 1.6875 1 4 C-0.9375 6.75 -0.9375 6.75 -3 9 C-3.99 8.67 -4.98 8.34 -6 8 C-5.67 6.68 -5.34 5.36 -5 4 C-4.0409375 3.8453125 -4.0409375 3.8453125 -3.0625 3.6875 C-2.381875 3.460625 -1.70125 3.23375 -1 3 C-0.67 2.01 -0.34 1.02 0 0 Z " fill="#2AAB7E" transform="translate(407,164)"/>
<path d="M0 0 C-1.32 0.33 -2.64 0.66 -4 1 C-4 1.66 -4 2.32 -4 3 C-7.40562852 3.77842938 -10.50765756 4.09978121 -14 4 C-3.84375 -1.28125 -3.84375 -1.28125 0 0 Z " fill="#98D5E9" transform="translate(337,79)"/>
<path d="M0 0 C-0.598125 0.226875 -1.19625 0.45375 -1.8125 0.6875 C-4.5551169 2.33307014 -5.41968093 4.27035797 -7 7 C-7.66 7 -8.32 7 -9 7 C-8.8125 4.6875 -8.8125 4.6875 -8 2 C-3.84375 -1.28125 -3.84375 -1.28125 0 0 Z " fill="#747A85" transform="translate(108,86)"/>
<path d="M0 0 C0.99 0 1.98 0 3 0 C3 0.66 3 1.32 3 2 C2.34 2 1.68 2 1 2 C0.938125 2.78375 0.87625 3.5675 0.8125 4.375 C0.544375 5.24125 0.27625 6.1075 0 7 C-2.5625 8.3125 -2.5625 8.3125 -5 9 C-5 8.01 -5 7.02 -5 6 C-4.360625 5.7525 -3.72125 5.505 -3.0625 5.25 C-0.81258459 4.18437567 -0.81258459 4.18437567 -0.25 1.875 C-0.1675 1.25625 -0.085 0.6375 0 0 Z " fill="#29AA7D" transform="translate(384,185)"/>
<path d="M0 0 C0.66 0.33 1.32 0.66 2 1 C1.34 2.65 0.68 4.3 0 6 C-0.99 6 -1.98 6 -3 6 C-3.33 5.01 -3.66 4.02 -4 3 C-2.68 2.01 -1.36 1.02 0 0 Z " fill="#343C4D" transform="translate(359,426)"/>
<path d="M0 0 C2.39119721 2.39119721 2.59712795 3.69644917 3 7 C2.67 7.99 2.34 8.98 2 10 C1.34 10 0.68 10 0 10 C0 6.7 0 3.4 0 0 Z " fill="#1DA4CA" transform="translate(309,127)"/>
<path d="M0 0 C4.44495972 -0.1234711 7.80753477 0.60251159 12 2 C11.67 2.66 11.34 3.32 11 4 C9.53984709 3.71758359 8.08190207 3.42373386 6.625 3.125 C5.81289063 2.96257812 5.00078125 2.80015625 4.1640625 2.6328125 C2 2 2 2 0 0 Z " fill="#2FA4B8" transform="translate(370,89)"/>
<path d="M0 0 C0.598125 0.350625 1.19625 0.70125 1.8125 1.0625 C0.8225 1.5575 0.8225 1.5575 -0.1875 2.0625 C-0.1875 2.7225 -0.1875 3.3825 -0.1875 4.0625 C-4.0625 2.3125 -4.0625 2.3125 -5.1875 0.0625 C-2.1875 -0.9375 -2.1875 -0.9375 0 0 Z " fill="#0F1628" transform="translate(100.1875,425.9375)"/>
<path d="M0 0 C2.5 1.8125 2.5 1.8125 5 4 C5 4.99 5 5.98 5 7 C3.35 6.67 1.7 6.34 0 6 C0 4.02 0 2.04 0 0 Z " fill="#777D89" transform="translate(271,185)"/>
<path d="M0 0 C0 4.38968456 -2.12805101 5.76905739 -5 9 C-5 6.29745539 -4.96569331 4.49470772 -4 2 C-1.9375 0.75 -1.9375 0.75 0 0 Z " fill="#A1E1CD" transform="translate(406,170)"/>
<path d="M0 0 C2.97 0 5.94 0 9 0 C9 0.66 9 1.32 9 2 C6.69 2.33 4.38 2.66 2 3 C2 2.34 2 1.68 2 1 C1.34 0.67 0.68 0.34 0 0 Z " fill="#091928" transform="translate(336,194)"/>
<path d="M0 0 C0.99 0 1.98 0 3 0 C3 0.99 3 1.98 3 3 C3.66 3.33 4.32 3.66 5 4 C4.01 4.33 3.02 4.66 2 5 C1.01 4.34 0.02 3.68 -1 3 C-0.67 2.01 -0.34 1.02 0 0 Z " fill="#21B0A5" transform="translate(358,137)"/>
<path d="M0 0 C0.99 0 1.98 0 3 0 C4.0625 1.8125 4.0625 1.8125 5 4 C4.67 4.99 4.34 5.98 4 7 C2.35 5.02 0.7 3.04 -1 1 C-0.67 0.67 -0.34 0.34 0 0 Z " fill="#0D1424" transform="translate(272,114)"/>
<path d="M0 0 C3.78611227 0.54087318 5.55400767 2.11722332 8 5 C8 5.66 8 6.32 8 7 C7.34 7 6.68 7 6 7 C5.34 6.01 4.68 5.02 4 4 C3.01 3.67 2.02 3.34 1 3 C0.67 2.01 0.34 1.02 0 0 Z " fill="#0E1425" transform="translate(267,91)"/>
<path d="M0 0 C3.25 -0.25 3.25 -0.25 7 0 C8.32 1.32 9.64 2.64 11 4 C7.37 3.01 3.74 2.02 0 1 C0 0.67 0 0.34 0 0 Z " fill="#99D8DF" transform="translate(374,92)"/>
<path d="M0 0 C3.67420866 0.30618405 4.78135513 0.75771784 7.3125 3.5625 C8.1478125 4.7690625 8.1478125 4.7690625 9 6 C6.03824877 5.38722388 4.61941217 4.74627478 2 3 C2 2.34 2 1.68 2 1 C1.34 0.67 0.68 0.34 0 0 Z " fill="#9AA2AB" transform="translate(261,201)"/>
<path d="M0 0 C0 3.20395416 -0.74335022 5.09399739 -2 8 C-3.0625 6.1875 -3.0625 6.1875 -4 4 C-3.67 3.01 -3.34 2.02 -3 1 C-2.01 0.67 -1.02 0.34 0 0 Z " fill="#959AA3" transform="translate(104,108)"/>
<path d="M0 0 C0.33 0.99 0.66 1.98 1 3 C-1.62834278 3 -4.08186701 2.80210238 -6.6875 2.5 C-7.49574219 2.4071875 -8.30398437 2.314375 -9.13671875 2.21875 C-9.75160156 2.1465625 -10.36648437 2.074375 -11 2 C-11 1.67 -11 1.34 -11 1 C-7.26562152 0.12132271 -3.83225427 -0.08912219 0 0 Z " fill="#0C162C" transform="translate(254,97)"/>
</svg>
