<?xml version="1.0" encoding="UTF-8"?>
<svg version="1.1" xmlns="http://www.w3.org/2000/svg" width="500" height="500">
<path d="M0 0 C15.84718621 -0.09367453 31.69429699 -0.16409194 47.54169178 -0.20724869 C54.90085449 -0.22782477 62.2598446 -0.25584974 69.61889648 -0.30175781 C76.0372566 -0.34177827 82.45549164 -0.36746878 88.87397307 -0.37635398 C92.2687633 -0.38154322 95.6631959 -0.3936343 99.05787086 -0.42292023 C102.85886166 -0.45209917 106.65911969 -0.45594977 110.46020508 -0.45410156 C111.57079788 -0.46848267 112.68139069 -0.48286377 113.82563782 -0.49768066 C122.40055233 -0.45277807 132.16919324 1.08096533 138.65625 7.28515625 C145.39220352 15.88132949 146.91385187 24.33916881 147 35 C147.06948414 36.5600525 147.14257222 38.11994752 147.21875 39.6796875 C147.27346076 41.28637101 147.32557342 42.89314525 147.375 44.5 C147.43276611 45.63042725 147.43276611 45.63042725 147.49169922 46.78369141 C147.54999142 50.79688551 147.20582097 53.2636254 144.6640625 56.45703125 C142 59 142 59 139 60.1875 C136 60 136 60 133.36328125 58.1328125 C130.03466646 53.72033471 130.22137623 50.08134935 130.1875 44.6875 C130.16236328 43.77548828 130.13722656 42.86347656 130.11132812 41.92382812 C129.97817487 36.61671966 129.98133006 31.30848491 130 26 C121.87854936 31.29398264 114.07764851 36.98847736 106.28125 42.74609375 C104.97921628 43.70579648 103.6771326 44.66543143 102.375 45.625 C101.73594727 46.09776367 101.09689453 46.57052734 100.43847656 47.05761719 C96.25532244 50.13505375 92.00044149 53.01846286 87.5390625 55.68359375 C85.5585429 57.37759147 85.25972882 58.42676081 85 61 C85.15803038 61.60838966 85.31606075 62.21677933 85.47887993 62.84360504 C86.04158909 65.17209565 86.12584823 67.19826773 86.12698364 69.59216309 C86.12980347 70.5090239 86.13262329 71.4258847 86.13552856 72.37052917 C86.13249222 73.868377 86.13249222 73.868377 86.12939453 75.39648438 C86.13202301 76.98243156 86.13202301 76.98243156 86.13470459 78.60041809 C86.13910877 82.09821205 86.13619012 85.59595552 86.1328125 89.09375 C86.13348595 91.52225759 86.13445632 93.95076511 86.13571167 96.37927246 C86.1371867 101.47013999 86.13504031 106.56098998 86.13037109 111.65185547 C86.12467394 118.18232367 86.12795398 124.71275077 86.13394356 131.24321747 C86.1375544 136.25828359 86.13640816 141.27333995 86.13381577 146.28840637 C86.13314795 148.69659937 86.13396986 151.10479326 86.13629532 153.51298523 C86.13883037 156.87651931 86.1349691 160.23998653 86.12939453 163.60351562 C86.13141876 164.60208084 86.13344299 165.60064606 86.13552856 166.62947083 C86.13270874 167.54633163 86.12988892 168.46319244 86.12698364 169.40783691 C86.1264181 170.60021847 86.1264181 170.60021847 86.12584114 171.81668854 C86.0002054 173.99643643 85.6015593 175.90582942 85 178 C85.71800781 177.61070312 86.43601562 177.22140625 87.17578125 176.8203125 C94.84919615 172.6730372 102.55467185 168.59089957 110.28637695 164.55322266 C123.88823674 157.54882087 123.88823674 157.54882087 132 145 C135.09173752 143.45413124 137.59429552 143.70640479 141 144 C143.4375 145.4375 143.4375 145.4375 145 148 C145.85880166 152.58617793 145.52807481 156.61727474 143.3125 160.75 C141.08658989 163.8783061 138.89781565 166.48347589 136 169 C135.34 169 134.68 169 134 169 C134 169.66 134 170.32 134 171 C133.09378906 171.44730469 132.18757812 171.89460937 131.25390625 172.35546875 C123.23897598 176.31462874 123.23897598 176.31462874 115.375 180.5625 C111.07062778 182.99609534 106.67226193 185.20719814 102.234375 187.38671875 C99.99870249 188.50185492 97.78067077 189.65281439 95.578125 190.83203125 C94.41796875 191.44433594 93.2578125 192.05664062 92.0625 192.6875 C91.02222656 193.24824219 89.98195313 193.80898438 88.91015625 194.38671875 C78.52214215 199.11069711 67.21560414 199.50619036 56.00390625 199.66796875 C54.44176172 199.69993434 52.87963314 199.73268792 51.31752014 199.76615906 C46.21194757 199.86855145 41.10618959 199.93693671 36 200 C35.11460289 200.01154366 34.22920578 200.02308731 33.31697845 200.03498077 C21.11735294 200.19200535 8.91858696 200.26986677 -3.28198242 200.29516602 C-7.1805715 200.30417599 -11.07882136 200.32546249 -14.97729492 200.35668945 C-19.79101611 200.3952215 -24.60443285 200.41393184 -29.41830254 200.41844749 C-31.22065759 200.42326833 -33.02300939 200.43475072 -34.82527351 200.45348549 C-45.77482004 200.56076838 -56.10271746 200.53897598 -65.375 193.8125 C-72.0519693 186.65860432 -73.75707263 180.0988949 -73.8046875 170.4765625 C-73.82868622 169.32515778 -73.85268494 168.17375305 -73.87741089 166.98745728 C-73.9358687 163.71347317 -73.96942297 160.44046062 -73.98747253 157.16603088 C-74.00050128 154.91332736 -74.01957977 152.66073208 -74.03967285 150.40808105 C-74.13381807 139.28923022 -74.14121238 128.17116837 -74.12695312 117.05200195 C-74.12433568 113.46446497 -74.12917839 109.87695274 -74.13394356 106.28941917 C-74.13759153 102.77165291 -74.13639207 99.2539003 -74.13381577 95.73613358 C-74.13316044 94.08669655 -74.13392453 92.43725818 -74.13629532 90.78782272 C-74.14568429 82.44053945 -74.04261454 74.10977485 -73.62060547 65.77197266 C-73.59078646 65.08622854 -73.56096745 64.40048443 -73.53024483 63.69396019 C-72.95877586 53.86019337 -69.3331255 46.36876431 -62.0625 39.81640625 C-61.381875 39.21699219 -60.70125 38.61757812 -60 38 C-59.20980469 37.18144531 -58.41960937 36.36289063 -57.60546875 35.51953125 C-54.98490614 32.98540398 -52.37361157 31.0949009 -49.3125 29.125 C-45.62405281 26.71968535 -41.96451538 24.30060885 -38.375 21.75 C-36.58488115 20.49778439 -34.79293226 19.24818402 -33 18 C-32.00492432 17.30221436 -32.00492432 17.30221436 -30.98974609 16.59033203 C-10.08686224 2 -10.08686224 2 0 2 C0 1.34 0 0.68 0 0 Z M-22.67504883 30.18554688 C-27.35088398 33.58152569 -32.15635297 36.70381846 -37.0859375 39.72265625 C-37.71757812 40.14417969 -38.34921875 40.56570312 -39 41 C-39 41.33 -39 41.66 -39 42 C-33.13285865 42.27493814 -27.26957466 42.47287551 -21.39746094 42.60424805 C-19.40688681 42.65907727 -17.41674537 42.73377754 -15.42773438 42.82983398 C-4.84296745 43.32765879 3.73239586 43.70877581 12.1484375 36.58203125 C13.22263627 35.59391717 14.28530574 34.59305463 15.33349609 33.57739258 C17.57629306 31.40954717 19.14897726 30.13589448 22 29 C22 28.34 22 27.68 22 27 C22.556875 26.7525 23.11375 26.505 23.6875 26.25 C28.07506956 23.87834078 31.55705649 20.57045994 35 17 C30.85501889 14.92750945 25.51283859 15.77311204 20.95336914 15.75976562 C18.96944084 15.75015473 16.98565458 15.71900295 15.00195312 15.6875 C-0.49260948 15.62460984 -10.45566631 21.28908067 -22.67504883 30.18554688 Z M57 20 C57 20.66 57 21.32 57 22 C56.45859375 22.2475 55.9171875 22.495 55.359375 22.75 C52.4717151 24.27988604 49.90223982 26.09150997 47.25 28 C46.26515625 28.70125 45.2803125 29.4025 44.265625 30.125 C43.51796875 30.74375 42.7703125 31.3625 42 32 C42 32.66 42 33.32 42 34 C41.29875 34.2475 40.5975 34.495 39.875 34.75 C36.62997541 36.16088026 33.89683263 37.97895398 31 40 C31.33 40.66 31.66 41.32 32 42 C32.60360352 41.99476318 33.20720703 41.98952637 33.82910156 41.98413086 C63.81557445 41.75834632 63.81557445 41.75834632 70.125 45 C71.98401833 45.89562918 71.98401833 45.89562918 74 46 C77.77901791 44.2406925 80.79467207 41.6346464 84 39 C85.80458457 37.67663798 87.61721674 36.36418404 89.4375 35.0625 C91.29210176 33.70892927 93.14626234 32.35475388 95 31 C100.98182359 26.64077633 106.9679162 22.28948181 113 18 C112.505 17.01 112.505 17.01 112 16 C105.45309814 15.89816649 98.90640229 15.8283533 92.35888672 15.78027344 C90.13387418 15.76021954 87.90891393 15.73296935 85.68408203 15.69824219 C82.47675635 15.64945066 79.27013049 15.62696838 76.0625 15.609375 C74.58233398 15.57840729 74.58233398 15.57840729 73.07226562 15.54681396 C66.60583225 15.54473642 62.56539072 16.67686381 57 20 Z M42.4699688 57.01455498 C39.97009424 57.03175797 37.47028905 57.05318113 34.97045898 57.07592773 C33.56835426 57.08814865 33.56835426 57.08814865 32.13792419 57.10061646 C23.64178831 57.17557363 15.14570499 57.25656463 6.64964199 57.33933926 C0.95386791 57.39482111 -4.74191005 57.4483424 -10.43774414 57.49731445 C-15.96824169 57.54489806 -21.49867537 57.59720695 -27.0290966 57.65294075 C-29.13469834 57.67335084 -31.2403172 57.69206615 -33.34594917 57.70907402 C-36.27570126 57.73306553 -39.20533084 57.76311764 -42.13500977 57.79467773 C-43.44480804 57.80331093 -43.44480804 57.80331093 -44.78106689 57.81211853 C-49.02564615 57.746413 -49.02564615 57.746413 -53 59 C-53 59.66 -53 60.32 -53 61 C-53.639375 61.268125 -54.27875 61.53625 -54.9375 61.8125 C-57.33131686 62.88667752 -57.33131686 62.88667752 -58 66 C-58.10314339 67.50672074 -58.15206391 69.01747939 -58.1673584 70.52764893 C-58.17884918 71.4556279 -58.19033997 72.38360687 -58.20217896 73.33970642 C-58.20958099 74.35585526 -58.21698303 75.37200409 -58.22460938 76.41894531 C-58.23599945 77.49078568 -58.24738953 78.56262604 -58.25912476 79.66694641 C-58.36964657 90.86630686 -58.41717889 102.0663225 -58.45996094 113.26611328 C-58.48225673 118.58187033 -58.52405857 123.89692765 -58.58300781 129.21240234 C-58.65402479 135.62852127 -58.69078245 142.04398033 -58.70307922 148.46047211 C-58.71348994 150.90534239 -58.73593772 153.3501923 -58.77067566 155.79483795 C-58.81681635 159.21850224 -58.81888878 162.63957088 -58.81054688 166.06347656 C-58.83414276 167.07152847 -58.85773865 168.07958038 -58.88204956 169.11817932 C-58.82446927 174.00467089 -58.36593495 177.32702854 -55.15306091 181.13386536 C-50.44284349 185.13063943 -45.68206729 184.93834518 -39.74047852 184.79467773 C-38.62754929 184.79569992 -37.51462006 184.79672211 -36.3679657 184.79777527 C-32.70396054 184.79291388 -29.04247389 184.73853455 -25.37890625 184.68359375 C-22.83301657 184.67053257 -20.28710926 184.66057086 -17.74119568 184.65357971 C-11.73437933 184.62962023 -5.7286374 184.57450369 0.27774912 184.50413328 C7.11925009 184.42572899 13.9607953 184.38736336 20.80263412 184.35226524 C34.8689189 184.27921412 48.93441018 184.15619198 63 184 C63 183.34 63 182.68 63 182 C64.175625 181.690625 64.175625 181.690625 65.375 181.375 C68.19113749 180.23789036 68.19113749 180.23789036 69.14689636 177.54438782 C70.25432793 172.94334429 70.28713008 168.63068596 70.2746582 163.91479492 C70.27976913 162.91400406 70.28488007 161.9132132 70.29014587 160.88209534 C70.3040186 157.58149189 70.30308659 154.28109785 70.30078125 150.98046875 C70.3046699 148.67889834 70.30900492 146.37732865 70.31376648 144.07575989 C70.32122405 139.25320102 70.32094106 134.43071537 70.31567383 129.6081543 C70.30988473 123.44133866 70.32679919 117.2748239 70.3500185 111.10805798 C70.36478313 106.35441854 70.36562373 101.60085107 70.36250877 96.84719276 C70.36302077 94.57430743 70.36823559 92.30141794 70.37832069 90.02855492 C70.39071827 86.84330342 70.38387281 83.65863156 70.37231445 80.47338867 C70.37995819 79.54269562 70.38760193 78.61200256 70.39547729 77.65310669 C70.34145226 70.88469624 69.03571596 65.07143192 66 59 C64.02944925 58.29912046 64.02944925 58.29912046 61.625 57.875 C60.83351563 57.70742187 60.04203125 57.53984375 59.2265625 57.3671875 C56.40274527 57.045833 53.7613313 56.96095181 50.92518616 56.9723053 C49.45496097 56.97733661 49.45496097 56.97733661 47.95503426 56.98246956 C46.12667999 56.99331609 44.29832497 57.00403666 42.4699688 57.01455498 Z " fill="#19243A" transform="translate(187,150)"/>
<path d="M0 0 C4.31089961 3.10785786 7.95683755 6.0870144 9.3203125 11.40625 C9.87625763 16.13891109 9.56555973 20.24770811 8.6875 24.9375 C10.09902344 24.88529297 10.09902344 24.88529297 11.5390625 24.83203125 C13.40691406 24.79142578 13.40691406 24.79142578 15.3125 24.75 C16.54226562 24.71519531 17.77203125 24.68039063 19.0390625 24.64453125 C23.97744206 25.04108207 27.19019869 26.72347191 31 29.8125 C32.91020328 32.21794117 33.35165132 33.9148619 33.6875 36.9375 C34.3475 36.9375 35.0075 36.9375 35.6875 36.9375 C36.39779472 44.49819265 35.42061672 49.86622462 30.6875 55.9375 C25.73029299 60.06850584 21.76623674 60.98266207 15.5 60.9375 C11.88315595 60.65333303 11.88315595 60.65333303 9.6875 61.9375 C9.36945002 64.4869014 9.36945002 64.4869014 9.3125 67.5 C8.84090798 74.00951606 7.87672484 78.9863847 2.9609375 83.53515625 C-1.97201563 87.0629056 -6.36252932 87.87357134 -12.3125 86.9375 C-18.1300624 85.432958 -21.37830605 82.49047791 -24.8671875 77.765625 C-27.55956812 72.49729102 -27.90596494 66.77003363 -28.3125 60.9375 C-29.03695312 60.97230469 -29.76140625 61.00710938 -30.5078125 61.04296875 C-36.25248168 61.20381949 -40.32572966 61.17216184 -45.3125 57.9375 C-45.3125 57.2775 -45.3125 56.6175 -45.3125 55.9375 C-46.240625 55.504375 -46.240625 55.504375 -47.1875 55.0625 C-49.59030001 53.7904294 -51.0176649 52.80094565 -51.9140625 50.17578125 C-53.01153563 44.01056453 -53.78768988 37.22281859 -50.0625 31.875 C-46.91360648 28.22937961 -44.10439901 25.85299189 -39.3125 24.9375 C-37.23015408 24.87006652 -35.14581443 24.85235528 -33.0625 24.875 C-31.98484375 24.88402344 -30.9071875 24.89304688 -29.796875 24.90234375 C-28.97703125 24.91394531 -28.1571875 24.92554688 -27.3125 24.9375 C-27.28671875 24.091875 -27.2609375 23.24625 -27.234375 22.375 C-26.87685025 15.22450492 -26.29181182 9.96331504 -22.3125 3.9375 C-20.17578125 2.73046875 -20.17578125 2.73046875 -18.3125 1.9375 C-18.3125 1.2775 -18.3125 0.6175 -18.3125 -0.0625 C-12.34409399 -1.7997825 -5.91313963 -1.89666743 0 0 Z M-10.3125 11.9375 C-12.49787917 13.69347015 -12.49787917 13.69347015 -12.47607422 15.84521484 C-12.4401416 16.60527832 -12.40420898 17.3653418 -12.3671875 18.1484375 C-12.34269531 18.98117188 -12.31820312 19.81390625 -12.29296875 20.671875 C-12.2229546 22.42482192 -12.14489715 24.17746702 -12.05859375 25.9296875 C-11.9604353 29.67125673 -11.89542931 32.17960976 -13.72265625 35.5 C-17.66673989 37.68917463 -21.43241247 37.53583781 -25.875 37.5625 C-27.58477986 37.58803816 -29.294464 37.62155889 -31.00390625 37.6640625 C-31.75873291 37.67002441 -32.51355957 37.67598633 -33.29125977 37.68212891 C-35.6261618 37.82447509 -35.6261618 37.82447509 -38.3125 39.9375 C-38.72916667 42.4375 -38.72916667 42.4375 -38.3125 44.9375 C-35.79121644 47.45878356 -34.80010987 47.23103069 -31.3046875 47.3515625 C-30.31855469 47.39023437 -29.33242187 47.42890625 -28.31640625 47.46875 C-27.28386719 47.4996875 -26.25132812 47.530625 -25.1875 47.5625 C-24.14722656 47.60117187 -23.10695312 47.63984375 -22.03515625 47.6796875 C-19.46111689 47.77414766 -16.88708845 47.85971214 -14.3125 47.9375 C-13.47878641 50.89258447 -13.13360466 53.63859613 -12.99609375 56.703125 C-12.95419922 57.59257812 -12.91230469 58.48203125 -12.86914062 59.3984375 C-12.82982422 60.31882812 -12.79050781 61.23921875 -12.75 62.1875 C-12.70681641 63.12335938 -12.66363281 64.05921875 -12.61914062 65.0234375 C-12.5133195 67.32798641 -12.41123443 69.63263839 -12.3125 71.9375 C-10.6625 72.5975 -9.0125 73.2575 -7.3125 73.9375 C-4.52888478 71.15388478 -4.94565399 69.20060263 -4.75 65.3125 C-4.67394531 64.05695313 -4.59789062 62.80140625 -4.51953125 61.5078125 C-4.45121094 60.32960938 -4.38289063 59.15140625 -4.3125 57.9375 C-4.12795261 55.17339016 -3.83743903 52.66718294 -3.3125 49.9375 C-0.23446609 47.88547739 0.53317955 47.67964673 4.03125 47.59375 C4.86527344 47.56410156 5.69929688 47.53445313 6.55859375 47.50390625 C8.31119792 47.45963542 10.06380208 47.41536458 11.81640625 47.37109375 C12.65042969 47.34144531 13.48445313 47.31179688 14.34375 47.28125 C15.10494141 47.26255859 15.86613281 47.24386719 16.65039062 47.22460938 C18.99725611 47.04382683 18.99725611 47.04382683 21.6875 44.9375 C21.1925 41.9675 21.1925 41.9675 20.6875 38.9375 C14.97074865 37.87391835 9.57825124 37.99652339 3.7734375 38.29296875 C-0.26345098 37.82796008 -1.73270145 37.10014193 -4.3125 33.9375 C-4.84126563 30.72420266 -4.64650351 27.61455444 -4.4375 24.375 C-4.34305563 22.66606737 -4.26175579 20.95634395 -4.1953125 19.24609375 C-4.14777832 18.49126709 -4.10024414 17.73644043 -4.05126953 16.95874023 C-4.15655355 14.84491273 -4.15655355 14.84491273 -5.63232422 13.16821289 C-7.36874766 11.64203928 -7.36874766 11.64203928 -10.3125 11.9375 Z " fill="#1B263C" transform="translate(201.3125,228.0625)"/>
<path d="M0 0 C0.85254868 0.00420456 1.70509735 0.00840912 2.58348083 0.01274109 C5.44245471 0.02952867 8.30125883 0.05531368 11.16015625 0.08203125 C12.19150696 0.0899469 13.22285767 0.09786255 14.28546143 0.10601807 C20.95540036 0.15837634 27.62438734 0.23939718 34.29370117 0.34448242 C36.61002986 0.37829142 38.92645215 0.40613591 41.24291992 0.4284668 C44.63365749 0.46180436 48.02363897 0.51397532 51.4140625 0.5703125 C52.4514003 0.57670242 53.4887381 0.58309235 54.55751038 0.5896759 C55.5137883 0.60947006 56.47006622 0.62926422 57.45532227 0.6496582 C58.29434586 0.66076126 59.13336945 0.67186432 59.99781799 0.68330383 C62.67513344 1.1769912 63.53611995 1.92605952 65.16015625 4.08203125 C66.16015625 7.45703125 66.16015625 7.45703125 66.16015625 11.08203125 C63.65515899 14.28286108 62.02194885 15.79476705 58.16015625 17.08203125 C55.90764442 17.18692699 53.65213534 17.2307128 51.3972168 17.24316406 C50.37226105 17.25061142 50.37226105 17.25061142 49.32659912 17.25820923 C47.06668081 17.27281029 44.80683272 17.27962977 42.546875 17.28515625 C40.97369892 17.29090987 39.40052285 17.29666758 37.8273468 17.3024292 C34.52787958 17.31293366 31.22843667 17.3187798 27.92895508 17.32226562 C23.70891498 17.32774593 19.48919825 17.35176617 15.26925945 17.38023758 C12.01867241 17.39889763 8.7681627 17.40407137 5.51752663 17.4056015 C3.96225023 17.40862151 2.40697499 17.41662802 0.85175133 17.42978668 C-1.3286533 17.44691647 -3.50827537 17.44495042 -5.6887207 17.43847656 C-6.92765579 17.44212219 -8.16659088 17.44576782 -9.44306946 17.44952393 C-13.23645583 17.0391223 -15.62690417 16.12112401 -18.83984375 14.08203125 C-20.46484375 10.76953125 -20.46484375 10.76953125 -20.83984375 7.08203125 C-19.46484375 3.70703125 -19.46484375 3.70703125 -16.83984375 1.08203125 C-11.21572173 0.05590367 -5.7028714 -0.05252678 0 0 Z " fill="#18A1D9" transform="translate(320.83984375,214.91796875)"/>
<path d="M0 0 C0.88448822 -0.00570007 1.76897644 -0.01140015 2.68026733 -0.01727295 C4.53748397 -0.02666101 6.3947168 -0.03323205 8.25195312 -0.03710938 C11.08492786 -0.04687152 13.91719322 -0.07797569 16.75 -0.109375 C18.56249573 -0.11590118 20.3749966 -0.12115316 22.1875 -0.125 C23.0282608 -0.1373468 23.86902161 -0.1496936 24.73526001 -0.16241455 C29.7121316 -0.143617 33.1725582 0.39466021 37.4609375 3.203125 C39.4609375 6.203125 39.4609375 6.203125 39.3984375 9.640625 C38.4609375 13.203125 38.4609375 13.203125 36.60546875 15.39257812 C31.89857696 18.10269532 27.55311907 17.77548444 22.2109375 17.734375 C21.12006836 17.7382019 20.02919922 17.74202881 18.90527344 17.74597168 C16.60220414 17.74868989 14.29910392 17.74133515 11.99609375 17.72460938 C8.47325738 17.70319987 4.95246052 17.72441561 1.4296875 17.75 C-0.80990033 17.74735671 -3.04948689 17.74223171 -5.2890625 17.734375 C-6.34125977 17.74247192 -7.39345703 17.75056885 -8.47753906 17.75891113 C-12.94354682 17.70171553 -15.75608117 17.65758611 -19.671875 15.38476562 C-22.3199446 12.29073451 -22.68104535 10.24963629 -22.5390625 6.203125 C-20.6015625 3.328125 -20.6015625 3.328125 -17.5390625 1.203125 C-11.69196829 0.19459456 -5.92313856 0.03008515 0 0 Z " fill="#21AD83" transform="translate(322.5390625,270.796875)"/>
<path d="M0 0 C0.83700439 -0.00016617 1.67400879 -0.00033234 2.53637695 -0.00050354 C3.48746338 -0.00988449 4.4385498 -0.01926544 5.41845703 -0.02893066 C6.44350342 -0.01769669 7.4685498 -0.00646271 8.5246582 0.00511169 C10.10573364 0.00292885 10.10573364 0.00292885 11.71875 0.0007019 C13.94802615 0.00236243 16.17731359 0.01394079 18.40649414 0.03465271 C21.82398033 0.06359385 25.23991488 0.05526705 28.6574707 0.04222107 C30.82154076 0.04845865 32.98560591 0.05684974 35.1496582 0.06761169 C36.17470459 0.06467606 37.19975098 0.06174042 38.25585938 0.05871582 C39.2069458 0.07139999 40.15803223 0.08408417 41.13793945 0.09715271 C42.39344604 0.10525719 42.39344604 0.10525719 43.67431641 0.11352539 C46.33467227 0.59038269 47.20072776 1.38819125 48.8371582 3.50120544 C49.83908302 6.42990876 49.93090792 8.10745665 49.2121582 11.12620544 C47.41566333 14.22924204 46.11420274 15.00153198 42.8371582 16.50120544 C39.66851878 16.93582083 36.53156591 16.92175706 33.3371582 16.89964294 C32.42385742 16.90251312 31.51055664 16.9053833 30.56958008 16.90834045 C28.64314146 16.91037734 26.71668198 16.9048738 24.7902832 16.89231873 C21.84710296 16.87625971 18.9052959 16.89218015 15.9621582 16.91136169 C14.08715518 16.9093792 12.21215301 16.90553538 10.3371582 16.89964294 C9.02134766 16.90875198 9.02134766 16.90875198 7.67895508 16.91804504 C2.91033289 16.86334244 -0.28921225 16.59726082 -4.1628418 13.50120544 C-5.92363057 11.10012984 -6.19859122 9.9778644 -5.9753418 7.00120544 C-4.8512614 3.54249652 -3.74134491 0.86699935 0 0 Z " fill="#1EA9AE" transform="translate(306.162841796875,243.49879455566406)"/>
<path d="M0 0 C1.5625 2.875 1.5625 2.875 1.6875 6.4375 C0.5625 9.875 0.5625 9.875 -1.9375 12.3125 C-6.31690899 14.2675933 -9.71650643 14.60000973 -14.4375 13.875 C-19.52840909 11.78409091 -19.52840909 11.78409091 -21.4375 9.875 C-21.71271406 6.2972172 -21.60986101 3.44132902 -20.5625 0 C-15.65884424 -4.90365576 -5.04299442 -4.39645667 0 0 Z " fill="#1CAE88" transform="translate(385.4375,246.125)"/>
<path d="M0 0 C1.32 0.99 2.64 1.98 4 3 C3.7834375 3.8353125 3.7834375 3.8353125 3.5625 4.6875 C2.97230872 7.11384195 2.476571 9.54906345 2 12 C3.32 12.33 4.64 12.66 6 13 C6 12.34 6 11.68 6 11 C6.78375 11.20625 7.5675 11.4125 8.375 11.625 C9.24125 11.74875 10.1075 11.8725 11 12 C11.66 11.34 12.32 10.68 13 10 C13.66 11.32 14.32 12.64 15 14 C14 15 14 15 10.94897461 15.11352539 C9.60008729 15.11336634 8.25119386 15.10767612 6.90234375 15.09765625 C5.83905602 15.09553383 5.83905602 15.09553383 4.75428772 15.09336853 C2.48198288 15.08775443 0.20977525 15.07519963 -2.0625 15.0625 C-3.59960796 15.05748681 -5.13671745 15.05292359 -6.67382812 15.04882812 C-10.44925642 15.03778042 -14.22461171 15.02050641 -18 15 C-18 14.34 -18 13.68 -18 13 C-17.195625 12.87625 -16.39125 12.7525 -15.5625 12.625 C-14.716875 12.41875 -13.87125 12.2125 -13 12 C-12.67 11.34 -12.34 10.68 -12 10 C-11.67 10.99 -11.34 11.98 -11 13 C-7.535 12.505 -7.535 12.505 -4 12 C-4.20496094 11.45730469 -4.40992188 10.91460937 -4.62109375 10.35546875 C-4.89050781 9.64003906 -5.15992188 8.92460937 -5.4375 8.1875 C-5.83775391 7.12595703 -5.83775391 7.12595703 -6.24609375 6.04296875 C-6.86225186 4.37327604 -7.43719235 2.68842296 -8 1 C-3.25 0.875 -3.25 0.875 -1 2 C-0.67 1.34 -0.34 0.68 0 0 Z " fill="#0E1932" transform="translate(187,192)"/>
<path d="M0 0 C3 2 3 2 4 5.3125 C4 9 4 9 1.75 11.875 C-2.5122997 15.16859522 -5.60522029 15.12282262 -10.8581543 15.11352539 C-11.55109589 15.11367142 -12.24403748 15.11381744 -12.95797729 15.1139679 C-15.24675637 15.11327163 -17.5354539 15.1054926 -19.82421875 15.09765625 C-21.41176814 15.09579106 -22.99931811 15.09436763 -24.58686829 15.09336853 C-28.7642272 15.08955134 -32.94155131 15.07972786 -37.11889648 15.06866455 C-41.38199391 15.05843328 -45.64509696 15.05386723 -49.90820312 15.04882812 C-58.27215138 15.03810489 -66.63607136 15.02103803 -75 15 C-75 14.67 -75 14.34 -75 14 C-50.66012524 13.29028361 -26.3507416 12.83862172 -2 13 C-2 12.34 -2 11.68 -2 11 C-1.01 11 -0.02 11 1 11 C0.505 5.555 0.505 5.555 0 0 Z " fill="#BADCE7" transform="translate(383,217)"/>
<path d="M0 0 C1.5625 2.875 1.5625 2.875 1.6875 6.4375 C0.5625 9.875 0.5625 9.875 -1.9375 12.3125 C-6.31690899 14.2675933 -9.71650643 14.60000973 -14.4375 13.875 C-19.52840909 11.78409091 -19.52840909 11.78409091 -21.4375 9.875 C-21.71271406 6.2972172 -21.60986101 3.44132902 -20.5625 0 C-15.65884424 -4.90365576 -5.04299442 -4.39645667 0 0 Z M-17.4375 -1.125 C-19.77861027 1.69558486 -19.77861027 1.69558486 -19.125 4.875 C-18.48198305 7.90209118 -18.48198305 7.90209118 -17.4375 10.875 C-14.40576719 12.06993974 -11.41290573 11.97993955 -8.1875 11.9375 C-6.84945313 11.92396484 -6.84945313 11.92396484 -5.484375 11.91015625 C-4.80890625 11.89855469 -4.1334375 11.88695312 -3.4375 11.875 C-1.1482379 7.4038041 -1.1482379 7.4038041 -0.5 2.5625 C-1.79291589 0.2352514 -2.9650686 -0.15264883 -5.4375 -1.125 C-8.41658691 -1.47780239 -8.41658691 -1.47780239 -11.5625 -1.4375 C-12.61695313 -1.45425781 -13.67140625 -1.47101563 -14.7578125 -1.48828125 C-16.08425781 -1.30845703 -16.08425781 -1.30845703 -17.4375 -1.125 Z " fill="#6CBEA9" transform="translate(385.4375,246.125)"/>
<path d="M0 0 C2.475 0.495 2.475 0.495 5 1 C1.70353089 4.85776335 1.70353089 4.85776335 -1.37921143 5.48101807 C-2.25857361 5.47213562 -3.13793579 5.46325317 -4.04394531 5.45410156 C-5.04468079 5.45379944 -6.04541626 5.45349731 -7.07647705 5.45318604 C-8.14952087 5.43254089 -9.2225647 5.41189575 -10.328125 5.390625 C-11.43226746 5.38496521 -12.53640991 5.37930542 -13.67401123 5.37347412 C-17.19978226 5.35108768 -20.72453624 5.30088496 -24.25 5.25 C-26.64061032 5.22993803 -29.03123658 5.21168674 -31.421875 5.1953125 C-37.28159687 5.15121543 -43.14072578 5.08427998 -49 5 C-48.67 4.34 -48.34 3.68 -48 3 C-32.16 2.67 -16.32 2.34 0 2 C0 1.34 0 0.68 0 0 Z " fill="#59B19E" transform="translate(355,283)"/>
<path d="M0 0 C15.84 0 31.68 0 48 0 C48 0.99 48 1.98 48 3 C32.16 2.67 16.32 2.34 0 2 C0 1.34 0 0.68 0 0 Z " fill="#131929" transform="translate(261,151)"/>
<path d="M0 0 C-2.58599266 2.73421419 -4.69086154 3.22769963 -8.30957031 3.34057617 C-10.06582684 3.34010274 -11.82212939 3.32324488 -13.578125 3.29296875 C-14.96798615 3.28660149 -14.96798615 3.28660149 -16.38592529 3.28010559 C-19.34091434 3.26333322 -22.29521761 3.22568355 -25.25 3.1875 C-27.25519847 3.1724513 -29.26040765 3.15876322 -31.265625 3.14648438 C-36.17734696 3.11343438 -41.08855726 3.06166182 -46 3 C-46.33 2.34 -46.66 1.68 -47 1 C-41.11012571 0.85681821 -35.22023311 0.71442402 -29.33032227 0.57275391 C-27.32738737 0.52446699 -25.32445761 0.47596632 -23.3215332 0.42724609 C-20.43962921 0.35718244 -17.55770749 0.28789201 -14.67578125 0.21875 C-13.78288895 0.19687622 -12.88999664 0.17500244 -11.970047 0.15246582 C-7.97906097 0.05739965 -3.99249006 -0.02880065 0 0 Z " fill="#98CFD0" transform="translate(353,257)"/>
<path d="M0 0 C-1.63412443 1.70840281 -2.86906094 2.93453047 -5 4 C-4.34 5.65 -3.68 7.3 -3 9 C-4.65 9.33 -6.3 9.66 -8 10 C-8 9.34 -8 8.68 -8 8 C-9.32 8.33 -10.64 8.66 -12 9 C-12 8.34 -12 7.68 -12 7 C-11.34 7 -10.68 7 -10 7 C-10 6.01 -10 5.02 -10 4 C-10.66 4 -11.32 4 -12 4 C-12 6.97 -12 9.94 -12 13 C-12.99 12.01 -13.98 11.02 -15 10 C-14.93509111 6.36510203 -14.8059709 3.96716508 -12.4375 1.125 C-8.64146373 -0.62701674 -3.88863818 -1.94431909 0 0 Z " fill="#2AAD85" transform="translate(315,272)"/>
<path d="M0 0 C0.33 0 0.66 0 1 0 C1 17.49 1 34.98 1 53 C0.67 53 0.34 53 0 53 C-0.06058594 51.80761719 -0.12117188 50.61523438 -0.18359375 49.38671875 C-0.26801149 47.82030075 -0.35265887 46.25389512 -0.4375 44.6875 C-0.47681641 43.90181641 -0.51613281 43.11613281 -0.55664062 42.30664062 C-0.59853516 41.54931641 -0.64042969 40.79199219 -0.68359375 40.01171875 C-0.73858032 38.96697388 -0.73858032 38.96697388 -0.79467773 37.90112305 C-0.95581153 35.7783428 -0.95581153 35.7783428 -2 33 C-2 32.01 -2 31.02 -2 30 C-2.02320313 28.74316406 -2.04640625 27.48632812 -2.0703125 26.19140625 C-2.19467941 17.24281872 -1.9307357 8.79174291 0 0 Z " fill="#28323C" transform="translate(271,219)"/>
<path d="M0 0 C1.26907951 0.01332367 1.26907951 0.01332367 2.563797 0.0269165 C3.5245665 0.02721863 4.485336 0.02752075 5.47521973 0.02783203 C6.50967728 0.04847717 7.54413483 0.06912231 8.60993958 0.09039307 C10.20168755 0.09888275 10.20168755 0.09888275 11.82559204 0.10754395 C15.21900817 0.12995664 18.61137318 0.18016358 22.00447083 0.23101807 C24.30328372 0.25107667 26.60211313 0.26932855 28.9009552 0.28570557 C34.53998646 0.32983736 40.17840356 0.39679835 45.81697083 0.48101807 C46.31197083 1.47101807 46.31197083 1.47101807 46.81697083 2.48101807 C30.97697083 2.48101807 15.13697083 2.48101807 -1.18302917 2.48101807 C-2.57760612 5.27017195 -2.36522137 7.38375071 -2.18302917 10.48101807 C-1.27045612 13.26667866 -1.27045612 13.26667866 -0.18302917 15.48101807 C-2.59406744 14.51660276 -3.95707676 13.79304759 -5.49552917 11.66851807 C-6.38649728 8.83361954 -6.09812153 7.29668686 -5.18302917 4.48101807 C-2.92143723 0.64372208 -2.92143723 0.64372208 0 0 Z " fill="#53A8AD" transform="translate(306.1830291748047,243.51898193359375)"/>
<path d="M0 0 C0.66 0.33 1.32 0.66 2 1 C2 1.66 2 2.32 2 3 C3.05960938 2.91621094 4.11921875 2.83242187 5.2109375 2.74609375 C6.59893625 2.64293168 7.98695835 2.54008337 9.375 2.4375 C10.07367188 2.38142578 10.77234375 2.32535156 11.4921875 2.26757812 C16.7734375 1.88671875 16.7734375 1.88671875 19 3 C19 2.34 19 1.68 19 1 C20.175625 1.309375 20.175625 1.309375 21.375 1.625 C22.24125 1.74875 23.1075 1.8725 24 2 C24.66 1.34 25.32 0.68 26 0 C26.66 1.32 27.32 2.64 28 4 C27 5 27 5 23.94897461 5.11352539 C22.60008729 5.11336634 21.25119386 5.10767612 19.90234375 5.09765625 C18.83905602 5.09553383 18.83905602 5.09553383 17.75428772 5.09336853 C15.48198288 5.08775443 13.20977525 5.07519963 10.9375 5.0625 C9.40039204 5.05748681 7.86328255 5.05292359 6.32617188 5.04882812 C2.55074358 5.03778042 -1.22461171 5.02050641 -5 5 C-5 4.34 -5 3.68 -5 3 C-3.35 2.67 -1.7 2.34 0 2 C0 1.34 0 0.68 0 0 Z " fill="#0B1527" transform="translate(174,202)"/>
<path d="M0 0 C11.94714163 -0.573973 11.94714163 -0.573973 17 3 C19.375 5.6875 19.375 5.6875 21 8 C19.68 8.99 18.36 9.98 17 11 C16.34 10.67 15.68 10.34 15 10 C15 9.01 15 8.02 15 7 C12.0936485 4.19744677 11.21174952 4 7 4 C7 3.01 7 2.02 7 1 C4.69 1 2.38 1 0 1 C0 0.67 0 0.34 0 0 Z " fill="#262C3D" transform="translate(187,227)"/>
<path d="M0 0 C0.33 0 0.66 0 1 0 C1 10.89 1 21.78 1 33 C0.67 33 0.34 33 0 33 C-1.25288587 27.33855009 -1.43002974 21.71513261 -1.6875 15.9375 C-1.74744141 14.84888672 -1.80738281 13.76027344 -1.86914062 12.63867188 C-1.91619141 11.59130859 -1.96324219 10.54394531 -2.01171875 9.46484375 C-2.05772217 8.512146 -2.10372559 7.55944824 -2.15112305 6.57788086 C-1.99206079 3.86457165 -1.3903635 2.30753463 0 0 Z " fill="#0F1887" transform="translate(129,216)"/>
<path d="M0 0 C0.9178125 0.00451172 1.835625 0.00902344 2.78125 0.01367188 C5.02090391 0.02533674 7.26041545 0.04170386 9.5 0.0625 C9.83 0.7225 10.16 1.3825 10.5 2.0625 C5.76303914 3.64148695 0.96056587 3.24697895 -4 3.25 C-5.58748047 3.26836914 -5.58748047 3.26836914 -7.20703125 3.28710938 C-8.22152344 3.28904297 -9.23601562 3.29097656 -10.28125 3.29296875 C-11.21001953 3.29707764 -12.13878906 3.30118652 -13.09570312 3.30541992 C-15.5 3.0625 -15.5 3.0625 -18.5 1.0625 C-12.28829926 0.14090421 -6.27390894 -0.05927385 0 0 Z " fill="#59B7D7" transform="translate(322.5,214.9375)"/>
<path d="M0 0 C-0.99 0.495 -0.99 0.495 -2 1 C-2.33 1.99 -2.66 2.98 -3 4 C-4.65 4 -6.3 4 -8 4 C-8.33 3.34 -8.66 2.68 -9 2 C-11.31 2 -13.62 2 -16 2 C-15.67 3.32 -15.34 4.64 -15 6 C-16.32 6 -17.64 6 -19 6 C-19.66 4.02 -20.32 2.04 -21 0 C-13.78194245 -0.7938642 -7.19172157 -1.07875823 0 0 Z " fill="#202937" transform="translate(240,192)"/>
<path d="M0 0 C7.40239645 -0.12886183 14.63959083 0.20274098 22 1 C22 1.66 22 2.32 22 3 C18.70835171 3.02895225 15.41673601 3.0467823 12.125 3.0625 C11.18785156 3.07087891 10.25070313 3.07925781 9.28515625 3.08789062 C7.94130859 3.09272461 7.94130859 3.09272461 6.5703125 3.09765625 C5.32918701 3.10551147 5.32918701 3.10551147 4.06298828 3.11352539 C2 3 2 3 0 2 C0 1.34 0 0.68 0 0 Z " fill="#313540" transform="translate(165,347)"/>
<path d="M0 0 C1.75994274 3.16789693 2.24872886 5.24364431 3 9 C9.93 9.495 9.93 9.495 17 10 C14.61629091 12.38370909 14.0063401 12.29588602 10.75 12.3125 C6.27158938 12.22582108 2.28772377 11.28772377 -1 8 C-1.125 4.5 -1.125 4.5 -1 1 C-0.67 0.67 -0.34 0.34 0 0 Z " fill="#72BCA8" transform="translate(365,248)"/>
<path d="M0 0 C2 1 2 1 2 1 Z M3 1 C2.67 2.32 2.34 3.64 2 5 C-5.26 4.67 -12.52 4.34 -20 4 C-19.67 3.34 -19.34 2.68 -19 2 C-16.08340625 1.83196579 -13.16673658 1.66552033 -10.25 1.5 C-9.0125 1.42845703 -9.0125 1.42845703 -7.75 1.35546875 C-6.55117187 1.28779297 -6.55117187 1.28779297 -5.328125 1.21875 C-4.5949707 1.17685547 -3.86181641 1.13496094 -3.10644531 1.09179688 C-1.07266386 1.00316662 0.96428825 1 3 1 Z " fill="#0A1423" transform="translate(227,203)"/>
<path d="M0 0 C0.33 1.32 0.66 2.64 1 4 C1.66 4 2.32 4 3 4 C3 9.28 3 14.56 3 20 C0 17 0 17 -0.34057617 15.09887695 C-0.32486572 14.40238037 -0.30915527 13.70588379 -0.29296875 12.98828125 C-0.28330078 12.23095703 -0.27363281 11.47363281 -0.26367188 10.69335938 C-0.23853516 9.90767578 -0.21339844 9.12199219 -0.1875 8.3125 C-0.17396484 7.51521484 -0.16042969 6.71792969 -0.14648438 5.89648438 C-0.11117089 3.93070033 -0.05736447 1.96526418 0 0 Z " fill="#0E162D" transform="translate(114,223)"/>
<path d="M0 0 C0.99 0.66 1.98 1.32 3 2 C3 2.66 3 3.32 3 4 C1.21601386 5.28006797 -0.62853906 6.47660351 -2.5 7.625 C-3.5209375 8.25664062 -4.541875 8.88828125 -5.59375 9.5390625 C-6.3878125 10.02117187 -7.181875 10.50328125 -8 11 C-8 9.02 -8 7.04 -8 5 C-6.35 5 -4.7 5 -3 5 C-2.690625 4.360625 -2.38125 3.72125 -2.0625 3.0625 C-1 1 -1 1 0 0 Z " fill="#333B4A" transform="translate(241,168)"/>
<path d="M0 0 C0.66 0.33 1.32 0.66 2 1 C2 7.6 2 14.2 2 21 C1.01 20.67 0.02 20.34 -1 20 C-0.67 14.39 -0.34 8.78 0 3 C-0.66 2.67 -1.32 2.34 -2 2 C-1.34 2 -0.68 2 0 2 C0 1.34 0 0.68 0 0 Z " fill="#3A4050" transform="translate(270,302)"/>
<path d="M0 0 C1.32 0.66 2.64 1.32 4 2 C1.69716746 4.54131358 -0.67313793 6.07110295 -3.6875 7.6875 C-4.89986328 8.34298828 -4.89986328 8.34298828 -6.13671875 9.01171875 C-6.75160156 9.33785156 -7.36648437 9.66398438 -8 10 C-7.44449305 6.40094092 -6.25112752 5.00090201 -3.4375 2.75 C-2.79683594 2.22921875 -2.15617188 1.7084375 -1.49609375 1.171875 C-1.00238281 0.78515625 -0.50867188 0.3984375 0 0 Z " fill="#313948" transform="translate(226,180)"/>
<path d="M0 0 C2.475 0.495 2.475 0.495 5 1 C2.89169466 3.50740841 1.71907875 4.87271731 -1.56542969 5.45410156 C-2.50805664 5.4331543 -3.45068359 5.41220703 -4.421875 5.390625 C-5.95908203 5.37128906 -5.95908203 5.37128906 -7.52734375 5.3515625 C-9.12255859 5.30128906 -9.12255859 5.30128906 -10.75 5.25 C-11.82894531 5.23195313 -12.90789062 5.21390625 -14.01953125 5.1953125 C-16.68058788 5.14821415 -19.33984254 5.082456 -22 5 C-22 4.67 -22 4.34 -22 4 C-20.83082031 3.93941406 -19.66164063 3.87882812 -18.45703125 3.81640625 C-16.90884386 3.73195966 -15.36066732 3.64731375 -13.8125 3.5625 C-13.04357422 3.52318359 -12.27464844 3.48386719 -11.48242188 3.44335938 C-7.56748925 3.22492966 -3.82879312 2.91307892 0 2 C0 1.34 0 0.68 0 0 Z " fill="#7ED3C2" transform="translate(355,283)"/>
<path d="M0 0 C5.94 0.66 11.88 1.32 18 2 C18 2.33 18 2.66 18 3 C11.28837062 3.88021369 4.76594019 4.11381955 -2 4 C-1.34 2.68 -0.68 1.36 0 0 Z " fill="#209F7B" transform="translate(315,271)"/>
<path d="M0 0 C0.33 0 0.66 0 1 0 C1.1356886 2.87659826 1.23440753 5.74673463 1.3125 8.625 C1.35439453 9.43324219 1.39628906 10.24148437 1.43945312 11.07421875 C1.52672872 15.36817779 1.34813157 18.15937161 -1.39453125 21.5859375 C-4 24 -4 24 -6 24 C-6 22.68 -6 21.36 -6 20 C-5.01 20 -4.02 20 -3 20 C-2.67 19.01 -2.34 18.02 -2 17 C-1.34 17 -0.68 17 0 17 C0 11.39 0 5.78 0 0 Z " fill="#7D838D" transform="translate(333,185)"/>
<path d="M0 0 C1.98 0.495 1.98 0.495 4 1 C4 3.64 4 6.28 4 9 C3.01 9.33 2.02 9.66 1 10 C-1.42857143 3.71428571 -1.42857143 3.71428571 0 0 Z " fill="#4A525E" transform="translate(186,252)"/>
<path d="M0 0 C0.66 0.33 1.32 0.66 2 1 C1.01 2.485 1.01 2.485 0 4 C-0.36703674 8.2209225 0.20114028 11.17742309 2 15 C-0.41103827 14.03558469 -1.77404758 13.31202953 -3.3125 11.1875 C-4.20346811 8.35260147 -3.91509236 6.81566879 -3 4 C-1.4375 1.6875 -1.4375 1.6875 0 0 Z " fill="#68B8BA" transform="translate(304,244)"/>
<path d="M0 0 C0 5.28 0 10.56 0 16 C-0.33 16 -0.66 16 -1 16 C-1.66 11.38 -2.32 6.76 -3 2 C-6.63 2 -10.26 2 -14 2 C-9.43362969 -1.04424687 -5.43284541 -0.12783166 0 0 Z " fill="#838C9B" transform="translate(176,287)"/>
<path d="M0 0 C-0.66 1.32 -1.32 2.64 -2 4 C-3.93719378 4.05406122 -5.87481921 4.09282025 -7.8125 4.125 C-8.89144531 4.14820313 -9.97039062 4.17140625 -11.08203125 4.1953125 C-14 4 -14 4 -17 2 C-16.15695313 1.93941406 -15.31390625 1.87882812 -14.4453125 1.81640625 C-13.34960938 1.73261719 -12.25390625 1.64882813 -11.125 1.5625 C-10.03445312 1.48128906 -8.94390625 1.40007812 -7.8203125 1.31640625 C-4.81774102 0.97955266 -3.05142118 0 0 0 Z " fill="#2B313C" transform="translate(230,346)"/>
<path d="M0 0 C3 2 3 2 4 5.3125 C4 9 4 9 1.5625 11.9375 C0.716875 12.618125 -0.12875 13.29875 -1 14 C-1.66 13.67 -2.32 13.34 -3 13 C-2.67 12.34 -2.34 11.68 -2 11 C-1.01 11 -0.02 11 1 11 C0.67 7.37 0.34 3.74 0 0 Z " fill="#60B6D6" transform="translate(383,217)"/>
<path d="M0 0 C0.66 0.33 1.32 0.66 2 1 C1.625 2.9375 1.625 2.9375 1 5 C0.01 5.495 0.01 5.495 -1 6 C-0.67 6.66 -0.34 7.32 0 8 C-0.66 8 -1.32 8 -2 8 C-1.67 12.29 -1.34 16.58 -1 21 C-2.98242978 17.03514044 -3.29628009 15.34996383 -3.3125 11.0625 C-3.32925781 10.04285156 -3.34601563 9.02320313 -3.36328125 7.97265625 C-2.95494192 4.63129895 -1.91007169 2.73659348 0 0 Z " fill="#636776" transform="translate(152,259)"/>
<path d="M0 0 C0 0.99 0 1.98 0 3 C0.99 3.33 1.98 3.66 3 4 C-1.32059823 5.09845718 -5.61667943 6.17812739 -10 7 C-9.09827532 5.82174642 -8.17798498 4.65768423 -7.25 3.5 C-6.73953125 2.8503125 -6.2290625 2.200625 -5.703125 1.53125 C-4 0 -4 0 0 0 Z " fill="#0E1625" transform="translate(289,178)"/>
<path d="M0 0 C-1.37465556 4.12396668 -3.21503924 4.96733589 -7 7 C-10.875 7.25 -10.875 7.25 -14 7 C-11.79459886 4.79459886 -9.78605258 3.7599273 -7 2.375 C-6.113125 1.92898438 -5.22625 1.48296875 -4.3125 1.0234375 C-2 0 -2 0 0 0 Z " fill="#4F5564" transform="translate(304,312)"/>
<path d="M0 0 C1.32 0.33 2.64 0.66 4 1 C4.33 2.32 4.66 3.64 5 5 C4.67 5 4.34 5 4 5 C3.34 7.31 2.68 9.62 2 12 C1.855625 11.38125 1.71125 10.7625 1.5625 10.125 C1.06847775 7.96741678 1.06847775 7.96741678 0 6 C-0.039992 4.00039988 -0.04346799 1.99952758 0 0 Z " fill="#0B1625" transform="translate(114,319)"/>
<path d="M0 0 C0.66 0.33 1.32 0.66 2 1 C3.31502187 6.63126301 3.38963443 11.65846422 1 17 C0.34 16.67 -0.32 16.34 -1 16 C-1.08113594 12.43001875 -0.86043218 9.44172871 0 6 C0.03845443 4.00036972 0.04544281 1.99948367 0 0 Z " fill="#2C3342" transform="translate(208,236)"/>
<path d="M0 0 C3.3 0 6.6 0 10 0 C10 0.99 10 1.98 10 3 C6.7 3 3.4 3 0 3 C0 2.01 0 1.02 0 0 Z " fill="#2D323D" transform="translate(136,347)"/>
<path d="M0 0 C1.65 0 3.3 0 5 0 C4.01 0.495 4.01 0.495 3 1 C2.27306096 2.97888961 1.60183749 4.97954558 1 7 C-0.32 7 -1.64 7 -3 7 C-3.33 7.66 -3.66 8.32 -4 9 C-4.66 8.67 -5.32 8.34 -6 8 C-6 7.34 -6 6.68 -6 6 C-4.02 5.67 -2.04 5.34 0 5 C-0.33 4.01 -0.66 3.02 -1 2 C-0.67 1.34 -0.34 0.68 0 0 Z " fill="#0E1629" transform="translate(271,188)"/>
<path d="M0 0 C2 2 2 2 2 5 C2.66 5 3.32 5 4 5 C4.33 7.97 4.66 10.94 5 14 C1.19239518 10.19239518 0.0554488 8.66346398 -0.125 3.25 C-0.08375 2.1775 -0.0425 1.105 0 0 Z " fill="#373F4C" transform="translate(114,325)"/>
<path d="M0 0 C-1.125 1.5 -1.125 1.5 -3 3 C-6.53950857 3.45185216 -8.33326715 3.42109443 -11.375 1.5 C-11.91125 1.005 -12.4475 0.51 -13 0 C-8.38926889 -1.29676812 -4.66159911 -0.71109139 0 0 Z " fill="#0A1629" transform="translate(178,193)"/>
<path d="M0 0 C0.66 0 1.32 0 2 0 C1.75 3.375 1.75 3.375 1 7 C-1.0625 8.4375 -1.0625 8.4375 -3 9 C-3.66 8.34 -4.32 7.68 -5 7 C-4.01 7 -3.02 7 -2 7 C-1.855625 6.21625 -1.71125 5.4325 -1.5625 4.625 C-1 2 -1 2 0 0 Z " fill="#51AF9C" transform="translate(385,249)"/>
<path d="M0 0 C0.680625 0.309375 1.36125 0.61875 2.0625 0.9375 C5.36965912 2.13370649 8.51545878 2.59005397 12 3 C12 3.33 12 3.66 12 4 C6.72 4 1.44 4 -4 4 C-2.68 2.68 -1.36 1.36 0 0 Z " fill="#0B1526" transform="translate(203,161)"/>
<path d="M0 0 C0.33 0.66 0.66 1.32 1 2 C0.67 2.66 0.34 3.32 0 4 C-0.66 4 -1.32 4 -2 4 C-2 4.66 -2 5.32 -2 6 C-0.68 5.67 0.64 5.34 2 5 C1.67 6.65 1.34 8.3 1 10 C0.01 10 -0.98 10 -2 10 C-2.6875 6.6875 -2.6875 6.6875 -3 3 C-1.5625 1.0625 -1.5625 1.0625 0 0 Z " fill="#19A67C" transform="translate(305,275)"/>
<path d="M0 0 C3.96 0 7.92 0 12 0 C12 0.33 12 0.66 12 1 C9.69 1.33 7.38 1.66 5 2 C5.33 3.32 5.66 4.64 6 6 C4.68 6 3.36 6 2 6 C1.34 4.02 0.68 2.04 0 0 Z " fill="#4B5368" transform="translate(219,192)"/>
<path d="M0 0 C-0.0625 1.8125 -0.0625 1.8125 -1 4 C-4.4375 5.8125 -4.4375 5.8125 -8 7 C-8.66 6.67 -9.32 6.34 -10 6 C-8.71283353 4.99421411 -7.42011342 3.99553202 -6.125 3 C-5.40570313 2.443125 -4.68640625 1.88625 -3.9453125 1.3125 C-2 0 -2 0 0 0 Z " fill="#4D555F" transform="translate(298,170)"/>
<path d="M0 0 C0.33 0.66 0.66 1.32 1 2 C3.97 2 6.94 2 10 2 C9.67 2.66 9.34 3.32 9 4 C8.071875 3.979375 7.14375 3.95875 6.1875 3.9375 C2.97713989 3.84230396 2.97713989 3.84230396 0 5 C-0.66 4.67 -1.32 4.34 -2 4 C-2 3.34 -2 2.68 -2 2 C-1.34 2 -0.68 2 0 2 C0 1.34 0 0.68 0 0 Z " fill="#0A1526" transform="translate(240,191)"/>
<path d="M0 0 C1.9375 0.375 1.9375 0.375 4 1 C4.33 1.66 4.66 2.32 5 3 C6.88764903 3.68472665 6.88764903 3.68472665 9.0625 4.125 C9.79597656 4.29257812 10.52945313 4.46015625 11.28515625 4.6328125 C11.85105469 4.75398438 12.41695312 4.87515625 13 5 C13 5.33 13 5.66 13 6 C11.39504433 5.88557539 9.79101881 5.75805306 8.1875 5.625 C7.29417969 5.55539062 6.40085938 5.48578125 5.48046875 5.4140625 C3 5 3 5 0 3 C0 2.01 0 1.02 0 0 Z " fill="#4C5964" transform="translate(182,309)"/>
<path d="M0 0 C0.66 0.33 1.32 0.66 2 1 C1.67 1.515625 1.34 2.03125 1 2.5625 C-0.32010877 5.78026512 -0.13242105 8.5570528 0 12 C-1.5625 10.9375 -1.5625 10.9375 -3 9 C-2.66666667 2.66666667 -2.66666667 2.66666667 0 0 Z " fill="#60BBA8" transform="translate(303,273)"/>
<path d="M0 0 C0.33 0 0.66 0 1 0 C1.33 3.96 1.66 7.92 2 12 C1.01 12.33 0.02 12.66 -1 13 C-1.0272415 11.58344207 -1.04650467 10.16672955 -1.0625 8.75 C-1.07410156 7.96109375 -1.08570313 7.1721875 -1.09765625 6.359375 C-1.00385306 4.09308998 -0.63241063 2.1711105 0 0 Z " fill="#101828" transform="translate(198,287)"/>
<path d="M0 0 C3 1 3 1 5 4 C4.625 7.6875 4.625 7.6875 4 11 C3.67 11 3.34 11 3 11 C3 9.02 3 7.04 3 5 C2.34 4.67 1.68 4.34 1 4 C0.375 1.9375 0.375 1.9375 0 0 Z " fill="#6FBDA3" transform="translate(357,273)"/>
<path d="M0 0 C1.98 0 3.96 0 6 0 C5.67 0.99 5.34 1.98 5 3 C4.34 3 3.68 3 3 3 C2.67 3.66 2.34 4.32 2 5 C-0.0625 5.625 -0.0625 5.625 -2 6 C-2 5.01 -2 4.02 -2 3 C-1.34 2.67 -0.68 2.34 0 2 C0 1.34 0 0.68 0 0 Z " fill="#091527" transform="translate(151,170)"/>
<path d="M0 0 C0.33 0.66 0.66 1.32 1 2 C-2.79267192 2.9360342 -5.93674565 2.98276252 -9.8125 2.5625 C-10.78832031 2.46066406 -11.76414063 2.35882813 -12.76953125 2.25390625 C-13.87361328 2.12822266 -13.87361328 2.12822266 -15 2 C-15 1.67 -15 1.34 -15 1 C-13.43784452 0.83013455 -11.8752548 0.66426036 -10.3125 0.5 C-9.44238281 0.4071875 -8.57226562 0.314375 -7.67578125 0.21875 C-5.10276661 0.00840136 -2.58015636 -0.03719144 0 0 Z " fill="#0E192C" transform="translate(191,346)"/>
<path d="M0 0 C0.99 0 1.98 0 3 0 C4.22329074 3.66987221 3.88021006 6.33967822 3.5625 10.1875 C3.46066406 11.45980469 3.35882813 12.73210937 3.25390625 14.04296875 C3.12822266 15.50669922 3.12822266 15.50669922 3 17 C2.67 17 2.34 17 2 17 C1.93941406 16.02417969 1.87882812 15.04835938 1.81640625 14.04296875 C1.73261719 12.77066406 1.64882813 11.49835938 1.5625 10.1875 C1.48128906 8.92292969 1.40007812 7.65835937 1.31640625 6.35546875 C1.12815453 3.00818107 1.12815453 3.00818107 0 0 Z " fill="#0D1931" transform="translate(267,253)"/>
<path d="M0 0 C0.66 0.33 1.32 0.66 2 1 C0.7260411 3.03833424 -0.61061923 5.03852126 -2 7 C-2.66 7 -3.32 7 -4 7 C-4.33 5.68 -4.66 4.36 -5 3 C-2.625 1.4375 -2.625 1.4375 0 0 Z " fill="#2E3443" transform="translate(138,179)"/>
<path d="M0 0 C0.99 0.33 1.98 0.66 3 1 C2.67 2.65 2.34 4.3 2 6 C-0.31 5.67 -2.62 5.34 -5 5 C-3.625 3.5 -3.625 3.5 -2 2 C-1.34 2 -0.68 2 0 2 C0 1.34 0 0.68 0 0 Z " fill="#3D4354" transform="translate(209,177)"/>
<path d="M0 0 C2.64 0 5.28 0 8 0 C8 0.66 8 1.32 8 2 C5.36 2.66 2.72 3.32 0 4 C0 2.68 0 1.36 0 0 Z " fill="#0D1627" transform="translate(186,228)"/>
<path d="M0 0 C1.32 0 2.64 0 4 0 C4.33 1.98 4.66 3.96 5 6 C3.02 5.34 1.04 4.68 -1 4 C-0.67 2.68 -0.34 1.36 0 0 Z " fill="#159AD0" transform="translate(379,217)"/>
<path d="M0 0 C0.66 0.33 1.32 0.66 2 1 C2 1.99 2 2.98 2 4 C0.88625 4.474375 -0.2275 4.94875 -1.375 5.4375 C-3.26710994 6.25306463 -5.15712709 7.07856355 -7 8 C-5.50902342 4.2047869 -3.24299151 2.38957269 0 0 Z " fill="#3A3F50" transform="translate(269,189)"/>
<path d="M0 0 C2.31 0.33 4.62 0.66 7 1 C4.09907498 2.93395001 3.10325263 3.30131941 -0.1875 3.625 C-1.445625 3.74875 -2.70375 3.8725 -4 4 C-3.01 3.67 -2.02 3.34 -1 3 C-0.67 2.01 -0.34 1.02 0 0 Z " fill="#3E434D" transform="translate(264,344)"/>
<path d="M0 0 C0.66 0 1.32 0 2 0 C3.15837626 4.05431692 2.83691257 6.21812119 1 10 C0.34 9.34 -0.32 8.68 -1 8 C-0.625 6.125 -0.625 6.125 0 4 C0 2.68 0 1.36 0 0 Z " fill="#65BABC" transform="translate(353,247)"/>
<path d="M0 0 C0.33 0.66 0.66 1.32 1 2 C-3.455 4.97 -3.455 4.97 -8 8 C-8.66 7.34 -9.32 6.68 -10 6 C-6.7 4.02 -3.4 2.04 0 0 Z " fill="#2F4451" transform="translate(162,163)"/>
<path d="M0 0 C2.4375 0.8125 2.4375 0.8125 5 2 C5.33 2.99 5.66 3.98 6 5 C5.34 5.66 4.68 6.32 4 7 C2.02 3.535 2.02 3.535 0 0 Z " fill="#323849" transform="translate(176,303)"/>
<path d="M0 0 C1.65 0.33 3.3 0.66 5 1 C4.01 2.485 4.01 2.485 3 4 C0.375 4.1875 0.375 4.1875 -2 4 C-1.34 2.68 -0.68 1.36 0 0 Z " fill="#0A1729" transform="translate(210,285)"/>
<path d="M0 0 C0.99 0.66 1.98 1.32 3 2 C2.34 2 1.68 2 1 2 C1 4.97 1 7.94 1 11 C0.01 10.67 -0.98 10.34 -2 10 C-1.34 6.7 -0.68 3.4 0 0 Z " fill="#0D1726" transform="translate(187,240)"/>
<path d="M0 0 C0.99 0 1.98 0 3 0 C3.33 2.64 3.66 5.28 4 8 C3.01 8.495 3.01 8.495 2 9 C0 3.375 0 3.375 0 0 Z " fill="#0D192C" transform="translate(205,236)"/>
<path d="M0 0 C0.28875 0.639375 0.5775 1.27875 0.875 1.9375 C1.82823451 4.15206079 1.82823451 4.15206079 4 5 C3.34 5.66 2.68 6.32 2 7 C1.01 6.67 0.02 6.34 -1 6 C-1.042721 4.33388095 -1.04063832 2.66617115 -1 1 C-0.67 0.67 -0.34 0.34 0 0 Z " fill="#0C142A" transform="translate(218,191)"/>
<path d="M0 0 C5.57142857 5.14285714 5.57142857 5.14285714 6 9 C5.01 8.67 4.02 8.34 3 8 C3 7.01 3 6.02 3 5 C2.01 4.67 1.02 4.34 0 4 C0 2.68 0 1.36 0 0 Z " fill="#565B69" transform="translate(324,157)"/>
<path d="M0 0 C0.99 1.32 1.98 2.64 3 4 C0.36 4.33 -2.28 4.66 -5 5 C-4.67 4.34 -4.34 3.68 -4 3 C-1.9375 2.375 -1.9375 2.375 0 2 C0 1.34 0 0.68 0 0 Z " fill="#0D1829" transform="translate(281,336)"/>
<path d="M0 0 C0.66 0.33 1.32 0.66 2 1 C1.67 1.99 1.34 2.98 1 4 C-1.64 4.33 -4.28 4.66 -7 5 C-4.702779 3.25728062 -2.40133271 1.60088848 0 0 Z " fill="#515968" transform="translate(283,322)"/>
<path d="M0 0 C1.98 0.66 3.96 1.32 6 2 C5.67 2.66 5.34 3.32 5 4 C2.4375 4.625 2.4375 4.625 0 5 C0 4.34 0 3.68 0 3 C-0.66 2.67 -1.32 2.34 -2 2 C-1.34 2 -0.68 2 0 2 C0 1.34 0 0.68 0 0 Z " fill="#1D2839" transform="translate(267,321)"/>
<path d="M0 0 C0.66 1.32 1.32 2.64 2 4 C1.01 5.485 1.01 5.485 0 7 C-0.66 7 -1.32 7 -2 7 C-2.125 4.625 -2.125 4.625 -2 2 C-1.34 1.34 -0.68 0.68 0 0 Z " fill="#3A414D" transform="translate(198,242)"/>
<path d="M0 0 C2.97 0 5.94 0 9 0 C9.66 1.32 10.32 2.64 11 4 C9.68 4 8.36 4 7 4 C7 3.01 7 2.02 7 1 C4.69 1 2.38 1 0 1 C0 0.67 0 0.34 0 0 Z " fill="#343A4C" transform="translate(187,227)"/>
<path d="M0 0 C-0.33 0.66 -0.66 1.32 -1 2 C-4.96 1.67 -8.92 1.34 -13 1 C-13 0.67 -13 0.34 -13 0 C-11.39679026 -0.19551338 -9.79237014 -0.38111983 -8.1875 -0.5625 C-7.29417969 -0.66691406 -6.40085937 -0.77132812 -5.48046875 -0.87890625 C-3 -1 -3 -1 0 0 Z " fill="#0B1425" transform="translate(310,152)"/>
<path d="M0 0 C1.20628008 2.33214148 2.1654738 4.49642139 3 7 C1.02 7.33 -0.96 7.66 -3 8 C-2.01 5.36 -1.02 2.72 0 0 Z " fill="#4A526C" transform="translate(317,298)"/>
<path d="M0 0 C-4 2 -4 2 -8 4 C-8.66 3.34 -9.32 2.68 -10 2 C-6.3558226 -0.4294516 -4.28758728 -0.16179575 0 0 Z " fill="#7E8390" transform="translate(328,294)"/>
<path d="M0 0 C0.33 0 0.66 0 1 0 C1.33 2.97 1.66 5.94 2 9 C1.01 9.33 0.02 9.66 -1 10 C-0.67 6.7 -0.34 3.4 0 0 Z " fill="#2C3B4E" transform="translate(162,268)"/>
<path d="M0 0 C1.625 1.6875 1.625 1.6875 3 4 C2.1875 6.75 2.1875 6.75 1 9 C0.67 9 0.34 9 0 9 C-0.87890625 2.84765625 -0.87890625 2.84765625 -1 1 C-0.67 0.67 -0.34 0.34 0 0 Z " fill="#2B3542" transform="translate(257,217)"/>
<path d="M0 0 C0.66 0.33 1.32 0.66 2 1 C2.625 3.5625 2.625 3.5625 3 6 C1.68 6 0.36 6 -1 6 C-0.67 4.02 -0.34 2.04 0 0 Z " fill="#62687A" transform="translate(270,209)"/>
<path d="M0 0 C0 0.66 0 1.32 0 2 C-2.31 2.33 -4.62 2.66 -7 3 C-6.67 2.01 -6.34 1.02 -6 0 C-3.42525708 -0.99667468 -2.51072708 -1.25536354 0 0 Z " fill="#0F172D" transform="translate(249,204)"/>
<path d="M0 0 C0 0.33 0 0.66 0 1 C-2.64 1.33 -5.28 1.66 -8 2 C-8.33 1.01 -8.66 0.02 -9 -1 C-5.38055101 -2.34053666 -3.42632833 -1.61798838 0 0 Z " fill="#0D1525" transform="translate(299,164)"/>
<path d="M0 0 C1.65 0.33 3.3 0.66 5 1 C4.34 2.65 3.68 4.3 3 6 C0 4 0 4 -1 2 C-0.67 1.34 -0.34 0.68 0 0 Z " fill="#313A4E" transform="translate(314,152)"/>
</svg>
